  0
SECTION
  2
HEADER
  9
$ACADVER
  1
AC1009
  9
$INSBASE
 10
0.0
 20
0.0
 30
0.0
  9
$EXTMIN
 10
36.430913247757417
 20
-20.14811635152418
 30
0.0
  9
$EXTMAX
 10
373.04299457448531
 20
351.60537793126792
 30
0.0
  9
$LIMMIN
 10
0.0
 20
0.0
  9
$LIMMAX
 10
420.0
 20
297.0
  9
$ORTHOMODE
 70
     0
  9
$REGENMODE
 70
     1
  9
$FILLMODE
 70
     1
  9
$QTEXTMODE
 70
     0
  9
$MIRRTEXT
 70
     0
  9
$DRAGMODE
 70
     2
  9
$LTSCALE
 40
1.0
  9
$OSMODE
 70
    37
  9
$ATTMODE
 70
     1
  9
$TEXTSIZE
 40
2.5
  9
$TRACEWID
 40
1.0
  9
$TEXTSTYLE
  7
STANDARD
  9
$CLAYER
  8
0
  9
$CELTYPE
  6
BYLAYER
  9
$CECOLOR
 62
   256
  9
$DIMSCALE
 40
1.0
  9
$DIMASZ
 40
2.5
  9
$DIMEXO
 40
0.625
  9
$DIMDLI
 40
3.75
  9
$DIMRND
 40
0.0
  9
$DIMDLE
 40
0.0
  9
$DIMEXE
 40
1.25
  9
$DIMTP
 40
0.0
  9
$DIMTM
 40
0.0
  9
$DIMTXT
 40
2.5
  9
$DIMCEN
 40
2.5
  9
$DIMTSZ
 40
0.0
  9
$DIMTOL
 70
     0
  9
$DIMLIM
 70
     0
  9
$DIMTIH
 70
     0
  9
$DIMTOH
 70
     0
  9
$DIMSE1
 70
     0
  9
$DIMSE2
 70
     0
  9
$DIMTAD
 70
     1
  9
$DIMZIN
 70
     8
  9
$DIMBLK
  1

  9
$DIMASO
 70
     1
  9
$DIMSHO
 70
     1
  9
$DIMPOST
  1

  9
$DIMAPOST
  1

  9
$DIMALT
 70
     0
  9
$DIMALTD
 70
     3
  9
$DIMALTF
 40
0.03937007874016
  9
$DIMLFAC
 40
1.0
  9
$DIMTOFL
 70
     1
  9
$DIMTVP
 40
0.0
  9
$DIMTIX
 70
     0
  9
$DIMSOXD
 70
     0
  9
$DIMSAH
 70
     0
  9
$DIMBLK1
  1

  9
$DIMBLK2
  1

  9
$DIMSTYLE
  2
ISO-25
  9
$DIMCLRD
 70
     0
  9
$DIMCLRE
 70
     0
  9
$DIMCLRT
 70
     0
  9
$DIMTFAC
 40
1.0
  9
$DIMGAP
 40
0.625
  9
$LUNITS
 70
     2
  9
$LUPREC
 70
     4
  9
$SKETCHINC
 40
1.0
  9
$FILLETRAD
 40
0.0
  9
$AUNITS
 70
     0
  9
$AUPREC
 70
     0
  9
$MENU
  1
.
  9
$ELEVATION
 40
0.0
  9
$PELEVATION
 40
0.0
  9
$THICKNESS
 40
0.0
  9
$LIMCHECK
 70
     0
  9
$BLIPMODE
 70
     0
  9
$CHAMFERA
 40
0.0
  9
$CHAMFERB
 40
0.0
  9
$SKPOLY
 70
     0
  9
$TDCREATE
 40
2457412.560327176
  9
$TDUPDATE
 40
2457415.6257839822
  9
$TDINDWG
 40
0.0386666782
  9
$TDUSRTIMER
 40
0.0386666204
  9
$USRTIMER
 70
     1
  9
$ANGBASE
 50
0.0
  9
$ANGDIR
 70
     0
  9
$PDMODE
 70
     0
  9
$PDSIZE
 40
0.0
  9
$PLINEWID
 40
0.0
  9
$COORDS
 70
     1
  9
$SPLFRAME
 70
     0
  9
$SPLINETYPE
 70
     6
  9
$SPLINESEGS
 70
     8
  9
$ATTDIA
 70
     0
  9
$ATTREQ
 70
     1
  9
$HANDLING
 70
     1
  9
$HANDSEED
  5
37D
  9
$SURFTAB1
 70
     6
  9
$SURFTAB2
 70
     6
  9
$SURFTYPE
 70
     6
  9
$SURFU
 70
     6
  9
$SURFV
 70
     6
  9
$UCSNAME
  2

  9
$UCSORG
 10
0.0
 20
0.0
 30
0.0
  9
$UCSXDIR
 10
1.0
 20
0.0
 30
0.0
  9
$UCSYDIR
 10
0.0
 20
1.0
 30
0.0
  9
$PUCSNAME
  2

  9
$PUCSORG
 10
0.0
 20
0.0
 30
0.0
  9
$PUCSXDIR
 10
1.0
 20
0.0
 30
0.0
  9
$PUCSYDIR
 10
0.0
 20
1.0
 30
0.0
  9
$USERI1
 70
     0
  9
$USERI2
 70
     0
  9
$USERI3
 70
     0
  9
$USERI4
 70
     0
  9
$USERI5
 70
     0
  9
$USERR1
 40
0.0
  9
$USERR2
 40
0.0
  9
$USERR3
 40
0.0
  9
$USERR4
 40
0.0
  9
$USERR5
 40
0.0
  9
$WORLDVIEW
 70
     1
  9
$SHADEDGE
 70
     3
  9
$SHADEDIF
 70
    70
  9
$TILEMODE
 70
     1
  9
$MAXACTVP
 70
    64
  9
$PLIMCHECK
 70
     0
  9
$PEXTMIN
 10
0.0
 20
0.0
 30
0.0
  9
$PEXTMAX
 10
0.0
 20
0.0
 30
0.0
  9
$PLIMMIN
 10
0.0
 20
0.0
  9
$PLIMMAX
 10
12.0
 20
9.0
  9
$UNITMODE
 70
     0
  9
$VISRETAIN
 70
     1
  9
$PLINEGEN
 70
     0
  9
$PSLTSCALE
 70
     1
  0
ENDSEC
  0
SECTION
  2
TABLES
  0
TABLE
  2
VPORT
 70
     1
  0
VPORT
  2
*ACTIVE
 70
     0
 10
0.0
 20
0.0
 11
1.0
 21
1.0
 12
212.75165497247551
 22
151.36287352889539
 13
0.0
 23
0.0
 14
10.0
 24
10.0
 15
10.0
 25
10.0
 16
0.0
 26
0.0
 36
1.0
 17
0.0
 27
0.0
 37
0.0
 40
566.47635770003706
 41
2.5344506517690868
 42
50.0
 43
0.0
 44
0.0
 50
0.0
 51
0.0
 71
     0
 72
  1000
 73
     1
 74
     3
 75
     0
 76
     1
 77
     0
 78
     0
  0
ENDTAB
  0
TABLE
  2
LTYPE
 70
     6
  0
LTYPE
  2
CONTINUOUS
 70
     0
  3
Solid line
 72
    65
 73
     0
 40
0.0
  0
LTYPE
  2
HIDDEN
 70
     0
  3
Hidden __ __ __ __ __ __ __ __ __ __ __ __ __ __
 72
    65
 73
     2
 40
1.905
 49
1.27
 49
-0.635
  0
LTYPE
  2
PHANTOM
 70
     0
  3
Phantom ______  __  __  ______  __  __  ______
 72
    65
 73
     6
 40
12.699999999999999
 49
6.3499999999999988
 49
-1.27
 49
1.27
 49
-1.27
 49
1.27
 49
-1.27
  0
LTYPE
  2
CENTER
 70
     0
  3
Center ____ _ ____ _ ____ _ ____ _ ____ _ ____
 72
    65
 73
     4
 40
10.16
 49
6.3499999999999988
 49
-1.27
 49
1.27
 49
-1.27
  0
LTYPE
  2
CENTERX2
 70
     0
  3
Center (2x) ________  __  ________  __  _____
 72
    65
 73
     4
 40
20.32
 49
12.699999999999999
 49
-2.54
 49
2.54
 49
-2.54
  0
LTYPE
  2
DOT2
 70
     0
  3
Dot (.5x) ........................................
 72
    65
 73
     2
 40
0.635
 49
0.0
 49
-0.635
  0
ENDTAB
  0
TABLE
  2
LAYER
 70
     1
  0
LAYER
  2
0
 70
     0
 62
     7
  6
CONTINUOUS
  0
ENDTAB
  0
TABLE
  2
STYLE
 70
     2
  0
STYLE
  2
STANDARD
 70
     0
 40
0.0
 41
1.0
 50
0.0
 71
     0
 42
2.5
  3
txt
  4

  0
STYLE
  2
ANNOTATIF
 70
     0
 40
0.0
 41
1.0
 50
0.0
 71
     0
 42
2.5
  3
txt
  4

  0
ENDTAB
  0
TABLE
  2
VIEW
 70
     2
  0
ENDTAB
  0
TABLE
  2
UCS
 70
     0
  0
ENDTAB
  0
TABLE
  2
APPID
 70
     7
  0
APPID
  2
ACAD
 70
     0
  0
APPID
  2
ACAD_PSEXT
 70
     0
  0
APPID
  2
ACADANNOPO
 70
     0
  0
APPID
  2
ACADANNOTATIVE
 70
     0
  0
APPID
  2
ACAD_DSTYLE_DIMJAG
 70
     0
  0
APPID
  2
ACAD_DSTYLE_DIMTALN
 70
     0
  0
APPID
  2
ACAD_MLEADERVER
 70
     0
  0
ENDTAB
  0
TABLE
  2
DIMSTYLE
 70
     3
  0
DIMSTYLE
  2
STANDARD
 70
     0
  3

  4

  5

  6

  7

 40
1.0
 41
0.18
 42
0.0625
 43
0.38
 44
0.18
 45
0.0
 46
0.0
 47
0.0
 48
0.0
140
0.18
141
0.09
142
0.0
143
25.399999999999999
144
1.0
145
0.0
146
1.0
147
0.09
 71
     0
 72
     0
 73
     1
 74
     1
 75
     0
 76
     0
 77
     0
 78
     0
170
     0
171
     2
172
     0
173
     0
174
     0
175
     0
176
     0
177
     0
178
     0
  0
DIMSTYLE
  2
ANNOTATIF
 70
     0
  3

  4

  5

  6

  7

 40
0.0
 41
2.5
 42
0.625
 43
3.75
 44
1.25
 45
0.0
 46
0.0
 47
0.0
 48
0.0
140
2.5
141
2.5
142
0.0
143
0.03937007874016
144
1.0
145
0.0
146
1.0
147
0.625
 71
     0
 72
     0
 73
     0
 74
     0
 75
     0
 76
     0
 77
     1
 78
     8
170
     0
171
     3
172
     1
173
     0
174
     0
175
     0
176
     0
177
     0
178
     0
  0
DIMSTYLE
  2
ISO-25
 70
     0
  3

  4

  5

  6

  7

 40
1.0
 41
2.5
 42
0.625
 43
3.75
 44
1.25
 45
0.0
 46
0.0
 47
0.0
 48
0.0
140
2.5
141
2.5
142
0.0
143
0.03937007874016
144
1.0
145
0.0
146
1.0
147
0.625
 71
     0
 72
     0
 73
     0
 74
     0
 75
     0
 76
     0
 77
     1
 78
     8
170
     0
171
     3
172
     1
173
     0
174
     0
175
     0
176
     0
177
     0
178
     0
  0
ENDTAB
  0
ENDSEC
  0
SECTION
  2
BLOCKS
  0
BLOCK
  8
0
  2
$MODEL_SPACE
 70
     0
 10
0.0
 20
0.0
 30
0.0
  3
$MODEL_SPACE
  1

  0
ENDBLK
  5
21
  8
0
  0
BLOCK
 67
     1
  8
0
  2
$PAPER_SPACE
 70
     0
 10
0.0
 20
0.0
 30
0.0
  3
$PAPER_SPACE
  1

  0
ENDBLK
  5
D5
 67
     1
  8
0
  0
BLOCK
  8
0
  2
RENFORT_BLOC_MOTEUR
 70
     0
 10
0.0
 20
0.0
 30
0.0
  3
RENFORT_BLOC_MOTEUR
  1

  0
CIRCLE
  5
22A
  8
0
  6
CONTINUOUS
 62
     7
 10
-78.5
 20
-21.0
 30
0.0
 40
1.9999999999999949
  0
CIRCLE
  5
22B
  8
0
  6
CONTINUOUS
 62
     7
 10
-78.5
 20
21.0
 30
0.0
 40
1.9999999999999929
  0
CIRCLE
  5
22C
  8
0
  6
CONTINUOUS
 62
     7
 10
78.5
 20
-21.0
 30
0.0
 40
1.9999999999999929
  0
CIRCLE
  5
22D
  8
0
  6
CONTINUOUS
 62
     7
 10
78.5
 20
21.0
 30
0.0
 40
1.9999999999999949
  0
LINE
  5
22E
  8
0
  6
CONTINUOUS
 62
     7
 10
-71.0
 20
27.5
 30
0.0
 11
-71.0
 21
-27.5
 31
0.0
  0
LINE
  5
22F
  8
0
  6
CONTINUOUS
 62
     7
 10
71.0
 20
-27.5
 30
0.0
 11
71.0
 21
27.5
 31
0.0
  0
LINE
  5
230
  8
0
  6
CONTINUOUS
 62
     7
 10
-86.0
 20
-27.5
 30
0.0
 11
86.0
 21
-27.5
 31
0.0
  0
LINE
  5
231
  8
0
  6
CONTINUOUS
 62
     7
 10
86.0
 20
27.5
 30
0.0
 11
-86.0
 21
27.5
 31
0.0
  0
LINE
  5
232
  8
0
  6
CONTINUOUS
 62
     7
 10
-86.0
 20
27.5
 30
0.0
 11
-86.0
 21
-27.5
 31
0.0
  0
LINE
  5
233
  8
0
  6
CONTINUOUS
 62
     7
 10
86.0
 20
-27.5
 30
0.0
 11
86.0
 21
27.5
 31
0.0
  0
ENDBLK
  5
235
  8
0
  0
BLOCK
  8
0
  2
SUPPORT_CAGE_A_BILLE
 70
     0
 10
0.0
 20
0.0
 30
0.0
  3
SUPPORT_CAGE_A_BILLE
  1

  0
CIRCLE
  5
23A
  8
0
  6
CONTINUOUS
 62
     7
 10
0.0
 20
-15.799586654000001
 30
0.0
 40
3.650000000000011
  0
CIRCLE
  5
23B
  8
0
  6
CONTINUOUS
 62
     7
 10
0.0
 20
-1.0720833579999991
 30
0.0
 40
1.399999999999999
  0
CIRCLE
  5
23C
  8
0
  6
CONTINUOUS
 62
     7
 10
0.0
 20
13.927916642
 30
0.0
 40
1.399999999999995
  0
LINE
  5
23D
  8
0
  6
CONTINUOUS
 62
     7
 10
5.0
 20
18.927916642
 30
0.0
 11
-5.0
 21
18.927916642
 31
0.0
  0
LINE
  5
23E
  8
0
  6
CONTINUOUS
 62
     7
 10
5.0
 20
-11.072083358
 30
0.0
 11
5.0
 21
18.927916642
 31
0.0
  0
LINE
  5
23F
  8
0
  6
CONTINUOUS
 62
     7
 10
-5.0
 20
18.927916642
 30
0.0
 11
-5.0
 21
-11.072083358
 31
0.0
  0
ARC
  5
240
  8
0
  6
CONTINUOUS
 62
     7
 10
0.0
 20
-15.9710628436
 30
0.0
 40
7.0000000000000089
 50
135.58469140279999
 51
44.415308597200003
  0
ENDBLK
  5
242
  8
0
  0
BLOCK
  8
0
  2
SUPPORT_AX12
 70
     0
 10
0.0
 20
0.0
 30
0.0
  3
SUPPORT_AX12
  1

  0
CIRCLE
  5
248
  8
0
  6
CONTINUOUS
 62
     7
 10
-100.1804977293
 20
8.8931228372999982
 30
0.0
 40
1.1494241004876919
  0
CIRCLE
  5
249
  8
0
  6
CONTINUOUS
 62
     7
 10
-84.181244082399999
 20
8.7875286655
 30
0.0
 40
1.149424100487721
  0
CIRCLE
  5
24A
  8
0
  6
CONTINUOUS
 62
     7
 10
-84.291224855999999
 20
-7.1995523225999989
 30
0.0
 40
1.1494241004876919
  0
CIRCLE
  5
24B
  8
0
  6
CONTINUOUS
 62
     7
 10
-100.2904785028
 20
-7.0939581506999998
 30
0.0
 40
1.149424100487721
  0
CIRCLE
  5
24C
  8
0
  6
CONTINUOUS
 62
     7
 10
100.0990718538
 20
-8.4175427861000003
 30
0.0
 40
1.149424100487721
  0
CIRCLE
  5
24D
  8
0
  6
CONTINUOUS
 62
     7
 10
84.099818206999998
 20
-8.3119486142000003
 30
0.0
 40
1.149424100487735
  0
CIRCLE
  5
24E
  8
0
  6
CONTINUOUS
 62
     7
 10
84.209798980599999
 20
7.6751323738999986
 30
0.0
 40
1.1494241004876919
  0
CIRCLE
  5
24F
  8
0
  6
CONTINUOUS
 62
     7
 10
100.2090526274
 20
7.5695382020000004
 30
0.0
 40
1.149424100487707
  0
CIRCLE
  5
250
  8
0
  6
CONTINUOUS
 62
     7
 10
-7.6165096375000001
 20
7.2830999471000002
 30
0.0
 40
1.499236045966855
  0
CIRCLE
  5
251
  8
0
  6
CONTINUOUS
 62
     7
 10
-7.7127428144000003
 20
-6.7055959175000002
 30
0.0
 40
1.4992360459668559
  0
LINE
  5
252
  8
0
  6
CONTINUOUS
 62
     7
 10
104.8112417243
 20
32.520624675900002
 30
0.0
 11
-104.43899690879999
 21
33.901664451199998
 31
0.0
  0
LINE
  5
253
  8
0
  6
CONTINUOUS
 62
     7
 10
104.35757103340001
 20
-33.426084400000001
 30
0.0
 11
104.8112417243
 21
32.520624675900002
 31
0.0
  0
LINE
  5
254
  8
0
  6
CONTINUOUS
 62
     7
 10
-104.89266759980001
 20
-32.045044624600003
 30
0.0
 11
104.35757103340001
 21
-33.426084400000001
 31
0.0
  0
LINE
  5
255
  8
0
  6
CONTINUOUS
 62
     7
 10
-104.43899690879999
 20
33.901664451199998
 30
0.0
 11
-104.89266759980001
 21
-32.045044624600003
 31
0.0
  0
LINE
  5
256
  8
0
  6
CONTINUOUS
 62
     7
 10
-104.89266759980001
 20
-32.045044624600003
 30
0.0
 11
-104.8519546620999
 21
-32.282834650200002
 31
0.0
  0
LINE
  5
257
  8
0
  6
CONTINUOUS
 62
     7
 10
104.35757103340001
 20
-33.426084400000001
 30
0.0
 11
104.3982839711
 21
-33.6638744256
 31
0.0
  0
LINE
  5
258
  8
0
  6
CONTINUOUS
 62
     7
 10
-104.8519546620999
 20
-32.282834650200002
 30
0.0
 11
104.3982839711
 21
-33.6638744256
 31
0.0
  0
LINE
  5
259
  8
0
  6
CONTINUOUS
 62
     7
 10
104.8112417243
 20
32.520624675900002
 30
0.0
 11
104.8519546620999
 21
32.282834650200002
 31
0.0
  0
LINE
  5
25A
  8
0
  6
CONTINUOUS
 62
     7
 10
104.3982839711
 20
-33.6638744256
 30
0.0
 11
104.8519546620999
 21
32.282834650200002
 31
0.0
  0
LINE
  5
25B
  8
0
  6
CONTINUOUS
 62
     7
 10
98.990389220499992
 20
-8.6472344142999997
 30
0.0
 11
98.992735930400002
 21
-8.7289285886000005
 31
0.0
  0
LINE
  5
25C
  8
0
  6
CONTINUOUS
 62
     7
 10
82.991135573699992
 20
-8.5416402423999997
 30
0.0
 11
82.993482283600017
 21
-8.6233344167999988
 31
0.0
  0
LINE
  5
25D
  8
0
  6
CONTINUOUS
 62
     7
 10
99.10036999399999
 20
7.3398465738000001
 30
0.0
 11
99.102716704000002
 21
7.2581523992999992
 31
0.0
  0
LINE
  5
25E
  8
0
  6
CONTINUOUS
 62
     7
 10
83.101116347200005
 20
7.4454407457
 30
0.0
 11
83.103463057200017
 21
7.3637465714000001
 31
0.0
  0
ARC
  5
25F
  8
0
  6
CONTINUOUS
 62
     7
 10
100.14046411610001
 20
-8.6557079286
 30
0.0
 40
1.150106110775291
 50
15.780708711300001
 51
179.5778641654
  0
ARC
  5
260
  8
0
  6
CONTINUOUS
 62
     7
 10
84.141210469300006
 20
-8.5501137568000001
 30
0.0
 40
1.150106110775295
 50
15.78070870819999
 51
179.5778641654
  0
ARC
  5
261
  8
0
  6
CONTINUOUS
 62
     7
 10
100.25044488970001
 20
7.3313730593999997
 30
0.0
 40
1.1501061107752339
 50
15.7807087033
 51
179.5778641654
  0
ARC
  5
262
  8
0
  6
CONTINUOUS
 62
     7
 10
84.251191242900006
 20
7.4369672312999988
 30
0.0
 40
1.150106110775323
 50
15.7807087179
 51
179.5778641654
  0
ARC
  5
263
  8
0
  6
CONTINUOUS
 62
     7
 10
-7.6726021118999999
 20
-6.9449531616999991
 30
0.0
 40
1.500068107516451
 50
14.363991756300001
 51
185.06725790679999
  0
ARC
  5
264
  8
0
  6
CONTINUOUS
 62
     7
 10
-84.250931295599997
 20
-7.4386186698000003
 30
0.0
 40
1.1500716931924371
 50
15.7751658269
 51
183.65608383590001
  0
ARC
  5
265
  8
0
  6
CONTINUOUS
 62
     7
 10
-7.5763689349999987
 20
7.0437427028999986
 30
0.0
 40
1.5000681075164499
 50
14.363991756300001
 51
185.06725790690001
  0
ARC
  5
266
  8
0
  6
CONTINUOUS
 62
     7
 10
-100.2501849424
 20
-7.3330244978999994
 30
0.0
 40
1.1500716931924571
 50
15.7751658268
 51
183.65608383610001
  0
ARC
  5
267
  8
0
  6
CONTINUOUS
 62
     7
 10
-84.140950521999997
 20
8.5484623183000004
 30
0.0
 40
1.150071693192404
 50
15.7751658237
 51
183.65608383919999
  0
ARC
  5
268
  8
0
  6
CONTINUOUS
 62
     7
 10
-100.1402041689
 20
8.6540564902000003
 30
0.0
 40
1.15007169319235
 50
15.7751658194
 51
183.6560838437
  0
ENDBLK
  5
26A
  8
0
  0
BLOCK
  8
0
  2
CALLE_CHAPITEAU
 70
     0
 10
0.0
 20
0.0
 30
0.0
  3
CALLE_CHAPITEAU
  1

  0
CIRCLE
  5
26D
  8
0
  6
CONTINUOUS
 62
     7
 10
-36.664029602100001
 20
-86.275370073499985
 30
0.0
 40
4.0000000000000417
  0
CIRCLE
  5
26E
  8
0
  6
CONTINUOUS
 62
     7
 10
-44.664029602099987
 20
-86.275370073499985
 30
0.0
 40
0.9000000000000127
  0
CIRCLE
  5
26F
  8
0
  6
CONTINUOUS
 62
     7
 10
-28.664029602100001
 20
-86.275370073499985
 30
0.0
 40
0.8999999999999985
  0
CIRCLE
  5
270
  8
0
  6
CONTINUOUS
 62
     7
 10
-36.664029602100001
 20
-78.2753700735
 30
0.0
 40
0.8999999999999985
  0
CIRCLE
  5
271
  8
0
  6
CONTINUOUS
 62
     7
 10
-36.664029602100001
 20
-94.2753700735
 30
0.0
 40
0.9000000000000056
  0
LINE
  5
272
  8
0
  6
CONTINUOUS
 62
     7
 10
-48.802130714500002
 20
-97.610209744700001
 30
0.0
 11
-49.9825049823
 21
22.389790255299999
 31
0.0
  0
LINE
  5
273
  8
0
  6
CONTINUOUS
 62
     7
 10
-49.9825049823
 20
22.389790255299999
 30
0.0
 11
-24.9825049823
 21
22.389790255299999
 31
0.0
  0
LINE
  5
274
  8
0
  6
CONTINUOUS
 62
     7
 10
-24.9825049823
 20
-97.610209744700001
 30
0.0
 11
-48.802130714500002
 21
-97.610209744700001
 31
0.0
  0
LINE
  5
275
  8
0
  6
CONTINUOUS
 62
     7
 10
-24.9825049823
 20
22.389790255299999
 30
0.0
 11
-24.9825049823
 21
-97.610209744700001
 31
0.0
  0
ENDBLK
  5
277
  8
0
  0
BLOCK
  8
0
  2
PLAQUE_PINCE_-ATTRAPERA_LE
 70
     0
 10
0.0
 20
0.0
 30
0.0
  3
PLAQUE_PINCE_-ATTRAPERA_LE
  1

  0
CIRCLE
  5
27E
  8
0
  6
CONTINUOUS
 62
     7
 10
45.984127935699988
 20
12.535897224899999
 30
0.0
 40
1.174999999999996
  0
CIRCLE
  5
27F
  8
0
  6
CONTINUOUS
 62
     7
 10
29.984127935699998
 20
12.535897224899999
 30
0.0
 40
1.174999999999996
  0
CIRCLE
  5
280
  8
0
  6
CONTINUOUS
 62
     7
 10
29.984127935699998
 20
-3.4641027750999989
 30
0.0
 40
1.174999999999996
  0
CIRCLE
  5
281
  8
0
  6
CONTINUOUS
 62
     7
 10
45.984127935699988
 20
-3.4641027750999989
 30
0.0
 40
1.174999999999996
  0
LINE
  5
282
  8
0
  6
CONTINUOUS
 62
     7
 10
55.984127935699988
 20
42.185897224899989
 30
0.0
 11
-64.015872064299998
 21
42.185897224899989
 31
0.0
  0
LINE
  5
283
  8
0
  6
CONTINUOUS
 62
     7
 10
55.984127935699988
 20
-37.814102775099997
 30
0.0
 11
55.984127935699988
 21
42.185897224899989
 31
0.0
  0
LINE
  5
284
  8
0
  6
CONTINUOUS
 62
     7
 10
-64.015872064299998
 20
-37.814102775099997
 30
0.0
 11
55.984127935699988
 21
-37.814102775099997
 31
0.0
  0
LINE
  5
285
  8
0
  6
CONTINUOUS
 62
     7
 10
-64.015872064299998
 20
42.185897224899989
 30
0.0
 11
-64.015872064299998
 21
-37.814102775099997
 31
0.0
  0
ENDBLK
  5
287
  8
0
  0
BLOCK
  8
0
  2
NIVEAU_3_-_POUR_CARTE_DE_C
 70
     0
 10
0.0
 20
0.0
 30
0.0
  3
NIVEAU_3_-_POUR_CARTE_DE_C
  1

  0
CIRCLE
  5
293
  8
0
  6
CONTINUOUS
 62
     7
 10
23.0
 20
48.0
 30
0.0
 40
1.5
  0
CIRCLE
  5
294
  8
0
  6
CONTINUOUS
 62
     7
 10
-23.0
 20
48.0
 30
0.0
 40
1.5
  0
CIRCLE
  5
295
  8
0
  6
CONTINUOUS
 62
     7
 10
-23.0
 20
-48.0
 30
0.0
 40
1.5
  0
CIRCLE
  5
296
  8
0
  6
CONTINUOUS
 62
     7
 10
23.0
 20
-48.0
 30
0.0
 40
1.500000000000006
  0
LINE
  5
297
  8
0
  6
CONTINUOUS
 62
     7
 10
25.0
 20
35.0
 30
0.0
 11
25.0
 21
-35.0
 31
0.0
  0
LINE
  5
298
  8
0
  6
CONTINUOUS
 62
     7
 10
25.0
 20
-35.0
 30
0.0
 11
30.0
 21
-35.0
 31
0.0
  0
LINE
  5
299
  8
0
  6
CONTINUOUS
 62
     7
 10
30.0
 20
-61.380000000000003
 30
0.0
 11
30.0
 21
-35.0
 31
0.0
  0
LINE
  5
29A
  8
0
  6
CONTINUOUS
 62
     7
 10
5.0
 20
-67.379999999999995
 30
0.0
 11
25.0
 21
-67.379999999999995
 31
0.0
  0
LINE
  5
29B
  8
0
  6
CONTINUOUS
 62
     7
 10
-5.0
 20
-67.379999999999995
 30
0.0
 11
-5.0
 21
-61.380000000000003
 31
0.0
  0
LINE
  5
29C
  8
0
  6
CONTINUOUS
 62
     7
 10
-25.0
 20
-67.379999999999995
 30
0.0
 11
-5.0
 21
-67.379999999999995
 31
0.0
  0
LINE
  5
29D
  8
0
  6
CONTINUOUS
 62
     7
 10
-25.0
 20
-61.380000000000003
 30
0.0
 11
-25.0
 21
-67.379999999999995
 31
0.0
  0
LINE
  5
29E
  8
0
  6
CONTINUOUS
 62
     7
 10
-30.0
 20
-61.380000000000003
 30
0.0
 11
-25.0
 21
-61.380000000000003
 31
0.0
  0
LINE
  5
29F
  8
0
  6
CONTINUOUS
 62
     7
 10
-30.0
 20
-35.0
 30
0.0
 11
-30.0
 21
-61.380000000000003
 31
0.0
  0
LINE
  5
2A0
  8
0
  6
CONTINUOUS
 62
     7
 10
-30.0
 20
-35.0
 30
0.0
 11
-25.0
 21
-35.0
 31
0.0
  0
LINE
  5
2A1
  8
0
  6
CONTINUOUS
 62
     7
 10
-25.0
 20
-35.0
 30
0.0
 11
-25.0
 21
35.0
 31
0.0
  0
LINE
  5
2A2
  8
0
  6
CONTINUOUS
 62
     7
 10
-25.0
 20
35.0
 30
0.0
 11
-30.0
 21
35.0
 31
0.0
  0
LINE
  5
2A3
  8
0
  6
CONTINUOUS
 62
     7
 10
-30.0
 20
61.380000000000003
 30
0.0
 11
-30.0
 21
35.0
 31
0.0
  0
LINE
  5
2A4
  8
0
  6
CONTINUOUS
 62
     7
 10
-5.0
 20
67.379999999999995
 30
0.0
 11
-25.0
 21
67.379999999999995
 31
0.0
  0
LINE
  5
2A5
  8
0
  6
CONTINUOUS
 62
     7
 10
5.0
 20
67.379999999999995
 30
0.0
 11
5.0
 21
61.380000000000003
 31
0.0
  0
LINE
  5
2A6
  8
0
  6
CONTINUOUS
 62
     7
 10
25.0
 20
67.379999999999995
 30
0.0
 11
5.0
 21
67.379999999999995
 31
0.0
  0
LINE
  5
2A7
  8
0
  6
CONTINUOUS
 62
     7
 10
25.0
 20
61.380000000000003
 30
0.0
 11
25.0
 21
67.379999999999995
 31
0.0
  0
LINE
  5
2A8
  8
0
  6
CONTINUOUS
 62
     7
 10
30.0
 20
61.380000000000003
 30
0.0
 11
25.0
 21
61.380000000000003
 31
0.0
  0
LINE
  5
2A9
  8
0
  6
CONTINUOUS
 62
     7
 10
30.0
 20
35.0
 30
0.0
 11
30.0
 21
61.380000000000003
 31
0.0
  0
LINE
  5
2AA
  8
0
  6
CONTINUOUS
 62
     7
 10
30.0
 20
35.0
 30
0.0
 11
25.0
 21
35.0
 31
0.0
  0
LINE
  5
2AB
  8
0
  6
CONTINUOUS
 62
     7
 10
5.0
 20
-61.380000000000003
 30
0.0
 11
5.0
 21
-67.379999999999995
 31
0.0
  0
LINE
  5
2AC
  8
0
  6
CONTINUOUS
 62
     7
 10
-5.0
 20
61.380000000000003
 30
0.0
 11
-5.0
 21
67.379999999999995
 31
0.0
  0
LINE
  5
2AD
  8
0
  6
CONTINUOUS
 62
     7
 10
-25.0
 20
61.380000000000003
 30
0.0
 11
-30.0
 21
61.380000000000003
 31
0.0
  0
LINE
  5
2AE
  8
0
  6
CONTINUOUS
 62
     7
 10
-25.0
 20
67.379999999999995
 30
0.0
 11
-25.0
 21
61.380000000000003
 31
0.0
  0
LINE
  5
2AF
  8
0
  6
CONTINUOUS
 62
     7
 10
25.0
 20
-61.380000000000003
 30
0.0
 11
30.0
 21
-61.380000000000003
 31
0.0
  0
LINE
  5
2B0
  8
0
  6
CONTINUOUS
 62
     7
 10
-5.0
 20
-61.380000000000003
 30
0.0
 11
5.0
 21
-61.380000000000003
 31
0.0
  0
LINE
  5
2B1
  8
0
  6
CONTINUOUS
 62
     7
 10
25.0
 20
-67.379999999999995
 30
0.0
 11
25.0
 21
-61.380000000000003
 31
0.0
  0
LINE
  5
2B2
  8
0
  6
CONTINUOUS
 62
     7
 10
5.0
 20
61.380000000000003
 30
0.0
 11
-5.0
 21
61.380000000000003
 31
0.0
  0
ENDBLK
  5
2B4
  8
0
  0
BLOCK
  8
0
  2
NIVEAU_3_-_BARRIERE_POUR_L
 70
     0
 10
0.0
 20
0.0
 30
0.0
  3
NIVEAU_3_-_BARRIERE_POUR_L
  1

  0
CIRCLE
  5
2B7
  8
0
  6
CONTINUOUS
 62
     7
 10
-36.380000000000003
 20
-13.0
 30
0.0
 40
1.5
  0
CIRCLE
  5
2B8
  8
0
  6
CONTINUOUS
 62
     7
 10
36.380000000000003
 20
-13.0
 30
0.0
 40
1.4999999999999929
  0
LINE
  5
2B9
  8
0
  6
CONTINUOUS
 62
     7
 10
61.380000000000003
 20
10.0
 30
0.0
 11
-61.380000000000003
 21
10.0
 31
0.0
  0
LINE
  5
2BA
  8
0
  6
CONTINUOUS
 62
     7
 10
61.380000000000003
 20
-10.0
 30
0.0
 11
61.380000000000003
 21
10.0
 31
0.0
  0
LINE
  5
2BB
  8
0
  6
CONTINUOUS
 62
     7
 10
46.380000000000003
 20
-10.0
 30
0.0
 11
61.380000000000003
 21
-10.0
 31
0.0
  0
LINE
  5
2BC
  8
0
  6
CONTINUOUS
 62
     7
 10
46.380000000000003
 20
-16.0
 30
0.0
 11
46.380000000000003
 21
-10.0
 31
0.0
  0
LINE
  5
2BD
  8
0
  6
CONTINUOUS
 62
     7
 10
26.379999999999999
 20
-16.0
 30
0.0
 11
46.380000000000003
 21
-16.0
 31
0.0
  0
LINE
  5
2BE
  8
0
  6
CONTINUOUS
 62
     7
 10
26.379999999999999
 20
-10.0
 30
0.0
 11
26.379999999999999
 21
-16.0
 31
0.0
  0
LINE
  5
2BF
  8
0
  6
CONTINUOUS
 62
     7
 10
-46.380000000000003
 20
-16.0
 30
0.0
 11
-26.379999999999999
 21
-16.0
 31
0.0
  0
LINE
  5
2C0
  8
0
  6
CONTINUOUS
 62
     7
 10
-46.380000000000003
 20
-10.0
 30
0.0
 11
-46.380000000000003
 21
-16.0
 31
0.0
  0
LINE
  5
2C1
  8
0
  6
CONTINUOUS
 62
     7
 10
-61.380000000000003
 20
-10.0
 30
0.0
 11
-46.380000000000003
 21
-10.0
 31
0.0
  0
LINE
  5
2C2
  8
0
  6
CONTINUOUS
 62
     7
 10
-61.380000000000003
 20
10.0
 30
0.0
 11
-61.380000000000003
 21
-10.0
 31
0.0
  0
LINE
  5
2C3
  8
0
  6
CONTINUOUS
 62
     7
 10
-26.379999999999999
 20
-16.0
 30
0.0
 11
-26.379999999999999
 21
-10.0
 31
0.0
  0
LINE
  5
2C4
  8
0
  6
CONTINUOUS
 62
     7
 10
-26.379999999999999
 20
-10.0
 30
0.0
 11
26.379999999999999
 21
-10.0
 31
0.0
  0
ENDBLK
  5
2C6
  8
0
  0
BLOCK
  8
0
  2
BRAS_POISSON
 70
     0
 10
0.0
 20
0.0
 30
0.0
  3
BRAS_POISSON
  1

  0
CIRCLE
  5
30A
  8
0
  6
CONTINUOUS
 62
     7
 10
37.916434397400003
 20
-68.573457495
 30
0.0
 40
4.0
  0
CIRCLE
  5
30B
  8
0
  6
CONTINUOUS
 62
     7
 10
45.916434397399989
 20
-68.573457495
 30
0.0
 40
0.9000000000000056
  0
CIRCLE
  5
30C
  8
0
  6
CONTINUOUS
 62
     7
 10
29.9164343974
 20
-68.573457495
 30
0.0
 40
0.8999999999999914
  0
CIRCLE
  5
30D
  8
0
  6
CONTINUOUS
 62
     7
 10
37.916434397400003
 20
-60.573457495
 30
0.0
 40
0.900000000000027
  0
CIRCLE
  5
30E
  8
0
  6
CONTINUOUS
 62
     7
 10
37.916434397400003
 20
-76.573457495
 30
0.0
 40
0.9000000000000056
  0
CIRCLE
  5
30F
  8
0
  6
CONTINUOUS
 62
     7
 10
45.336434397399991
 20
4.4265425049999987
 30
0.0
 40
1.1999999999999951
  0
CIRCLE
  5
310
  8
0
  6
CONTINUOUS
 62
     7
 10
29.4164343974
 20
4.4265425049999987
 30
0.0
 40
1.1999999999999951
  0
CIRCLE
  5
311
  8
0
  6
CONTINUOUS
 62
     7
 10
45.336434397399991
 20
-11.573457495
 30
0.0
 40
1.1999999999999951
  0
CIRCLE
  5
312
  8
0
  6
CONTINUOUS
 62
     7
 10
29.4164343974
 20
-11.573457495
 30
0.0
 40
1.2000000000000031
  0
LINE
  5
313
  8
0
  6
CONTINUOUS
 62
     7
 10
30.9164343974
 20
-83.573457495
 30
0.0
 11
44.916434397399989
 21
-83.573457495
 31
0.0
  0
LINE
  5
314
  8
0
  6
CONTINUOUS
 62
     7
 10
24.9164343974
 20
13.426542505
 30
0.0
 11
24.9164343974
 21
-77.573457495
 31
0.0
  0
LINE
  5
315
  8
0
  6
CONTINUOUS
 62
     7
 10
50.916434397400003
 20
13.426542505
 30
0.0
 11
24.9164343974
 21
13.426542505
 31
0.0
  0
LINE
  5
316
  8
0
  6
CONTINUOUS
 62
     7
 10
50.916434397400003
 20
-77.573457495
 30
0.0
 11
50.916434397400003
 21
13.426542505
 31
0.0
  0
ARC
  5
317
  8
0
  6
CONTINUOUS
 62
     7
 10
30.9164343974
 20
-77.573457495
 30
0.0
 40
6.0000000000000133
 50
180.0
 51
270.0
  0
ARC
  5
318
  8
0
  6
CONTINUOUS
 62
     7
 10
44.916434397399989
 20
-77.573457495
 30
0.0
 40
5.9999999999999716
 50
270.0
 51
0.0
  0
ENDBLK
  5
2D9
  8
0
  0
BLOCK
  8
0
  2
CAMBAM__
 70
     0
 10
0.0
 20
0.0
 30
0.0
  3
CAMBAM__
  1

  0
CIRCLE
  5
2EE
  8
0
  6
CONTINUOUS
 62
     7
 10
37.916434397400003
 20
-68.573457495
 30
0.0
 40
4.0
  0
CIRCLE
  5
2EF
  8
0
  6
CONTINUOUS
 62
     7
 10
45.916434397399989
 20
-68.573457495
 30
0.0
 40
0.9000000000000056
  0
CIRCLE
  5
2F0
  8
0
  6
CONTINUOUS
 62
     7
 10
29.9164343974
 20
-68.573457495
 30
0.0
 40
0.8999999999999914
  0
CIRCLE
  5
2F1
  8
0
  6
CONTINUOUS
 62
     7
 10
37.916434397400003
 20
-60.573457495
 30
0.0
 40
0.900000000000027
  0
CIRCLE
  5
2F2
  8
0
  6
CONTINUOUS
 62
     7
 10
37.916434397400003
 20
-76.573457495
 30
0.0
 40
0.9000000000000056
  0
CIRCLE
  5
2F3
  8
0
  6
CONTINUOUS
 62
     7
 10
45.336434397399991
 20
4.4265425049999987
 30
0.0
 40
1.1999999999999951
  0
CIRCLE
  5
2F4
  8
0
  6
CONTINUOUS
 62
     7
 10
29.4164343974
 20
4.4265425049999987
 30
0.0
 40
1.1999999999999951
  0
CIRCLE
  5
2F5
  8
0
  6
CONTINUOUS
 62
     7
 10
45.336434397399991
 20
-11.573457495
 30
0.0
 40
1.1999999999999951
  0
CIRCLE
  5
2F6
  8
0
  6
CONTINUOUS
 62
     7
 10
29.4164343974
 20
-11.573457495
 30
0.0
 40
1.2000000000000031
  0
LINE
  5
2F7
  8
0
  6
CONTINUOUS
 62
     7
 10
30.9164343974
 20
-83.573457495
 30
0.0
 11
44.916434397399989
 21
-83.573457495
 31
0.0
  0
LINE
  5
2F8
  8
0
  6
CONTINUOUS
 62
     7
 10
24.9164343974
 20
13.426542505
 30
0.0
 11
24.9164343974
 21
-77.573457495
 31
0.0
  0
LINE
  5
2F9
  8
0
  6
CONTINUOUS
 62
     7
 10
50.916434397400003
 20
13.426542505
 30
0.0
 11
24.9164343974
 21
13.426542505
 31
0.0
  0
LINE
  5
2FA
  8
0
  6
CONTINUOUS
 62
     7
 10
50.916434397400003
 20
-77.573457495
 30
0.0
 11
50.916434397400003
 21
13.426542505
 31
0.0
  0
ARC
  5
2FB
  8
0
  6
CONTINUOUS
 62
     7
 10
30.9164343974
 20
-77.573457495
 30
0.0
 40
6.0000000000000133
 50
180.0
 51
270.0
  0
ARC
  5
2FC
  8
0
  6
CONTINUOUS
 62
     7
 10
44.916434397399989
 20
-77.573457495
 30
0.0
 40
5.9999999999999716
 50
270.0
 51
0.0
  0
ENDBLK
  5
2FE
  8
0
  0
ENDSEC
  0
SECTION
  2
ENTITIES
  0
INSERT
  5
236
  8
0
  2
RENFORT_BLOC_MOTEUR
 10
132.92593709435999
 20
317.6642764743338
 30
0.0
  0
POLYLINE
  5
238
  8
0
 66
     1
 10
0.0
 20
0.0
 30
0.0
 70
     1
  0
VERTEX
  5
378
  8
0
 10
36.430913247757417
 20
31.605377931267871
 30
0.0
  0
VERTEX
  5
379
  8
0
 10
246.43091324775739
 20
31.605377931267871
 30
0.0
  0
VERTEX
  5
37A
  8
0
 10
246.43091324775739
 20
351.60537793126792
 30
0.0
  0
VERTEX
  5
37B
  8
0
 10
36.430913247757417
 20
351.60537793126792
 30
0.0
  0
SEQEND
  5
37C
  8
0
  0
INSERT
  5
243
  8
0
  2
SUPPORT_CAGE_A_BILLE
 10
233.24846958952551
 20
320.78793640479029
 30
0.0
  0
INSERT
  5
244
  8
0
  2
SUPPORT_CAGE_A_BILLE
 10
199.68770402952671
 20
208.05212840905
 30
0.0
  0
INSERT
  5
245
  8
0
  2
SUPPORT_CAGE_A_BILLE
 10
49.408690436180677
 20
201.3733631764031
 30
0.0
  0
INSERT
  5
246
  8
0
  2
SUPPORT_CAGE_A_BILLE
 10
187.88912757291831
 20
260.79156492428592
 30
0.0
  0
INSERT
  5
288
  8
0
  2
PLAQUE_PINCE_-ATTRAPERA_LE
 10
90.030352287605638
 20
109.11112304200159
 30
0.0
 50
270.0
  0
INSERT
  5
2C7
  8
0
  2
NIVEAU_3_-_BARRIERE_POUR_L
 10
109.46330014727479
 20
269.81278305294109
 30
0.0
  0
INSERT
  5
2C8
  8
0
  2
NIVEAU_3_-_BARRIERE_POUR_L
 10
110.8513694041448
 20
235.1157855641668
 30
0.0
  0
INSERT
  5
2C9
  8
0
  2
CALLE_CHAPITEAU
 10
165.36006342800829
 20
163.25120345795759
 30
0.0
 50
270.0
  0
INSERT
  5
319
  8
0
  2
BRAS_POISSON
 10
188.01629753111209
 20
264.19442082644338
 30
0.0
  0
INSERT
  5
320
  8
0
  2
PLAQUE_PINCE_-ATTRAPERA_LE
 10
187.08968913820999
 20
108.9263616664494
 30
0.0
 50
270.0
  0
ENDSEC
  0
EOF
