  0
SECTION
  2
HEADER
  9
$ACADVER
  1
AC1015
  9
$ACADMAINTVER
 70
     6
  9
$DWGCODEPAGE
  3
ANSI_1252
  9
$INSBASE
 10
0.0
 20
0.0
 30
0.0
  9
$EXTMIN
 10
-621.9512195122
 20
623.9268292683
 30
0.0
  9
$EXTMAX
 10
-421.9512195122
 20
807.9268292683
 30
0.0
  9
$LIMMIN
 10
0.0
 20
0.0
  9
$LIMMAX
 10
420.0
 20
297.0
  9
$ORTHOMODE
 70
     0
  9
$REGENMODE
 70
     1
  9
$FILLMODE
 70
     1
  9
$QTEXTMODE
 70
     0
  9
$MIRRTEXT
 70
     1
  9
$LTSCALE
 40
1.0
  9
$ATTMODE
 70
     1
  9
$TEXTSIZE
 40
3.5
  9
$TRACEWID
 40
1.0
  9
$TEXTSTYLE
  7
Standard
  9
$CLAYER
  8
0
  9
$CELTYPE
  6
ByLayer
  9
$CECOLOR
 62
   256
  9
$CELTSCALE
 40
1.0
  9
$DISPSILH
 70
     0
  9
$DIMSCALE
 40
1.0
  9
$DIMASZ
 40
3.302
  9
$DIMEXO
 40
1.0
  9
$DIMDLI
 40
3.75
  9
$DIMRND
 40
0.0
  9
$DIMDLE
 40
0.0
  9
$DIMEXE
 40
1.0
  9
$DIMTP
 40
0.0
  9
$DIMTM
 40
0.0
  9
$DIMTXT
 40
3.5
  9
$DIMCEN
 40
2.5
  9
$DIMTSZ
 40
0.0
  9
$DIMTOL
 70
     0
  9
$DIMLIM
 70
     0
  9
$DIMTIH
 70
     1
  9
$DIMTOH
 70
     1
  9
$DIMSE1
 70
     0
  9
$DIMSE2
 70
     0
  9
$DIMTAD
 70
     1
  9
$DIMZIN
 70
     0
  9
$DIMBLK
  1

  9
$DIMASO
 70
     1
  9
$DIMSHO
 70
     1
  9
$DIMPOST
  1

  9
$DIMAPOST
  1

  9
$DIMALT
 70
     0
  9
$DIMALTD
 70
     3
  9
$DIMALTF
 40
0.0393700787
  9
$DIMLFAC
 40
1.0
  9
$DIMTOFL
 70
     1
  9
$DIMTVP
 40
0.0
  9
$DIMTIX
 70
     0
  9
$DIMSOXD
 70
     0
  9
$DIMSAH
 70
     0
  9
$DIMBLK1
  1

  9
$DIMBLK2
  1

  9
$DIMSTYLE
  2
ISO-25
  9
$DIMCLRD
 70
     0
  9
$DIMCLRE
 70
     0
  9
$DIMCLRT
 70
     0
  9
$DIMTFAC
 40
1.0
  9
$DIMGAP
 40
1.524
  9
$DIMJUST
 70
     0
  9
$DIMSD1
 70
     0
  9
$DIMSD2
 70
     0
  9
$DIMTOLJ
 70
     0
  9
$DIMTZIN
 70
     0
  9
$DIMALTZ
 70
     0
  9
$DIMALTTZ
 70
     0
  9
$DIMUPT
 70
     0
  9
$DIMDEC
 70
     2
  9
$DIMTDEC
 70
     2
  9
$DIMALTU
 70
     2
  9
$DIMALTTD
 70
     3
  9
$DIMTXSTY
  7
Standard
  9
$DIMAUNIT
 70
     0
  9
$DIMADEC
 70
     2
  9
$DIMALTRND
 40
0.0
  9
$DIMAZIN
 70
     0
  9
$DIMDSEP
 70
    44
  9
$DIMATFIT
 70
     3
  9
$DIMFRAC
 70
     0
  9
$DIMLDRBLK
  1

  9
$DIMLUNIT
 70
     2
  9
$DIMLWD
 70
    -2
  9
$DIMLWE
 70
    -2
  9
$DIMTMOVE
 70
     0
  9
$LUNITS
 70
     2
  9
$LUPREC
 70
     2
  9
$SKETCHINC
 40
1.0
  9
$FILLETRAD
 40
10.0
  9
$AUNITS
 70
     0
  9
$AUPREC
 70
     2
  9
$MENU
  1
.
  9
$ELEVATION
 40
0.0
  9
$PELEVATION
 40
0.0
  9
$THICKNESS
 40
0.0
  9
$LIMCHECK
 70
     0
  9
$CHAMFERA
 40
0.0
  9
$CHAMFERB
 40
0.0
  9
$CHAMFERC
 40
0.0
  9
$CHAMFERD
 40
0.0
  9
$SKPOLY
 70
     0
  9
$TDCREATE
 40
2457814.714951493
  9
$TDUCREATE
 40
2457814.673284826
  9
$TDUPDATE
 40
2457814.715066065
  9
$TDUUPDATE
 40
2457814.673399398
  9
$TDINDWG
 40
0.0000000116
  9
$TDUSRTIMER
 40
0.0000000116
  9
$USRTIMER
 70
     1
  9
$ANGBASE
 50
0.0
  9
$ANGDIR
 70
     0
  9
$PDMODE
 70
     0
  9
$PDSIZE
 40
-1.0
  9
$PLINEWID
 40
0.0
  9
$SPLFRAME
 70
     0
  9
$SPLINETYPE
 70
     6
  9
$SPLINESEGS
 70
     8
  9
$HANDSEED
  5
16E
  9
$SURFTAB1
 70
     6
  9
$SURFTAB2
 70
     6
  9
$SURFTYPE
 70
     6
  9
$SURFU
 70
     6
  9
$SURFV
 70
     6
  9
$UCSBASE
  2

  9
$UCSNAME
  2

  9
$UCSORG
 10
0.0
 20
0.0
 30
0.0
  9
$UCSXDIR
 10
1.0
 20
0.0
 30
0.0
  9
$UCSYDIR
 10
0.0
 20
1.0
 30
0.0
  9
$UCSORTHOREF
  2

  9
$UCSORTHOVIEW
 70
     0
  9
$UCSORGTOP
 10
0.0
 20
0.0
 30
0.0
  9
$UCSORGBOTTOM
 10
0.0
 20
0.0
 30
0.0
  9
$UCSORGLEFT
 10
0.0
 20
0.0
 30
0.0
  9
$UCSORGRIGHT
 10
0.0
 20
0.0
 30
0.0
  9
$UCSORGFRONT
 10
0.0
 20
0.0
 30
0.0
  9
$UCSORGBACK
 10
0.0
 20
0.0
 30
0.0
  9
$PUCSBASE
  2

  9
$PUCSNAME
  2

  9
$PUCSORG
 10
0.0
 20
0.0
 30
0.0
  9
$PUCSXDIR
 10
1.0
 20
0.0
 30
0.0
  9
$PUCSYDIR
 10
0.0
 20
1.0
 30
0.0
  9
$PUCSORTHOREF
  2

  9
$PUCSORTHOVIEW
 70
     0
  9
$PUCSORGTOP
 10
0.0
 20
0.0
 30
0.0
  9
$PUCSORGBOTTOM
 10
0.0
 20
0.0
 30
0.0
  9
$PUCSORGLEFT
 10
0.0
 20
0.0
 30
0.0
  9
$PUCSORGRIGHT
 10
0.0
 20
0.0
 30
0.0
  9
$PUCSORGFRONT
 10
0.0
 20
0.0
 30
0.0
  9
$PUCSORGBACK
 10
0.0
 20
0.0
 30
0.0
  9
$USERI1
 70
     0
  9
$USERI2
 70
     0
  9
$USERI3
 70
     0
  9
$USERI4
 70
     0
  9
$USERI5
 70
     0
  9
$USERR1
 40
0.0
  9
$USERR2
 40
0.0
  9
$USERR3
 40
0.0
  9
$USERR4
 40
0.0
  9
$USERR5
 40
0.0
  9
$WORLDVIEW
 70
     1
  9
$SHADEDGE
 70
     3
  9
$SHADEDIF
 70
    70
  9
$TILEMODE
 70
     1
  9
$MAXACTVP
 70
    64
  9
$PINSBASE
 10
0.0
 20
0.0
 30
0.0
  9
$PLIMCHECK
 70
     0
  9
$PEXTMIN
 10
1.0000000000E+20
 20
1.0000000000E+20
 30
1.0000000000E+20
  9
$PEXTMAX
 10
-1.0000000000E+20
 20
-1.0000000000E+20
 30
-1.0000000000E+20
  9
$PLIMMIN
 10
0.0
 20
0.0
  9
$PLIMMAX
 10
420.0
 20
297.0
  9
$UNITMODE
 70
     0
  9
$VISRETAIN
 70
     1
  9
$PLINEGEN
 70
     0
  9
$PSLTSCALE
 70
     1
  9
$TREEDEPTH
 70
  3020
  9
$CMLSTYLE
  2
Standard
  9
$CMLJUST
 70
     0
  9
$CMLSCALE
 40
20.0
  9
$PROXYGRAPHICS
 70
     1
  9
$MEASUREMENT
 70
     1
  9
$CELWEIGHT
370
    -1
  9
$ENDCAPS
280
     0
  9
$JOINSTYLE
280
     0
  9
$LWDISPLAY
290
     1
  9
$INSUNITS
 70
     4
  9
$HYPERLINKBASE
  1

  9
$STYLESHEET
  1

  9
$XEDIT
290
     1
  9
$CEPSNTYPE
380
     0
  9
$PSTYLEMODE
290
     1
  9
$FINGERPRINTGUID
  2
{5FB9F57B-E31B-44F3-982B-1ED1BD93C867}
  9
$VERSIONGUID
  2
{FAEB1C32-E019-11D5-929B-00C0DF256EC4}
  9
$EXTNAMES
290
     1
  9
$PSVPSCALE
 40
0.0
  9
$OLESTARTUP
290
     0
  0
ENDSEC
  0
SECTION
  2
CLASSES
  0
CLASS
  1
ACDBDICTIONARYWDFLT
  2
AcDbDictionaryWithDefault
  3
ObjectDBX Classes
 90
        0
280
     0
281
     0
  0
CLASS
  1
VISUALSTYLE
  2
AcDbVisualStyle
  3
ObjectDBX Classes
 90
     4095
280
     0
281
     0
  0
CLASS
  1
MATERIAL
  2
AcDbMaterial
  3
ObjectDBX Classes
 90
     1153
280
     0
281
     0
  0
CLASS
  1
SCALE
  2
AcDbScale
  3
ObjectDBX Classes
 90
     1153
280
     0
281
     0
  0
CLASS
  1
TABLESTYLE
  2
AcDbTableStyle
  3
ObjectDBX Classes
 90
     4095
280
     0
281
     0
  0
CLASS
  1
MLEADERSTYLE
  2
AcDbMLeaderStyle
  3
ACDB_MLEADERSTYLE_CLASS
 90
     4095
280
     0
281
     0
  0
CLASS
  1
SUN
  2
AcDbSun
  3
SCENEOE
 90
     1153
280
     0
281
     0
  0
CLASS
  1
ACDBPLACEHOLDER
  2
AcDbPlaceHolder
  3
ObjectDBX Classes
 90
        0
280
     0
281
     0
  0
CLASS
  1
LAYOUT
  2
AcDbLayout
  3
ObjectDBX Classes
 90
        0
280
     0
281
     0
  0
ENDSEC
  0
SECTION
  2
TABLES
  0
TABLE
  2
VPORT
  5
8
330
0
100
AcDbSymbolTable
 70
     1
  0
VPORT
  5
29
330
8
100
AcDbSymbolTableRecord
100
AcDbViewportTableRecord
  2
*Active
 70
     0
 10
0.0
 20
0.0
 11
1.0
 21
1.0
 12
-521.9512195122
 22
715.9268292683
 13
0.0
 23
0.0
 14
10.0
 24
10.0
 15
10.0
 25
10.0
 16
0.0
 26
0.0
 36
1.0
 17
0.0
 27
0.0
 37
0.0
 40
187.68
 41
1.0869565217
 42
50.0
 43
0.0
 44
0.0
 50
0.0
 51
0.0
 71
     0
 72
   100
 73
     1
 74
     3
 75
     0
 76
     0
 77
     0
 78
     0
281
     0
 65
     1
110
0.0
120
0.0
130
0.0
111
1.0
121
0.0
131
0.0
112
0.0
122
1.0
132
0.0
 79
     0
146
0.0
  0
ENDTAB
  0
TABLE
  2
LTYPE
  5
5
330
0
100
AcDbSymbolTable
 70
     6
  0
LTYPE
  5
14
330
5
100
AcDbSymbolTableRecord
100
AcDbLinetypeTableRecord
  2
ByBlock
 70
     0
  3

 72
    65
 73
     0
 40
0.0
  0
LTYPE
  5
15
330
5
100
AcDbSymbolTableRecord
100
AcDbLinetypeTableRecord
  2
ByLayer
 70
     0
  3

 72
    65
 73
     0
 40
0.0
  0
LTYPE
  5
16
330
5
100
AcDbSymbolTableRecord
100
AcDbLinetypeTableRecord
  2
Continuous
 70
     0
  3
Solid line
 72
    65
 73
     0
 40
0.0
  0
LTYPE
  5
6E
330
5
100
AcDbSymbolTableRecord
100
AcDbLinetypeTableRecord
  2
HIDDEN
 70
     0
  3
Hidden __ __ __ __ __ __ __ __ __ __ __ __ __ __
 72
    65
 73
     2
 40
1.905
 49
1.27
 74
     0
 49
-0.635
 74
     0
  0
LTYPE
  5
6F
330
5
100
AcDbSymbolTableRecord
100
AcDbLinetypeTableRecord
  2
PHANTOM
 70
     0
  3
Phantom ______  __  __  ______  __  __  ______
 72
    65
 73
     6
 40
12.7
 49
6.35
 74
     0
 49
-1.27
 74
     0
 49
1.27
 74
     0
 49
-1.27
 74
     0
 49
1.27
 74
     0
 49
-1.27
 74
     0
  0
LTYPE
  5
70
330
5
100
AcDbSymbolTableRecord
100
AcDbLinetypeTableRecord
  2
CENTER
 70
     0
  3
Center ____ _ ____ _ ____ _ ____ _ ____ _ ____
 72
    65
 73
     4
 40
10.16
 49
6.35
 74
     0
 49
-1.27
 74
     0
 49
1.27
 74
     0
 49
-1.27
 74
     0
  0
LTYPE
  5
71
330
5
100
AcDbSymbolTableRecord
100
AcDbLinetypeTableRecord
  2
CENTERX2
 70
     0
  3
Center (2x) ________  __  ________  __  _____
 72
    65
 73
     4
 40
20.32
 49
12.7
 74
     0
 49
-2.54
 74
     0
 49
2.54
 74
     0
 49
-2.54
 74
     0
  0
LTYPE
  5
72
330
5
100
AcDbSymbolTableRecord
100
AcDbLinetypeTableRecord
  2
DOT2
 70
     0
  3
Dot (.5x) ........................................
 72
    65
 73
     2
 40
0.635
 49
0.0
 74
     0
 49
-0.635
 74
     0
  0
ENDTAB
  0
TABLE
  2
LAYER
  5
2
330
0
100
AcDbSymbolTable
 70
     1
  0
LAYER
  5
10
330
2
100
AcDbSymbolTableRecord
100
AcDbLayerTableRecord
  2
0
 70
     0
 62
     7
  6
Continuous
370
    -3
390
F
  0
ENDTAB
  0
TABLE
  2
STYLE
  5
3
330
0
100
AcDbSymbolTable
 70
     2
  0
STYLE
  5
11
330
3
100
AcDbSymbolTableRecord
100
AcDbTextStyleTableRecord
  2
Standard
 70
     0
 40
0.0
 41
1.0
 50
0.0
 71
     0
 42
3.5
  3
txt
  4

  0
STYLE
  5
16C
330
3
100
AcDbSymbolTableRecord
100
AcDbTextStyleTableRecord
  2
SLDTEXTSTYLE0
 70
     0
 40
0.0
 41
0.7
 50
0.0
 71
     0
 42
3.5
  3
TXT
  4
bigfont
  0
ENDTAB
  0
TABLE
  2
VIEW
  5
6
330
0
100
AcDbSymbolTable
 70
     0
  0
ENDTAB
  0
TABLE
  2
UCS
  5
7
330
0
100
AcDbSymbolTable
 70
     0
  0
ENDTAB
  0
TABLE
  2
APPID
  5
9
330
0
100
AcDbSymbolTable
 70
     1
  0
APPID
  5
12
330
9
100
AcDbSymbolTableRecord
100
AcDbRegAppTableRecord
  2
ACAD
 70
     0
  0
ENDTAB
  0
TABLE
  2
DIMSTYLE
  5
A
330
0
100
AcDbSymbolTable
 70
     1
100
AcDbDimStyleTable
  0
DIMSTYLE
105
27
330
A
100
AcDbSymbolTableRecord
100
AcDbDimStyleTableRecord
  2
ISO-25
 70
     0
 41
2.5
 42
0.625
 43
3.75
 44
1.25
 73
     0
 74
     0
 77
     1
 78
     8
140
2.5
141
2.5
143
0.0393700787
147
0.625
171
     3
172
     1
178
     0
271
     2
272
     2
274
     3
278
    44
283
     0
284
     8
340
11
  0
ENDTAB
  0
TABLE
  2
BLOCK_RECORD
  5
1
330
0
100
AcDbSymbolTable
 70
     1
  0
BLOCK_RECORD
  5
1F
330
1
100
AcDbSymbolTableRecord
100
AcDbBlockTableRecord
  2
*Model_Space
340
22
  0
BLOCK_RECORD
  5
1B
330
1
100
AcDbSymbolTableRecord
100
AcDbBlockTableRecord
  2
*Paper_Space
340
1E
  0
BLOCK_RECORD
  5
23
330
1
100
AcDbSymbolTableRecord
100
AcDbBlockTableRecord
  2
*Paper_Space0
340
26
  0
ENDTAB
  0
ENDSEC
  0
SECTION
  2
BLOCKS
  0
BLOCK
  5
20
330
1F
100
AcDbEntity
  8
0
100
AcDbBlockBegin
  2
*Model_Space
 70
     0
 10
0.0
 20
0.0
 30
0.0
  3
*Model_Space
  1

  0
ENDBLK
  5
21
330
1F
100
AcDbEntity
  8
0
100
AcDbBlockEnd
  0
BLOCK
  5
1C
330
1B
100
AcDbEntity
 67
     1
  8
0
100
AcDbBlockBegin
  2
*Paper_Space
 70
     0
 10
0.0
 20
0.0
 30
0.0
  3
*Paper_Space
  1

  0
ENDBLK
  5
1D
330
1B
100
AcDbEntity
 67
     1
  8
0
100
AcDbBlockEnd
  0
BLOCK
  5
24
330
23
100
AcDbEntity
  8
0
100
AcDbBlockBegin
  2
*Paper_Space0
 70
     0
 10
0.0
 20
0.0
 30
0.0
  3
*Paper_Space0
  1

  0
ENDBLK
  5
25
330
23
100
AcDbEntity
  8
0
100
AcDbBlockEnd
  0
ENDSEC
  0
SECTION
  2
ENTITIES
  0
SPLINE
  5
73
330
1F
100
AcDbEntity
  8
0
  6
Continuous
 62
     7
370
    15
100
AcDbSpline
210
0.0
220
0.0
230
1.0
 70
    11
 71
     3
 72
    56
 73
    52
 74
     0
 42
0.000000001
 43
0.00000001
 40
0.0
 40
0.0
 40
0.0
 40
0.0
 40
0.0156250000000056
 40
0.0156250000000056
 40
0.0312500000000112
 40
0.0312500000000112
 40
0.062500000000012
 40
0.062500000000012
 40
0.0937500000000127
 40
0.0937500000000127
 40
0.1250000000000135
 40
0.1250000000000135
 40
0.1562500000000143
 40
0.1562500000000143
 40
0.187500000000015
 40
0.187500000000015
 40
0.2500000000000139
 40
0.2500000000000139
 40
0.3125000000000127
 40
0.3125000000000127
 40
0.3750000000000115
 40
0.3750000000000115
 40
0.4375000000000103
 40
0.4375000000000103
 40
0.5000000000000091
 40
0.5000000000000091
 40
0.562500000000008
 40
0.562500000000008
 40
0.6250000000000069
 40
0.6250000000000069
 40
0.6875000000000058
 40
0.6875000000000058
 40
0.7500000000000046
 40
0.7500000000000046
 40
0.8125000000000034
 40
0.8125000000000034
 40
0.8437500000000029
 40
0.8437500000000029
 40
0.8750000000000023
 40
0.8750000000000023
 40
0.9062500000000018
 40
0.9062500000000018
 40
0.9375000000000012
 40
0.9375000000000012
 40
0.953125000000001
 40
0.953125000000001
 40
0.9687500000000007
 40
0.9687500000000007
 40
0.9843750000000004
 40
0.9843750000000004
 40
1.0
 40
1.0
 40
1.0
 40
1.0
 10
-558.008890256205
 20
733.4712909897898
 30
0.0
 10
-558.0640595888987
 20
733.5725309861924
 30
0.0
 10
-558.156766871047
 20
733.6532638240752
 30
0.0
 10
-558.3901876345822
 20
733.7854933925576
 30
0.0
 10
-558.5310210038506
 20
733.8369564691922
 30
0.0
 10
-558.9978977430712
 20
733.9589499938355
 30
0.0
 10
-559.366702786297
 20
733.9980189529102
 30
0.0
 10
-560.129847393391
 20
734.0202641206018
 30
0.0
 10
-560.5251501145323
 20
734.0027024665394
 30
0.0
 10
-561.2968448016045
 20
733.9175452480815
 30
0.0
 10
-561.6736542641331
 20
733.849604603757
 30
0.0
 10
-562.3864158054397
 20
733.665107878343
 30
0.0
 10
-562.7226016649241
 20
733.5484618058558
 30
0.0
 10
-563.3460023363451
 20
733.2694726525792
 30
0.0
 10
-563.6333842404501
 20
733.1071499504343
 30
0.0
 10
-564.422144919592
 20
732.5590427306959
 30
0.0
 10
-564.8503275966202
 20
732.1122820508039
 30
0.0
 10
-565.5429920404699
 20
731.1015874827925
 30
0.0
 10
-565.8093556473491
 20
730.5373504151281
 30
0.0
 10
-566.1876035462055
 20
729.3369138283931
 30
0.0
 10
-566.2988968829998
 20
728.6998352648794
 30
0.0
 10
-566.325926205342
 20
727.4191355077423
 30
0.0
 10
-566.2393797855462
 20
726.7754602844213
 30
0.0
 10
-565.8269983076366
 20
725.5857736881009
 30
0.0
 10
-565.4993148594918
 20
725.0409403243872
 30
0.0
 10
-564.6293002365234
 20
724.1757621365339
 30
0.0
 10
-564.0875500445345
 20
723.8573807570359
 30
0.0
 10
-562.9076811966124
 20
723.5449524439115
 30
0.0
 10
-562.272314464757
 20
723.552503926696
 30
0.0
 10
-561.0632936057802
 20
723.9063050953409
 30
0.0
 10
-560.4919497902705
 20
724.2523451877835
 30
0.0
 10
-559.5217477232891
 20
725.1857860278485
 30
0.0
 10
-559.1227222525673
 20
725.7705109626975
 30
0.0
 10
-558.5235088544204
 20
727.0145017468446
 30
0.0
 10
-558.3225691357288
 20
727.6697878726316
 30
0.0
 10
-558.1458491017744
 20
728.6111996784867
 30
0.0
 10
-558.1073986874449
 20
728.9188178829228
 30
0.0
 10
-558.061282826441
 20
729.5187025895136
 30
0.0
 10
-558.0536936204006
 20
729.8110093073848
 30
0.0
 10
-558.0521482343964
 20
730.3869218272258
 30
0.0
 10
-558.0580286385501
 20
730.6707827247586
 30
0.0
 10
-558.0592089084408
 20
731.2422838759481
 30
0.0
 10
-558.0535226091534
 20
731.5305957829754
 30
0.0
 10
-558.024454532436
 20
731.9698924056142
 30
0.0
 10
-558.0114737659691
 20
732.1173480250284
 30
0.0
 10
-557.9818543800629
 20
732.4118204513127
 30
0.0
 10
-557.9650673353017
 20
732.5588995088004
 30
0.0
 10
-557.9378897308569
 20
732.8463351737347
 30
0.0
 10
-557.9272695958397
 20
732.9867767701215
 30
0.0
 10
-557.9353577417388
 20
733.2485781909251
 30
0.0
 10
-557.9537209235114
 20
733.3700509933875
 30
0.0
 10
-558.008890256205
 20
733.47129098979
 30
0.0
  0
CIRCLE
  5
8B
330
1F
100
AcDbEntity
  8
0
  6
Continuous
 62
     7
370
    15
100
AcDbCircle
 10
-442.9512195
 20
652.9268293
 30
0.0
 40
10.59999999999991
  0
CIRCLE
  5
8C
330
1F
100
AcDbEntity
  8
0
  6
Continuous
 62
     7
370
    15
100
AcDbCircle
 10
-600.9512195122
 20
652.9268292683
 30
0.0
 40
10.60000000000025
  0
CIRCLE
  5
95
330
1F
100
AcDbEntity
  8
0
  6
Continuous
 62
     7
370
    15
100
AcDbCircle
 10
-618.9512195122
 20
712.4268292683
 30
0.0
 40
2.994999999999891
  0
CIRCLE
  5
96
330
1F
100
AcDbEntity
  8
0
  6
Continuous
 62
     7
370
    15
100
AcDbCircle
 10
-521.9512195122
 20
804.9268292683
 30
0.0
 40
2.994999999999891
  0
CIRCLE
  5
97
330
1F
100
AcDbEntity
  8
0
  6
Continuous
 62
     7
370
    15
100
AcDbCircle
 10
-424.9512195122
 20
712.4268292683
 30
0.0
 40
2.994999999999948
  0
CIRCLE
  5
98
330
1F
100
AcDbEntity
  8
0
  6
Continuous
 62
     7
370
    15
100
AcDbCircle
 10
-521.9512195122
 20
626.9268292683
 30
0.0
 40
2.995000000000005
  0
SPLINE
  5
9A
330
1F
100
AcDbEntity
  8
0
  6
Continuous
 62
     7
370
    15
100
AcDbSpline
210
0.0
220
0.0
230
1.0
 70
     8
 71
     3
 72
    23
 73
    19
 74
     0
 42
0.000000001
 43
0.00000001
 40
0.0
 40
0.0
 40
0.0
 40
0.0
 40
1.0
 40
1.0
 40
1.0
 40
2.0
 40
2.0
 40
2.0
 40
3.0
 40
3.0
 40
3.0
 40
4.0
 40
4.0
 40
4.0
 40
5.0
 40
5.0
 40
5.0
 40
6.0
 40
6.0
 40
6.0
 40
6.0
 10
-606.3358138514866
 20
721.4237725849881
 30
0.0
 10
-602.7184752584013
 20
720.6199195643023
 30
0.0
 10
-605.7093593235737
 20
720.6122186682021
 30
0.0
 10
-598.744226911474
 20
720.7636345902044
 30
0.0
 10
-595.1122822249996
 20
720.8425899094756
 30
0.0
 10
-592.0774100875891
 20
724.2968563796903
 30
0.0
 10
-593.4631229532043
 20
727.8601180341292
 30
0.0
 10
-594.3871447972131
 20
730.2361742044376
 30
0.0
 10
-598.5983883884502
 20
732.9953834693749
 30
0.0
 10
-600.5596063971292
 20
734.956601478054
 30
0.0
 10
-600.7246408958251
 20
735.12163597675
 30
0.0
 10
-600.9860720128744
 20
735.2286318630286
 30
0.0
 10
-601.0547098932169
 20
735.4517049741418
 30
0.0
 10
-602.0316603192981
 20
738.6267938589057
 30
0.0
 10
-599.4134553822595
 20
739.289514608489
 30
0.0
 10
-596.9288474258187
 20
739.0824639454522
 30
0.0
 10
-595.8107043111205
 20
738.9892853525606
 30
0.0
 10
-594.7283874432063
 20
738.6423719489297
 30
0.0
 10
-593.6281574519003
 20
738.4223259506684
 30
0.0
  0
SPLINE
  5
9C
330
1F
100
AcDbEntity
  8
0
  6
Continuous
 62
     7
370
    15
100
AcDbSpline
210
0.0
220
0.0
230
1.0
 70
     8
 71
     3
 72
    35
 73
    31
 74
     0
 42
0.000000001
 43
0.00000001
 40
0.0
 40
0.0
 40
0.0
 40
0.0
 40
1.0
 40
1.0
 40
1.0
 40
2.0
 40
2.0
 40
2.0
 40
3.0
 40
3.0
 40
3.0
 40
4.0
 40
4.0
 40
4.0
 40
5.0
 40
5.0
 40
5.0
 40
6.0
 40
6.0
 40
6.0
 40
7.0
 40
7.0
 40
7.0
 40
8.0
 40
8.0
 40
8.0
 40
9.0
 40
9.0
 40
9.0
 40
10.0
 40
10.0
 40
10.0
 40
10.0
 10
-593.6281574519003
 20
741.723015924587
 30
0.0
 10
-597.2403009234285
 20
742.2390364205197
 30
0.0
 10
-592.1568863374365
 20
742.2181194206748
 30
0.0
 10
-600.5596063971292
 20
742.2181194206748
 30
0.0
 10
-600.8474965762903
 20
742.2181194206748
 30
0.0
 10
-603.3113368808202
 20
741.208804925027
 30
0.0
 10
-603.5302273736557
 20
741.0628779298033
 30
0.0
 10
-605.8185904846615
 20
739.5373025224662
 30
0.0
 10
-606.7565813353006
 20
736.2737520310249
 30
0.0
 10
-604.8505033632232
 20
733.9663944858785
 30
0.0
 10
-603.784931001165
 20
732.676491100229
 30
0.0
 10
-602.4840949311343
 20
731.5964404805892
 30
0.0
 10
-601.2197443919129
 20
730.500670013264
 30
0.0
 10
-600.1317117682314
 20
729.5577084060734
 30
0.0
 10
-599.1021732901168
 20
728.5481334101639
 30
0.0
 10
-598.0840889166903
 20
727.5300490367373
 30
0.0
 10
-598.0290774171249
 20
727.4750375371719
 30
0.0
 10
-597.934311862796
 20
727.4413017620502
 30
0.0
 10
-597.9190544179943
 20
727.3650145380415
 30
0.0
 10
-597.2240995228467
 20
723.8902400623037
 30
0.0
 10
-599.4269502829742
 20
723.7342555667311
 30
0.0
 10
-602.2099513840884
 20
723.7342555667311
 30
0.0
 10
-602.5445732723798
 20
723.7342555667311
 30
0.0
 10
-602.8727141994245
 20
723.8303544492503
 30
0.0
 10
-603.200158376264
 20
723.899290065427
 30
0.0
 10
-603.91836004621
 20
724.0504904169945
 30
0.0
 10
-604.6399012166511
 20
724.1927633778976
 30
0.0
 10
-605.345606859311
 20
724.3943935615148
 30
0.0
 10
-605.6100259449122
 20
724.4699418716866
 30
0.0
 10
-605.6082065064734
 20
724.5873038169154
 30
0.0
 10
-606.6658828488785
 20
724.8894970576025
 30
0.0
  0
SPLINE
  5
A5
330
1F
100
AcDbEntity
  8
0
  6
Continuous
 62
     7
370
    15
100
AcDbSpline
210
0.0
220
0.0
230
1.0
 70
     8
 71
     3
 72
    20
 73
    16
 74
     0
 42
0.000000001
 43
0.00000001
 40
0.0
 40
0.0
 40
0.0
 40
0.0
 40
1.0
 40
1.0
 40
1.0
 40
2.0
 40
2.0
 40
2.0
 40
3.0
 40
3.0
 40
3.0
 40
4.0
 40
4.0
 40
4.0
 40
5.0
 40
5.0
 40
5.0
 40
5.0
 10
-557.8155465126969
 20
736.7758473515166
 30
0.0
 10
-560.9496156209901
 20
736.7480412503462
 30
0.0
 10
-563.7895846482577
 20
736.9704643649922
 30
0.0
 10
-566.7153454126432
 20
735.3765585661807
 30
0.0
 10
-570.7910025750618
 20
733.1562083365168
 30
0.0
 10
-571.836395232833
 20
725.146829937953
 30
0.0
 10
-568.4135204807599
 20
722.1582124904503
 30
0.0
 10
-566.5971743957775
 20
720.5723047393714
 30
0.0
 10
-564.9775050965742
 20
720.7033285746754
 30
0.0
 10
-562.4593348899728
 20
720.7256702950101
 30
0.0
 10
-562.1247261709532
 20
720.7286390118991
 30
0.0
 10
-561.7847475973613
 20
720.7841464154874
 30
0.0
 10
-561.4706310302167
 20
720.8994832715653
 30
0.0
 10
-559.896040016141
 20
721.4776392689483
 30
0.0
 10
-559.5383408637389
 20
722.1479095523259
 30
0.0
 10
-558.1920333894566
 20
723.4041865693393
 30
0.0
  0
SPLINE
  5
AD
330
1F
100
AcDbEntity
  8
0
  6
Continuous
 62
     7
370
    15
100
AcDbSpline
210
0.0
220
0.0
230
1.0
 70
     8
 71
     3
 72
    23
 73
    19
 74
     0
 42
0.000000001
 43
0.00000001
 40
0.0
 40
0.0
 40
0.0
 40
0.0
 40
1.0
 40
1.0
 40
1.0
 40
2.0
 40
2.0
 40
2.0
 40
3.0
 40
3.0
 40
3.0
 40
4.0
 40
4.0
 40
4.0
 40
5.0
 40
5.0
 40
5.0
 40
6.0
 40
6.0
 40
6.0
 40
6.0
 10
-507.4801491326264
 20
723.4041865693392
 30
0.0
 10
-506.781465239225
 20
722.7055026759377
 30
0.0
 10
-505.7086791283501
 20
721.0148454616965
 30
0.0
 10
-504.6745626547957
 20
720.9286690889003
 30
0.0
 10
-503.4124774856843
 20
720.8234953248077
 30
0.0
 10
-502.1452290123184
 20
720.7636345902044
 30
0.0
 10
-500.8787691847893
 20
720.7636345902044
 30
0.0
 10
-499.8484978907563
 20
720.7636345902044
 30
0.0
 10
-498.6704836214612
 20
721.4106524722768
 30
0.0
 10
-497.9081482082627
 20
721.9188760810758
 30
0.0
 10
-494.1564697261719
 20
724.4199950691365
 30
0.0
 10
-494.1572848498632
 20
730.8592516027318
 30
0.0
 10
-496.2578032213034
 20
734.2964634832704
 30
0.0
 10
-496.6375902817489
 20
734.9179332185445
 30
0.0
 10
-497.5401860596273
 20
735.8500812891652
 30
0.0
 10
-498.2382172056545
 20
736.1118429689255
 30
0.0
 10
-501.1682273115192
 20
737.2105967586248
 30
0.0
 10
-503.5789627028578
 20
736.7771928389021
 30
0.0
 10
-506.8200111378427
 20
736.4419119663173
 30
0.0
  0
SPLINE
  5
B9
330
1F
100
AcDbEntity
  8
0
  6
Continuous
 62
     7
370
    15
100
AcDbSpline
210
0.0
220
0.0
230
1.0
 70
     8
 71
     3
 72
    14
 73
    10
 74
     0
 42
0.000000001
 43
0.00000001
 40
1.305700192834658
 40
1.305700192834658
 40
1.305700192834658
 40
1.305700192834658
 40
2.305700192834658
 40
2.305700192834658
 40
2.305700192834658
 40
3.305700192834658
 40
3.305700192834658
 40
3.305700192834658
 40
4.0
 40
4.0
 40
4.0
 40
4.0
 10
-471.2873749596945
 20
733.4157273410589
 30
0.0
 10
-471.3423429531949
 20
730.9842283639767
 30
0.0
 10
-471.3459133009693
 20
728.5510236328334
 30
0.0
 10
-471.4522789401901
 20
726.1212304098069
 30
0.0
 10
-471.5029919964217
 20
724.9627525286821
 30
0.0
 10
-471.641675472642
 20
723.7713820826739
 30
0.0
 10
-471.3728987375429
 20
722.6433741563732
 30
0.0
 10
-471.3154355296181
 20
722.4022113414987
 30
0.0
 10
-470.8240338731028
 20
721.637257224507
 30
0.0
 10
-470.3174428831059
 20
721.1912129068526
 30
0.0
  0
SPLINE
  5
BA
330
1F
100
AcDbEntity
  8
0
  6
Continuous
 62
     7
370
    15
100
AcDbSpline
210
0.0
220
0.0
230
1.0
 70
     8
 71
     3
 72
    11
 73
     7
 74
     0
 42
0.000000001
 43
0.00000001
 40
0.0
 40
0.0
 40
0.0
 40
0.0
 40
0.25
 40
0.5
 40
0.75
 40
1.0
 40
1.0
 40
1.0
 40
1.0
 10
-470.3174428831059
 20
721.1912129068526
 30
0.0
 10
-469.4360400892565
 20
720.7156057031922
 30
0.0
 10
-467.7888497812808
 20
720.320507344901
 30
0.0
 10
-465.8293182927923
 20
720.4660192792143
 30
0.0
 10
-464.4407836260841
 20
720.7561636743055
 30
0.0
 10
-463.8658101043341
 20
720.8747713471529
 30
0.0
 10
-463.64107112019
 20
720.9286690889003
 30
0.0
  0
SPLINE
  5
BD
330
1F
100
AcDbEntity
  8
0
  6
Continuous
 62
     7
370
    15
100
AcDbSpline
210
0.0
220
0.0
230
1.0
 70
     8
 71
     3
 72
    11
 73
     7
 74
     0
 42
0.000000001
 43
0.00000001
 40
0.0
 40
0.0
 40
0.0
 40
0.0
 40
1.0
 40
1.0
 40
1.0
 40
2.0
 40
2.0
 40
2.0
 40
2.0
 10
-464.7362139703816
 20
723.5692210680351
 30
0.0
 10
-465.2863289660345
 20
723.6242325676003
 30
0.0
 10
-465.8620711155616
 20
723.5594262861379
 30
0.0
 10
-466.3865589573408
 20
723.7342555667311
 30
0.0
 10
-466.7207283479427
 20
723.8456453635984
 30
0.0
 10
-466.9366739529938
 20
724.1743475632534
 30
0.0
 10
-467.2117314508204
 20
724.3943935615148
 30
0.0
  0
SPLINE
  5
C8
330
1F
100
AcDbEntity
  8
0
  6
Continuous
 62
     7
370
    15
100
AcDbSpline
210
0.0
220
0.0
230
1.0
 70
     8
 71
     3
 72
    17
 73
    13
 74
     0
 42
0.000000001
 43
0.00000001
 40
0.0
 40
0.0
 40
0.0
 40
0.0
 40
1.0
 40
1.0
 40
1.0
 40
2.0
 40
2.0
 40
2.0
 40
3.0
 40
3.0
 40
3.0
 40
4.0
 40
4.0
 40
4.0
 40
4.0
 10
-545.97192638439
 20
720.7587518415855
 30
0.0
 10
-545.918577684795
 20
723.1811696792114
 30
0.0
 10
-545.9003590107989
 20
725.6046161294516
 30
0.0
 10
-545.8118802856002
 20
728.0260053544554
 30
0.0
 10
-545.7159176514834
 20
730.6522060341284
 30
0.0
 10
-545.1255667332335
 20
732.1508362059132
 30
0.0
 10
-542.7968087137108
 20
733.2140536764027
 30
0.0
 10
-542.7260378180554
 20
733.2463648276828
 30
0.0
 10
-542.713458216727
 20
733.3810844687345
 30
0.0
 10
-542.6356815136662
 20
733.3829050812702
 30
0.0
 10
-541.808903819308
 20
733.4022584580042
 30
0.0
 10
-540.9832137541689
 20
733.3115332370853
 30
0.0
 10
-540.1569798744198
 20
733.2758473149908
 30
0.0
  0
SPLINE
  5
CA
330
1F
100
AcDbEntity
  8
0
  6
Continuous
 62
     7
370
    15
100
AcDbSpline
210
0.0
220
0.0
230
1.0
 70
     8
 71
     3
 72
     8
 73
     4
 74
     0
 42
0.000000001
 43
0.00000001
 40
0.0
 40
0.0
 40
0.0
 40
0.0
 40
1.0
 40
1.0
 40
1.0
 40
1.0
 10
-540.1569798744198
 20
736.7719809637092
 30
0.0
 10
-543.1114960410281
 20
737.0405733424917
 30
0.0
 10
-543.5011678260623
 20
736.5634484872894
 30
0.0
 10
-545.6031183313855
 20
734.4614979819662
 30
0.0
  0
SPLINE
  5
CC
330
1F
100
AcDbEntity
  8
0
  6
Continuous
 62
     7
370
    15
100
AcDbSpline
210
0.0
220
0.0
230
1.0
 70
     8
 71
     3
 72
    26
 73
    22
 74
     0
 42
0.000000001
 43
0.00000001
 40
0.0
 40
0.0
 40
0.0
 40
0.0
 40
0.0625
 40
0.0625
 40
0.125
 40
0.125
 40
0.1875
 40
0.1875
 40
0.25
 40
0.25
 40
0.375
 40
0.375
 40
0.5
 40
0.5
 40
0.625
 40
0.625
 40
0.75
 40
0.75
 40
0.875
 40
0.875
 40
1.0
 40
1.0
 40
1.0
 40
1.0
 10
-528.6045649657051
 20
733.3062564910948
 30
0.0
 10
-528.0442462167244
 20
733.4463361783398
 30
0.0
 10
-527.5372069155104
 20
733.5711961546505
 30
0.0
 10
-526.5936766547683
 20
733.8014677748291
 30
0.0
 10
-526.1572553358178
 20
733.906614355203
 30
0.0
 10
-525.3317556419009
 20
734.0956201196809
 30
0.0
 10
-524.9427494445865
 20
734.1792865743931
 30
0.0
 10
-524.1994137448227
 20
734.318186841477
 30
0.0
 10
-523.845156609707
 20
734.3732910717179
 30
0.0
 10
-522.8279435008154
 20
734.4844755289844
 30
0.0
 10
-522.208673481566
 20
734.4841529962209
 30
0.0
 10
-521.119517484498
 20
734.3105319471109
 30
0.0
 10
-520.65150404048
 20
734.1373430691261
 30
0.0
 10
-519.9378499355371
 20
733.661223483715
 30
0.0
 10
-519.6934178989391
 20
733.359798029069
 30
0.0
 10
-519.4893944282927
 20
732.7138393212316
 30
0.0
 10
-519.5300472428246
 20
732.37103101955
 30
0.0
 10
-519.9251668748816
 20
731.7192677921732
 30
0.0
 10
-520.2786130989655
 20
731.4110816010297
 30
0.0
 10
-521.3052633012604
 20
730.8538259531962
 30
0.0
 10
-521.9758813777363
 20
730.6033930984131
 30
0.0
 10
-522.8242938943953
 20
730.3714515242343
 30
0.0
  0
SPLINE
  5
CD
330
1F
100
AcDbEntity
  8
0
  6
Continuous
 62
     7
370
    15
100
AcDbSpline
210
0.0
220
0.0
230
1.0
 70
     8
 71
     3
 72
    38
 73
    34
 74
     0
 42
0.000000001
 43
0.00000001
 40
0.0
 40
0.0
 40
0.0
 40
0.0
 40
0.0625
 40
0.0625
 40
0.125
 40
0.125
 40
0.1875
 40
0.1875
 40
0.25
 40
0.25
 40
0.3125
 40
0.3125
 40
0.375
 40
0.375
 40
0.4375
 40
0.4375
 40
0.5
 40
0.5
 40
0.5625
 40
0.5625
 40
0.625
 40
0.625
 40
0.6875
 40
0.6875
 40
0.75
 40
0.75
 40
0.8125
 40
0.8125
 40
0.875
 40
0.875
 40
0.9375
 40
0.9375
 40
1.0
 40
1.0
 40
1.0
 40
1.0
 10
-522.8242938943953
 20
730.3714515242343
 30
0.0
 10
-523.0932210349625
 20
730.2919042254481
 30
0.0
 10
-523.4507767394892
 20
730.2004366566277
 30
0.0
 10
-524.2806817866484
 20
730.0202640807632
 30
0.0
 10
-524.7495720945468
 20
729.9296515275619
 30
0.0
 10
-525.7077122403057
 20
729.7226910925107
 30
0.0
 10
-526.19650603597
 20
729.6053116759549
 30
0.0
 10
-527.1340201697092
 20
729.3102323547624
 30
0.0
 10
-527.5831549051006
 20
729.1320950471112
 30
0.0
 10
-528.4085606141723
 20
728.6958391564689
 30
0.0
 10
-528.7852030015105
 20
728.4376700764667
 30
0.0
 10
-529.4459287432902
 20
727.843170851611
 30
0.0
 10
-529.7301191358891
 20
727.5070163899009
 30
0.0
 10
-530.1917095912368
 20
726.7773724331145
 30
0.0
 10
-530.3690479325331
 20
726.3841562043978
 30
0.0
 10
-530.6079995619766
 20
725.5730081529448
 30
0.0
 10
-530.6695506913742
 20
725.1553466346872
 30
0.0
 10
-530.6757803207202
 20
724.3312001318785
 30
0.0
 10
-530.620502321689
 20
723.924912724049
 30
0.0
 10
-530.400307986671
 20
723.1554200634278
 30
0.0
 10
-530.2355377686213
 20
722.7923067153326
 30
0.0
 10
-529.809015870159
 20
722.132649096105
 30
0.0
 10
-529.547420491502
 20
721.8361008029664
 30
0.0
 10
-528.9403755344651
 20
721.3234050840036
 30
0.0
 10
-528.5949756796999
 20
721.1072123485212
 30
0.0
 10
-527.8303986276791
 20
720.760400983193
 30
0.0
 10
-527.4111125055201
 20
720.629790339687
 30
0.0
 10
-526.5065923796217
 20
720.4516206448739
 30
0.0
 10
-526.0211950505299
 20
720.4042418123347
 30
0.0
 10
-524.9947282879878
 20
720.3799700682005
 30
0.0
 10
-524.4537745758801
 20
720.4035431730682
 30
0.0
 10
-523.3311914592539
 20
720.489288827132
 30
0.0
 10
-522.7505522507533
 20
720.5522740391002
 30
0.0
 10
-522.1524332225756
 20
720.5994407326046
 30
0.0
  0
SPLINE
  5
CF
330
1F
100
AcDbEntity
  8
0
  6
Continuous
 62
     7
370
    15
100
AcDbSpline
210
0.0
220
0.0
230
1.0
 70
     8
 71
     3
 72
    36
 73
    32
 74
     0
 42
0.000000001
 43
0.00000001
 40
0.0
 40
0.0
 40
0.0
 40
0.0
 40
0.0624999999999963
 40
0.0624999999999963
 40
0.1249999999999927
 40
0.1249999999999927
 40
0.187499999999989
 40
0.187499999999989
 40
0.2499999999999853
 40
0.2499999999999853
 40
0.3124999999999817
 40
0.3124999999999817
 40
0.374999999999978
 40
0.374999999999978
 40
0.4374999999999744
 40
0.4374999999999744
 40
0.4999999999999707
 40
0.4999999999999707
 40
0.562499999999967
 40
0.562499999999967
 40
0.6249999999999634
 40
0.6249999999999634
 40
0.7499999999999756
 40
0.7499999999999756
 40
0.8124999999999817
 40
0.8124999999999817
 40
0.8749999999999878
 40
0.8749999999999878
 40
0.9374999999999939
 40
0.9374999999999939
 40
1.0
 40
1.0
 40
1.0
 40
1.0
 10
-521.4281500578458
 20
723.1916710998692
 30
0.0
 10
-521.7944715185677
 20
723.1021543399095
 30
0.0
 10
-522.1530323406289
 20
723.0382448068281
 30
0.0
 10
-522.8633582725766
 20
722.9253184218611
 30
0.0
 10
-523.2144259081714
 20
722.8792642482698
 30
0.0
 10
-523.8956913210075
 20
722.8339448974139
 30
0.0
 10
-524.225625360324
 20
722.8359771507269
 30
0.0
 10
-524.8435511368187
 20
722.9150566028634
 30
0.0
 10
-525.1313983920015
 20
722.9923704911299
 30
0.0
 10
-525.6422044390985
 20
723.2255196064701
 30
0.0
 10
-525.8650247960582
 20
723.3811092990074
 30
0.0
 10
-526.2248846436863
 20
723.7511625834869
 30
0.0
 10
-526.3617838853459
 20
723.9652234355179
 30
0.0
 10
-526.5351726332087
 20
724.4203791193262
 30
0.0
 10
-526.5715574989451
 20
724.6611172677276
 30
0.0
 10
-526.5393904958776
 20
725.1376599945191
 30
0.0
 10
-526.4708145794972
 20
725.373244076455
 30
0.0
 10
-526.236398643273
 20
725.8163128712156
 30
0.0
 10
-526.0706430300094
 20
726.0237324116492
 30
0.0
 10
-525.6609162197802
 20
726.4004215965621
 30
0.0
 10
-525.4171318813709
 20
726.5697608153165
 30
0.0
 10
-524.6078933171642
 20
727.0248909564697
 30
0.0
 10
-523.9684694437
 20
727.2563094933056
 30
0.0
 10
-523.0008021001634
 20
727.5800270561432
 30
0.0
 10
-522.6760293801542
 20
727.6845867595756
 30
0.0
 10
-522.0319434649875
 20
727.9020281177213
 30
0.0
 10
-521.7124263332362
 20
728.0148772784684
 30
0.0
 10
-521.080412981526
 20
728.2617211302692
 30
0.0
 10
-520.7674904525169
 20
728.3955325650652
 30
0.0
 10
-520.1515588859424
 20
728.6980869053518
 30
0.0
 10
-519.8482051866825
 20
728.8667420504598
 30
0.0
 10
-519.5584997408698
 20
729.062951151222
 30
0.0
  0
SPLINE
  5
D3
330
1F
100
AcDbEntity
  8
0
  6
Continuous
 62
     7
370
    15
100
AcDbSpline
210
0.0
220
0.0
230
1.0
 70
     8
 71
     3
 72
    14
 73
    10
 74
     0
 42
0.000000001
 43
0.00000001
 40
0.0
 40
0.0
 40
0.0
 40
0.0
 40
1.0
 40
1.0
 40
1.0
 40
2.0
 40
2.0
 40
2.0
 40
3.0
 40
3.0
 40
3.0
 40
3.0
 10
-515.2367705713352
 20
732.4810839976151
 30
0.0
 10
-515.5077111132706
 20
733.971256978261
 30
0.0
 10
-515.3690941921116
 20
734.4801640616208
 30
0.0
 10
-516.3920120622064
 20
735.6167394728378
 30
0.0
 10
-516.8068400243174
 20
736.0776594307385
 30
0.0
 10
-518.6486048811321
 20
736.5273374971903
 30
0.0
 10
-518.8675295426455
 20
736.6069464650134
 30
0.0
 10
-521.8071835327303
 20
737.6759115523168
 30
0.0
 10
-524.9969814821847
 20
736.4393369121186
 30
0.0
 10
-527.9444269709213
 20
736.1118429689255
 30
0.0
  0
LWPOLYLINE
  5
D4
330
1F
100
AcDbEntity
  8
0
  6
Continuous
 62
     7
370
    15
100
AcDbPolyline
 90
       44
 70
   128
 43
0.0
 10
-475.1992211681
 20
730.9108492836
 10
-475.608566496
 20
732.0500399716
 10
-476.1896417651
 20
733.1154750061
 10
-476.9300623649
 20
734.0844464892
 10
-477.8140475158
 20
734.936302476
 10
-478.822756609
 20
735.652887135
 10
-479.9346907615
 20
736.2189277084
 10
-481.1261510273
 20
736.6223600242
 10
-482.3717434993
 20
736.8545856228
 10
-483.6449205367
 20
736.9106550188
 10
-484.9185465811
 20
736.7893731905
 10
-486.1654765049
 20
736.4933250493
 10
-487.3591341613
 20
736.0288203475
 10
-488.47407881
 20
735.4057591964
 10
-489.4865473413
 20
734.6374210626
 10
-490.3749607464
 20
733.7401817394
 10
-491.120384036
 20
732.7331643255
 10
-491.7069298067
 20
731.6378316485
 10
-492.1220968539
 20
730.4775288228
 10
-492.3570366127
 20
729.2769856887
 10
-492.40674175
 20
728.0617897388
 10
-492.2701528871
 20
726.857840765
 10
-491.9501811785
 20
725.6907988495
 10
-491.4536462657
 20
724.5855374644
 10
-490.7911309283
 20
723.5656133373
 10
-489.9767555304
 20
722.6527643803
 10
-489.0278770698
 20
721.866446384
 10
-487.9647192434
 20
721.2234183514
 10
-486.8099414146
 20
720.7373853085
 10
-485.5881556679
 20
720.4187062059
 10
-484.3254022453
 20
720.2741731354
 10
-483.0485945436
 20
720.3068665683
 10
-481.7849455023
 20
720.516089701
 10
-480.5613876068
 20
720.8973833057
 10
-479.4039988694
 20
721.442620771
 10
-478.3374470216
 20
722.1401813072
 10
-477.3844637644
 20
722.9751976223
 10
-476.5653602813
 20
723.9298727934
 10
-475.8975943411
 20
724.9838595767
 10
-475.3953982153
 20
726.1146940737
 10
-475.0694753426
 20
727.2982745104
 10
-474.926772203
 20
728.5093749247
 10
-474.9703302664
 20
729.722182814
 10
-475.1992211681
 20
730.9108492836
  0
SPLINE
  5
D9
330
1F
100
AcDbEntity
  8
0
  6
Continuous
 62
     7
370
    15
100
AcDbSpline
210
0.0
220
0.0
230
1.0
 70
     8
 71
     3
 72
    17
 73
    13
 74
     0
 42
0.000000001
 43
0.00000001
 40
0.0
 40
0.0
 40
0.0
 40
0.0
 40
1.0
 40
1.0
 40
1.0
 40
2.0
 40
2.0
 40
2.0
 40
3.0
 40
3.0
 40
3.0
 40
4.0
 40
4.0
 40
4.0
 40
4.0
 10
-577.4547765796995
 20
736.4419119663173
 30
0.0
 10
-577.6198110783952
 20
733.9113829863131
 30
0.0
 10
-577.7553850538578
 20
731.3787603113864
 30
0.0
 10
-577.9498800757873
 20
728.8503250263047
 30
0.0
 10
-578.028649102073
 20
727.8263276845881
 30
0.0
 10
-578.2304432513712
 20
726.5996596926625
 30
0.0
 10
-578.7750525692669
 20
725.7146695510822
 30
0.0
 10
-580.4822052591531
 20
722.940546430017
 30
0.0
 10
-585.6562393787946
 20
723.3048437433226
 30
0.0
 10
-585.5414670157999
 20
727.0349455406496
 30
0.0
 10
-585.4465869534137
 20
730.1185475681938
 30
0.0
 10
-585.2113980184081
 20
733.1962334919642
 30
0.0
 10
-585.046363519712
 20
736.2768774676215
 30
0.0
  0
SPLINE
  5
DB
330
1F
100
AcDbEntity
  8
0
  6
Continuous
 62
     7
370
    15
100
AcDbSpline
210
0.0
220
0.0
230
1.0
 70
     8
 71
     3
 72
    17
 73
    13
 74
     0
 42
0.000000001
 43
0.00000001
 40
0.0
 40
0.0
 40
0.0
 40
0.0
 40
1.0
 40
1.0
 40
1.0
 40
2.0
 40
2.0
 40
2.0
 40
3.0
 40
3.0
 40
3.0
 40
4.0
 40
4.0
 40
4.0
 40
4.0
 10
-589.3372604858062
 20
736.4419119663173
 30
0.0
 10
-589.4472834849366
 20
733.1962334919642
 30
0.0
 10
-589.5176022833247
 20
729.9489658738459
 30
0.0
 10
-589.667329483198
 20
726.7048765432578
 30
0.0
 10
-589.922354281974
 20
721.1793392364468
 30
0.0
 10
-587.4935102429454
 20
720.6182717701366
 30
0.0
 10
-582.4058115405772
 20
720.7636345902044
 30
0.0
 10
-581.9523601383629
 20
720.7765903445534
 30
0.0
 10
-581.5102885920289
 20
720.9344211972141
 30
0.0
 10
-581.0855355510098
 20
721.0937035875962
 30
0.0
 10
-579.482133781223
 20
721.6949792512662
 30
0.0
 10
-579.3788705692721
 20
722.3052650732461
 30
0.0
 10
-578.279949073179
 20
723.4041865693392
 30
0.0
  0
SPLINE
  5
F8
330
1F
100
AcDbEntity
  8
0
  6
Continuous
 62
     7
370
    15
100
AcDbSpline
210
0.0
220
0.0
230
1.0
 70
    11
 71
     3
 72
    52
 73
    48
 74
     0
 42
0.000000001
 43
0.00000001
 40
0.0
 40
0.0
 40
0.0
 40
0.0
 40
0.0156250000000052
 40
0.0156250000000052
 40
0.0312500000000104
 40
0.0312500000000104
 40
0.0625000000000087
 40
0.0625000000000087
 40
0.0937500000000069
 40
0.0937500000000069
 40
0.1250000000000051
 40
0.1250000000000051
 40
0.1562500000000033
 40
0.1562500000000033
 40
0.1875000000000015
 40
0.1875000000000015
 40
0.2499999999999979
 40
0.2499999999999979
 40
0.3124999999999943
 40
0.3124999999999943
 40
0.3749999999999908
 40
0.3749999999999908
 40
0.4374999999999872
 40
0.4374999999999872
 40
0.4999999999999836
 40
0.4999999999999836
 40
0.56249999999998
 40
0.56249999999998
 40
0.6249999999999765
 40
0.6249999999999765
 40
0.687499999999973
 40
0.687499999999973
 40
0.7499999999999695
 40
0.7499999999999695
 40
0.8124999999999659
 40
0.8124999999999659
 40
0.8437499999999716
 40
0.8437499999999716
 40
0.8749999999999772
 40
0.8749999999999772
 40
0.906249999999983
 40
0.906249999999983
 40
0.9374999999999887
 40
0.9374999999999887
 40
0.9687499999999943
 40
0.9687499999999943
 40
1.0
 40
1.0
 40
1.0
 40
1.0
 10
-506.7444053147166
 20
733.4647424520175
 30
0.0
 10
-506.8059847733061
 20
733.3672685456563
 30
0.0
 10
-506.8348605144831
 20
733.2489513622045
 30
0.0
 10
-506.8672219556178
 20
732.9929013748824
 30
0.0
 10
-506.8703914353295
 20
732.8550467776058
 30
0.0
 10
-506.8717204653231
 20
732.4311478730806
 30
0.0
 10
-506.8642748816557
 20
732.1364775078187
 30
0.0
 10
-506.8763159424816
 20
731.5576612594487
 30
0.0
 10
-506.8930857784104
 20
731.2720226643072
 30
0.0
 10
-506.9341408725198
 20
730.7037091454054
 30
0.0
 10
-506.9575759769748
 20
730.4203576905909
 30
0.0
 10
-506.9891815855547
 20
729.8430353141894
 30
0.0
 10
-506.9972337483683
 20
729.5488171703104
 30
0.0
 10
-506.9827128571172
 20
728.9426823072879
 30
0.0
 10
-506.9602206351401
 20
728.6307317330561
 30
0.0
 10
-506.8331720711403
 20
727.6727052543499
 30
0.0
 10
-506.668105848504
 20
727.0015498047642
 30
0.0
 10
-506.1404285447206
 20
725.715282468691
 30
0.0
 10
-505.7766415855508
 20
725.1039867120612
 30
0.0
 10
-504.8642196092222
 20
724.1071804732305
 30
0.0
 10
-504.3151939904197
 20
723.7242970696155
 30
0.0
 10
-503.1299957761196
 20
723.2923679414251
 30
0.0
 10
-502.4961157611608
 20
723.243680638468
 30
0.0
 10
-501.2981788479867
 20
723.4791745529132
 30
0.0
 10
-500.7369786410292
 20
723.7619427564052
 30
0.0
 10
-499.8130128554818
 20
724.5692506084993
 30
0.0
 10
-499.4509535940327
 20
725.0918683382667
 30
0.0
 10
-498.9631405725041
 20
726.2527473893775
 30
0.0
 10
-498.8356107148032
 20
726.8897093030552
 30
0.0
 10
-498.7815370084635
 20
728.1704317469222
 30
0.0
 10
-498.8527114372725
 20
728.814098729069
 30
0.0
 10
-499.1572022933373
 20
730.0391947375251
 30
0.0
 10
-499.3899236168284
 20
730.6214952882757
 30
0.0
 10
-500.0258934042656
 20
731.680974263999
 30
0.0
 10
-500.4311694165579
 20
732.1586833885937
 30
0.0
 10
-501.1943343045895
 20
732.763668409222
 30
0.0
 10
-501.4746046464493
 20
732.9466689524413
 30
0.0
 10
-502.0858915899936
 20
733.2697808706243
 30
0.0
 10
-502.4170740917536
 20
733.4098813148631
 30
0.0
 10
-503.1204324003715
 20
733.6424388669174
 30
0.0
 10
-503.4928074078852
 20
733.7349829710605
 30
0.0
 10
-504.2543648735619
 20
733.8677747351902
 30
0.0
 10
-504.6438510466389
 20
733.9083363815878
 30
0.0
 10
-505.393874510221
 20
733.9271286867879
 30
0.0
 10
-505.7551034414034
 20
733.906017525116
 30
0.0
 10
-506.3678304098922
 20
733.7718365765484
 30
0.0
 10
-506.6212463975374
 20
733.6596902647397
 30
0.0
 10
-506.7444053147165
 20
733.4647424520174
 30
0.0
  0
SPLINE
  5
F9
330
1F
100
AcDbEntity
  8
0
  6
Continuous
 62
     7
370
    15
100
AcDbSpline
210
0.0
220
0.0
230
1.0
 70
    11
 71
     3
 72
    44
 73
    40
 74
     0
 42
0.000000001
 43
0.00000001
 40
0.0
 40
0.0
 40
0.0
 40
0.0
 40
0.0312499999999994
 40
0.0312499999999994
 40
0.0624999999999988
 40
0.0624999999999988
 40
0.1249999999999984
 40
0.1249999999999984
 40
0.1874999999999981
 40
0.1874999999999981
 40
0.2499999999999977
 40
0.2499999999999977
 40
0.3124999999999973
 40
0.3124999999999973
 40
0.374999999999997
 40
0.374999999999997
 40
0.4374999999999966
 40
0.4374999999999966
 40
0.4999999999999963
 40
0.4999999999999963
 40
0.562499999999996
 40
0.562499999999996
 40
0.6249999999999957
 40
0.6249999999999957
 40
0.6874999999999954
 40
0.6874999999999954
 40
0.7499999999999951
 40
0.7499999999999951
 40
0.8124999999999948
 40
0.8124999999999948
 40
0.8749999999999944
 40
0.8749999999999944
 40
0.9062499999999959
 40
0.9062499999999959
 40
0.9374999999999973
 40
0.9374999999999973
 40
0.9687499999999987
 40
0.9687499999999987
 40
1.0
 40
1.0
 40
1.0
 40
1.0
 10
-483.8395507124651
 20
733.5918848842251
 30
0.0
 10
-484.1841807718854
 20
733.5498220909614
 30
0.0
 10
-484.5252390002545
 20
733.4881214658822
 30
0.0
 10
-485.165696575351
 20
733.2988128909742
 30
0.0
 10
-485.4655847969779
 20
733.1716222024294
 30
0.0
 10
-486.2858574986017
 20
732.6874016847892
 30
0.0
 10
-486.7259227826908
 20
732.2257796166983
 30
0.0
 10
-487.3971434085266
 20
731.125759568842
 30
0.0
 10
-487.6308051145697
 20
730.4909093449069
 30
0.0
 10
-487.9127197184764
 20
729.1823538759998
 30
0.0
 10
-487.960713982354
 20
728.5093695296698
 30
0.0
 10
-487.8754656795494
 20
727.2273621742104
 30
0.0
 10
-487.7414431782186
 20
726.61807983807
 30
0.0
 10
-487.2998486039488
 20
725.5305186545329
 30
0.0
 10
-486.9918792683671
 20
725.0519002725916
 30
0.0
 10
-486.2339112611613
 20
724.2687085504825
 30
0.0
 10
-485.7840567409281
 20
723.9639749946388
 30
0.0
 10
-484.80164079103
 20
723.5557076818982
 30
0.0
 10
-484.2695715985619
 20
723.452157650631
 30
0.0
 10
-483.1993772142856
 20
723.4599352186732
 30
0.0
 10
-482.6617957886423
 20
723.5713300472667
 30
0.0
 10
-481.6578564372446
 20
724.0082776183872
 30
0.0
 10
-481.191845107409
 20
724.3340187571586
 30
0.0
 10
-480.3947297970664
 20
725.180950500674
 30
0.0
 10
-480.0636638429876
 20
725.7025362431152
 30
0.0
 10
-479.580489708828
 20
726.8959880511486
 30
0.0
 10
-479.4281903445297
 20
727.5683835439733
 30
0.0
 10
-479.3297820740233
 20
728.9773456529779
 30
0.0
 10
-479.3835555716208
 20
729.7140456961387
 30
0.0
 10
-479.7137578624072
 20
731.111909874345
 30
0.0
 10
-479.9906855472685
 20
731.7715357680853
 30
0.0
 10
-480.5748265913808
 20
732.5707578063724
 30
0.0
 10
-480.7975186468648
 20
732.8052768099375
 30
0.0
 10
-481.2952710114159
 20
733.1921073786921
 30
0.0
 10
-481.5704221999979
 20
733.3441631221385
 30
0.0
 10
-482.1645453218551
 20
733.5568636987198
 30
0.0
 10
-482.4836491115126
 20
733.6171379638856
 30
0.0
 10
-483.1487461625117
 20
733.6559333749918
 30
0.0
 10
-483.4949206530447
 20
733.6339476774889
 30
0.0
 10
-483.8395507124651
 20
733.5918848842251
 30
0.0
  0
CIRCLE
  5
FA
330
1F
100
AcDbEntity
  8
0
  6
Continuous
 62
     7
370
    15
100
AcDbCircle
 10
-521.9512195122
 20
804.9268292683
 30
0.0
 40
1.499999999999886
  0
CIRCLE
  5
FB
330
1F
100
AcDbEntity
  8
0
  6
Continuous
 62
     7
370
    15
100
AcDbCircle
 10
-618.9512195122
 20
712.4268292683
 30
0.0
 40
1.500000000000114
  0
CIRCLE
  5
FC
330
1F
100
AcDbEntity
  8
0
  6
Continuous
 62
     7
370
    15
100
AcDbCircle
 10
-424.9512195122
 20
712.4268292683
 30
0.0
 40
1.500000000000057
  0
CIRCLE
  5
FD
330
1F
100
AcDbEntity
  8
0
  6
Continuous
 62
     7
370
    15
100
AcDbCircle
 10
-521.9512195122
 20
626.9268292683
 30
0.0
 40
1.500000000000114
  0
LINE
  5
FE
330
1F
100
AcDbEntity
  8
0
  6
Continuous
 62
     7
370
    15
100
AcDbLine
 10
-541.9512195122
 20
623.9268292683
 30
0.0
 11
-541.9512195122
 21
629.9268292683
 31
0.0
  0
LINE
  5
FF
330
1F
100
AcDbEntity
  8
0
  6
Continuous
 62
     7
370
    15
100
AcDbLine
 10
-541.9512195122
 20
629.9268292683
 30
0.0
 11
-581.9512195122
 21
629.9268292683
 31
0.0
  0
LINE
  5
100
330
1F
100
AcDbEntity
  8
0
  6
Continuous
 62
     7
370
    15
100
AcDbLine
 10
-581.9512195122
 20
629.9268292683
 30
0.0
 11
-581.9512195122
 21
623.9268292683
 31
0.0
  0
LINE
  5
101
330
1F
100
AcDbEntity
  8
0
  6
Continuous
 62
     7
370
    15
100
AcDbLine
 10
-621.9512195122
 20
644.9268292683
 30
0.0
 11
-615.9512195122
 21
644.9268292683
 31
0.0
  0
LINE
  5
102
330
1F
100
AcDbEntity
  8
0
  6
Continuous
 62
     7
370
    15
100
AcDbLine
 10
-615.9512195122
 20
644.9268292683
 30
0.0
 11
-615.9512195122
 21
674.9268292683
 31
0.0
  0
LINE
  5
103
330
1F
100
AcDbEntity
  8
0
  6
Continuous
 62
     7
370
    15
100
AcDbLine
 10
-615.9512195122
 20
674.9268292683
 30
0.0
 11
-621.9512195122
 21
674.9268292683
 31
0.0
  0
LINE
  5
104
330
1F
100
AcDbEntity
  8
0
  6
Continuous
 62
     7
370
    15
100
AcDbLine
 10
-621.9512195122
 20
749.9268292683
 30
0.0
 11
-615.9512195122
 21
749.9268292683
 31
0.0
  0
LINE
  5
105
330
1F
100
AcDbEntity
  8
0
  6
Continuous
 62
     7
370
    15
100
AcDbLine
 10
-615.9512195122
 20
749.9268292683
 30
0.0
 11
-615.9512195122
 21
779.9268292683
 31
0.0
  0
LINE
  5
106
330
1F
100
AcDbEntity
  8
0
  6
Continuous
 62
     7
370
    15
100
AcDbLine
 10
-615.9512195122
 20
779.9268292683
 30
0.0
 11
-621.9512195122
 21
779.9268292683
 31
0.0
  0
LINE
  5
107
330
1F
100
AcDbEntity
  8
0
  6
Continuous
 62
     7
370
    15
100
AcDbLine
 10
-581.9512195122
 20
807.9268292683
 30
0.0
 11
-581.9512195122
 21
801.9268292683
 31
0.0
  0
LINE
  5
108
330
1F
100
AcDbEntity
  8
0
  6
Continuous
 62
     7
370
    15
100
AcDbLine
 10
-581.9512195122
 20
801.9268292683
 30
0.0
 11
-541.9512195122
 21
801.9268292683
 31
0.0
  0
LINE
  5
109
330
1F
100
AcDbEntity
  8
0
  6
Continuous
 62
     7
370
    15
100
AcDbLine
 10
-541.9512195122
 20
801.9268292683
 30
0.0
 11
-541.9512195122
 21
807.9268292683
 31
0.0
  0
LINE
  5
10A
330
1F
100
AcDbEntity
  8
0
  6
Continuous
 62
     7
370
    15
100
AcDbLine
 10
-501.9512195122
 20
807.9268292683
 30
0.0
 11
-501.9512195122
 21
801.9268292683
 31
0.0
  0
LINE
  5
10B
330
1F
100
AcDbEntity
  8
0
  6
Continuous
 62
     7
370
    15
100
AcDbLine
 10
-501.9512195122
 20
801.9268292683
 30
0.0
 11
-461.9512195122
 21
801.9268292683
 31
0.0
  0
LINE
  5
10C
330
1F
100
AcDbEntity
  8
0
  6
Continuous
 62
     7
370
    15
100
AcDbLine
 10
-461.9512195122
 20
801.9268292683
 30
0.0
 11
-461.9512195122
 21
807.9268292683
 31
0.0
  0
LINE
  5
10D
330
1F
100
AcDbEntity
  8
0
  6
Continuous
 62
     7
370
    15
100
AcDbLine
 10
-421.9512195122
 20
779.9268292683
 30
0.0
 11
-427.9512195122
 21
779.9268292683
 31
0.0
  0
LINE
  5
10E
330
1F
100
AcDbEntity
  8
0
  6
Continuous
 62
     7
370
    15
100
AcDbLine
 10
-427.9512195122
 20
779.9268292683
 30
0.0
 11
-427.9512195122
 21
749.9268292683
 31
0.0
  0
LINE
  5
10F
330
1F
100
AcDbEntity
  8
0
  6
Continuous
 62
     7
370
    15
100
AcDbLine
 10
-427.9512195122
 20
749.9268292683
 30
0.0
 11
-421.9512195122
 21
749.9268292683
 31
0.0
  0
LINE
  5
110
330
1F
100
AcDbEntity
  8
0
  6
Continuous
 62
     7
370
    15
100
AcDbLine
 10
-421.9512195122
 20
674.9268292683
 30
0.0
 11
-427.9512195122
 21
674.9268292683
 31
0.0
  0
LINE
  5
111
330
1F
100
AcDbEntity
  8
0
  6
Continuous
 62
     7
370
    15
100
AcDbLine
 10
-427.9512195122
 20
674.9268292683
 30
0.0
 11
-427.9512195122
 21
644.9268292683
 31
0.0
  0
LINE
  5
112
330
1F
100
AcDbEntity
  8
0
  6
Continuous
 62
     7
370
    15
100
AcDbLine
 10
-427.9512195122
 20
644.9268292683
 30
0.0
 11
-421.9512195122
 21
644.9268292683
 31
0.0
  0
LINE
  5
113
330
1F
100
AcDbEntity
  8
0
  6
Continuous
 62
     7
370
    15
100
AcDbLine
 10
-461.9512195122
 20
623.9268292683
 30
0.0
 11
-461.9512195122
 21
629.9268292683
 31
0.0
  0
LINE
  5
114
330
1F
100
AcDbEntity
  8
0
  6
Continuous
 62
     7
370
    15
100
AcDbLine
 10
-501.9512195122
 20
629.9268292683
 30
0.0
 11
-501.9512195122
 21
623.9268292683
 31
0.0
  0
LINE
  5
115
330
1F
100
AcDbEntity
  8
0
  6
Continuous
 62
     7
370
    15
100
AcDbLine
 10
-501.9512195122
 20
685.9268292683
 30
0.0
 11
-461.9512195122
 21
685.9268292683
 31
0.0
  0
LINE
  5
116
330
1F
100
AcDbEntity
  8
0
  6
Continuous
 62
     7
370
    15
100
AcDbLine
 10
-501.9512195122
 20
679.9268292683
 30
0.0
 11
-501.9512195122
 21
685.9268292683
 31
0.0
  0
LINE
  5
117
330
1F
100
AcDbEntity
  8
0
  6
Continuous
 62
     7
370
    15
100
AcDbLine
 10
-461.9512195122
 20
679.9268292683
 30
0.0
 11
-501.9512195122
 21
679.9268292683
 31
0.0
  0
LINE
  5
118
330
1F
100
AcDbEntity
  8
0
  6
Continuous
 62
     7
370
    15
100
AcDbLine
 10
-461.9512195122
 20
685.9268292683
 30
0.0
 11
-461.9512195122
 21
679.9268292683
 31
0.0
  0
LINE
  5
119
330
1F
100
AcDbEntity
  8
0
  6
Continuous
 62
     7
370
    15
100
AcDbLine
 10
-581.9512195122
 20
685.9268292683
 30
0.0
 11
-541.9512195122
 21
685.9268292683
 31
0.0
  0
LINE
  5
11A
330
1F
100
AcDbEntity
  8
0
  6
Continuous
 62
     7
370
    15
100
AcDbLine
 10
-581.9512195122
 20
679.9268292683
 30
0.0
 11
-581.9512195122
 21
685.9268292683
 31
0.0
  0
LINE
  5
11B
330
1F
100
AcDbEntity
  8
0
  6
Continuous
 62
     7
370
    15
100
AcDbLine
 10
-541.9512195122
 20
679.9268292683
 30
0.0
 11
-581.9512195122
 21
679.9268292683
 31
0.0
  0
LINE
  5
11C
330
1F
100
AcDbEntity
  8
0
  6
Continuous
 62
     7
370
    15
100
AcDbLine
 10
-541.9512195122
 20
685.9268292683
 30
0.0
 11
-541.9512195122
 21
679.9268292683
 31
0.0
  0
LINE
  5
11D
330
1F
100
AcDbEntity
  8
0
  6
Continuous
 62
     7
370
    15
100
AcDbLine
 10
-606.6658828489
 20
724.8894970576
 30
0.0
 11
-606.3358138515
 21
721.423772585
 31
0.0
  0
LINE
  5
11E
330
1F
100
AcDbEntity
  8
0
  6
Continuous
 62
     7
370
    15
100
AcDbLine
 10
-593.6281574519
 20
738.4223259507
 30
0.0
 11
-593.6281574519
 21
741.7230159246
 31
0.0
  0
LINE
  5
11F
330
1F
100
AcDbEntity
  8
0
  6
Continuous
 62
     7
370
    15
100
AcDbLine
 10
-537.3513933966
 20
739.5775674415
 30
0.0
 11
-533.0604964305
 21
739.4125329428
 31
0.0
  0
LINE
  5
120
330
1F
100
AcDbEntity
  8
0
  6
Continuous
 62
     7
370
    15
100
AcDbLine
 10
-533.0604964305
 20
739.4125329428
 30
0.0
 11
-532.8954619318
 21
742.053084922
 31
0.0
  0
LINE
  5
121
330
1F
100
AcDbEntity
  8
0
  6
Continuous
 62
     7
370
    15
100
AcDbLine
 10
-532.8954619318
 20
742.053084922
 30
0.0
 11
-537.1863588979
 21
742.2181194207
 31
0.0
  0
LINE
  5
122
330
1F
100
AcDbEntity
  8
0
  6
Continuous
 62
     7
370
    15
100
AcDbLine
 10
-537.1863588979
 20
742.2181194207
 30
0.0
 11
-537.3513933966
 21
739.5775674415
 31
0.0
  0
LINE
  5
123
330
1F
100
AcDbEntity
  8
0
  6
Continuous
 62
     7
370
    15
100
AcDbLine
 10
-460.1152480069
 20
739.5775674415
 30
0.0
 11
-455.8243510408
 21
739.4125329428
 31
0.0
  0
LINE
  5
124
330
1F
100
AcDbEntity
  8
0
  6
Continuous
 62
     7
370
    15
100
AcDbLine
 10
-455.8243510408
 20
739.4125329428
 30
0.0
 11
-455.6593165421
 21
742.053084922
 31
0.0
  0
LINE
  5
125
330
1F
100
AcDbEntity
  8
0
  6
Continuous
 62
     7
370
    15
100
AcDbLine
 10
-455.6593165421
 20
742.053084922
 30
0.0
 11
-459.9502135082
 21
742.2181194207
 31
0.0
  0
LINE
  5
126
330
1F
100
AcDbEntity
  8
0
  6
Continuous
 62
     7
370
    15
100
AcDbLine
 10
-459.9502135082
 20
742.2181194207
 30
0.0
 11
-460.1152480069
 21
739.5775674415
 31
0.0
  0
LINE
  5
127
330
1F
100
AcDbEntity
  8
0
  6
Continuous
 62
     7
370
    15
100
AcDbLine
 10
-558.1920333895
 20
723.4041865693
 30
0.0
 11
-558.1920333895
 21
720.7587518416
 31
0.0
  0
LINE
  5
128
330
1F
100
AcDbEntity
  8
0
  6
Continuous
 62
     7
370
    15
100
AcDbLine
 10
-558.1920333895
 20
720.7587518416
 30
0.0
 11
-554.25771352
 21
720.7587518416
 31
0.0
  0
LINE
  5
129
330
1F
100
AcDbEntity
  8
0
  6
Continuous
 62
     7
370
    15
100
AcDbLine
 10
-554.25771352
 20
720.7587518416
 30
0.0
 11
-553.3597397701
 21
741.7230159246
 31
0.0
  0
LINE
  5
12A
330
1F
100
AcDbEntity
  8
0
  6
Continuous
 62
     7
370
    15
100
AcDbLine
 10
-553.3597397701
 20
741.7230159246
 30
0.0
 11
-557.6506367362
 21
741.8880504233
 31
0.0
  0
LINE
  5
12B
330
1F
100
AcDbEntity
  8
0
  6
Continuous
 62
     7
370
    15
100
AcDbLine
 10
-557.6506367362
 20
741.8880504233
 30
0.0
 11
-557.8155465127
 21
736.7758473515
 31
0.0
  0
LINE
  5
12C
330
1F
100
AcDbEntity
  8
0
  6
Continuous
 62
     7
370
    15
100
AcDbLine
 10
-511.6174552112
 20
720.8053245872
 30
0.0
 11
-507.4801491326
 21
720.8053245872
 31
0.0
  0
LINE
  5
12D
330
1F
100
AcDbEntity
  8
0
  6
Continuous
 62
     7
370
    15
100
AcDbLine
 10
-507.4801491326
 20
720.8053245872
 30
0.0
 11
-507.4801491326
 21
723.4041865693
 31
0.0
  0
LINE
  5
12E
330
1F
100
AcDbEntity
  8
0
  6
Continuous
 62
     7
370
    15
100
AcDbLine
 10
-506.8200111378
 20
736.4419119663
 30
0.0
 11
-506.3249076418
 21
741.7230159246
 31
0.0
  0
LINE
  5
12F
330
1F
100
AcDbEntity
  8
0
  6
Continuous
 62
     7
370
    15
100
AcDbLine
 10
-506.3249076418
 20
741.7230159246
 30
0.0
 11
-510.7808391065
 21
741.8880504233
 31
0.0
  0
LINE
  5
130
330
1F
100
AcDbEntity
  8
0
  6
Continuous
 62
     7
370
    15
100
AcDbLine
 10
-452.3442729533
 20
720.7669758637
 30
0.0
 11
-448.0922689382
 21
720.7669758637
 31
0.0
  0
LINE
  5
131
330
1F
100
AcDbEntity
  8
0
  6
Continuous
 62
     7
370
    15
100
AcDbLine
 10
-448.0922689382
 20
720.7669758637
 30
0.0
 11
-447.2656428816
 21
741.8880504233
 31
0.0
  0
LINE
  5
132
330
1F
100
AcDbEntity
  8
0
  6
Continuous
 62
     7
370
    15
100
AcDbLine
 10
-447.2656428816
 20
741.8880504233
 30
0.0
 11
-451.5334540747
 21
741.8880504233
 31
0.0
  0
LINE
  5
133
330
1F
100
AcDbEntity
  8
0
  6
Continuous
 62
     7
370
    15
100
AcDbLine
 10
-451.5334540747
 20
741.8880504233
 30
0.0
 11
-452.3442729533
 21
720.7669758637
 31
0.0
  0
LINE
  5
134
330
1F
100
AcDbEntity
  8
0
  6
Continuous
 62
     7
370
    15
100
AcDbLine
 10
-467.2117314508
 20
740.0726709376
 30
0.0
 11
-470.6774559234
 21
739.4125329428
 31
0.0
  0
LINE
  5
135
330
1F
100
AcDbEntity
  8
0
  6
Continuous
 62
     7
370
    15
100
AcDbLine
 10
-470.6774559234
 20
739.4125329428
 30
0.0
 11
-470.9244389406
 21
736.4419119663
 31
0.0
  0
LINE
  5
136
330
1F
100
AcDbEntity
  8
0
  6
Continuous
 62
     7
370
    15
100
AcDbLine
 10
-470.9244389406
 20
736.4419119663
 30
0.0
 11
-473.1529734039
 21
736.4419119663
 31
0.0
  0
LINE
  5
137
330
1F
100
AcDbEntity
  8
0
  6
Continuous
 62
     7
370
    15
100
AcDbLine
 10
-473.1529734039
 20
736.4419119663
 30
0.0
 11
-473.2980962208
 21
733.4712909898
 31
0.0
  0
LINE
  5
138
330
1F
100
AcDbEntity
  8
0
  6
Continuous
 62
     7
370
    15
100
AcDbLine
 10
-473.2980962208
 20
733.4712909898
 30
0.0
 11
-471.2873749597
 21
733.4157273411
 31
0.0
  0
LINE
  5
139
330
1F
100
AcDbEntity
  8
0
  6
Continuous
 62
     7
370
    15
100
AcDbLine
 10
-463.6410711202
 20
720.9286690889
 30
0.0
 11
-463.2616513558
 21
723.8566095245
 31
0.0
  0
LINE
  5
13A
330
1F
100
AcDbEntity
  8
0
  6
Continuous
 62
     7
370
    15
100
AcDbLine
 10
-463.2616513558
 20
723.8566095245
 30
0.0
 11
-464.7362139704
 21
723.569221068
 31
0.0
  0
LINE
  5
13B
330
1F
100
AcDbEntity
  8
0
  6
Continuous
 62
     7
370
    15
100
AcDbLine
 10
-467.2117314508
 20
724.3943935615
 30
0.0
 11
-467.0219854459
 21
733.4712909898
 31
0.0
  0
LINE
  5
13C
330
1F
100
AcDbEntity
  8
0
  6
Continuous
 62
     7
370
    15
100
AcDbLine
 10
-467.0219854459
 20
733.4712909898
 30
0.0
 11
-463.0858689834
 21
733.4712909898
 31
0.0
  0
LINE
  5
13D
330
1F
100
AcDbEntity
  8
0
  6
Continuous
 62
     7
370
    15
100
AcDbLine
 10
-463.0858689834
 20
733.4712909898
 30
0.0
 11
-463.0858689834
 21
736.2768774676
 31
0.0
  0
LINE
  5
13E
330
1F
100
AcDbEntity
  8
0
  6
Continuous
 62
     7
370
    15
100
AcDbLine
 10
-463.0858689834
 20
736.2768774676
 30
0.0
 11
-466.8816624534
 21
736.2768774676
 31
0.0
  0
LINE
  5
13F
330
1F
100
AcDbEntity
  8
0
  6
Continuous
 62
     7
370
    15
100
AcDbLine
 10
-466.8816624534
 20
736.2768774676
 30
0.0
 11
-466.8816624534
 21
740.0726709376
 31
0.0
  0
LINE
  5
140
330
1F
100
AcDbEntity
  8
0
  6
Continuous
 62
     7
370
    15
100
AcDbLine
 10
-466.8816624534
 20
740.0726709376
 30
0.0
 11
-467.2117314508
 21
740.0726709376
 31
0.0
  0
LINE
  5
141
330
1F
100
AcDbEntity
  8
0
  6
Continuous
 62
     7
370
    15
100
AcDbLine
 10
-545.6031183314
 20
734.461497982
 30
0.0
 11
-545.7681528301
 21
736.2768774676
 31
0.0
  0
LINE
  5
142
330
1F
100
AcDbEntity
  8
0
  6
Continuous
 62
     7
370
    15
100
AcDbLine
 10
-545.7681528301
 20
736.2768774676
 30
0.0
 11
-549.5639463001
 21
736.4419119663
 31
0.0
  0
LINE
  5
143
330
1F
100
AcDbEntity
  8
0
  6
Continuous
 62
     7
370
    15
100
AcDbLine
 10
-549.5639463001
 20
736.4419119663
 30
0.0
 11
-550.2651593327
 21
720.7587518416
 31
0.0
  0
LINE
  5
144
330
1F
100
AcDbEntity
  8
0
  6
Continuous
 62
     7
370
    15
100
AcDbLine
 10
-550.2651593327
 20
720.7587518416
 30
0.0
 11
-545.9719263844
 21
720.7587518416
 31
0.0
  0
LINE
  5
145
330
1F
100
AcDbEntity
  8
0
  6
Continuous
 62
     7
370
    15
100
AcDbLine
 10
-540.1569798744
 20
733.275847315
 30
0.0
 11
-540.1569798744
 21
736.7719809637
 31
0.0
  0
LINE
  5
146
330
1F
100
AcDbEntity
  8
0
  6
Continuous
 62
     7
370
    15
100
AcDbLine
 10
-527.9444269709
 20
736.1118429689
 30
0.0
 11
-528.6045649657
 21
733.3062564911
 31
0.0
  0
LINE
  5
147
330
1F
100
AcDbEntity
  8
0
  6
Continuous
 62
     7
370
    15
100
AcDbLine
 10
-522.1524332226
 20
720.5994407326
 30
0.0
 11
-521.4281500578
 21
723.1916710999
 31
0.0
  0
LINE
  5
148
330
1F
100
AcDbEntity
  8
0
  6
Continuous
 62
     7
370
    15
100
AcDbLine
 10
-519.5584997409
 20
729.0629511512
 30
0.0
 11
-520.0233378616
 21
720.7587518416
 31
0.0
  0
LINE
  5
149
330
1F
100
AcDbEntity
  8
0
  6
Continuous
 62
     7
370
    15
100
AcDbLine
 10
-520.0233378616
 20
720.7587518416
 30
0.0
 11
-515.7616674791
 21
720.7587518416
 31
0.0
  0
LINE
  5
14A
330
1F
100
AcDbEntity
  8
0
  6
Continuous
 62
     7
370
    15
100
AcDbLine
 10
-515.7616674791
 20
720.7587518416
 30
0.0
 11
-515.2367705713
 21
732.4810839976
 31
0.0
  0
LINE
  5
14B
330
1F
100
AcDbEntity
  8
0
  6
Continuous
 62
     7
370
    15
100
AcDbLine
 10
-578.2799490732
 20
723.4041865693
 30
0.0
 11
-578.1149145745
 21
721.0937035876
 31
0.0
  0
LINE
  5
14C
330
1F
100
AcDbEntity
  8
0
  6
Continuous
 62
     7
370
    15
100
AcDbLine
 10
-578.1149145745
 20
721.0937035876
 30
0.0
 11
-574.1540866058
 21
720.9286690889
 31
0.0
  0
LINE
  5
14D
330
1F
100
AcDbEntity
  8
0
  6
Continuous
 62
     7
370
    15
100
AcDbLine
 10
-574.1540866058
 20
720.9286690889
 30
0.0
 11
-573.3289141123
 21
736.2768774676
 31
0.0
  0
LINE
  5
14E
330
1F
100
AcDbEntity
  8
0
  6
Continuous
 62
     7
370
    15
100
AcDbLine
 10
-573.3289141123
 20
736.2768774676
 30
0.0
 11
-577.4547765797
 21
736.4419119663
 31
0.0
  0
LINE
  5
14F
330
1F
100
AcDbEntity
  8
0
  6
Continuous
 62
     7
370
    15
100
AcDbLine
 10
-585.0463635197
 20
736.2768774676
 30
0.0
 11
-589.3372604858
 21
736.4419119663
 31
0.0
  0
LINE
  5
150
330
1F
100
AcDbEntity
  8
0
  6
Continuous
 62
     7
370
    15
100
AcDbLine
 10
-538.0115313914
 20
721.0937035876
 30
0.0
 11
-533.7206344253
 21
720.9286690889
 31
0.0
  0
LINE
  5
151
330
1F
100
AcDbEntity
  8
0
  6
Continuous
 62
     7
370
    15
100
AcDbLine
 10
-533.7206344253
 20
720.9286690889
 30
0.0
 11
-533.0604964305
 21
736.2768774676
 31
0.0
  0
LINE
  5
152
330
1F
100
AcDbEntity
  8
0
  6
Continuous
 62
     7
370
    15
100
AcDbLine
 10
-533.0604964305
 20
736.2768774676
 30
0.0
 11
-537.3513933966
 21
736.4419119663
 31
0.0
  0
LINE
  5
153
330
1F
100
AcDbEntity
  8
0
  6
Continuous
 62
     7
370
    15
100
AcDbLine
 10
-537.3513933966
 20
736.4419119663
 30
0.0
 11
-538.0115313914
 21
721.0937035876
 31
0.0
  0
LINE
  5
154
330
1F
100
AcDbEntity
  8
0
  6
Continuous
 62
     7
370
    15
100
AcDbLine
 10
-460.7067076555
 20
720.9286690889
 30
0.0
 11
-456.2044335351
 21
720.7669758637
 31
0.0
  0
LINE
  5
155
330
1F
100
AcDbEntity
  8
0
  6
Continuous
 62
     7
370
    15
100
AcDbLine
 10
-456.2044335351
 20
720.7669758637
 30
0.0
 11
-455.8243510408
 21
736.2768774676
 31
0.0
  0
LINE
  5
156
330
1F
100
AcDbEntity
  8
0
  6
Continuous
 62
     7
370
    15
100
AcDbLine
 10
-455.8243510408
 20
736.2768774676
 30
0.0
 11
-460.1152480069
 21
736.4419119663
 31
0.0
  0
LINE
  5
157
330
1F
100
AcDbEntity
  8
0
  6
Continuous
 62
     7
370
    15
100
AcDbLine
 10
-460.1152480069
 20
736.4419119663
 30
0.0
 11
-460.7067076555
 21
720.9286690889
 31
0.0
  0
LINE
  5
158
330
1F
100
AcDbEntity
  8
0
  6
Continuous
 62
     7
370
    15
100
AcDbLine
 10
-447.4075916073
 20
729.6754975198
 30
0.0
 11
-441.5875868686
 21
720.7669758637
 31
0.0
  0
LINE
  5
159
330
1F
100
AcDbEntity
  8
0
  6
Continuous
 62
     7
370
    15
100
AcDbLine
 10
-441.5875868686
 20
720.7669758637
 30
0.0
 11
-436.9228982947
 21
720.7669758637
 31
0.0
  0
LINE
  5
15A
330
1F
100
AcDbEntity
  8
0
  6
Continuous
 62
     7
370
    15
100
AcDbLine
 10
-436.9228982947
 20
720.7669758637
 30
0.0
 11
-443.1429189934
 21
729.6754975198
 31
0.0
  0
LINE
  5
15B
330
1F
100
AcDbEntity
  8
0
  6
Continuous
 62
     7
370
    15
100
AcDbLine
 10
-443.1429189934
 20
729.6754975198
 30
0.0
 11
-437.2441882006
 21
736.4419119663
 31
0.0
  0
LINE
  5
15C
330
1F
100
AcDbEntity
  8
0
  6
Continuous
 62
     7
370
    15
100
AcDbLine
 10
-437.2441882006
 20
736.4419119663
 30
0.0
 11
-442.126487649
 21
736.4419119663
 31
0.0
  0
LINE
  5
15D
330
1F
100
AcDbEntity
  8
0
  6
Continuous
 62
     7
370
    15
100
AcDbLine
 10
-442.126487649
 20
736.4419119663
 30
0.0
 11
-447.4075916073
 21
729.6754975198
 31
0.0
  0
LINE
  5
15E
330
1F
100
AcDbEntity
  8
0
  6
Continuous
 62
     7
370
    15
100
AcDbLine
 10
-581.9512195122
 20
807.9268292683
 30
0.0
 11
-621.9512195122
 21
807.9268292683
 31
0.0
  0
LINE
  5
15F
330
1F
100
AcDbEntity
  8
0
  6
Continuous
 62
     7
370
    15
100
AcDbLine
 10
-421.9512195122
 20
779.9268292683
 30
0.0
 11
-421.9512195122
 21
807.9268292683
 31
0.0
  0
LINE
  5
160
330
1F
100
AcDbEntity
  8
0
  6
Continuous
 62
     7
370
    15
100
AcDbLine
 10
-461.9512195122
 20
623.9268292683
 30
0.0
 11
-421.9512195122
 21
623.9268292683
 31
0.0
  0
LINE
  5
161
330
1F
100
AcDbEntity
  8
0
  6
Continuous
 62
     7
370
    15
100
AcDbLine
 10
-621.9512195122
 20
644.9268292683
 30
0.0
 11
-621.9512195122
 21
623.9268292683
 31
0.0
  0
LINE
  5
162
330
1F
100
AcDbEntity
  8
0
  6
Continuous
 62
     7
370
    15
100
AcDbLine
 10
-501.9512195122
 20
807.9268292683
 30
0.0
 11
-541.9512195122
 21
807.9268292683
 31
0.0
  0
LINE
  5
163
330
1F
100
AcDbEntity
  8
0
  6
Continuous
 62
     7
370
    15
100
AcDbLine
 10
-421.9512195122
 20
807.9268292683
 30
0.0
 11
-461.9512195122
 21
807.9268292683
 31
0.0
  0
LINE
  5
164
330
1F
100
AcDbEntity
  8
0
  6
Continuous
 62
     7
370
    15
100
AcDbLine
 10
-621.9512195122
 20
807.9268292683
 30
0.0
 11
-621.9512195122
 21
779.9268292683
 31
0.0
  0
LINE
  5
165
330
1F
100
AcDbEntity
  8
0
  6
Continuous
 62
     7
370
    15
100
AcDbLine
 10
-621.9512195122
 20
749.9268292683
 30
0.0
 11
-621.9512195122
 21
674.9268292683
 31
0.0
  0
LINE
  5
166
330
1F
100
AcDbEntity
  8
0
  6
Continuous
 62
     7
370
    15
100
AcDbLine
 10
-421.9512195122
 20
623.9268292683
 30
0.0
 11
-421.9512195122
 21
644.9268292683
 31
0.0
  0
LINE
  5
167
330
1F
100
AcDbEntity
  8
0
  6
Continuous
 62
     7
370
    15
100
AcDbLine
 10
-421.9512195122
 20
674.9268292683
 30
0.0
 11
-421.9512195122
 21
749.9268292683
 31
0.0
  0
LINE
  5
168
330
1F
100
AcDbEntity
  8
0
  6
Continuous
 62
     7
370
    15
100
AcDbLine
 10
-621.9512195122
 20
623.9268292683
 30
0.0
 11
-581.9512195122
 21
623.9268292683
 31
0.0
  0
LINE
  5
169
330
1F
100
AcDbEntity
  8
0
  6
Continuous
 62
     7
370
    15
100
AcDbLine
 10
-541.9512195122
 20
623.9268292683
 30
0.0
 11
-501.9512195122
 21
623.9268292683
 31
0.0
  0
LINE
  5
16A
330
1F
100
AcDbEntity
  8
0
  6
Continuous
 62
     7
370
    15
100
AcDbLine
 10
-510.7808391065
 20
741.8880504233
 30
0.0
 11
-511.6174552112
 21
720.8053245872
 31
0.0
  0
LINE
  5
16B
330
1F
100
AcDbEntity
  8
0
  6
Continuous
 62
     7
370
    15
100
AcDbLine
 10
-461.9512195122
 20
629.9268292683
 30
0.0
 11
-501.9512195122
 21
629.9268292683
 31
0.0
  0
MTEXT
  5
16D
330
1F
100
AcDbEntity
  8
0
  6
Continuous
 62
     7
100
AcDbMText
 10
-621.9512195122
 20
622.9072628766
 30
0.0
 40
4.83362
 41
0.0
 71
     1
 72
     1
  1
Edition tudiante de SOLIDWORKS  Usage universitaire uniquement.
  7
SLDTEXTSTYLE0
 73
     1
 44
1.0
  0
ENDSEC
  0
SECTION
  2
OBJECTS
  0
DICTIONARY
  5
C
330
0
100
AcDbDictionary
281
     1
  3
ACAD_GROUP
350
D
  3
ACAD_LAYOUT
350
1A
  3
ACAD_MLINESTYLE
350
17
  3
ACAD_PLOTSETTINGS
350
19
  3
ACAD_PLOTSTYLENAME
350
E
  3
ACAD_SCALELIST
350
47
  0
DICTIONARY
  5
D
102
{ACAD_REACTORS
330
C
102
}
330
C
100
AcDbDictionary
281
     1
  0
DICTIONARY
  5
1A
102
{ACAD_REACTORS
330
C
102
}
330
C
100
AcDbDictionary
281
     1
  3
Layout1
350
1E
  3
Layout2
350
26
  3
Model
350
22
  0
DICTIONARY
  5
17
102
{ACAD_REACTORS
330
C
102
}
330
C
100
AcDbDictionary
281
     1
  3
Standard
350
18
  0
DICTIONARY
  5
19
102
{ACAD_REACTORS
330
C
102
}
330
C
100
AcDbDictionary
281
     1
  0
ACDBDICTIONARYWDFLT
  5
E
102
{ACAD_REACTORS
330
C
102
}
330
C
100
AcDbDictionary
281
     1
  3
Normal
350
F
100
AcDbDictionaryWithDefault
340
F
  0
DICTIONARY
  5
47
102
{ACAD_REACTORS
330
C
102
}
330
C
100
AcDbDictionary
281
     1
  3
A0
350
48
  3
A1
350
49
  3
A2
350
4A
  3
A3
350
4B
  3
A4
350
4C
  3
A5
350
4D
  3
A6
350
4E
  3
A7
350
4F
  3
A8
350
50
  3
A9
350
51
  3
B0
350
52
  3
B1
350
53
  3
B2
350
54
  3
B3
350
55
  3
B4
350
56
  3
B5
350
57
  3
B6
350
58
  3
B7
350
59
  3
B8
350
5A
  3
B9
350
5B
  3
C0
350
5C
  3
C1
350
5D
  3
C2
350
5E
  3
C3
350
5F
  3
C4
350
60
  3
C5
350
61
  3
C6
350
62
  3
C7
350
63
  3
C8
350
64
  3
C9
350
65
  3
D0
350
66
  3
D1
350
67
  3
D2
350
68
  0
LAYOUT
  5
1E
102
{ACAD_REACTORS
330
1A
102
}
330
1A
100
AcDbPlotSettings
  1

  2
none_device
  4

  6

 40
0.0
 41
0.0
 42
0.0
 43
0.0
 44
0.0
 45
0.0
 46
0.0
 47
0.0
 48
0.0
 49
0.0
140
0.0
141
0.0
142
1.0
143
1.0
 70
   688
 72
     1
 73
     0
 74
     5
  7

 75
    16
147
1.0
148
0.0
149
0.0
100
AcDbLayout
  1
Layout1
 70
     1
 71
     1
 10
0.0
 20
0.0
 11
420.0
 21
297.0
 12
0.0
 22
0.0
 32
0.0
 14
1.0000000000E+20
 24
1.0000000000E+20
 34
1.0000000000E+20
 15
-1.0000000000E+20
 25
-1.0000000000E+20
 35
-1.0000000000E+20
146
0.0
 13
0.0
 23
0.0
 33
0.0
 16
1.0
 26
0.0
 36
0.0
 17
0.0
 27
1.0
 37
0.0
 76
     0
330
1B
  0
LAYOUT
  5
26
102
{ACAD_REACTORS
330
1A
102
}
330
1A
100
AcDbPlotSettings
  1

  2
none_device
  4

  6

 40
0.0
 41
0.0
 42
0.0
 43
0.0
 44
0.0
 45
0.0
 46
0.0
 47
0.0
 48
0.0
 49
0.0
140
0.0
141
0.0
142
1.0
143
1.0
 70
   688
 72
     1
 73
     0
 74
     5
  7

 75
    16
147
1.0
148
0.0
149
0.0
100
AcDbLayout
  1
Layout2
 70
     1
 71
     2
 10
0.0
 20
0.0
 11
0.0
 21
0.0
 12
0.0
 22
0.0
 32
0.0
 14
0.0
 24
0.0
 34
0.0
 15
0.0
 25
0.0
 35
0.0
146
0.0
 13
0.0
 23
0.0
 33
0.0
 16
1.0
 26
0.0
 36
0.0
 17
0.0
 27
1.0
 37
0.0
 76
     0
330
23
  0
LAYOUT
  5
22
102
{ACAD_REACTORS
330
1A
102
}
330
1A
100
AcDbPlotSettings
  1

  2
none_device
  4
ANSI_A_(11.00_x_8.50_Inches)
  6

 40
6.35
 41
19.05
 42
6.35000508
 43
19.05000254
 44
279.4
 45
215.9
 46
739.6672562087
 47
-742.7462861321
 48
0.0
 49
0.0
140
0.0
141
0.0
142
0.0457336957
143
1.0
 70
  1696
 72
     0
 73
     0
 74
     0
  7

 75
     0
147
0.0179189148
148
-1300.4909072572
149
0.0
100
AcDbLayout
  1
Model
 70
     1
 71
     0
 10
0.0
 20
0.0
 11
420.0
 21
297.0
 12
0.0
 22
0.0
 32
0.0
 14
-621.9512195122
 24
623.9268292683
 34
0.0
 15
-421.9512195122
 25
807.9268292683
 35
0.0
146
0.0
 13
0.0
 23
0.0
 33
0.0
 16
1.0
 26
0.0
 36
0.0
 17
0.0
 27
1.0
 37
0.0
 76
     0
330
1F
331
29
  0
MLINESTYLE
  5
18
102
{ACAD_REACTORS
330
17
102
}
330
17
100
AcDbMlineStyle
  2
Standard
 70
     0
  3

 62
   256
 51
90.0
 52
90.0
 71
     2
 49
0.5
 62
   256
  6
BYLAYER
 49
-0.5
 62
   256
  6
BYLAYER
  0
ACDBPLACEHOLDER
  5
F
102
{ACAD_REACTORS
330
E
102
}
330
E
  0
SCALE
  5
48
102
{ACAD_REACTORS
330
47
102
}
330
47
100
AcDbScale
 70
     0
300
1:1
140
1.0
141
1.0
290
     1
  0
SCALE
  5
49
102
{ACAD_REACTORS
330
47
102
}
330
47
100
AcDbScale
 70
     0
300
1:2
140
1.0
141
2.0
290
     0
  0
SCALE
  5
4A
102
{ACAD_REACTORS
330
47
102
}
330
47
100
AcDbScale
 70
     0
300
1:4
140
1.0
141
4.0
290
     0
  0
SCALE
  5
4B
102
{ACAD_REACTORS
330
47
102
}
330
47
100
AcDbScale
 70
     0
300
1:5
140
1.0
141
5.0
290
     0
  0
SCALE
  5
4C
102
{ACAD_REACTORS
330
47
102
}
330
47
100
AcDbScale
 70
     0
300
1:8
140
1.0
141
8.0
290
     0
  0
SCALE
  5
4D
102
{ACAD_REACTORS
330
47
102
}
330
47
100
AcDbScale
 70
     0
300
1:10
140
1.0
141
10.0
290
     0
  0
SCALE
  5
4E
102
{ACAD_REACTORS
330
47
102
}
330
47
100
AcDbScale
 70
     0
300
1:16
140
1.0
141
16.0
290
     0
  0
SCALE
  5
4F
102
{ACAD_REACTORS
330
47
102
}
330
47
100
AcDbScale
 70
     0
300
1:20
140
1.0
141
20.0
290
     0
  0
SCALE
  5
50
102
{ACAD_REACTORS
330
47
102
}
330
47
100
AcDbScale
 70
     0
300
1:30
140
1.0
141
30.0
290
     0
  0
SCALE
  5
51
102
{ACAD_REACTORS
330
47
102
}
330
47
100
AcDbScale
 70
     0
300
1:40
140
1.0
141
40.0
290
     0
  0
SCALE
  5
52
102
{ACAD_REACTORS
330
47
102
}
330
47
100
AcDbScale
 70
     0
300
1:50
140
1.0
141
50.0
290
     0
  0
SCALE
  5
53
102
{ACAD_REACTORS
330
47
102
}
330
47
100
AcDbScale
 70
     0
300
1:100
140
1.0
141
100.0
290
     0
  0
SCALE
  5
54
102
{ACAD_REACTORS
330
47
102
}
330
47
100
AcDbScale
 70
     0
300
2:1
140
2.0
141
1.0
290
     0
  0
SCALE
  5
55
102
{ACAD_REACTORS
330
47
102
}
330
47
100
AcDbScale
 70
     0
300
4:1
140
4.0
141
1.0
290
     0
  0
SCALE
  5
56
102
{ACAD_REACTORS
330
47
102
}
330
47
100
AcDbScale
 70
     0
300
8:1
140
8.0
141
1.0
290
     0
  0
SCALE
  5
57
102
{ACAD_REACTORS
330
47
102
}
330
47
100
AcDbScale
 70
     0
300
10:1
140
10.0
141
1.0
290
     0
  0
SCALE
  5
58
102
{ACAD_REACTORS
330
47
102
}
330
47
100
AcDbScale
 70
     0
300
100:1
140
100.0
141
1.0
290
     0
  0
SCALE
  5
59
102
{ACAD_REACTORS
330
47
102
}
330
47
100
AcDbScale
 70
     0
300
1/128" = 1'-0"
140
0.0078125
141
12.0
290
     0
  0
SCALE
  5
5A
102
{ACAD_REACTORS
330
47
102
}
330
47
100
AcDbScale
 70
     0
300
1/64" = 1'-0"
140
0.015625
141
12.0
290
     0
  0
SCALE
  5
5B
102
{ACAD_REACTORS
330
47
102
}
330
47
100
AcDbScale
 70
     0
300
1/32" = 1'-0"
140
0.03125
141
12.0
290
     0
  0
SCALE
  5
5C
102
{ACAD_REACTORS
330
47
102
}
330
47
100
AcDbScale
 70
     0
300
1/16" = 1'-0"
140
0.0625
141
12.0
290
     0
  0
SCALE
  5
5D
102
{ACAD_REACTORS
330
47
102
}
330
47
100
AcDbScale
 70
     0
300
3/32" = 1'-0"
140
0.09375
141
12.0
290
     0
  0
SCALE
  5
5E
102
{ACAD_REACTORS
330
47
102
}
330
47
100
AcDbScale
 70
     0
300
1/8" = 1'-0"
140
0.125
141
12.0
290
     0
  0
SCALE
  5
5F
102
{ACAD_REACTORS
330
47
102
}
330
47
100
AcDbScale
 70
     0
300
3/16" = 1'-0"
140
0.1875
141
12.0
290
     0
  0
SCALE
  5
60
102
{ACAD_REACTORS
330
47
102
}
330
47
100
AcDbScale
 70
     0
300
1/4" = 1'-0"
140
0.25
141
12.0
290
     0
  0
SCALE
  5
61
102
{ACAD_REACTORS
330
47
102
}
330
47
100
AcDbScale
 70
     0
300
3/8" = 1'-0"
140
0.375
141
12.0
290
     0
  0
SCALE
  5
62
102
{ACAD_REACTORS
330
47
102
}
330
47
100
AcDbScale
 70
     0
300
1/2" = 1'-0"
140
0.5
141
12.0
290
     0
  0
SCALE
  5
63
102
{ACAD_REACTORS
330
47
102
}
330
47
100
AcDbScale
 70
     0
300
3/4" = 1'-0"
140
0.75
141
12.0
290
     0
  0
SCALE
  5
64
102
{ACAD_REACTORS
330
47
102
}
330
47
100
AcDbScale
 70
     0
300
1" = 1'-0"
140
1.0
141
12.0
290
     0
  0
SCALE
  5
65
102
{ACAD_REACTORS
330
47
102
}
330
47
100
AcDbScale
 70
     0
300
1-1/2" = 1'-0"
140
1.5
141
12.0
290
     0
  0
SCALE
  5
66
102
{ACAD_REACTORS
330
47
102
}
330
47
100
AcDbScale
 70
     0
300
3" = 1'-0"
140
3.0
141
12.0
290
     0
  0
SCALE
  5
67
102
{ACAD_REACTORS
330
47
102
}
330
47
100
AcDbScale
 70
     0
300
6" = 1'-0"
140
6.0
141
12.0
290
     0
  0
SCALE
  5
68
102
{ACAD_REACTORS
330
47
102
}
330
47
100
AcDbScale
 70
     0
300
1'-0" = 1'-0"
140
12.0
141
12.0
290
     0
  0
ENDSEC
  0
EOF
