  0
SECTION
  2
HEADER
  9
$ACADVER
  1
AC1015
  9
$ACADMAINTVER
 70
     6
  9
$DWGCODEPAGE
  3
ANSI_1252
  9
$INSBASE
 10
0.0
 20
0.0
 30
0.0
  9
$EXTMIN
 10
-165.0
 20
-125.0
 30
0.0
  9
$EXTMAX
 10
165.0
 20
0.0
 30
0.0
  9
$LIMMIN
 10
0.0
 20
0.0
  9
$LIMMAX
 10
420.0
 20
297.0
  9
$ORTHOMODE
 70
     0
  9
$REGENMODE
 70
     1
  9
$FILLMODE
 70
     1
  9
$QTEXTMODE
 70
     0
  9
$MIRRTEXT
 70
     1
  9
$LTSCALE
 40
1.0
  9
$ATTMODE
 70
     1
  9
$TEXTSIZE
 40
3.5
  9
$TRACEWID
 40
1.0
  9
$TEXTSTYLE
  7
Standard
  9
$CLAYER
  8
0
  9
$CELTYPE
  6
ByLayer
  9
$CECOLOR
 62
   256
  9
$CELTSCALE
 40
1.0
  9
$DISPSILH
 70
     0
  9
$DIMSCALE
 40
1.0
  9
$DIMASZ
 40
3.302
  9
$DIMEXO
 40
1.0
  9
$DIMDLI
 40
3.75
  9
$DIMRND
 40
0.0
  9
$DIMDLE
 40
0.0
  9
$DIMEXE
 40
1.0
  9
$DIMTP
 40
0.0
  9
$DIMTM
 40
0.0
  9
$DIMTXT
 40
3.5
  9
$DIMCEN
 40
2.5
  9
$DIMTSZ
 40
0.0
  9
$DIMTOL
 70
     0
  9
$DIMLIM
 70
     0
  9
$DIMTIH
 70
     1
  9
$DIMTOH
 70
     1
  9
$DIMSE1
 70
     0
  9
$DIMSE2
 70
     0
  9
$DIMTAD
 70
     1
  9
$DIMZIN
 70
     0
  9
$DIMBLK
  1

  9
$DIMASO
 70
     1
  9
$DIMSHO
 70
     1
  9
$DIMPOST
  1

  9
$DIMAPOST
  1

  9
$DIMALT
 70
     0
  9
$DIMALTD
 70
     3
  9
$DIMALTF
 40
0.0393700787
  9
$DIMLFAC
 40
1.0
  9
$DIMTOFL
 70
     1
  9
$DIMTVP
 40
0.0
  9
$DIMTIX
 70
     0
  9
$DIMSOXD
 70
     0
  9
$DIMSAH
 70
     0
  9
$DIMBLK1
  1

  9
$DIMBLK2
  1

  9
$DIMSTYLE
  2
ISO-25
  9
$DIMCLRD
 70
     0
  9
$DIMCLRE
 70
     0
  9
$DIMCLRT
 70
     0
  9
$DIMTFAC
 40
1.0
  9
$DIMGAP
 40
1.524
  9
$DIMJUST
 70
     0
  9
$DIMSD1
 70
     0
  9
$DIMSD2
 70
     0
  9
$DIMTOLJ
 70
     0
  9
$DIMTZIN
 70
     0
  9
$DIMALTZ
 70
     0
  9
$DIMALTTZ
 70
     0
  9
$DIMUPT
 70
     0
  9
$DIMDEC
 70
     2
  9
$DIMTDEC
 70
     2
  9
$DIMALTU
 70
     2
  9
$DIMALTTD
 70
     3
  9
$DIMTXSTY
  7
Standard
  9
$DIMAUNIT
 70
     0
  9
$DIMADEC
 70
     2
  9
$DIMALTRND
 40
0.0
  9
$DIMAZIN
 70
     0
  9
$DIMDSEP
 70
    44
  9
$DIMATFIT
 70
     3
  9
$DIMFRAC
 70
     0
  9
$DIMLDRBLK
  1

  9
$DIMLUNIT
 70
     2
  9
$DIMLWD
 70
    -2
  9
$DIMLWE
 70
    -2
  9
$DIMTMOVE
 70
     0
  9
$LUNITS
 70
     2
  9
$LUPREC
 70
     2
  9
$SKETCHINC
 40
1.0
  9
$FILLETRAD
 40
10.0
  9
$AUNITS
 70
     0
  9
$AUPREC
 70
     2
  9
$MENU
  1
.
  9
$ELEVATION
 40
0.0
  9
$PELEVATION
 40
0.0
  9
$THICKNESS
 40
0.0
  9
$LIMCHECK
 70
     0
  9
$CHAMFERA
 40
0.0
  9
$CHAMFERB
 40
0.0
  9
$CHAMFERC
 40
0.0
  9
$CHAMFERD
 40
0.0
  9
$SKPOLY
 70
     0
  9
$TDCREATE
 40
2457416.715790509
  9
$TDUCREATE
 40
2457416.674123843
  9
$TDUPDATE
 40
2457416.715809282
  9
$TDUUPDATE
 40
2457416.674142616
  9
$TDINDWG
 40
0.0000000116
  9
$TDUSRTIMER
 40
0.0000000116
  9
$USRTIMER
 70
     1
  9
$ANGBASE
 50
0.0
  9
$ANGDIR
 70
     0
  9
$PDMODE
 70
     0
  9
$PDSIZE
 40
-1.0
  9
$PLINEWID
 40
0.0
  9
$SPLFRAME
 70
     0
  9
$SPLINETYPE
 70
     6
  9
$SPLINESEGS
 70
     8
  9
$HANDSEED
  5
346
  9
$SURFTAB1
 70
     6
  9
$SURFTAB2
 70
     6
  9
$SURFTYPE
 70
     6
  9
$SURFU
 70
     6
  9
$SURFV
 70
     6
  9
$UCSBASE
  2

  9
$UCSNAME
  2

  9
$UCSORG
 10
0.0
 20
0.0
 30
0.0
  9
$UCSXDIR
 10
1.0
 20
0.0
 30
0.0
  9
$UCSYDIR
 10
0.0
 20
1.0
 30
0.0
  9
$UCSORTHOREF
  2

  9
$UCSORTHOVIEW
 70
     0
  9
$UCSORGTOP
 10
0.0
 20
0.0
 30
0.0
  9
$UCSORGBOTTOM
 10
0.0
 20
0.0
 30
0.0
  9
$UCSORGLEFT
 10
0.0
 20
0.0
 30
0.0
  9
$UCSORGRIGHT
 10
0.0
 20
0.0
 30
0.0
  9
$UCSORGFRONT
 10
0.0
 20
0.0
 30
0.0
  9
$UCSORGBACK
 10
0.0
 20
0.0
 30
0.0
  9
$PUCSBASE
  2

  9
$PUCSNAME
  2

  9
$PUCSORG
 10
0.0
 20
0.0
 30
0.0
  9
$PUCSXDIR
 10
1.0
 20
0.0
 30
0.0
  9
$PUCSYDIR
 10
0.0
 20
1.0
 30
0.0
  9
$PUCSORTHOREF
  2

  9
$PUCSORTHOVIEW
 70
     0
  9
$PUCSORGTOP
 10
0.0
 20
0.0
 30
0.0
  9
$PUCSORGBOTTOM
 10
0.0
 20
0.0
 30
0.0
  9
$PUCSORGLEFT
 10
0.0
 20
0.0
 30
0.0
  9
$PUCSORGRIGHT
 10
0.0
 20
0.0
 30
0.0
  9
$PUCSORGFRONT
 10
0.0
 20
0.0
 30
0.0
  9
$PUCSORGBACK
 10
0.0
 20
0.0
 30
0.0
  9
$USERI1
 70
     0
  9
$USERI2
 70
     0
  9
$USERI3
 70
     0
  9
$USERI4
 70
     0
  9
$USERI5
 70
     0
  9
$USERR1
 40
0.0
  9
$USERR2
 40
0.0
  9
$USERR3
 40
0.0
  9
$USERR4
 40
0.0
  9
$USERR5
 40
0.0
  9
$WORLDVIEW
 70
     1
  9
$SHADEDGE
 70
     3
  9
$SHADEDIF
 70
    70
  9
$TILEMODE
 70
     1
  9
$MAXACTVP
 70
    64
  9
$PINSBASE
 10
0.0
 20
0.0
 30
0.0
  9
$PLIMCHECK
 70
     0
  9
$PEXTMIN
 10
1.0000000000E+20
 20
1.0000000000E+20
 30
1.0000000000E+20
  9
$PEXTMAX
 10
-1.0000000000E+20
 20
-1.0000000000E+20
 30
-1.0000000000E+20
  9
$PLIMMIN
 10
0.0
 20
0.0
  9
$PLIMMAX
 10
420.0
 20
297.0
  9
$UNITMODE
 70
     0
  9
$VISRETAIN
 70
     1
  9
$PLINEGEN
 70
     0
  9
$PSLTSCALE
 70
     1
  9
$TREEDEPTH
 70
  3020
  9
$CMLSTYLE
  2
Standard
  9
$CMLJUST
 70
     0
  9
$CMLSCALE
 40
20.0
  9
$PROXYGRAPHICS
 70
     1
  9
$MEASUREMENT
 70
     1
  9
$CELWEIGHT
370
    -1
  9
$ENDCAPS
280
     0
  9
$JOINSTYLE
280
     0
  9
$LWDISPLAY
290
     1
  9
$INSUNITS
 70
     4
  9
$HYPERLINKBASE
  1

  9
$STYLESHEET
  1

  9
$XEDIT
290
     1
  9
$CEPSNTYPE
380
     0
  9
$PSTYLEMODE
290
     1
  9
$FINGERPRINTGUID
  2
{912AB978-028C-433E-96E1-9ED95064EB77}
  9
$VERSIONGUID
  2
{FAEB1C32-E019-11D5-929B-00C0DF256EC4}
  9
$EXTNAMES
290
     1
  9
$PSVPSCALE
 40
0.0
  9
$OLESTARTUP
290
     0
  0
ENDSEC
  0
SECTION
  2
CLASSES
  0
CLASS
  1
ACDBDICTIONARYWDFLT
  2
AcDbDictionaryWithDefault
  3
ObjectDBX Classes
 90
        0
280
     0
281
     0
  0
CLASS
  1
VISUALSTYLE
  2
AcDbVisualStyle
  3
ObjectDBX Classes
 90
     4095
280
     0
281
     0
  0
CLASS
  1
MATERIAL
  2
AcDbMaterial
  3
ObjectDBX Classes
 90
     1153
280
     0
281
     0
  0
CLASS
  1
SCALE
  2
AcDbScale
  3
ObjectDBX Classes
 90
     1153
280
     0
281
     0
  0
CLASS
  1
TABLESTYLE
  2
AcDbTableStyle
  3
ObjectDBX Classes
 90
     4095
280
     0
281
     0
  0
CLASS
  1
MLEADERSTYLE
  2
AcDbMLeaderStyle
  3
ACDB_MLEADERSTYLE_CLASS
 90
     4095
280
     0
281
     0
  0
CLASS
  1
SUN
  2
AcDbSun
  3
SCENEOE
 90
     1153
280
     0
281
     0
  0
CLASS
  1
ACDBPLACEHOLDER
  2
AcDbPlaceHolder
  3
ObjectDBX Classes
 90
        0
280
     0
281
     0
  0
CLASS
  1
LAYOUT
  2
AcDbLayout
  3
ObjectDBX Classes
 90
        0
280
     0
281
     0
  0
ENDSEC
  0
SECTION
  2
TABLES
  0
TABLE
  2
VPORT
  5
8
330
0
100
AcDbSymbolTable
 70
     1
  0
VPORT
  5
29
330
8
100
AcDbSymbolTableRecord
100
AcDbViewportTableRecord
  2
*Active
 70
     0
 10
0.0
 20
0.0
 11
1.0
 21
1.0
 12
0.0
 22
-62.5
 13
0.0
 23
0.0
 14
10.0
 24
10.0
 15
10.0
 25
10.0
 16
0.0
 26
0.0
 36
1.0
 17
0.0
 27
0.0
 37
0.0
 40
127.5
 41
2.64
 42
50.0
 43
0.0
 44
0.0
 50
0.0
 51
0.0
 71
     0
 72
   100
 73
     1
 74
     3
 75
     0
 76
     0
 77
     0
 78
     0
281
     0
 65
     1
110
0.0
120
0.0
130
0.0
111
1.0
121
0.0
131
0.0
112
0.0
122
1.0
132
0.0
 79
     0
146
0.0
  0
ENDTAB
  0
TABLE
  2
LTYPE
  5
5
330
0
100
AcDbSymbolTable
 70
     6
  0
LTYPE
  5
14
330
5
100
AcDbSymbolTableRecord
100
AcDbLinetypeTableRecord
  2
ByBlock
 70
     0
  3

 72
    65
 73
     0
 40
0.0
  0
LTYPE
  5
15
330
5
100
AcDbSymbolTableRecord
100
AcDbLinetypeTableRecord
  2
ByLayer
 70
     0
  3

 72
    65
 73
     0
 40
0.0
  0
LTYPE
  5
16
330
5
100
AcDbSymbolTableRecord
100
AcDbLinetypeTableRecord
  2
Continuous
 70
     0
  3
Solid line
 72
    65
 73
     0
 40
0.0
  0
LTYPE
  5
6E
330
5
100
AcDbSymbolTableRecord
100
AcDbLinetypeTableRecord
  2
HIDDEN
 70
     0
  3
Hidden __ __ __ __ __ __ __ __ __ __ __ __ __ __
 72
    65
 73
     2
 40
1.905
 49
1.27
 74
     0
 49
-0.635
 74
     0
  0
LTYPE
  5
6F
330
5
100
AcDbSymbolTableRecord
100
AcDbLinetypeTableRecord
  2
PHANTOM
 70
     0
  3
Phantom ______  __  __  ______  __  __  ______
 72
    65
 73
     6
 40
12.7
 49
6.35
 74
     0
 49
-1.27
 74
     0
 49
1.27
 74
     0
 49
-1.27
 74
     0
 49
1.27
 74
     0
 49
-1.27
 74
     0
  0
LTYPE
  5
70
330
5
100
AcDbSymbolTableRecord
100
AcDbLinetypeTableRecord
  2
CENTER
 70
     0
  3
Center ____ _ ____ _ ____ _ ____ _ ____ _ ____
 72
    65
 73
     4
 40
10.16
 49
6.35
 74
     0
 49
-1.27
 74
     0
 49
1.27
 74
     0
 49
-1.27
 74
     0
  0
LTYPE
  5
71
330
5
100
AcDbSymbolTableRecord
100
AcDbLinetypeTableRecord
  2
CENTERX2
 70
     0
  3
Center (2x) ________  __  ________  __  _____
 72
    65
 73
     4
 40
20.32
 49
12.7
 74
     0
 49
-2.54
 74
     0
 49
2.54
 74
     0
 49
-2.54
 74
     0
  0
LTYPE
  5
72
330
5
100
AcDbSymbolTableRecord
100
AcDbLinetypeTableRecord
  2
DOT2
 70
     0
  3
Dot (.5x) ........................................
 72
    65
 73
     2
 40
0.635
 49
0.0
 74
     0
 49
-0.635
 74
     0
  0
ENDTAB
  0
TABLE
  2
LAYER
  5
2
330
0
100
AcDbSymbolTable
 70
     1
  0
LAYER
  5
10
330
2
100
AcDbSymbolTableRecord
100
AcDbLayerTableRecord
  2
0
 70
     0
 62
     7
  6
Continuous
370
    -3
390
F
  0
ENDTAB
  0
TABLE
  2
STYLE
  5
3
330
0
100
AcDbSymbolTable
 70
     1
  0
STYLE
  5
11
330
3
100
AcDbSymbolTableRecord
100
AcDbTextStyleTableRecord
  2
Standard
 70
     0
 40
0.0
 41
1.0
 50
0.0
 71
     0
 42
3.5
  3
txt
  4

  0
ENDTAB
  0
TABLE
  2
VIEW
  5
6
330
0
100
AcDbSymbolTable
 70
     0
  0
ENDTAB
  0
TABLE
  2
UCS
  5
7
330
0
100
AcDbSymbolTable
 70
     0
  0
ENDTAB
  0
TABLE
  2
APPID
  5
9
330
0
100
AcDbSymbolTable
 70
     1
  0
APPID
  5
12
330
9
100
AcDbSymbolTableRecord
100
AcDbRegAppTableRecord
  2
ACAD
 70
     0
  0
ENDTAB
  0
TABLE
  2
DIMSTYLE
  5
A
330
0
100
AcDbSymbolTable
 70
     1
100
AcDbDimStyleTable
  0
DIMSTYLE
105
27
330
A
100
AcDbSymbolTableRecord
100
AcDbDimStyleTableRecord
  2
ISO-25
 70
     0
 41
2.5
 42
0.625
 43
3.75
 44
1.25
 73
     0
 74
     0
 77
     1
 78
     8
140
2.5
141
2.5
143
0.0393700787
147
0.625
171
     3
172
     1
178
     0
271
     2
272
     2
274
     3
278
    44
283
     0
284
     8
340
11
  0
ENDTAB
  0
TABLE
  2
BLOCK_RECORD
  5
1
330
0
100
AcDbSymbolTable
 70
     1
  0
BLOCK_RECORD
  5
1F
330
1
100
AcDbSymbolTableRecord
100
AcDbBlockTableRecord
  2
*Model_Space
340
22
  0
BLOCK_RECORD
  5
1B
330
1
100
AcDbSymbolTableRecord
100
AcDbBlockTableRecord
  2
*Paper_Space
340
1E
  0
BLOCK_RECORD
  5
23
330
1
100
AcDbSymbolTableRecord
100
AcDbBlockTableRecord
  2
*Paper_Space0
340
26
  0
ENDTAB
  0
ENDSEC
  0
SECTION
  2
BLOCKS
  0
BLOCK
  5
20
330
1F
100
AcDbEntity
  8
0
100
AcDbBlockBegin
  2
*Model_Space
 70
     0
 10
0.0
 20
0.0
 30
0.0
  3
*Model_Space
  1

  0
ENDBLK
  5
21
330
1F
100
AcDbEntity
  8
0
100
AcDbBlockEnd
  0
BLOCK
  5
1C
330
1B
100
AcDbEntity
 67
     1
  8
0
100
AcDbBlockBegin
  2
*Paper_Space
 70
     0
 10
0.0
 20
0.0
 30
0.0
  3
*Paper_Space
  1

  0
ENDBLK
  5
1D
330
1B
100
AcDbEntity
 67
     1
  8
0
100
AcDbBlockEnd
  0
BLOCK
  5
24
330
23
100
AcDbEntity
  8
0
100
AcDbBlockBegin
  2
*Paper_Space0
 70
     0
 10
0.0
 20
0.0
 30
0.0
  3
*Paper_Space0
  1

  0
ENDBLK
  5
25
330
23
100
AcDbEntity
  8
0
100
AcDbBlockEnd
  0
ENDSEC
  0
SECTION
  2
ENTITIES
  0
SPLINE
  5
73
330
1F
100
AcDbEntity
  8
0
  6
Continuous
 62
     7
370
    15
100
AcDbSpline
210
0.0
220
0.0
230
1.0
 70
     8
 71
     3
 72
    12
 73
     8
 74
     0
 42
0.000000001
 43
0.00000001
 40
0.3312875370838783
 40
0.3312875370838783
 40
0.3312875370838783
 40
0.3312875370838783
 40
0.3923415483754197
 40
0.5269767890052311
 40
0.6728823607516908
 40
0.8314949925529794
 40
1.0
 40
1.0
 40
1.0
 40
1.0
 10
-7.434276802468238
 20
-30.4803601753565
 30
0.0
 10
-7.432600284917799
 20
-30.51902171333025
 30
0.0
 10
-7.427989775542855
 20
-30.64298901593203
 30
0.0
 10
-7.417619338220449
 20
-30.85922789526799
 30
0.0
 10
-7.410155232829704
 20
-31.13747854005988
 30
0.0
 10
-7.404665786519675
 20
-31.43722573494244
 30
0.0
 10
-7.403349448365664
 20
-31.64454694738646
 30
0.0
 10
-7.402671375575232
 20
-31.75134235752418
 30
0.0
  0
SPLINE
  5
74
330
1F
100
AcDbEntity
  8
0
  6
Continuous
 62
     7
370
    15
100
AcDbSpline
210
0.0
220
0.0
230
1.0
 70
     8
 71
     3
 72
    10
 73
     6
 74
     0
 42
0.000000001
 43
0.00000001
 40
0.0
 40
0.0
 40
0.0
 40
0.0
 40
0.1714146002789176
 40
0.3232926202099862
 40
0.3268314086922586
 40
0.3268314086922586
 40
0.3268314086922586
 40
0.3268314086922586
 10
-7.222290636090717
 20
-30.72828741716424
 30
0.0
 10
-7.262955451706177
 20
-30.68803557251202
 30
0.0
 10
-7.339650405165725
 20
-30.61211949357402
 30
0.0
 10
-7.404471251312305
 20
-30.52426802159523
 30
0.0
 10
-7.433614143128242
 20
-30.48133828861083
 30
0.0
 10
-7.434276802494813
 20
-30.48036017536295
 30
0.0
  0
SPLINE
  5
75
330
1F
100
AcDbEntity
  8
0
  6
Continuous
 62
     7
370
    15
100
AcDbSpline
210
0.0
220
0.0
230
1.0
 70
     8
 71
     3
 72
     9
 73
     5
 74
     0
 42
0.000000001
 43
0.00000001
 40
0.0
 40
0.0
 40
0.0
 40
0.0
 40
0.4129038760102786
 40
0.9999999999999999
 40
0.9999999999999999
 40
0.9999999999999999
 40
0.9999999999999999
 10
-7.074216894722833
 20
-30.87366890868908
 30
0.0
 10
-7.094949084382896
 20
-30.8540194090426
 30
0.0
 10
-7.145159777148466
 20
-30.80643085202457
 30
0.0
 10
-7.193758508993615
 20
-30.75719411476641
 30
0.0
 10
-7.222290636090717
 20
-30.72828741716424
 30
0.0
  0
SPLINE
  5
7B
330
1F
100
AcDbEntity
  8
0
  6
Continuous
 62
     7
370
    15
100
AcDbSpline
210
0.0
220
0.0
230
1.0
 70
     8
 71
     3
 72
    12
 73
     8
 74
     0
 42
0.000000001
 43
0.00000001
 40
0.2841579034827886
 40
0.2841579034827886
 40
0.2841579034827886
 40
0.2841579034827886
 40
0.3525135371826551
 40
0.4833604690434182
 40
0.6352659693373015
 40
0.8070596149168872
 40
1.0
 40
1.0
 40
1.0
 40
1.0
 10
-0.8144457554821419
 20
-34.60986330284298
 30
0.0
 10
-0.8184318483913446
 20
-34.5607411754059
 30
0.0
 10
-0.8295817314670253
 20
-34.41756144122211
 30
0.0
 10
-0.8405683764615884
 20
-34.16459838861319
 30
0.0
 10
-0.8477115305640487
 20
-33.83697051034616
 30
0.0
 10
-0.8532505325907318
 20
-33.46452703203691
 30
0.0
 10
-0.8544730556845649
 20
-33.20156965791531
 30
0.0
 10
-0.85511975727166
 20
-33.06246803109072
 30
0.0
  0
SPLINE
  5
7C
330
1F
100
AcDbEntity
  8
0
  6
Continuous
 62
     7
370
    15
100
AcDbSpline
210
0.0
220
0.0
230
1.0
 70
     8
 71
     3
 72
     9
 73
     5
 74
     0
 42
0.000000001
 43
0.00000001
 40
0.0
 40
0.0
 40
0.0
 40
0.0
 40
0.2823611353894964
 40
0.5241143762390464
 40
0.5241143762390464
 40
0.5241143762390464
 40
0.5241143762390464
 10
-1.315494480433631
 20
-34.0774462219215
 30
0.0
 10
-1.222146525553732
 20
-34.16995193563248
 30
0.0
 10
-1.0488754941932
 20
-34.34165961195025
 30
0.0
 10
-0.8850522580948414
 20
-34.52190105376604
 30
0.0
 10
-0.814445755479729
 20
-34.60986330284108
 30
0.0
  0
SPLINE
  5
83
330
1F
100
AcDbEntity
  8
0
  6
Continuous
 62
     7
370
    15
100
AcDbSpline
210
0.0
220
0.0
230
1.0
 70
     8
 71
     3
 72
    23
 73
    19
 74
     0
 42
0.000000001
 43
0.00000001
 40
0.0
 40
0.0
 40
0.0
 40
0.0
 40
0.0852316923617817
 40
0.1642554466335524
 40
0.2359489885978406
 40
0.3021204228053426
 40
0.3632540199755085
 40
0.4189737649485072
 40
0.4708137294019286
 40
0.5195126125148787
 40
0.567825724431543
 40
0.6186772194665069
 40
0.6718403054863162
 40
0.7286759679723825
 40
0.7891095229463572
 40
0.8543249824226474
 40
0.9247887725265264
 40
1.0
 40
1.0
 40
1.0
 40
1.0
 10
-14.07622028653366
 20
-27.68873734435802
 30
0.0
 10
-13.96937924978534
 20
-27.69018400086746
 30
0.0
 10
-13.76347905323174
 20
-27.6929719451696
 30
0.0
 10
-13.4684839842861
 20
-27.7169125387137
 30
0.0
 10
-13.19928553791874
 20
-27.75665428152134
 30
0.0
 10
-12.95619242791823
 20
-27.81319765595277
 30
0.0
 10
-12.73698433620698
 20
-27.88295519446036
 30
0.0
 10
-12.54700597638724
 20
-27.97698515149879
 30
0.0
 10
-12.38019880781331
 20
-28.08056704978897
 30
0.0
 10
-12.23943688679051
 20
-28.20452743979321
 30
0.0
 10
-12.12214683065081
 20
-28.34879127274299
 30
0.0
 10
-12.01989560358934
 20
-28.51050812677734
 30
0.0
 10
-11.93313647230986
 20
-28.69304507330166
 30
0.0
 10
-11.8641366451566
 20
-28.89558946228
 30
0.0
 10
-11.81001339414246
 20
-29.11815006580666
 30
0.0
 10
-11.77410477421458
 20
-29.36151156258273
 30
0.0
 10
-11.74876529367625
 20
-29.62483395857451
 30
0.0
 10
-11.74610527551119
 20
-29.80747178738688
 30
0.0
 10
-11.74473192245023
 20
-29.90176671534714
 30
0.0
  0
SPLINE
  5
85
330
1F
100
AcDbEntity
  8
0
  6
Continuous
 62
     7
370
    15
100
AcDbSpline
210
0.0
220
0.0
230
1.0
 70
     8
 71
     3
 72
    23
 73
    19
 74
     0
 42
0.000000001
 43
0.00000001
 40
0.0
 40
0.0
 40
0.0
 40
0.0
 40
0.0841463332692499
 40
0.1626778518966603
 40
0.2343657697355075
 40
0.2996500359064099
 40
0.3600125469486649
 40
0.415238855370294
 40
0.4658805692259009
 40
0.5134544027514844
 40
0.5601412217823781
 40
0.6096275391629044
 40
0.6621651481054727
 40
0.7186064017718595
 40
0.7805171413827479
 40
0.8473969014477444
 40
0.9209279598033798
 40
1.0
 40
1.0
 40
1.0
 40
1.0
 10
-21.9106673298163
 20
-30.00945670906924
 30
0.0
 10
-21.90905247938511
 20
-29.90530831400959
 30
0.0
 10
-21.90593053230704
 20
-29.70396101189277
 30
0.0
 10
-21.88402877859723
 20
-29.41466164166972
 30
0.0
 10
-21.85162414662817
 20
-29.14958398535827
 30
0.0
 10
-21.79771623229308
 20
-28.91129919765062
 30
0.0
 10
-21.74046096283946
 20
-28.69437534840545
 30
0.0
 10
-21.65695828585379
 20
-28.50576431169841
 30
0.0
 10
-21.56686276357025
 20
-28.3382380265419
 30
0.0
 10
-21.45743891725378
 20
-28.19491283026275
 30
0.0
 10
-21.32623226609679
 20
-28.07390623814531
 30
0.0
 10
-21.17515113761898
 20
-27.96742623816874
 30
0.0
 10
-20.99720692202518
 20
-27.88370187712585
 30
0.0
 10
-20.79921481170877
 20
-27.80825326307548
 30
0.0
 10
-20.57497773714891
 20
-27.75816301753786
 30
0.0
 10
-20.32803169536352
 20
-27.71651310547412
 30
0.0
 10
-20.05704671729733
 20
-27.6931161803163
 30
0.0
 10
-19.86818719017572
 20
-27.69023186593154
 30
0.0
 10
-19.7703287045896
 20
-27.68873734435802
 30
0.0
  0
SPLINE
  5
87
330
1F
100
AcDbEntity
  8
0
  6
Continuous
 62
     7
370
    15
100
AcDbSpline
210
0.0
220
0.0
230
1.0
 70
     8
 71
     3
 72
    23
 73
    19
 74
     0
 42
0.000000001
 43
0.00000001
 40
0.0
 40
0.0
 40
0.0
 40
0.0
 40
0.0792063746247201
 40
0.1514763327892319
 40
0.2185714467003191
 40
0.2794990498076231
 40
0.3361982442750688
 40
0.3883470398362008
 40
0.4374671254299574
 40
0.4843033007257712
 40
0.5315250561219298
 40
0.5824219170651523
 40
0.6376256576081349
 40
0.6984340951300735
 40
0.7644981422108158
 40
0.8363691235942936
 40
0.9150372981905327
 40
1.0
 40
1.0
 40
1.0
 40
1.0
 10
-19.7703287045896
 20
-37.51006477181338
 30
0.0
 10
-19.86910257514454
 20
-37.50869242408615
 30
0.0
 10
-20.05800029654576
 20
-37.50606791056668
 30
0.0
 10
-20.32964966432288
 20
-37.4813840373324
 30
0.0
 10
-20.57655056511012
 20
-37.44250738339983
 30
0.0
 10
-20.80023814386324
 20
-37.38597511626915
 30
0.0
 10
-20.9993395068613
 20
-37.31333619464564
 30
0.0
 10
-21.1776579452636
 20
-37.22840240845049
 30
0.0
 10
-21.32994380316531
 20
-37.12240952433554
 30
0.0
 10
-21.45922218349264
 20
-36.9984259683487
 30
0.0
 10
-21.57023483872208
 20
-36.85478731212709
 30
0.0
 10
-21.66031130379471
 20
-36.68544465747241
 30
0.0
 10
-21.73869918382169
 20
-36.49239329264415
 30
0.0
 10
-21.80280524166941
 20
-36.27419542997519
 30
0.0
 10
-21.84985351474281
 20
-36.03065642082768
 30
0.0
 10
-21.88452569738093
 20
-35.76271238780843
 30
0.0
 10
-21.90585342047084
 20
-35.46967898723261
 30
0.0
 10
-21.90902206308338
 20
-35.26566278946367
 30
0.0
 10
-21.9106673298163
 20
-35.15973065882859
 30
0.0
  0
SPLINE
  5
89
330
1F
100
AcDbEntity
  8
0
  6
Continuous
 62
     7
370
    15
100
AcDbSpline
210
0.0
220
0.0
230
1.0
 70
     8
 71
     3
 72
    23
 73
    19
 74
     0
 42
0.000000001
 43
0.00000001
 40
0.0
 40
0.0
 40
0.0
 40
0.0
 40
0.079574543494722
 40
0.153105093149343
 40
0.2208969103003395
 40
0.2839950204190311
 40
0.3421815563576402
 40
0.3957706715172184
 40
0.4463086510742968
 40
0.493629389954358
 40
0.540625454407614
 40
0.5908928835510399
 40
0.6453455735114665
 40
0.7037496146274602
 40
0.7685092732745952
 40
0.8392439128072245
 40
0.9162764946775629
 40
1.0
 40
1.0
 40
1.0
 40
1.0
 10
-11.74473192245023
 20
-35.15973065882859
 30
0.0
 10
-11.74642580252853
 20
-35.26296594513563
 30
0.0
 10
-11.7496849059526
 20
-35.46159539913165
 30
0.0
 10
-11.77038426177505
 20
-35.74765516495626
 30
0.0
 10
-11.80783822318998
 20
-36.01040695689318
 30
0.0
 10
-11.86046669646574
 20
-36.25034583516342
 30
0.0
 10
-11.93071359436355
 20
-36.4663892659603
 30
0.0
 10
-12.0137127319602
 20
-36.66041712115436
 30
0.0
 10
-12.11349677890755
 20
-36.83015319077386
 30
0.0
 10
-12.22746369228221
 20
-36.98061673704253
 30
0.0
 10
-12.36746507514755
 20
-37.10671582866851
 30
0.0
 10
-12.5300348022954
 20
-37.21885820338574
 30
0.0
 10
-12.7225848642299
 20
-37.30874324502593
 30
0.0
 10
-12.94174404700829
 20
-37.38089440109503
 30
0.0
 10
-13.18662541652209
 20
-37.43963378900587
 30
0.0
 10
-13.45930223975589
 20
-37.48244271805797
 30
0.0
 10
-13.75902077477381
 20
-37.5057148226319
 30
0.0
 10
-13.96759340795504
 20
-37.50857510558112
 30
0.0
 10
-14.07622028653366
 20
-37.51006477181338
 30
0.0
  0
SPLINE
  5
99
330
1F
100
AcDbEntity
  8
0
  6
Continuous
 62
     7
370
    15
100
AcDbSpline
210
0.0
220
0.0
230
1.0
 70
     8
 71
     3
 72
    23
 73
    19
 74
     0
 42
0.000000001
 43
0.00000001
 40
0.0
 40
0.0
 40
0.0
 40
0.0
 40
0.0858699278944639
 40
0.1647664886857827
 40
0.2377101958614583
 40
0.305079833941673
 40
0.3669031182928195
 40
0.423382041789536
 40
0.4766069880185829
 40
0.5262137443075531
 40
0.5758205005965232
 40
0.626444830832826
 40
0.6796746652417264
 40
0.7358209220282104
 40
0.7953063553357488
 40
0.8589912410558892
 40
0.9271098164028971
 40
1.0
 40
1.0
 40
1.0
 40
1.0
 10
-32.26129107641574
 20
-27.68873734435802
 30
0.0
 10
-32.1544513206258
 20
-27.69015193030094
 30
0.0
 10
-31.94944810418906
 20
-27.69286622579965
 30
0.0
 10
-31.65443979339798
 20
-27.7171419130804
 30
0.0
 10
-31.38456242145547
 20
-27.75714486168937
 30
0.0
 10
-31.1385465343394
 20
-27.81144176732284
 30
0.0
 10
-30.92019177935589
 20
-27.88791997964489
 30
0.0
 10
-30.72515824323411
 20
-27.97570454673495
 30
0.0
 10
-30.55803089464024
 20
-28.08366004521413
 30
0.0
 10
-30.41394808006567
 20
-28.20782336765114
 30
0.0
 10
-30.29136376323367
 20
-28.34926283896854
 30
0.0
 10
-30.18927017255331
 20
-28.51117699239894
 30
0.0
 10
-30.0999408576613
 20
-28.68936364954486
 30
0.0
 10
-30.02671778378125
 20
-28.88684619933791
 30
0.0
 10
-29.97489234568436
 20
-29.10415425482996
 30
0.0
 10
-29.93397005341193
 20
-29.33870908020268
 30
0.0
 10
-29.90987636320923
 20
-29.59255713036599
 30
0.0
 10
-29.90703910036499
 20
-29.76800057314226
 30
0.0
 10
-29.90557246374485
 20
-29.8586907178583
 30
0.0
  0
SPLINE
  5
9B
330
1F
100
AcDbEntity
  8
0
  6
Continuous
 62
     7
370
    15
100
AcDbSpline
210
0.0
220
0.0
230
1.0
 70
     8
 71
     3
 72
    23
 73
    19
 74
     0
 42
0.000000001
 43
0.00000001
 40
0.0
 40
0.0
 40
0.0
 40
0.0
 40
0.0858369262452042
 40
0.1645389519134027
 40
0.2371494503650484
 40
0.304039679932068
 40
0.3645719721001051
 40
0.419397001539756
 40
0.4701811549168715
 40
0.5174489338349852
 40
0.5637388673770048
 40
0.6127693936292788
 40
0.6648033465185502
 40
0.7214033520231664
 40
0.7820752604462535
 40
0.8491431326484005
 40
0.9214324733204052
 40
1.0
 40
1.0
 40
1.0
 40
1.0
 10
-39.03768393137878
 20
-30.0229179582845
 30
0.0
 10
-39.03575676276708
 20
-29.91700066706943
 30
0.0
 10
-39.03206261483564
 20
-29.71397009679655
 30
0.0
 10
-39.01458279329247
 20
-29.42169441195574
 30
0.0
 10
-38.98052329286898
 20
-29.15427606717149
 30
0.0
 10
-38.92882647425692
 20
-28.91267793621715
 30
0.0
 10
-38.86836724406314
 20
-28.6958587716246
 30
0.0
 10
-38.79344703721005
 20
-28.50440136912851
 30
0.0
 10
-38.70130324280957
 20
-28.33925193365257
 30
0.0
 10
-38.59555990024822
 20
-28.19493632238959
 30
0.0
 10
-38.46678165807047
 20
-28.07395197109916
 30
0.0
 10
-38.31842654547442
 20
-27.96751529225348
 30
0.0
 10
-38.14247679795798
 20
-27.88300198592715
 30
0.0
 10
-37.946585126419
 20
-27.80932820880752
 30
0.0
 10
-37.7246515384332
 20
-27.75727200183543
 30
0.0
 10
-37.48098911233416
 20
-27.71709682843
 30
0.0
 10
-37.21281635371935
 20
-27.69289892707434
 30
0.0
 10
-37.02662324366626
 20
-27.69016249909134
 30
0.0
 10
-36.92965230426871
 20
-27.68873734435802
 30
0.0
  0
SPLINE
  5
9D
330
1F
100
AcDbEntity
  8
0
  6
Continuous
 62
     7
370
    15
100
AcDbSpline
210
0.0
220
0.0
230
1.0
 70
     8
 71
     3
 72
    23
 73
    19
 74
     0
 42
0.000000001
 43
0.00000001
 40
0.0
 40
0.0
 40
0.0
 40
0.0
 40
0.0767286071106671
 40
0.1480332614541751
 40
0.2129512847199113
 40
0.2730650828994429
 40
0.3279281999963272
 40
0.3790658129668149
 40
0.4273630114735819
 40
0.4735626844135825
 40
0.520868091692742
 40
0.5723350414711952
 40
0.628524291845169
 40
0.6903748843169274
 40
0.7577855269063984
 40
0.8322186260954719
 40
0.9126223577004329
 40
1.0
 40
1.0
 40
1.0
 40
1.0
 10
-36.92965230426871
 20
-33.37476901288481
 30
0.0
 10
-37.02660121905286
 20
-33.37319621888505
 30
0.0
 10
-37.21364572032006
 20
-33.37016181184774
 30
0.0
 10
-37.48226760050616
 20
-33.34781407762792
 30
0.0
 10
-37.72633529477108
 20
-33.30258188031535
 30
0.0
 10
-37.94801783018348
 20
-33.24998788278056
 30
0.0
 10
-38.14330610233357
 20
-33.17180374309344
 30
0.0
 10
-38.31852603672481
 20
-33.08513741657989
 30
0.0
 10
-38.4678577682883
 20
-32.97608953988394
 30
0.0
 10
-38.59555768773532
 20
-32.84930296909001
 30
0.0
 10
-38.70203257454269
 20
-32.6993364380819
 30
0.0
 10
-38.79390304085258
 20
-32.52580269642077
 30
0.0
 10
-38.86822683529996
 20
-32.32434877709093
 30
0.0
 10
-38.92834719986503
 20
-32.09769888176571
 30
0.0
 10
-38.98106202445788
 20
-31.84553748861305
 30
0.0
 10
-39.01441935879356
 20
-31.56636385286332
 30
0.0
 10
-39.03207825683717
 20
-31.26068784409698
 30
0.0
 10
-39.03576430246569
 20
-31.04868850167493
 30
0.0
 10
-39.03768393137878
 20
-30.93828290492234
 30
0.0
  0
SPLINE
  5
A4
330
1F
100
AcDbEntity
  8
0
  6
Continuous
 62
     7
370
    15
100
AcDbSpline
210
0.0
220
0.0
230
1.0
 70
     8
 71
     3
 72
    23
 73
    19
 74
     0
 42
0.000000001
 43
0.00000001
 40
0.0
 40
0.0
 40
0.0
 40
0.0
 40
0.0792133082243348
 40
0.1514286795654541
 40
0.2183136155267199
 40
0.2798051486860429
 40
0.3367842227412451
 40
0.3887649324186835
 40
0.43752391351139
 40
0.4842941419854765
 40
0.5313792493215134
 40
0.5821114383314085
 40
0.6378261303428312
 40
0.697805772584674
 40
0.7637690998758764
 40
0.8363053003752109
 40
0.9149771213487148
 40
1.0
 40
1.0
 40
1.0
 40
1.0
 10
-37.252722285435
 20
-37.51006477181338
 30
0.0
 10
-37.35061875380931
 20
-37.50880176480353
 30
0.0
 10
-37.53776322829663
 20
-37.50638732854186
 30
0.0
 10
-37.80633429062996
 20
-37.48031626095775
 30
0.0
 10
-38.05213237599865
 20
-37.44607856244999
 30
0.0
 10
-38.27374846577056
 20
-37.38735830332825
 30
0.0
 10
-38.4739440655942
 20
-37.32054392805369
 30
0.0
 10
-38.64797054833802
 20
-37.23196807380065
 30
0.0
 10
-38.80234317685002
 20
-37.13383540288801
 30
0.0
 10
-38.93062747708772
 20
-37.01175666673128
 30
0.0
 10
-39.04181164888817
 20
-36.8711153833256
 30
0.0
 10
-39.13267306986791
 20
-36.70374557471014
 30
0.0
 10
-39.20916553244993
 20
-36.512663125106
 30
0.0
 10
-39.27504231713765
 20
-36.29776023210718
 30
0.0
 10
-39.3216233809439
 20
-36.05668886568949
 30
0.0
 10
-39.35598100780867
 20
-35.79052493048636
 30
0.0
 10
-39.37751428574249
 20
-35.49929878689372
 30
0.0
 10
-39.38065870353659
 20
-35.29707336027968
 30
0.0
 10
-39.38229191128949
 20
-35.19203765694522
 30
0.0
  0
SPLINE
  5
A6
330
1F
100
AcDbEntity
  8
0
  6
Continuous
 62
     7
370
    15
100
AcDbSpline
210
0.0
220
0.0
230
1.0
 70
     8
 71
     3
 72
    23
 73
    19
 74
     0
 42
0.000000001
 43
0.00000001
 40
0.0
 40
0.0
 40
0.0
 40
0.0
 40
0.0781521291917209
 40
0.1503732910433548
 40
0.2168587384294439
 40
0.2787037277338951
 40
0.3359176900118628
 40
0.388664130974874
 40
0.4381441090725768
 40
0.4853508202295228
 40
0.5324778743608812
 40
0.5830422552984958
 40
0.6379439174107264
 40
0.6977583683346963
 40
0.7632509884197654
 40
0.8352604960134247
 40
0.9143118650911285
 40
1.0
 40
1.0
 40
1.0
 40
1.0
 10
-29.73326847378949
 20
-35.19203765694522
 30
0.0
 10
-29.73462396274839
 20
-35.2944020294585
 30
0.0
 10
-29.73723207256999
 20
-35.49136233930044
 30
0.0
 10
-29.7624045205874
 20
-35.77446282550748
 30
0.0
 10
-29.79904480987366
 20
-36.03462059953861
 30
0.0
 10
-29.85112004672393
 20
-36.27238105114606
 30
0.0
 10
-29.92443288651103
 20
-36.48557832208862
 30
0.0
 10
-30.01101910591409
 20
-36.67582573317077
 30
0.0
 10
-30.10953057006218
 20
-36.84554617704515
 30
0.0
 10
-30.23011534025926
 20
-36.99156758542571
 30
0.0
 10
-30.37519229131657
 20
-37.11489028857477
 30
0.0
 10
-30.54323145795615
 20
-37.22432258159423
 30
0.0
 10
-30.74220695250865
 20
-37.311474296101
 30
0.0
 10
-30.96728170786251
 20
-37.38297281426991
 30
0.0
 10
-31.21886894809683
 20
-37.443460581813
 30
0.0
 10
-31.50021846554516
 20
-37.48146072592356
 30
0.0
 10
-31.8094481049019
 20
-37.50598795959449
 30
0.0
 10
-32.02521690611222
 20
-37.50866982021398
 30
0.0
 10
-32.13744758363534
 20
-37.51006477181339
 30
0.0
  0
SPLINE
  5
A8
330
1F
100
AcDbEntity
  8
0
  6
Continuous
 62
     7
370
    15
100
AcDbSpline
210
0.0
220
0.0
230
1.0
 70
     8
 71
     3
 72
    23
 73
    19
 74
     0
 42
0.000000001
 43
0.00000001
 40
0.0
 40
0.0
 40
0.0
 40
0.0
 40
0.0853748714730252
 40
0.1640336822744031
 40
0.2355725423973724
 40
0.3017298395774262
 40
0.3622940830384128
 40
0.4178839543690793
 40
0.4687093391936923
 40
0.5169539864600704
 40
0.5646717927079057
 40
0.6143279605521623
 40
0.6671053000983597
 40
0.7237250188617765
 40
0.7851536355883455
 40
0.8512053170219774
 40
0.9229491647867308
 40
1.0
 40
1.0
 40
1.0
 40
1.0
 10
-32.13744758363534
 20
-31.8240331032866
 30
0.0
 10
-32.02701996277213
 20
-31.82546757225896
 30
0.0
 10
-31.81485156986606
 20
-31.82822366692223
 30
0.0
 10
-31.51087336413216
 20
-31.85218607895641
 30
0.0
 10
-31.2337451565866
 20
-31.89220733564669
 30
0.0
 10
-30.98307585395365
 20
-31.9476635594841
 30
0.0
 10
-30.75829126266408
 20
-32.01994715680556
 30
0.0
 10
-30.56020004273899
 20
-32.10747406401532
 30
0.0
 10
-30.3902999351047
 20
-32.21423841397127
 30
0.0
 10
-30.24431791616176
 20
-32.33681371345433
 30
0.0
 10
-30.12167777436402
 20
-32.48057489105883
 30
0.0
 10
-30.0146549258862
 20
-32.643456313447
 30
0.0
 10
-29.93075405539285
 20
-32.83189556814763
 30
0.0
 10
-29.85678724952167
 20
-33.04031383111229
 30
0.0
 10
-29.80166074903961
 20
-33.2723770641264
 30
0.0
 10
-29.76161903174494
 20
-33.52706817014103
 30
0.0
 10
-29.73752144055722
 20
-33.80416895119775
 30
0.0
 10
-29.73471944188579
 20
-33.99662949876056
 30
0.0
 10
-29.73326847378949
 20
-34.09629197082287
 30
0.0
  0
SPLINE
  5
BB
330
1F
100
AcDbEntity
  8
0
  6
Continuous
 62
     7
370
    15
100
AcDbSpline
210
0.0
220
0.0
230
1.0
 70
     8
 71
     3
 72
    23
 73
    19
 74
     0
 42
0.000000001
 43
0.00000001
 40
0.0
 40
0.0
 40
0.0
 40
0.0
 40
0.0737452789478445
 40
0.1427062495268363
 40
0.2062705022340187
 40
0.2660001007621213
 40
0.3222154593487515
 40
0.3749003992571918
 40
0.4257187424044891
 40
0.4752261420350739
 40
0.5253997209573166
 40
0.5789905782306155
 40
0.6360878373844335
 40
0.6979541783231955
 40
0.7648797618715558
 40
0.8369955167440803
 40
0.9156084967601824
 40
1.0
 40
1.0
 40
1.0
 40
1.0
 10
-54.09705265347699
 20
-32.5536328107538
 30
0.0
 10
-54.09937435290877
 20
-32.41082472386146
 30
0.0
 10
-54.10386712889613
 20
-32.13447338621282
 30
0.0
 10
-54.14552260945303
 20
-31.73695937815361
 30
0.0
 10
-54.20730598130395
 20
-31.36941847714578
 30
0.0
 10
-54.30319169164594
 20
-31.03484807186639
 30
0.0
 10
-54.41886783852399
 20
-30.72889123479426
 30
0.0
 10
-54.56646207476248
 20
-30.45621677197403
 30
0.0
 10
-54.73863310460708
 20
-30.21405158507543
 30
0.0
 10
-54.94175230248975
 20
-30.00382638384417
 30
0.0
 10
-55.1751567154893
 20
-29.8190245847007
 30
0.0
 10
-55.44663971746402
 20
-29.66439837462934
 30
0.0
 10
-55.75418660663956
 20
-29.53282608333596
 30
0.0
 10
-56.09713498056069
 20
-29.42190064287863
 30
0.0
 10
-56.47804260136993
 20
-29.34057053371286
 30
0.0
 10
-56.89558158338652
 20
-29.28280944246976
 30
0.0
 10
-57.34944531728807
 20
-29.24358262082309
 30
0.0
 10
-57.66509248974789
 20
-29.24087503759941
 30
0.0
 10
-57.82851093594769
 20
-29.23947325395623
 30
0.0
  0
SPLINE
  5
BC
330
1F
100
AcDbEntity
  8
0
  6
Continuous
 62
     7
370
    15
100
AcDbSpline
210
0.0
220
0.0
230
1.0
 70
     8
 71
     3
 72
    23
 73
    19
 74
     0
 42
0.000000001
 43
0.00000001
 40
0.0
 40
0.0
 40
0.0
 40
0.0
 40
0.0844613709744709
 40
0.1627277696761661
 40
0.2351444234851395
 40
0.3015757341232917
 40
0.3623430366979415
 40
0.4187370673756231
 40
0.4713338981669499
 40
0.5206568727289629
 40
0.5694384617563268
 40
0.6199506151076325
 40
0.6728160406535446
 40
0.7292765128094462
 40
0.7897190425980049
 40
0.8545444676854684
 40
0.9246625195124674
 40
1.0
 40
1.0
 40
1.0
 40
1.0
 10
-57.82851093594769
 20
-35.95932886221516
 30
0.0
 10
-57.66243552942372
 20
-35.95641718359256
 30
0.0
 10
-57.34246581794606
 20
-35.95080738869104
 30
0.0
 10
-56.88096230192575
 20
-35.91735023615483
 30
0.0
 10
-56.4579889761897
 20
-35.85628563029471
 30
0.0
 10
-56.07469936067728
 20
-35.77025210699385
 30
0.0
 10
-55.72886213710815
 20
-35.66457964603592
 30
0.0
 10
-55.42280601194196
 20
-35.52939435504058
 30
0.0
 10
-55.153590331613
 20
-35.37142942455903
 30
0.0
 10
-54.92170185039888
 20
-35.1848972337454
 30
0.0
 10
-54.72536519122671
 20
-34.96707950797444
 30
0.0
 10
-54.55464743111393
 20
-34.72040562484867
 30
0.0
 10
-54.41108924597269
 20
-34.43973887527211
 30
0.0
 10
-54.29716010694294
 20
-34.12530209835155
 30
0.0
 10
-54.20535097916759
 20
-33.77947509064708
 30
0.0
 10
-54.14184289978646
 20
-33.40007093194227
 30
0.0
 10
-54.10483951826726
 20
-32.98782712155445
 30
0.0
 10
-54.09970963417918
 20
-32.70178562140033
 30
0.0
 10
-54.09705265347699
 20
-32.5536328107538
 30
0.0
  0
SPLINE
  5
C0
330
1F
100
AcDbEntity
  8
0
  6
Continuous
 62
     7
370
    15
100
AcDbSpline
210
0.0
220
0.0
230
1.0
 70
     8
 71
     3
 72
    15
 73
    11
 74
     0
 42
0.000000001
 43
0.00000001
 40
0.0
 40
0.0
 40
0.0
 40
0.0
 40
0.091614733021314
 40
0.1908430370857647
 40
0.2980868804963028
 40
0.4148820443062566
 40
0.5423506650024671
 40
0.6813902826949653
 40
0.8345204240151499
 40
0.9999999999999999
 40
0.9999999999999999
 40
0.9999999999999999
 40
0.9999999999999999
 10
-54.12397515190752
 20
-36.74546581638648
 30
0.0
 10
-54.21688012247267
 20
-36.80612924206611
 30
0.0
 10
-54.41041085883239
 20
-36.93249748017505
 30
0.0
 10
-54.73961259768895
 20
-37.08247392115153
 30
0.0
 10
-55.1078978657337
 20
-37.21447407228462
 30
0.0
 10
-55.51899098305162
 20
-37.32559483826743
 30
0.0
 10
-55.97607808230318
 20
-37.40559991599909
 30
0.0
 10
-56.47995012161581
 20
-37.46908309276361
 30
0.0
 10
-57.03298388071663
 20
-37.50133233302866
 30
0.0
 10
-57.41835916121064
 20
-37.50707970214248
 30
0.0
 10
-57.6185154481896
 20
-37.51006477181338
 30
0.0
  0
SPLINE
  5
C1
330
1F
100
AcDbEntity
  8
0
  6
Continuous
 62
     7
370
    15
100
AcDbSpline
210
0.0
220
0.0
230
1.0
 70
     8
 71
     3
 72
    15
 73
    11
 74
     0
 42
0.000000001
 43
0.00000001
 40
0.0
 40
0.0
 40
0.0
 40
0.0
 40
0.1351788233078491
 40
0.2648186163672572
 40
0.391478011218339
 40
0.5159508187816317
 40
0.6377476580358833
 40
0.7572808050877262
 40
0.8778222471050554
 40
1.0
 40
1.0
 40
1.0
 40
1.0
 10
-52.20170876396806
 20
-32.54017156153854
 30
0.0
 10
-52.20717446412761
 20
-32.75675677249955
 30
0.0
 10
-52.2178819042304
 20
-33.18105249048851
 30
0.0
 10
-52.30869874439991
 20
-33.80304460738056
 30
0.0
 10
-52.45961517265579
 20
-34.39495580895581
 30
0.0
 10
-52.66844005665914
 20
-34.95585874182623
 30
0.0
 10
-52.93717973076819
 20
-35.47834425048551
 30
0.0
 10
-53.26962163974264
 20
-35.95486709903145
 30
0.0
 10
-53.66275293980592
 20
-36.38519613343129
 30
0.0
 10
-53.9695449934794
 20
-36.62483740180491
 30
0.0
 10
-54.12397515190752
 20
-36.74546581638648
 30
0.0
  0
SPLINE
  5
C2
330
1F
100
AcDbEntity
  8
0
  6
Continuous
 62
     7
370
    15
100
AcDbSpline
210
0.0
220
0.0
230
1.0
 70
     8
 71
     3
 72
    15
 73
    11
 74
     0
 42
0.000000001
 43
0.00000001
 40
0.0
 40
0.0
 40
0.0
 40
0.0
 40
0.1236526262117546
 40
0.2455917382820168
 40
0.3672096774473141
 40
0.4908302686078056
 40
0.6159753367164936
 40
0.7415416812301441
 40
0.8694337912936297
 40
1.0
 40
1.0
 40
1.0
 40
1.0
 10
-54.12666740175057
 20
-28.45872079947102
 30
0.0
 10
-53.97428646703445
 20
-28.57779453372446
 30
0.0
 10
-53.67163621378479
 20
-28.81429194000642
 30
0.0
 10
-53.2794473030256
 20
-29.2364235459174
 30
0.0
 10
-52.94908084874405
 20
-29.70702429230398
 30
0.0
 10
-52.67748938406939
 20
-30.21955957058344
 30
0.0
 10
-52.46636727999683
 20
-30.76616414165842
 30
0.0
 10
-52.31170702075485
 20
-31.33792898682188
 30
0.0
 10
-52.21781811010518
 20
-31.93219831509793
 30
0.0
 10
-52.20711545712314
 20
-32.33612077251084
 30
0.0
 10
-52.20170876396806
 20
-32.54017156153854
 30
0.0
  0
SPLINE
  5
C3
330
1F
100
AcDbEntity
  8
0
  6
Continuous
 62
     7
370
    15
100
AcDbSpline
210
0.0
220
0.0
230
1.0
 70
     8
 71
     3
 72
    15
 73
    11
 74
     0
 42
0.000000001
 43
0.00000001
 40
0.0
 40
0.0
 40
0.0
 40
0.0
 40
0.1632752567643878
 40
0.3135264226352693
 40
0.4517706395968784
 40
0.5785375106920486
 40
0.6951673189281391
 40
0.8038321345672316
 40
0.9050597738392286
 40
0.9999999999999999
 40
0.9999999999999999
 40
0.9999999999999999
 40
0.9999999999999999
 10
-57.6185154481896
 20
-27.68873734435802
 30
0.0
 10
-57.42100446296845
 20
-27.69006699428314
 30
0.0
 10
-57.04173748856756
 20
-27.69262023102362
 30
0.0
 10
-56.4965035792524
 20
-27.732322638971
 30
0.0
 10
-55.99731255282199
 20
-27.78908832551853
 30
0.0
 10
-55.54279438624092
 20
-27.87179364107688
 30
0.0
 10
-55.13043745390497
 20
-27.97953198339656
 30
0.0
 10
-54.75714149058451
 20
-28.10978141412908
 30
0.0
 10
-54.42289503742632
 20
-28.26794966774773
 30
0.0
 10
-54.2232772849461
 20
-28.39650386042405
 30
0.0
 10
-54.12666740175057
 20
-28.45872079947102
 30
0.0
  0
SPLINE
  5
CF
330
1F
100
AcDbEntity
  8
0
  6
Continuous
 62
     7
370
    15
100
AcDbSpline
210
0.0
220
0.0
230
1.0
 70
     8
 71
     3
 72
    19
 73
    15
 74
     0
 42
0.000000001
 43
0.00000001
 40
0.0
 40
0.0
 40
0.0
 40
0.0
 40
0.1432780786833663
 40
0.270927541473457
 40
0.3862264153798045
 40
0.4943015483544888
 40
0.5469904323625977
 40
0.6012970925158277
 40
0.6572796203195715
 40
0.7167683529826294
 40
0.779940468521829
 40
0.8479651194348498
 40
0.9211676158489153
 40
1.0
 40
1.0
 40
1.0
 40
1.0
 10
111.2434614403531
 20
-83.56709636707386
 30
0.0
 10
111.237429085046
 20
-83.76744441239535
 30
0.0
 10
111.2260223771416
 20
-84.14628675769164
 30
0.0
 10
111.1190323655926
 20
-84.67835152658054
 30
0.0
 10
110.9394343520077
 20
-85.13730281371005
 30
0.0
 10
110.7270003833192
 20
-85.46402489599583
 30
0.0
 10
110.5163131102142
 20
-85.6792226881974
 30
0.0
 10
110.3369408762327
 20
-85.82110752757455
 30
0.0
 10
110.1278028709095
 20
-85.93449409487977
 30
0.0
 10
109.8981535838659
 20
-86.03368979713092
 30
0.0
 10
109.6400535219202
 20
-86.10238420115037
 30
0.0
 10
109.3596165808026
 20
-86.15703671840859
 30
0.0
 10
109.0532963378952
 20
-86.18903813906714
 30
0.0
 10
108.8408510261956
 20
-86.19278790405505
 30
0.0
 10
108.7306949201708
 20
-86.19473221389303
 30
0.0
  0
SPLINE
  5
D3
330
1F
100
AcDbEntity
  8
0
  6
Continuous
 62
     7
370
    15
100
AcDbSpline
210
0.0
220
0.0
230
1.0
 70
     8
 71
     3
 72
    15
 73
    11
 74
     0
 42
0.000000001
 43
0.00000001
 40
0.0
 40
0.0
 40
0.0
 40
0.0
 40
0.1539776700468244
 40
0.2793092994572049
 40
0.3837106282214443
 40
0.4711694048372464
 40
0.5626969292208339
 40
0.6800803946637081
 40
0.8241886363844593
 40
1.0
 40
1.0
 40
1.0
 40
1.0
 10
108.0486582932642
 20
-84.12708433442876
 30
0.0
 10
108.1326186025445
 20
-84.12471583160102
 30
0.0
 10
108.284919226136
 20
-84.1204194627485
 30
0.0
 10
108.4914158272237
 20
-84.08173024403104
 30
0.0
 10
108.6541202015386
 20
-84.02014886734595
 30
0.0
 10
108.7799836670082
 20
-83.92405563777237
 30
0.0
 10
108.8561653586052
 20
-83.77812479874126
 30
0.0
 10
108.9120921236036
 20
-83.59373203277768
 30
0.0
 10
108.9410435436024
 20
-83.356115737282
 30
0.0
 10
108.9442905305571
 20
-83.18184906397774
 30
0.0
 10
108.946074907615
 20
-83.08608106178181
 30
0.0
  0
SPLINE
  5
DA
330
1F
100
AcDbEntity
  8
0
  6
Continuous
 62
     7
370
    15
100
AcDbSpline
210
0.0
220
0.0
230
1.0
 70
     8
 71
     3
 72
    23
 73
    19
 74
     0
 42
0.000000001
 43
0.00000001
 40
0.0
 40
0.0
 40
0.0
 40
0.0
 40
0.0743260439506464
 40
0.1435991835362974
 40
0.2066903566065076
 40
0.2646600610176628
 40
0.3192744593320734
 40
0.3700079779984491
 40
0.4179719862961508
 40
0.4645587494576932
 40
0.5125655418426633
 40
0.5649711034459943
 40
0.6221614933361721
 40
0.6847673424832836
 40
0.7541631531293846
 40
0.829020005841315
 40
0.9111445225719639
 40
1.0
 40
1.0
 40
1.0
 40
1.0
 10
69.90127285043958
 20
-91.24898258591685
 30
0.0
 10
69.78514263995696
 20
-91.24699884568729
 30
0.0
 10
69.56077709427721
 20
-91.24316622575799
 30
0.0
 10
69.2388720290998
 20
-91.2117653869862
 30
0.0
 10
68.94643680043056
 20
-91.15702153008226
 30
0.0
 10
68.68012605405535
 20
-91.08786364131986
 30
0.0
 10
68.44435028749024
 20
-90.9892395316417
 30
0.0
 10
68.23130954633523
 20
-90.87744202606285
 30
0.0
 10
68.05514470494424
 20
-90.73281035573984
 30
0.0
 10
67.89816155769813
 20
-90.57356016835953
 30
0.0
 10
67.77276228518586
 20
-90.37980687942671
 30
0.0
 10
67.66073895805434
 20
-90.16018612748049
 30
0.0
 10
67.56830242042886
 20
-89.9068177367044
 30
0.0
 10
67.49418351531176
 20
-89.62041896442727
 30
0.0
 10
67.43364214375661
 20
-89.30271643297354
 30
0.0
 10
67.39126549784376
 20
-88.95136745948243
 30
0.0
 10
67.36631831934373
 20
-88.56787261128227
 30
0.0
 10
67.3643839334419
 20
-88.30070962270287
 30
0.0
 10
67.36337866505546
 20
-88.16186943255003
 30
0.0
  0
SPLINE
  5
DC
330
1F
100
AcDbEntity
  8
0
  6
Continuous
 62
     7
370
    15
100
AcDbSpline
210
0.0
220
0.0
230
1.0
 70
     8
 71
     3
 72
    23
 73
    19
 74
     0
 42
0.000000001
 43
0.00000001
 40
0.0
 40
0.0
 40
0.0
 40
0.0
 40
0.0831225649877951
 40
0.1598387376203198
 40
0.2309945537903454
 40
0.2970571177092951
 40
0.3573711861430727
 40
0.4128209262194643
 40
0.4641363316917575
 40
0.5121008592869218
 40
0.558918249250824
 40
0.607909349661112
 40
0.6605619003557773
 40
0.7171176052375274
 40
0.7788499792588615
 40
0.8459564812345578
 40
0.9198020240928845
 40
1.0
 40
1.0
 40
1.0
 40
1.0
 10
78.85031132874595
 20
-88.16186943255003
 30
0.0
 10
78.84983206874769
 20
-88.29716494018204
 30
0.0
 10
78.84891048610496
 20
-88.5573285088685
 30
0.0
 10
78.81689723251415
 20
-88.93195130204943
 30
0.0
 10
78.77804618235879
 20
-89.2781435736809
 30
0.0
 10
78.71121737761479
 20
-89.59270517843667
 30
0.0
 10
78.63628715197932
 20
-89.87944543508101
 30
0.0
 10
78.53271187496907
 20
-90.13119423219779
 30
0.0
 10
78.42117031014635
 20
-90.35768517111809
 30
0.0
 10
78.28069452749848
 20
-90.55036218427922
 30
0.0
 10
78.12097084874442
 20
-90.72292999034819
 30
0.0
 10
77.92121486887642
 20
-90.86089946408298
 30
0.0
 10
77.6951977573157
 20
-90.98529114608878
 30
0.0
 10
77.43248803096854
 20
-91.07893350520087
 30
0.0
 10
77.14159045471968
 20
-91.15986506494067
 30
0.0
 10
76.81524902352201
 20
-91.21094763530928
 30
0.0
 10
76.45668372511045
 20
-91.24354670457532
 30
0.0
 10
76.2060064818397
 20
-91.24712148662071
 30
0.0
 10
76.07549915717321
 20
-91.24898258591685
 30
0.0
  0
SPLINE
  5
E5
330
1F
100
AcDbEntity
  8
0
  6
Continuous
 62
     7
370
    15
100
AcDbSpline
210
0.0
220
0.0
230
1.0
 70
     8
 71
     3
 72
    23
 73
    19
 74
     0
 42
0.000000001
 43
0.00000001
 40
0.0
 40
0.0
 40
0.0
 40
0.0
 40
0.0839857795710356
 40
0.1615439920836743
 40
0.2330010584084647
 40
0.2987742989316678
 40
0.3589507034572169
 40
0.414440556013035
 40
0.4667873637526923
 40
0.5162161584710364
 40
0.5654154801068383
 40
0.6167668385084497
 40
0.6709429270272992
 40
0.7282725031868826
 40
0.7893638618431956
 40
0.854834269620971
 40
0.9249264095334184
 40
1.0
 40
1.0
 40
1.0
 40
1.0
 10
59.57739211894776
 20
-78.1538793493097
 30
0.0
 10
59.71266693945478
 20
-78.15578843694733
 30
0.0
 10
59.97286378045241
 20
-78.15946050666903
 30
0.0
 10
60.34713023120523
 20
-78.19166090227993
 30
0.0
 10
60.68905237984755
 20
-78.245029207728
 30
0.0
 10
60.9994186100844
 20
-78.31720446221495
 30
0.0
 10
61.27338355834237
 20
-78.42016240165516
 30
0.0
 10
61.51867113838952
 20
-78.5362820237974
 30
0.0
 10
61.727018591114
 20
-78.6818682466023
 30
0.0
 10
61.90862800175619
 20
-78.84501485341771
 30
0.0
 10
62.05629734572747
 20
-79.03742939064647
 30
0.0
 10
62.18610560160618
 20
-79.25051705123936
 30
0.0
 10
62.29773769197881
 20
-79.48849281013473
 30
0.0
 10
62.38722003644001
 20
-79.75224733191718
 30
0.0
 10
62.45374843653328
 20
-80.04116245424576
 30
0.0
 10
62.50462840944791
 20
-80.35401113202913
 30
0.0
 10
62.53213279979006
 20
-80.69248068684672
 30
0.0
 10
62.53657145903417
 20
-80.92625322256404
 30
0.0
 10
62.53886694630545
 20
-81.04715051397675
 30
0.0
  0
SPLINE
  5
E7
330
1F
100
AcDbEntity
  8
0
  6
Continuous
 62
     7
370
    15
100
AcDbSpline
210
0.0
220
0.0
230
1.0
 70
     8
 71
     3
 72
    23
 73
    19
 74
     0
 42
0.000000001
 43
0.00000001
 40
0.0
 40
0.0
 40
0.0
 40
0.0
 40
0.0881525179773685
 40
0.1690439123254718
 40
0.2435330139708455
 40
0.3112132588596291
 40
0.3731874366517881
 40
0.4299259888227246
 40
0.481036008430901
 40
0.5287062714274335
 40
0.5746602677135018
 40
0.6232118848224497
 40
0.6740043457979643
 40
0.7293491066425222
 40
0.78877256051581
 40
0.853244165114492
 40
0.9237783620740145
 40
0.9999999999999999
 40
0.9999999999999999
 40
0.9999999999999999
 40
0.9999999999999999
 10
51.74115024243642
 20
-81.26612016787836
 30
0.0
 10
51.74165097413971
 20
-81.12485233041106
 30
0.0
 10
51.74261119227175
 20
-80.85395288840803
 30
0.0
 10
51.77407034265616
 20
-80.46486246707757
 30
0.0
 10
51.81427057873217
 20
-80.10965611152407
 30
0.0
 10
51.87525450069083
 20
-79.78805237942483
 30
0.0
 10
51.95303190620999
 20
-79.49934598215283
 30
0.0
 10
52.0496320041527
 20
-79.24464325667876
 30
0.0
 10
52.16001536715463
 20
-79.02054842562629
 30
0.0
 10
52.29483662689875
 20
-78.83058586450679
 30
0.0
 10
52.45482218417509
 20
-78.66737073920257
 30
0.0
 10
52.64169503959203
 20
-78.52676437676706
 30
0.0
 10
52.86244265442556
 20
-78.41260742987215
 30
0.0
 10
53.10953597474998
 20
-78.31459183142638
 30
0.0
 10
53.38896442718003
 20
-78.246000616588
 30
0.0
 10
53.69571054985672
 20
-78.19116106855932
 30
0.0
 10
54.03310059973398
 20
-78.15960451246757
 30
0.0
 10
54.26821238300151
 20
-78.1558364138857
 30
0.0
 10
54.39032408800003
 20
-78.1538793493097
 30
0.0
  0
SPLINE
  5
E9
330
1F
100
AcDbEntity
  8
0
  6
Continuous
 62
     7
370
    15
100
AcDbSpline
210
0.0
220
0.0
230
1.0
 70
     8
 71
     3
 72
    23
 73
    19
 74
     0
 42
0.000000001
 43
0.00000001
 40
0.0
 40
0.0
 40
0.0
 40
0.0
 40
0.0750749108974955
 40
0.1438740253493915
 40
0.2068903822721132
 40
0.265039506875155
 40
0.319292567091232
 40
0.3691825759777474
 40
0.4169805618177495
 40
0.4628575671087494
 40
0.5101419413720331
 40
0.5622744285894822
 40
0.6194198748190151
 40
0.6826842375734973
 40
0.7515643171352835
 40
0.8278387069452451
 40
0.9103735941425131
 40
1.0
 40
1.0
 40
1.0
 40
1.0
 10
54.39032408800003
 20
-85.73525490734542
 30
0.0
 10
54.26703218823891
 20
-85.73322482036428
 30
0.0
 10
54.03075482607428
 20
-85.72933434906976
 30
0.0
 10
53.69172839968816
 20
-85.69903048603189
 30
0.0
 10
53.38523855161804
 20
-85.63944038833871
 30
0.0
 10
53.10570935022123
 20
-85.5674497195686
 30
0.0
 10
52.85860356278634
 20
-85.46583534635538
 30
0.0
 10
52.63793752772586
 20
-85.34783821586706
 30
0.0
 10
52.45010159828663
 20
-85.20354154676006
 30
0.0
 10
52.29061931821385
 20
-85.03408793451587
 30
0.0
 10
52.16055583611139
 20
-84.83305876052624
 30
0.0
 10
52.04424739710183
 20
-84.60301413323872
 30
0.0
 10
51.95408410776834
 20
-84.33366960122997
 30
0.0
 10
51.87497924505361
 20
-84.03289714684531
 30
0.0
 10
51.81417472606199
 20
-83.69561980067317
 30
0.0
 10
51.77415607469138
 20
-83.32372744411329
 30
0.0
 10
51.74263343124628
 20
-82.91669573869454
 30
0.0
 10
51.74165803131567
 20
-82.63385328878667
 30
0.0
 10
51.74115024243642
 20
-82.48660676339547
 30
0.0
  0
SPLINE
  5
F0
330
1F
100
AcDbEntity
  8
0
  6
Continuous
 62
     7
370
    15
100
AcDbSpline
210
0.0
220
0.0
230
1.0
 70
     8
 71
     3
 72
    23
 73
    19
 74
     0
 42
0.000000001
 43
0.00000001
 40
0.0
 40
0.0
 40
0.0
 40
0.0
 40
0.0774401629552109
 40
0.1492580915045961
 40
0.2156778881108554
 40
0.275941201181216
 40
0.331683370284492
 40
0.3837765121261304
 40
0.4320351635504483
 40
0.4784334764727438
 40
0.52532118745127
 40
0.5764507770214107
 40
0.6327169961476131
 40
0.6933758364013509
 40
0.7603172837963974
 40
0.8339290685465324
 40
0.9137163816269542
 40
1.0
 40
1.0
 40
1.0
 40
1.0
 10
54.0313574422597
 20
-91.24898258591685
 30
0.0
 10
53.90561539252585
 20
-91.24723963337337
 30
0.0
 10
53.66326029345398
 20
-91.24388026840955
 30
0.0
 10
53.31472762418925
 20
-91.20928661026522
 30
0.0
 10
52.99523204269367
 20
-91.16407218207215
 30
0.0
 10
52.70916277091894
 20
-91.08575237522169
 30
0.0
 10
52.45150862908394
 20
-90.99455872298427
 30
0.0
 10
52.22525055428763
 20
-90.87931243300194
 30
0.0
 10
52.02595728335796
 20
-90.7470122730293
 30
0.0
 10
51.86188101096173
 20
-90.58439691191538
 30
0.0
 10
51.72163753571997
 20
-90.39561362301379
 30
0.0
 10
51.60362077184823
 20
-90.17379648539138
 30
0.0
 10
51.50525579053133
 20
-89.9189278507105
 30
0.0
 10
51.42197872022839
 20
-89.63197143014683
 30
0.0
 10
51.35893114394205
 20
-89.31121378574191
 30
0.0
 10
51.31210234407031
 20
-88.95640058586112
 30
0.0
 10
51.28935389734921
 20
-88.56779260270677
 30
0.0
 10
51.28429916611863
 20
-88.29829804330448
 30
0.0
 10
51.2816729358888
 20
-88.15827976609263
 30
0.0
  0
SPLINE
  5
F2
330
1F
100
AcDbEntity
  8
0
  6
Continuous
 62
     7
370
    15
100
AcDbSpline
210
0.0
220
0.0
230
1.0
 70
     8
 71
     3
 72
    23
 73
    19
 74
     0
 42
0.000000001
 43
0.00000001
 40
0.0
 40
0.0
 40
0.0
 40
0.0
 40
0.0794430917950087
 40
0.1534497659744909
 40
0.221631125257863
 40
0.284214833066792
 40
0.342448829495925
 40
0.3968956710462887
 40
0.4472812502638583
 40
0.4943733295398863
 40
0.5416067874784095
 40
0.5913113825001127
 40
0.646002604751876
 40
0.7046759817308453
 40
0.7691067863406695
 40
0.8394769475731908
 40
0.9163415871319793
 40
1.0
 40
1.0
 40
1.0
 40
1.0
 10
62.76860559957927
 20
-88.15827976609262
 30
0.0
 10
62.76630339145613
 20
-88.29353004762305
 30
0.0
 10
62.76185651898758
 20
-88.55477521796935
 30
0.0
 10
62.73462058221316
 20
-88.93145904447222
 30
0.0
 10
62.6840166545026
 20
-89.27665690316452
 30
0.0
 10
62.6172707524469
 20
-89.5917663062321
 30
0.0
 10
62.52794164615598
 20
-89.87704391030475
 30
0.0
 10
62.41723554584121
 20
-90.13223376868027
 30
0.0
 10
62.28809397660375
 20
-90.35707465079385
 30
0.0
 10
62.13794978432625
 20
-90.55343974005399
 30
0.0
 10
61.95872786579045
 20
-90.72284302085201
 30
0.0
 10
61.74065400313433
 20
-90.86287759468875
 30
0.0
 10
61.49044999761834
 20
-90.98486027698176
 30
0.0
 10
61.20224688419837
 20
-91.0793582729674
 30
0.0
 10
60.88247644989121
 20
-91.15998609846407
 30
0.0
 10
60.52519724066508
 20
-91.21074058699493
 30
0.0
 10
60.13322165269024
 20
-91.24361075239803
 30
0.0
 10
59.8598564779658
 20
-91.24714215521162
 30
0.0
 10
59.71738911078648
 20
-91.24898258591685
 30
0.0
  0
SPLINE
  5
F4
330
1F
100
AcDbEntity
  8
0
  6
Continuous
 62
     7
370
    15
100
AcDbSpline
210
0.0
220
0.0
230
1.0
 70
     8
 71
     3
 72
    23
 73
    19
 74
     0
 42
0.000000001
 43
0.00000001
 40
0.0
 40
0.0
 40
0.0
 40
0.0
 40
0.0832983509349165
 40
0.1604303048938678
 40
0.230990941487862
 40
0.2953807546123052
 40
0.3547996004637582
 40
0.4095463838336919
 40
0.460477736513392
 40
0.5083536545236164
 40
0.5559270779765877
 40
0.6067040400470235
 40
0.6605411513859872
 40
0.7183832756004931
 40
0.7812243697376524
 40
0.848863776083095
 40
0.9216819325571506
 40
1.0
 40
1.0
 40
1.0
 40
1.0
 10
59.71738911078648
 20
-83.66760702788113
 30
0.0
 10
59.857454920735
 20
-83.6695109884915
 30
0.0
 10
60.12721777129615
 20
-83.67317796362126
 30
0.0
 10
60.51452538432701
 20
-83.7054669442498
 30
0.0
 10
60.86760359572193
 20
-83.75773901035203
 30
0.0
 10
61.18578998541031
 20
-83.83339958916818
 30
0.0
 10
61.47176752933766
 20
-83.92730588759532
 30
0.0
 10
61.72057594466091
 20
-84.05187243807643
 30
0.0
 10
61.93946410444001
 20
-84.19008730820612
 30
0.0
 10
62.12344346657893
 20
-84.35552363672956
 30
0.0
 10
62.27710104669581
 20
-84.54847420202621
 30
0.0
 10
62.4099557470688
 20
-84.7679954109457
 30
0.0
 10
62.51997193299173
 20
-85.01856795310314
 30
0.0
 10
62.61448511339478
 20
-85.29676789383808
 30
0.0
 10
62.68449667029985
 20
-85.6060530685954
 30
0.0
 10
62.73422173284276
 20
-85.94446680309755
 30
0.0
 10
62.76196917184848
 20
-86.31153212282904
 30
0.0
 10
62.7663404329898
 20
-86.56561894401297
 30
0.0
 10
62.76860559957927
 20
-86.6972855179295
 30
0.0
  0
SPLINE
  5
107
330
1F
100
AcDbEntity
  8
0
  6
Continuous
 62
     7
370
    15
100
AcDbSpline
210
0.0
220
0.0
230
1.0
 70
     8
 71
     3
 72
    10
 73
     6
 74
     0
 42
0.000000001
 43
0.00000001
 40
0.0
 40
0.0
 40
0.0
 40
0.0
 40
0.0749897466058276
 40
0.1874473574571352
 40
0.2271807907561303
 40
0.2271807907561303
 40
0.2271807907561303
 40
0.2271807907561303
 10
21.87512531684118
 20
-82.49737576276766
 30
0.0
 10
21.87645769601387
 20
-82.45669660542016
 30
0.0
 10
21.87978816406255
 20
-82.35501336346368
 30
0.0
 10
21.8807389647205
 20
-82.23169148807908
 30
0.0
 10
21.88368598797835
 20
-82.14914983952677
 30
0.0
 10
21.8845589713975
 20
-82.12760340028447
 30
0.0
  0
SPLINE
  5
112
330
1F
100
AcDbEntity
  8
0
  6
Continuous
 62
     7
370
    15
100
AcDbSpline
210
0.0
220
0.0
230
1.0
 70
     8
 71
     3
 72
     8
 73
     4
 74
     0
 42
0.000000001
 43
0.00000001
 40
0.9559792511903633
 40
0.9559792511903633
 40
0.9559792511903633
 40
0.9559792511903633
 40
1.0
 40
1.0
 40
1.0
 40
1.0
 10
13.14390182955413
 20
-82.41099348131456
 30
0.0
 10
13.14427703929033
 20
-82.43978776171595
 30
0.0
 10
13.14466676586338
 20
-82.46858176224181
 30
0.0
 10
13.14505649243642
 20
-82.49737576276766
 30
0.0
  0
SPLINE
  5
116
330
1F
100
AcDbEntity
  8
0
  6
Continuous
 62
     7
370
    15
100
AcDbSpline
210
0.0
220
0.0
230
1.0
 70
     8
 71
     3
 72
    23
 73
    19
 74
     0
 42
0.000000001
 43
0.00000001
 40
0.0
 40
0.0
 40
0.0
 40
0.0
 40
0.0839857795710353
 40
0.1615439920836747
 40
0.2330010584084636
 40
0.2987742989316678
 40
0.3589507034572169
 40
0.4144405560130347
 40
0.4667873637526922
 40
0.5162161584710363
 40
0.5654154801068381
 40
0.6167668385084499
 40
0.6709429270272989
 40
0.7282725031868823
 40
0.7893638618431956
 40
0.8548342696209708
 40
0.9249264095334184
 40
1.0
 40
1.0
 40
1.0
 40
1.0
 10
3.061683413590628
 20
-78.1538793493097
 30
0.0
 10
3.196958234097647
 20
-78.15578843694733
 30
0.0
 10
3.457155075095272
 20
-78.15946050666903
 30
0.0
 10
3.8314215258481
 20
-78.19166090227995
 30
0.0
 10
4.173343674490401
 20
-78.245029207728
 30
0.0
 10
4.483709904727288
 20
-78.31720446221496
 30
0.0
 10
4.757674852985224
 20
-78.42016240165518
 30
0.0
 10
5.002962433032392
 20
-78.53628202379734
 30
0.0
 10
5.211309885756886
 20
-78.68186824660235
 30
0.0
 10
5.392919296399066
 20
-78.8450148534177
 30
0.0
 10
5.540588640370334
 20
-79.03742939064645
 30
0.0
 10
5.670396896249069
 20
-79.25051705123938
 30
0.0
 10
5.782028986621691
 20
-79.48849281013474
 30
0.0
 10
5.871511331082872
 20
-79.75224733191716
 30
0.0
 10
5.938039731176145
 20
-80.04116245424576
 30
0.0
 10
5.988919704090786
 20
-80.35401113202913
 30
0.0
 10
6.016424094432924
 20
-80.69248068684674
 30
0.0
 10
6.020862753677034
 20
-80.92625322256403
 30
0.0
 10
6.023158240948328
 20
-81.04715051397675
 30
0.0
  0
SPLINE
  5
118
330
1F
100
AcDbEntity
  8
0
  6
Continuous
 62
     7
370
    15
100
AcDbSpline
210
0.0
220
0.0
230
1.0
 70
     8
 71
     3
 72
    23
 73
    19
 74
     0
 42
0.000000001
 43
0.00000001
 40
0.0
 40
0.0
 40
0.0
 40
0.0
 40
0.0881525179773686
 40
0.1690439123254719
 40
0.2435330139708455
 40
0.3112132588596292
 40
0.3731874366517883
 40
0.4299259888227249
 40
0.4810360084309016
 40
0.5287062714274339
 40
0.5746602677135024
 40
0.6232118848224502
 40
0.6740043457979646
 40
0.7293491066425228
 40
0.7887725605158098
 40
0.8532441651144923
 40
0.9237783620740146
 40
0.9999999999999999
 40
0.9999999999999999
 40
0.9999999999999999
 40
0.9999999999999999
 10
-4.77455846292072
 20
-81.26612016787836
 30
0.0
 10
-4.774057731217437
 20
-81.12485233041106
 30
0.0
 10
-4.77309751308538
 20
-80.85395288840803
 30
0.0
 10
-4.741638362700967
 20
-80.46486246707754
 30
0.0
 10
-4.701438126624963
 20
-80.10965611152407
 30
0.0
 10
-4.640454204666295
 20
-79.78805237942485
 30
0.0
 10
-4.562676799147146
 20
-79.49934598215279
 30
0.0
 10
-4.466076701204406
 20
-79.24464325667881
 30
0.0
 10
-4.355693338202524
 20
-79.02054842562626
 30
0.0
 10
-4.220872078458356
 20
-78.83058586450682
 30
0.0
 10
-4.060886521182048
 20
-78.66737073920254
 30
0.0
 10
-3.87401366576509
 20
-78.52676437676708
 30
0.0
 10
-3.653266050931576
 20
-78.41260742987215
 30
0.0
 10
-3.406172730607133
 20
-78.31459183142638
 30
0.0
 10
-3.126744278177121
 20
-78.246000616588
 30
0.0
 10
-2.81999815550042
 20
-78.19116106855931
 30
0.0
 10
-2.482608105623139
 20
-78.15960451246757
 30
0.0
 10
-2.247496322355617
 20
-78.15583641388571
 30
0.0
 10
-2.125384617357103
 20
-78.1538793493097
 30
0.0
  0
SPLINE
  5
11A
330
1F
100
AcDbEntity
  8
0
  6
Continuous
 62
     7
370
    15
100
AcDbSpline
210
0.0
220
0.0
230
1.0
 70
     8
 71
     3
 72
    23
 73
    19
 74
     0
 42
0.000000001
 43
0.00000001
 40
0.0
 40
0.0
 40
0.0
 40
0.0
 40
0.0750749108974942
 40
0.1438740253493916
 40
0.2068903822721126
 40
0.2650395068751547
 40
0.3192925670912321
 40
0.3691825759777472
 40
0.4169805618177491
 40
0.4628575671087493
 40
0.5101419413720326
 40
0.5622744285894821
 40
0.6194198748190148
 40
0.6826842375734972
 40
0.7515643171352834
 40
0.8278387069452449
 40
0.9103735941425131
 40
1.0
 40
1.0
 40
1.0
 40
1.0
 10
-2.125384617357103
 20
-85.73525490734542
 30
0.0
 10
-2.248676517118221
 20
-85.73322482036427
 30
0.0
 10
-2.484953879282866
 20
-85.72933434906976
 30
0.0
 10
-2.823980305668949
 20
-85.6990304860319
 30
0.0
 10
-3.130470153739113
 20
-85.6394403883387
 30
0.0
 10
-3.409999355135886
 20
-85.56744971956861
 30
0.0
 10
-3.657105142570797
 20
-85.46583534635536
 30
0.0
 10
-3.87777117763126
 20
-85.34783821586704
 30
0.0
 10
-4.065607107070497
 20
-85.20354154676008
 30
0.0
 10
-4.225089387143289
 20
-85.03408793451588
 30
0.0
 10
-4.35515286924574
 20
-84.8330587605262
 30
0.0
 10
-4.471461308255317
 20
-84.60301413323873
 30
0.0
 10
-4.561624597588779
 20
-84.33366960122999
 30
0.0
 10
-4.64072946030352
 20
-84.03289714684531
 30
0.0
 10
-4.701533979295112
 20
-83.6956198006732
 30
0.0
 10
-4.741552630665759
 20
-83.32372744411326
 30
0.0
 10
-4.77307527411083
 20
-82.91669573869459
 30
0.0
 10
-4.774050674041445
 20
-82.63385328878668
 30
0.0
 10
-4.77455846292072
 20
-82.48660676339547
 30
0.0
  0
SPLINE
  5
121
330
1F
100
AcDbEntity
  8
0
  6
Continuous
 62
     7
370
    15
100
AcDbSpline
210
0.0
220
0.0
230
1.0
 70
     8
 71
     3
 72
    23
 73
    19
 74
     0
 42
0.000000001
 43
0.00000001
 40
0.0
 40
0.0
 40
0.0
 40
0.0
 40
0.0774401629552119
 40
0.1492580915045965
 40
0.2156778881108551
 40
0.2759412011812168
 40
0.3316833702844925
 40
0.3837765121261303
 40
0.4320351635504486
 40
0.478433476472744
 40
0.5253211874512701
 40
0.5764507770214107
 40
0.6327169961476131
 40
0.6933758364013511
 40
0.7603172837963975
 40
0.8339290685465325
 40
0.9137163816269542
 40
1.0
 40
1.0
 40
1.0
 40
1.0
 10
-2.48435126309743
 20
-91.24898258591685
 30
0.0
 10
-2.610093312831286
 20
-91.24723963337337
 30
0.0
 10
-2.852448411903146
 20
-91.24388026840951
 30
0.0
 10
-3.20098108116789
 20
-91.20928661026524
 30
0.0
 10
-3.520476662663454
 20
-91.16407218207215
 30
0.0
 10
-3.806545934438201
 20
-91.08575237522169
 30
0.0
 10
-4.064200076273182
 20
-90.99455872298425
 30
0.0
 10
-4.290458151069502
 20
-90.87931243300196
 30
0.0
 10
-4.489751421999156
 20
-90.7470122730293
 30
0.0
 10
-4.653827694395409
 20
-90.58439691191538
 30
0.0
 10
-4.794071169637169
 20
-90.39561362301379
 30
0.0
 10
-4.912087933508889
 20
-90.1737964853914
 30
0.0
 10
-5.010452914825793
 20
-89.91892785071049
 30
0.0
 10
-5.093729985128726
 20
-89.63197143014683
 30
0.0
 10
-5.156777561415091
 20
-89.31121378574191
 30
0.0
 10
-5.203606361286807
 20
-88.95640058586112
 30
0.0
 10
-5.226354808007908
 20
-88.56779260270679
 30
0.0
 10
-5.231409539238508
 20
-88.2982980433045
 30
0.0
 10
-5.234035769468338
 20
-88.15827976609263
 30
0.0
  0
SPLINE
  5
123
330
1F
100
AcDbEntity
  8
0
  6
Continuous
 62
     7
370
    15
100
AcDbSpline
210
0.0
220
0.0
230
1.0
 70
     8
 71
     3
 72
    23
 73
    19
 74
     0
 42
0.000000001
 43
0.00000001
 40
0.0
 40
0.0
 40
0.0
 40
0.0
 40
0.0794430917950087
 40
0.1534497659744906
 40
0.221631125257863
 40
0.2842148330667917
 40
0.3424488294959249
 40
0.3968956710462888
 40
0.4472812502638578
 40
0.4943733295398856
 40
0.5416067874784087
 40
0.5913113825001125
 40
0.6460026047518751
 40
0.7046759817308443
 40
0.7691067863406692
 40
0.8394769475731905
 40
0.9163415871319787
 40
1.0
 40
1.0
 40
1.0
 40
1.0
 10
6.252896894222138
 20
-88.15827976609262
 30
0.0
 10
6.250594686098995
 20
-88.29353004762302
 30
0.0
 10
6.246147813630435
 20
-88.55477521796936
 30
0.0
 10
6.218911876856061
 20
-88.93145904447226
 30
0.0
 10
6.168307949145463
 20
-89.27665690316447
 30
0.0
 10
6.101562047089764
 20
-89.59176630623209
 30
0.0
 10
6.012232940798856
 20
-89.8770439103047
 30
0.0
 10
5.901526840484057
 20
-90.13223376868027
 30
0.0
 10
5.772385271246637
 20
-90.35707465079386
 30
0.0
 10
5.622241078969126
 20
-90.55343974005396
 30
0.0
 10
5.443019160433305
 20
-90.72284302085201
 30
0.0
 10
5.224945297777204
 20
-90.86287759468875
 30
0.0
 10
4.974741292261239
 20
-90.9848602769818
 30
0.0
 10
4.686538178841242
 20
-91.0793582729674
 30
0.0
 10
4.366767744534078
 20
-91.15998609846407
 30
0.0
 10
4.009488535307944
 20
-91.21074058699493
 30
0.0
 10
3.617512947333097
 20
-91.24361075239803
 30
0.0
 10
3.34414777260867
 20
-91.2471421552116
 30
0.0
 10
3.201680405429355
 20
-91.24898258591685
 30
0.0
  0
SPLINE
  5
125
330
1F
100
AcDbEntity
  8
0
  6
Continuous
 62
     7
370
    15
100
AcDbSpline
210
0.0
220
0.0
230
1.0
 70
     8
 71
     3
 72
    23
 73
    19
 74
     0
 42
0.000000001
 43
0.00000001
 40
0.0
 40
0.0
 40
0.0
 40
0.0
 40
0.0832983509349175
 40
0.1604303048938684
 40
0.2309909414878622
 40
0.2953807546123057
 40
0.3547996004637584
 40
0.4095463838336924
 40
0.4604777365133924
 40
0.5083536545236167
 40
0.5559270779765884
 40
0.6067040400470239
 40
0.6605411513859872
 40
0.7183832756004933
 40
0.7812243697376524
 40
0.8488637760830953
 40
0.9216819325571506
 40
1.0
 40
1.0
 40
1.0
 40
1.0
 10
3.201680405429355
 20
-83.66760702788113
 30
0.0
 10
3.341746215377867
 20
-83.6695109884915
 30
0.0
 10
3.611509065939018
 20
-83.67317796362126
 30
0.0
 10
3.998816678969877
 20
-83.70546694424982
 30
0.0
 10
4.351894890364822
 20
-83.75773901035205
 30
0.0
 10
4.670081280053161
 20
-83.83339958916814
 30
0.0
 10
4.956058823980555
 20
-83.92730588759534
 30
0.0
 10
5.204867239303767
 20
-84.05187243807642
 30
0.0
 10
5.423755399082888
 20
-84.19008730820613
 30
0.0
 10
5.607734761221809
 20
-84.35552363672956
 30
0.0
 10
5.761392341338677
 20
-84.54847420202618
 30
0.0
 10
5.894247041711667
 20
-84.76799541094569
 30
0.0
 10
6.004263227634605
 20
-85.01856795310319
 30
0.0
 10
6.098776408037678
 20
-85.2967678938381
 30
0.0
 10
6.168787964942709
 20
-85.60605306859543
 30
0.0
 10
6.218513027485665
 20
-85.94446680309757
 30
0.0
 10
6.246260466491344
 20
-86.31153212282904
 30
0.0
 10
6.250631727632661
 20
-86.56561894401297
 30
0.0
 10
6.252896894222138
 20
-86.6972855179295
 30
0.0
  0
CIRCLE
  5
14B
330
1F
100
AcDbEntity
  8
0
  6
Continuous
 62
     7
370
    15
100
AcDbCircle
 10
-162.0
 20
-4.0
 30
0.0
 40
1.5
  0
CIRCLE
  5
14C
330
1F
100
AcDbEntity
  8
0
  6
Continuous
 62
     7
370
    15
100
AcDbCircle
 10
-162.0
 20
-34.0
 30
0.0
 40
1.5
  0
CIRCLE
  5
14D
330
1F
100
AcDbEntity
  8
0
  6
Continuous
 62
     7
370
    15
100
AcDbCircle
 10
-162.0
 20
-64.0
 30
0.0
 40
1.5
  0
CIRCLE
  5
14E
330
1F
100
AcDbEntity
  8
0
  6
Continuous
 62
     7
370
    15
100
AcDbCircle
 10
-162.0
 20
-94.0
 30
0.0
 40
1.5
  0
CIRCLE
  5
14F
330
1F
100
AcDbEntity
  8
0
  6
Continuous
 62
     7
370
    15
100
AcDbCircle
 10
-72.5
 20
-13.0
 30
0.0
 40
1.5
  0
CIRCLE
  5
150
330
1F
100
AcDbEntity
  8
0
  6
Continuous
 62
     7
370
    15
100
AcDbCircle
 10
162.0
 20
-94.0
 30
0.0
 40
1.5
  0
CIRCLE
  5
151
330
1F
100
AcDbEntity
  8
0
  6
Continuous
 62
     7
370
    15
100
AcDbCircle
 10
162.0
 20
-64.0
 30
0.0
 40
1.499999999999972
  0
CIRCLE
  5
152
330
1F
100
AcDbEntity
  8
0
  6
Continuous
 62
     7
370
    15
100
AcDbCircle
 10
162.0
 20
-34.0
 30
0.0
 40
1.5
  0
CIRCLE
  5
153
330
1F
100
AcDbEntity
  8
0
  6
Continuous
 62
     7
370
    15
100
AcDbCircle
 10
162.0
 20
-4.0
 30
0.0
 40
1.5
  0
CIRCLE
  5
154
330
1F
100
AcDbEntity
  8
0
  6
Continuous
 62
     7
370
    15
100
AcDbCircle
 10
-107.5
 20
-122.0
 30
0.0
 40
1.5
  0
CIRCLE
  5
155
330
1F
100
AcDbEntity
  8
0
  6
Continuous
 62
     7
370
    15
100
AcDbCircle
 10
-12.5
 20
-13.0
 30
0.0
 40
1.500000000000002
  0
CIRCLE
  5
156
330
1F
100
AcDbEntity
  8
0
  6
Continuous
 62
     7
370
    15
100
AcDbCircle
 10
-42.5
 20
-122.0
 30
0.0
 40
1.5
  0
CIRCLE
  5
157
330
1F
100
AcDbEntity
  8
0
  6
Continuous
 62
     7
370
    15
100
AcDbCircle
 10
12.5
 20
-13.0
 30
0.0
 40
1.500000000000004
  0
CIRCLE
  5
158
330
1F
100
AcDbEntity
  8
0
  6
Continuous
 62
     7
370
    15
100
AcDbCircle
 10
72.5
 20
-13.0
 30
0.0
 40
1.500000000000014
  0
CIRCLE
  5
159
330
1F
100
AcDbEntity
  8
0
  6
Continuous
 62
     7
370
    15
100
AcDbCircle
 10
42.5
 20
-122.0
 30
0.0
 40
1.500000000000014
  0
CIRCLE
  5
15A
330
1F
100
AcDbEntity
  8
0
  6
Continuous
 62
     7
370
    15
100
AcDbCircle
 10
107.5
 20
-122.0
 30
0.0
 40
1.5
  0
SPLINE
  5
181
330
1F
100
AcDbEntity
  8
0
  6
Continuous
 62
     7
370
    15
100
AcDbSpline
210
0.0
220
0.0
230
1.0
 70
     8
 71
     3
 72
    23
 73
    19
 74
     0
 42
0.000000001
 43
0.00000001
 40
0.0
 40
0.0
 40
0.0
 40
0.0
 40
0.0779982466209937
 40
0.1509014256152638
 40
0.2184627934526818
 40
0.2811438753777056
 40
0.3394664185731212
 40
0.3943057533063043
 40
0.4464013613458002
 40
0.496135256860751
 40
0.5461896852456842
 40
0.5982852932851792
 40
0.6537785382628516
 40
0.7130256600078748
 40
0.7766587020398887
 40
0.8456727899896745
 40
0.9200407591965191
 40
0.9999999999999999
 40
0.9999999999999999
 40
0.9999999999999999
 40
0.9999999999999999
 10
94.01306244481736
 20
-84.64040663783743
 30
0.0
 10
94.01120749549993
 20
-84.45001462558501
 30
0.0
 10
94.0076187674378
 20
-84.08166754960199
 30
0.0
 10
93.95477157582411
 20
-83.55067550030776
 30
0.0
 10
93.87861943714888
 20
-83.06060285556757
 30
0.0
 10
93.76857952635861
 20
-82.61299446495833
 30
0.0
 10
93.62350555859283
 20
-82.20867707116115
 30
0.0
 10
93.45405505518596
 20
-81.84164635161557
 30
0.0
 10
93.24362909981771
 20
-81.52106654617221
 30
0.0
 10
93.00342997725635
 20
-81.2373614861958
 30
0.0
 10
92.72186960194493
 20
-80.99423277671929
 30
0.0
 10
92.39832525999385
 20
-80.78413990166695
 30
0.0
 10
92.02948300088661
 20
-80.60945457083348
 30
0.0
 10
91.61768190481622
 20
-80.46652089963972
 30
0.0
 10
91.16208275016254
 20
-80.3554636666641
 30
0.0
 10
90.66229445826428
 20
-80.27998003424179
 30
0.0
 10
90.11940954988421
 20
-80.22684223610254
 30
0.0
 10
89.74269752081592
 20
-80.22334117895926
 30
0.0
 10
89.54751737180769
 20
-80.221527228774
 30
0.0
  0
SPLINE
  5
182
330
1F
100
AcDbEntity
  8
0
  6
Continuous
 62
     7
370
    15
100
AcDbSpline
210
0.0
220
0.0
230
1.0
 70
     8
 71
     3
 72
    23
 73
    19
 74
     0
 42
0.000000001
 43
0.00000001
 40
0.0
 40
0.0
 40
0.0
 40
0.0
 40
0.080124068854217
 40
0.1542058598097352
 40
0.2226551724383617
 40
0.2857260716315115
 40
0.3441750115026472
 40
0.3989800097938208
 40
0.4498282499720732
 40
0.499029332809644
 40
0.5483862875620762
 40
0.6001914029067044
 40
0.6548134691969861
 40
0.7140122543430274
 40
0.7774401232871898
 40
0.8462895294207479
 40
0.9203713203762642
 40
1.0
 40
1.0
 40
1.0
 40
1.0
 10
89.54751737180769
 20
-89.18133470645256
 30
0.0
 10
89.7462100326153
 20
-89.17740398472266
 30
0.0
 10
90.12861163847319
 20
-89.16983896296702
 30
0.0
 10
90.67972062249562
 20
-89.12599154343701
 30
0.0
 10
91.18306165150013
 20
-89.04192202188986
 30
0.0
 10
91.64250846182004
 20
-88.93457188143138
 30
0.0
 10
92.05481708670355
 20
-88.78601593525563
 30
0.0
 10
92.4219305761653
 20
-88.60835185090725
 30
0.0
 10
92.74464777497214
 20
-88.39794545127121
 30
0.0
 10
93.02271084714778
 20
-88.15048865251539
 30
0.0
 10
93.25795339416759
 20
-87.85966085032227
 30
0.0
 10
93.46506341626602
 20
-87.53209271267548
 30
0.0
 10
93.63111163114664
 20
-87.15533711328058
 30
0.0
 10
93.77679840194733
 20
-86.73993223080956
 30
0.0
 10
93.88093490841095
 20
-86.27575519925301
 30
0.0
 10
93.95977758263402
 20
-85.76983618750187
 30
0.0
 10
94.00628772963152
 20
-85.2192086635802
 30
0.0
 10
94.01075052405909
 20
-84.83792703265048
 30
0.0
 10
94.01306244481738
 20
-84.64040663783744
 30
0.0
  0
SPLINE
  5
186
330
1F
100
AcDbEntity
  8
0
  6
Continuous
 62
     7
370
    15
100
AcDbSpline
210
0.0
220
0.0
230
1.0
 70
     8
 71
     3
 72
    15
 73
    11
 74
     0
 42
0.000000001
 43
0.00000001
 40
0.0
 40
0.0
 40
0.0
 40
0.0
 40
0.0947266924230603
 40
0.1951221728125176
 40
0.3027789577363927
 40
0.4182780962178778
 40
0.5437847938523491
 40
0.6824675002771685
 40
0.8340753069003773
 40
1.0
 40
1.0
 40
1.0
 40
1.0
 10
94.01306244481738
 20
-90.21874831264212
 30
0.0
 10
93.8999477244265
 20
-90.30045105212676
 30
0.0
 10
93.66694908956262
 20
-90.468745918602
 30
0.0
 10
93.27073889302652
 20
-90.67597165221135
 30
0.0
 10
92.82690928006029
 20
-90.84976247816712
 30
0.0
 10
92.33510547934314
 20
-90.99817545976082
 30
0.0
 10
91.78743543839553
 20
-91.11192428539741
 30
0.0
 10
91.18054612320697
 20
-91.1934581417263
 30
0.0
 10
90.51020560823451
 20
-91.23778035218139
 30
0.0
 10
90.04295369414004
 20
-91.24513792868105
 30
0.0
 10
89.79879402382593
 20
-91.24898258591685
 30
0.0
  0
SPLINE
  5
187
330
1F
100
AcDbEntity
  8
0
  6
Continuous
 62
     7
370
    15
100
AcDbSpline
210
0.0
220
0.0
230
1.0
 70
     8
 71
     3
 72
    15
 73
    11
 74
     0
 42
0.000000001
 43
0.00000001
 40
0.0
 40
0.0
 40
0.0
 40
0.0
 40
0.1378007265810224
 40
0.2708629385622686
 40
0.3990436381840752
 40
0.5249433902236167
 40
0.6468672341078708
 40
0.7649600778718934
 40
0.8822616100022926
 40
1.0
 40
1.0
 40
1.0
 40
1.0
 10
96.31044897755547
 20
-84.6224583055504
 30
0.0
 10
96.303892772574
 20
-84.91000054900387
 30
0.0
 10
96.29100580897698
 20
-85.47519740213366
 30
0.0
 10
96.17964983766787
 20
-86.30156301939623
 30
0.0
 10
96.0063509324537
 20
-87.09145651964414
 30
0.0
 10
95.75453332096328
 20
-87.83558947632973
 30
0.0
 10
95.43979771781675
 20
-88.53310619909429
 30
0.0
 10
95.03847163936169
 20
-89.16344125777556
 30
0.0
 10
94.56892215445795
 20
-89.73495237941302
 30
0.0
 10
94.19857846161358
 20
-90.0572833010245
 30
0.0
 10
94.01306244481736
 20
-90.2187483126421
 30
0.0
  0
SPLINE
  5
188
330
1F
100
AcDbEntity
  8
0
  6
Continuous
 62
     7
370
    15
100
AcDbSpline
210
0.0
220
0.0
230
1.0
 70
     8
 71
     3
 72
    15
 73
    11
 74
     0
 42
0.000000001
 43
0.00000001
 40
0.0
 40
0.0
 40
0.0
 40
0.0
 40
0.1191207113819505
 40
0.2381759858008978
 40
0.3583301951422758
 40
0.4820574653015495
 40
0.6084283855492202
 40
0.7356079655478336
 40
0.8662785266563697
 40
1.0
 40
1.0
 40
1.0
 40
1.0
 10
94.01306244481736
 20
-79.18770328904185
 30
0.0
 10
94.19602575972029
 20
-79.34691597982567
 30
0.0
 10
94.56185188170065
 20
-79.66525390057453
 30
0.0
 10
95.02784601665807
 20
-80.22926979307833
 30
0.0
 10
95.42732505725935
 20
-80.85165542235195
 30
0.0
 10
95.74760765285367
 20
-81.53524956321756
 30
0.0
 10
95.99502218888186
 20
-82.26248844757465
 30
0.0
 10
96.18170127552565
 20
-83.02213049127825
 30
0.0
 10
96.28991049250791
 20
-83.81284056858276
 30
0.0
 10
96.30355035083967
 20
-84.35051757881682
 30
0.0
 10
96.31044897755547
 20
-84.6224583055504
 30
0.0
  0
SPLINE
  5
189
330
1F
100
AcDbEntity
  8
0
  6
Continuous
 62
     7
370
    15
100
AcDbSpline
210
0.0
220
0.0
230
1.0
 70
     8
 71
     3
 72
    15
 73
    11
 74
     0
 42
0.000000001
 43
0.00000001
 40
0.0
 40
0.0
 40
0.0
 40
0.0
 40
0.1625914819272575
 40
0.312578014319472
 40
0.4502933867733306
 40
0.57654635996553
 40
0.6925484479277428
 40
0.8019743057460726
 40
0.9030488688431351
 40
1.0
 40
1.0
 40
1.0
 40
1.0
 10
89.79879402382593
 20
-78.1538793493097
 30
0.0
 10
90.03823010312834
 20
-78.15562583813055
 30
0.0
 10
90.49853991356643
 20
-78.1589834187441
 30
0.0
 10
91.15965634505223
 20
-78.21237317435276
 30
0.0
 10
91.76505552292593
 20
-78.28615249286777
 30
0.0
 10
92.31266652553046
 20
-78.40290263405284
 30
0.0
 10
92.81137820999034
 20
-78.54454243431425
 30
0.0
 10
93.25797409728516
 20
-78.72379733295166
 30
0.0
 10
93.66237629660255
 20
-78.93055172078715
 30
0.0
 10
93.89780112317582
 20
-79.10318432594589
 30
0.0
 10
94.01306244481736
 20
-79.18770328904185
 30
0.0
  0
SPLINE
  5
19F
330
1F
100
AcDbEntity
  8
0
  6
Continuous
 62
     7
370
    15
100
AcDbSpline
210
0.0
220
0.0
230
1.0
 70
     8
 71
     3
 72
    23
 73
    19
 74
     0
 42
0.000000001
 43
0.00000001
 40
0.0
 40
0.0
 40
0.0
 40
0.0
 40
0.0858699278944621
 40
0.1647664886857846
 40
0.2377101958614566
 40
0.3050798339416732
 40
0.3669031182928179
 40
0.4233820417895353
 40
0.476606988018583
 40
0.5262137443075532
 40
0.5758205005965239
 40
0.6264448308328261
 40
0.6796746652417258
 40
0.7358209220282103
 40
0.7953063553357488
 40
0.8589912410558892
 40
0.927109816402897
 40
1.0
 40
1.0
 40
1.0
 40
1.0
 10
-95.70362017797827
 20
-27.68873734435802
 30
0.0
 10
-95.5967804221883
 20
-27.69015193030094
 30
0.0
 10
-95.39177720575158
 20
-27.69286622579967
 30
0.0
 10
-95.09676889496049
 20
-27.71714191308039
 30
0.0
 10
-94.82689152301799
 20
-27.75714486168938
 30
0.0
 10
-94.5808756359019
 20
-27.81144176732283
 30
0.0
 10
-94.3625208809184
 20
-27.88791997964489
 30
0.0
 10
-94.16748734479663
 20
-27.97570454673495
 30
0.0
 10
-94.00035999620277
 20
-28.08366004521412
 30
0.0
 10
-93.85627718162819
 20
-28.20782336765114
 30
0.0
 10
-93.7336928647962
 20
-28.34926283896854
 30
0.0
 10
-93.63159927411584
 20
-28.51117699239894
 30
0.0
 10
-93.54226995922382
 20
-28.68936364954487
 30
0.0
 10
-93.46904688534374
 20
-28.88684619933791
 30
0.0
 10
-93.41722144724687
 20
-29.10415425482995
 30
0.0
 10
-93.37629915497445
 20
-29.33870908020268
 30
0.0
 10
-93.35220546477174
 20
-29.59255713036599
 30
0.0
 10
-93.3493682019275
 20
-29.76800057314226
 30
0.0
 10
-93.34790156530737
 20
-29.8586907178583
 30
0.0
  0
SPLINE
  5
1A1
330
1F
100
AcDbEntity
  8
0
  6
Continuous
 62
     7
370
    15
100
AcDbSpline
210
0.0
220
0.0
230
1.0
 70
     8
 71
     3
 72
    23
 73
    19
 74
     0
 42
0.000000001
 43
0.00000001
 40
0.0
 40
0.0
 40
0.0
 40
0.0
 40
0.085836926245204
 40
0.1645389519134024
 40
0.2371494503650477
 40
0.3040396799320675
 40
0.3645719721001044
 40
0.4193970015397553
 40
0.4701811549168716
 40
0.5174489338349829
 40
0.5637388673770024
 40
0.6127693936292795
 40
0.664803346518549
 40
0.7214033520231633
 40
0.7820752604462539
 40
0.849143132648397
 40
0.9214324733204035
 40
0.9999999999999999
 40
0.9999999999999999
 40
0.9999999999999999
 40
0.9999999999999999
 10
-102.4800130329413
 20
-30.0229179582845
 30
0.0
 10
-102.4780858643296
 20
-29.91700066706943
 30
0.0
 10
-102.4743917163982
 20
-29.71397009679656
 30
0.0
 10
-102.456911894855
 20
-29.42169441195573
 30
0.0
 10
-102.4228523944315
 20
-29.1542760671715
 30
0.0
 10
-102.3711555758194
 20
-28.91267793621714
 30
0.0
 10
-102.3106963456257
 20
-28.6958587716246
 30
0.0
 10
-102.2357761387725
 20
-28.50440136912849
 30
0.0
 10
-102.1436323443721
 20
-28.33925193365257
 30
0.0
 10
-102.0378890018107
 20
-28.19493632238959
 30
0.0
 10
-101.909110759633
 20
-28.07395197109915
 30
0.0
 10
-101.7607556470369
 20
-27.96751529225347
 30
0.0
 10
-101.5848058995205
 20
-27.88300198592715
 30
0.0
 10
-101.3889142279815
 20
-27.80932820880751
 30
0.0
 10
-101.1669806399957
 20
-27.75727200183544
 30
0.0
 10
-100.9233182138967
 20
-27.71709682843
 30
0.0
 10
-100.6551454552819
 20
-27.69289892707434
 30
0.0
 10
-100.4689523452287
 20
-27.69016249909135
 30
0.0
 10
-100.3719814058312
 20
-27.68873734435802
 30
0.0
  0
SPLINE
  5
1A3
330
1F
100
AcDbEntity
  8
0
  6
Continuous
 62
     7
370
    15
100
AcDbSpline
210
0.0
220
0.0
230
1.0
 70
     8
 71
     3
 72
    23
 73
    19
 74
     0
 42
0.000000001
 43
0.00000001
 40
0.0
 40
0.0
 40
0.0
 40
0.0
 40
0.0767286071106687
 40
0.1480332614541766
 40
0.2129512847199109
 40
0.2730650828994441
 40
0.3279281999963283
 40
0.3790658129668142
 40
0.427363011473584
 40
0.4735626844135846
 40
0.5208680916927418
 40
0.5723350414711957
 40
0.6285242918451694
 40
0.6903748843169276
 40
0.7577855269063989
 40
0.832218626095472
 40
0.912622357700433
 40
0.9999999999999999
 40
0.9999999999999999
 40
0.9999999999999999
 40
0.9999999999999999
 10
-100.3719814058312
 20
-33.37476901288481
 30
0.0
 10
-100.4689303206154
 20
-33.37319621888505
 30
0.0
 10
-100.6559748218826
 20
-33.37016181184774
 30
0.0
 10
-100.9245967020687
 20
-33.34781407762792
 30
0.0
 10
-101.1686643963336
 20
-33.30258188031535
 30
0.0
 10
-101.390346931746
 20
-33.24998788278055
 30
0.0
 10
-101.5856352038961
 20
-33.17180374309346
 30
0.0
 10
-101.7608551382873
 20
-33.08513741657989
 30
0.0
 10
-101.9101868698508
 20
-32.97608953988393
 30
0.0
 10
-102.0378867892979
 20
-32.84930296909003
 30
0.0
 10
-102.1443616761052
 20
-32.69933643808189
 30
0.0
 10
-102.2362321424151
 20
-32.52580269642078
 30
0.0
 10
-102.3105559368625
 20
-32.32434877709092
 30
0.0
 10
-102.3706763014275
 20
-32.0976988817657
 30
0.0
 10
-102.4233911260205
 20
-31.84553748861306
 30
0.0
 10
-102.456748460356
 20
-31.56636385286331
 30
0.0
 10
-102.4744073583997
 20
-31.26068784409699
 30
0.0
 10
-102.4780934040282
 20
-31.04868850167493
 30
0.0
 10
-102.4800130329413
 20
-30.93828290492234
 30
0.0
  0
SPLINE
  5
1AA
330
1F
100
AcDbEntity
  8
0
  6
Continuous
 62
     7
370
    15
100
AcDbSpline
210
0.0
220
0.0
230
1.0
 70
     8
 71
     3
 72
    23
 73
    19
 74
     0
 42
0.000000001
 43
0.00000001
 40
0.0
 40
0.0
 40
0.0
 40
0.0
 40
0.0792133082243348
 40
0.1514286795654541
 40
0.2183136155267218
 40
0.279805148686043
 40
0.3367842227412452
 40
0.388764932418682
 40
0.4375239135113901
 40
0.4842941419854752
 40
0.5313792493215133
 40
0.5821114383314084
 40
0.6378261303428311
 40
0.6978057725846745
 40
0.7637690998758765
 40
0.8363053003752109
 40
0.9149771213487149
 40
1.0
 40
1.0
 40
1.0
 40
1.0
 10
-100.6950513869975
 20
-37.51006477181338
 30
0.0
 10
-100.7929478553718
 20
-37.50880176480353
 30
0.0
 10
-100.9800923298592
 20
-37.50638732854186
 30
0.0
 10
-101.2486633921924
 20
-37.48031626095774
 30
0.0
 10
-101.4944614775612
 20
-37.44607856244998
 30
0.0
 10
-101.7160775673331
 20
-37.38735830332826
 30
0.0
 10
-101.9162731671567
 20
-37.3205439280537
 30
0.0
 10
-102.0902996499005
 20
-37.23196807380062
 30
0.0
 10
-102.2446722784126
 20
-37.13383540288802
 30
0.0
 10
-102.3729565786502
 20
-37.01175666673127
 30
0.0
 10
-102.4841407504507
 20
-36.87111538332562
 30
0.0
 10
-102.5750021714304
 20
-36.70374557471013
 30
0.0
 10
-102.6514946340124
 20
-36.51266312510599
 30
0.0
 10
-102.7173714187002
 20
-36.29776023210721
 30
0.0
 10
-102.7639524825064
 20
-36.05668886568948
 30
0.0
 10
-102.7983101093712
 20
-35.79052493048636
 30
0.0
 10
-102.819843387305
 20
-35.49929878689373
 30
0.0
 10
-102.8229878050991
 20
-35.29707336027967
 30
0.0
 10
-102.824621012852
 20
-35.19203765694522
 30
0.0
  0
SPLINE
  5
1AC
330
1F
100
AcDbEntity
  8
0
  6
Continuous
 62
     7
370
    15
100
AcDbSpline
210
0.0
220
0.0
230
1.0
 70
     8
 71
     3
 72
    23
 73
    19
 74
     0
 42
0.000000001
 43
0.00000001
 40
0.0
 40
0.0
 40
0.0
 40
0.0
 40
0.0781521291917209
 40
0.150373291043355
 40
0.2168587384294436
 40
0.2787037277338947
 40
0.3359176900118631
 40
0.3886641309748741
 40
0.4381441090725769
 40
0.4853508202295223
 40
0.5324778743608801
 40
0.5830422552984962
 40
0.6379439174107251
 40
0.697758368334695
 40
0.7632509884197656
 40
0.8352604960134249
 40
0.9143118650911268
 40
1.0
 40
1.0
 40
1.0
 40
1.0
 10
-93.175597575352
 20
-35.19203765694522
 30
0.0
 10
-93.1769530643109
 20
-35.2944020294585
 30
0.0
 10
-93.17956117413249
 20
-35.49136233930044
 30
0.0
 10
-93.20473362214999
 20
-35.7744628255075
 30
0.0
 10
-93.24137391143614
 20
-36.03462059953859
 30
0.0
 10
-93.29344914828646
 20
-36.27238105114606
 30
0.0
 10
-93.36676198807356
 20
-36.48557832208862
 30
0.0
 10
-93.45334820747661
 20
-36.67582573317078
 30
0.0
 10
-93.55185967162468
 20
-36.84554617704514
 30
0.0
 10
-93.67244444182177
 20
-36.99156758542572
 30
0.0
 10
-93.81752139287903
 20
-37.11489028857476
 30
0.0
 10
-93.98556055951867
 20
-37.22432258159422
 30
0.0
 10
-94.18453605407115
 20
-37.311474296101
 30
0.0
 10
-94.40961080942498
 20
-37.38297281426989
 30
0.0
 10
-94.66119804965938
 20
-37.44346058181301
 30
0.0
 10
-94.94254756710764
 20
-37.48146072592355
 30
0.0
 10
-95.25177720646442
 20
-37.50598795959449
 30
0.0
 10
-95.46754600767474
 20
-37.50866982021398
 30
0.0
 10
-95.57977668519784
 20
-37.51006477181338
 30
0.0
  0
SPLINE
  5
1AE
330
1F
100
AcDbEntity
  8
0
  6
Continuous
 62
     7
370
    15
100
AcDbSpline
210
0.0
220
0.0
230
1.0
 70
     8
 71
     3
 72
    23
 73
    19
 74
     0
 42
0.000000001
 43
0.00000001
 40
0.0
 40
0.0
 40
0.0
 40
0.0
 40
0.0853748714730252
 40
0.1640336822744013
 40
0.2355725423973724
 40
0.3017298395774244
 40
0.362294083038411
 40
0.4178839543690792
 40
0.4687093391936937
 40
0.5169539864600703
 40
0.5646717927079067
 40
0.6143279605521619
 40
0.6671053000983603
 40
0.7237250188617766
 40
0.7851536355883454
 40
0.8512053170219771
 40
0.9229491647867308
 40
1.0
 40
1.0
 40
1.0
 40
1.0
 10
-95.57977668519784
 20
-31.8240331032866
 30
0.0
 10
-95.46934906433465
 20
-31.82546757225896
 30
0.0
 10
-95.25718067142857
 20
-31.82822366692224
 30
0.0
 10
-94.95320246569472
 20
-31.85218607895642
 30
0.0
 10
-94.67607425814913
 20
-31.89220733564669
 30
0.0
 10
-94.42540495551617
 20
-31.94766355948411
 30
0.0
 10
-94.20062036422657
 20
-32.01994715680554
 30
0.0
 10
-94.00252914430156
 20
-32.10747406401534
 30
0.0
 10
-93.83262903666719
 20
-32.21423841397125
 30
0.0
 10
-93.68664701772425
 20
-32.33681371345433
 30
0.0
 10
-93.56400687592655
 20
-32.48057489105884
 30
0.0
 10
-93.45698402744868
 20
-32.64345631344699
 30
0.0
 10
-93.37308315695537
 20
-32.83189556814764
 30
0.0
 10
-93.29911635108417
 20
-33.04031383111229
 30
0.0
 10
-93.24398985060212
 20
-33.27237706412639
 30
0.0
 10
-93.20394813330749
 20
-33.52706817014104
 30
0.0
 10
-93.17985054211972
 20
-33.80416895119775
 30
0.0
 10
-93.17704854344828
 20
-33.99662949876056
 30
0.0
 10
-93.175597575352
 20
-34.09629197082287
 30
0.0
  0
SPLINE
  5
1BE
330
1F
100
AcDbEntity
  8
0
  6
Continuous
 62
     7
370
    15
100
AcDbSpline
210
0.0
220
0.0
230
1.0
 70
     8
 71
     3
 72
    23
 73
    19
 74
     0
 42
0.000000001
 43
0.00000001
 40
0.0
 40
0.0
 40
0.0
 40
0.0
 40
0.0858699278944621
 40
0.1647664886857846
 40
0.2377101958614566
 40
0.3050798339416732
 40
0.3669031182928179
 40
0.4233820417895353
 40
0.476606988018583
 40
0.5262137443075532
 40
0.5758205005965239
 40
0.6264448308328261
 40
0.6796746652417258
 40
0.7358209220282103
 40
0.7953063553357488
 40
0.8589912410558892
 40
0.927109816402897
 40
1.0
 40
1.0
 40
1.0
 40
1.0
 10
-73.23517988779965
 20
-27.68873734435802
 30
0.0
 10
-73.12834013200971
 20
-27.69015193030094
 30
0.0
 10
-72.92333691557297
 20
-27.69286622579965
 30
0.0
 10
-72.62832860478188
 20
-27.71714191308038
 30
0.0
 10
-72.35845123283937
 20
-27.75714486168937
 30
0.0
 10
-72.11243534572331
 20
-27.81144176732282
 30
0.0
 10
-71.8940805907398
 20
-27.88791997964489
 30
0.0
 10
-71.699047054618
 20
-27.97570454673494
 30
0.0
 10
-71.53191970602417
 20
-28.08366004521412
 30
0.0
 10
-71.38783689144957
 20
-28.20782336765114
 30
0.0
 10
-71.26525257461759
 20
-28.34926283896852
 30
0.0
 10
-71.16315898393721
 20
-28.51117699239894
 30
0.0
 10
-71.07382966904521
 20
-28.68936364954486
 30
0.0
 10
-71.00060659516515
 20
-28.8868461993379
 30
0.0
 10
-70.94878115706825
 20
-29.10415425482994
 30
0.0
 10
-70.90785886479584
 20
-29.33870908020267
 30
0.0
 10
-70.88376517459314
 20
-29.59255713036598
 30
0.0
 10
-70.88092791174891
 20
-29.76800057314226
 30
0.0
 10
-70.87946127512876
 20
-29.85869071785829
 30
0.0
  0
SPLINE
  5
1C0
330
1F
100
AcDbEntity
  8
0
  6
Continuous
 62
     7
370
    15
100
AcDbSpline
210
0.0
220
0.0
230
1.0
 70
     8
 71
     3
 72
    23
 73
    19
 74
     0
 42
0.000000001
 43
0.00000001
 40
0.0
 40
0.0
 40
0.0
 40
0.0
 40
0.085836926245204
 40
0.1645389519134024
 40
0.2371494503650477
 40
0.3040396799320675
 40
0.3645719721001044
 40
0.4193970015397553
 40
0.4701811549168716
 40
0.5174489338349829
 40
0.5637388673770024
 40
0.6127693936292795
 40
0.664803346518549
 40
0.7214033520231633
 40
0.7820752604462539
 40
0.849143132648397
 40
0.9214324733204035
 40
0.9999999999999999
 40
0.9999999999999999
 40
0.9999999999999999
 40
0.9999999999999999
 10
-80.01157274276268
 20
-30.02291795828449
 30
0.0
 10
-80.00964557415098
 20
-29.91700066706943
 30
0.0
 10
-80.00595142621957
 20
-29.71397009679655
 30
0.0
 10
-79.98847160467635
 20
-29.42169441195573
 30
0.0
 10
-79.95441210425291
 20
-29.15427606717148
 30
0.0
 10
-79.90271528564081
 20
-28.91267793621713
 30
0.0
 10
-79.84225605544704
 20
-28.69585877162459
 30
0.0
 10
-79.76733584859396
 20
-28.50440136912849
 30
0.0
 10
-79.67519205419347
 20
-28.33925193365257
 30
0.0
 10
-79.56944871163212
 20
-28.19493632238958
 30
0.0
 10
-79.44067046945436
 20
-28.07395197109914
 30
0.0
 10
-79.29231535685832
 20
-27.96751529225347
 30
0.0
 10
-79.11636560934187
 20
-27.88300198592714
 30
0.0
 10
-78.9204739378029
 20
-27.80932820880751
 30
0.0
 10
-78.69854034981711
 20
-27.75727200183543
 30
0.0
 10
-78.45487792371806
 20
-27.71709682842999
 30
0.0
 10
-78.18670516510325
 20
-27.69289892707434
 30
0.0
 10
-78.00051205505015
 20
-27.69016249909134
 30
0.0
 10
-77.9035411156526
 20
-27.68873734435802
 30
0.0
  0
SPLINE
  5
1C2
330
1F
100
AcDbEntity
  8
0
  6
Continuous
 62
     7
370
    15
100
AcDbSpline
210
0.0
220
0.0
230
1.0
 70
     8
 71
     3
 72
    23
 73
    19
 74
     0
 42
0.000000001
 43
0.00000001
 40
0.0
 40
0.0
 40
0.0
 40
0.0
 40
0.0767286071106687
 40
0.1480332614541766
 40
0.2129512847199109
 40
0.2730650828994441
 40
0.3279281999963283
 40
0.3790658129668142
 40
0.427363011473584
 40
0.4735626844135846
 40
0.5208680916927418
 40
0.5723350414711957
 40
0.6285242918451694
 40
0.6903748843169276
 40
0.7577855269063989
 40
0.832218626095472
 40
0.912622357700433
 40
0.9999999999999999
 40
0.9999999999999999
 40
0.9999999999999999
 40
0.9999999999999999
 10
-77.9035411156526
 20
-33.3747690128848
 30
0.0
 10
-78.00049003043675
 20
-33.37319621888505
 30
0.0
 10
-78.18753453170396
 20
-33.37016181184774
 30
0.0
 10
-78.45615641189006
 20
-33.34781407762792
 30
0.0
 10
-78.70022410615496
 20
-33.30258188031534
 30
0.0
 10
-78.92190664156739
 20
-33.24998788278055
 30
0.0
 10
-79.11719491371751
 20
-33.17180374309345
 30
0.0
 10
-79.29241484810872
 20
-33.08513741657988
 30
0.0
 10
-79.44174657967218
 20
-32.97608953988393
 30
0.0
 10
-79.56944649911928
 20
-32.84930296909002
 30
0.0
 10
-79.6759213859266
 20
-32.69933643808189
 30
0.0
 10
-79.7677918522365
 20
-32.52580269642078
 30
0.0
 10
-79.84211564668387
 20
-32.32434877709091
 30
0.0
 10
-79.90223601124892
 20
-32.09769888176569
 30
0.0
 10
-79.95495083584183
 20
-31.84553748861305
 30
0.0
 10
-79.98830817017745
 20
-31.5663638528633
 30
0.0
 10
-80.00596706822108
 20
-31.26068784409698
 30
0.0
 10
-80.0096531138496
 20
-31.04868850167492
 30
0.0
 10
-80.01157274276268
 20
-30.93828290492233
 30
0.0
  0
SPLINE
  5
1C9
330
1F
100
AcDbEntity
  8
0
  6
Continuous
 62
     7
370
    15
100
AcDbSpline
210
0.0
220
0.0
230
1.0
 70
     8
 71
     3
 72
    23
 73
    19
 74
     0
 42
0.000000001
 43
0.00000001
 40
0.0
 40
0.0
 40
0.0
 40
0.0
 40
0.0792133082243348
 40
0.1514286795654541
 40
0.2183136155267218
 40
0.279805148686043
 40
0.3367842227412452
 40
0.388764932418682
 40
0.4375239135113901
 40
0.4842941419854752
 40
0.5313792493215133
 40
0.5821114383314084
 40
0.6378261303428311
 40
0.6978057725846745
 40
0.7637690998758765
 40
0.8363053003752109
 40
0.9149771213487149
 40
1.0
 40
1.0
 40
1.0
 40
1.0
 10
-78.2266110968189
 20
-37.51006477181338
 30
0.0
 10
-78.32450756519323
 20
-37.50880176480352
 30
0.0
 10
-78.51165203968056
 20
-37.50638732854185
 30
0.0
 10
-78.78022310201384
 20
-37.48031626095774
 30
0.0
 10
-79.02602118738254
 20
-37.44607856244998
 30
0.0
 10
-79.24763727715451
 20
-37.38735830332826
 30
0.0
 10
-79.44783287697813
 20
-37.3205439280537
 30
0.0
 10
-79.62185935972188
 20
-37.23196807380061
 30
0.0
 10
-79.77623198823393
 20
-37.13383540288801
 30
0.0
 10
-79.90451628847161
 20
-37.01175666673126
 30
0.0
 10
-80.01570046027207
 20
-36.87111538332561
 30
0.0
 10
-80.10656188125184
 20
-36.70374557471013
 30
0.0
 10
-80.18305434383382
 20
-36.51266312510598
 30
0.0
 10
-80.24893112852159
 20
-36.29776023210719
 30
0.0
 10
-80.29551219232778
 20
-36.05668886568948
 30
0.0
 10
-80.32986981919258
 20
-35.79052493048635
 30
0.0
 10
-80.35140309712638
 20
-35.49929878689372
 30
0.0
 10
-80.35454751492048
 20
-35.29707336027966
 30
0.0
 10
-80.35618072267339
 20
-35.19203765694521
 30
0.0
  0
SPLINE
  5
1CB
330
1F
100
AcDbEntity
  8
0
  6
Continuous
 62
     7
370
    15
100
AcDbSpline
210
0.0
220
0.0
230
1.0
 70
     8
 71
     3
 72
    23
 73
    19
 74
     0
 42
0.000000001
 43
0.00000001
 40
0.0
 40
0.0
 40
0.0
 40
0.0
 40
0.0781521291917209
 40
0.150373291043355
 40
0.2168587384294436
 40
0.2787037277338947
 40
0.3359176900118631
 40
0.3886641309748741
 40
0.4381441090725769
 40
0.4853508202295223
 40
0.5324778743608801
 40
0.5830422552984962
 40
0.6379439174107251
 40
0.697758368334695
 40
0.7632509884197656
 40
0.8352604960134249
 40
0.9143118650911268
 40
1.0
 40
1.0
 40
1.0
 40
1.0
 10
-70.7071572851734
 20
-35.19203765694521
 30
0.0
 10
-70.7085127741323
 20
-35.29440202945849
 30
0.0
 10
-70.71112088395388
 20
-35.49136233930044
 30
0.0
 10
-70.73629333197135
 20
-35.7744628255075
 30
0.0
 10
-70.77293362125752
 20
-36.03462059953858
 30
0.0
 10
-70.82500885810785
 20
-36.27238105114606
 30
0.0
 10
-70.89832169789494
 20
-36.48557832208862
 30
0.0
 10
-70.98490791729802
 20
-36.67582573317077
 30
0.0
 10
-71.08341938144606
 20
-36.84554617704513
 30
0.0
 10
-71.20400415164318
 20
-36.99156758542571
 30
0.0
 10
-71.34908110270044
 20
-37.11489028857474
 30
0.0
 10
-71.51712026934005
 20
-37.22432258159422
 30
0.0
 10
-71.71609576389255
 20
-37.31147429610099
 30
0.0
 10
-71.94117051924637
 20
-37.38297281426988
 30
0.0
 10
-72.19275775948077
 20
-37.44346058181301
 30
0.0
 10
-72.47410727692905
 20
-37.48146072592355
 30
0.0
 10
-72.78333691628582
 20
-37.50598795959449
 30
0.0
 10
-72.9991057174961
 20
-37.50866982021397
 30
0.0
 10
-73.11133639501924
 20
-37.51006477181338
 30
0.0
  0
SPLINE
  5
1CD
330
1F
100
AcDbEntity
  8
0
  6
Continuous
 62
     7
370
    15
100
AcDbSpline
210
0.0
220
0.0
230
1.0
 70
     8
 71
     3
 72
    23
 73
    19
 74
     0
 42
0.000000001
 43
0.00000001
 40
0.0
 40
0.0
 40
0.0
 40
0.0
 40
0.0853748714730252
 40
0.1640336822744013
 40
0.235572542397372
 40
0.3017298395774245
 40
0.362294083038411
 40
0.4178839543690792
 40
0.4687093391936937
 40
0.5169539864600703
 40
0.5646717927079067
 40
0.6143279605521619
 40
0.6671053000983603
 40
0.7237250188617766
 40
0.7851536355883454
 40
0.8512053170219789
 40
0.9229491647867307
 40
1.0
 40
1.0
 40
1.0
 40
1.0
 10
-73.11133639501925
 20
-31.8240331032866
 30
0.0
 10
-73.00090877415603
 20
-31.82546757225896
 30
0.0
 10
-72.78874038124995
 20
-31.82822366692222
 30
0.0
 10
-72.4847621755161
 20
-31.85218607895641
 30
0.0
 10
-72.2076339679705
 20
-31.89220733564666
 30
0.0
 10
-71.95696466533757
 20
-31.94766355948411
 30
0.0
 10
-71.73218007404802
 20
-32.01994715680556
 30
0.0
 10
-71.53408885412291
 20
-32.10747406401532
 30
0.0
 10
-71.3641887464886
 20
-32.21423841397124
 30
0.0
 10
-71.21820672754565
 20
-32.33681371345433
 30
0.0
 10
-71.09556658574792
 20
-32.48057489105883
 30
0.0
 10
-70.98854373727009
 20
-32.64345631344698
 30
0.0
 10
-70.90464286677675
 20
-32.83189556814764
 30
0.0
 10
-70.83067606090557
 20
-33.04031383111227
 30
0.0
 10
-70.77554956042354
 20
-33.2723770641264
 30
0.0
 10
-70.73550784312883
 20
-33.52706817014103
 30
0.0
 10
-70.7114102519411
 20
-33.80416895119774
 30
0.0
 10
-70.70860825326969
 20
-33.99662949876055
 30
0.0
 10
-70.7071572851734
 20
-34.09629197082286
 30
0.0
  0
SPLINE
  5
1F3
330
1F
100
AcDbEntity
  8
0
  6
Continuous
 62
     7
370
    15
100
AcDbSpline
210
0.0
220
0.0
230
1.0
 70
     8
 71
     3
 72
    19
 73
    15
 74
     0
 42
0.000000001
 43
0.00000001
 40
0.0
 40
0.0
 40
0.0
 40
0.0
 40
0.0786331952933517
 40
0.1516507281064689
 40
0.2195034984825889
 40
0.2825159945751569
 40
0.3418544147386647
 40
0.3976954893073412
 40
0.4518649307056178
 40
0.5044206836568164
 40
0.6122227389805022
 40
0.7272302827280781
 40
0.8562312113855763
 40
1.0
 40
1.0
 40
1.0
 40
1.0
 10
108.7306949201708
 20
-78.1538793493097
 30
0.0
 10
108.8408510258383
 20
-78.15582365921443
 30
0.0
 10
109.0532963368487
 20
-78.15957342433101
 30
0.0
 10
109.3596165845299
 20
-78.19157484409818
 30
0.0
 10
109.6400535093977
 20
-78.24622736439073
 30
0.0
 10
109.8981536259714
 20
-78.31492175820938
 30
0.0
 10
110.1278027272028
 20
-78.41411749515778
 30
0.0
 10
110.3369413722287
 20
-78.52750394300926
 30
0.0
 10
110.5163113393841
 20
-78.66938920567816
 30
0.0
 10
110.7270096138097
 20
-78.8845849435676
 30
0.0
 10
110.9393554309063
 20
-79.21132348668496
 30
0.0
 10
111.1202162512713
 20
-79.67239355195032
 30
0.0
 10
111.2255117527928
 20
-80.20846610363374
 30
0.0
 10
111.237266083141
 20
-80.59077864762781
 30
0.0
 10
111.2434614403531
 20
-80.79228419550111
 30
0.0
  0
SPLINE
  5
1F9
330
1F
100
AcDbEntity
  8
0
  6
Continuous
 62
     7
370
    15
100
AcDbSpline
210
0.0
220
0.0
230
1.0
 70
     8
 71
     3
 72
    15
 73
    11
 74
     0
 42
0.000000001
 43
0.00000001
 40
0.0
 40
0.0
 40
0.0
 40
0.0
 40
0.1734152925365751
 40
0.3198418915315961
 40
0.437089098099334
 40
0.5315136850748208
 40
0.6202643721511358
 40
0.7253946668416434
 40
0.8505808111380926
 40
1.0
 40
1.0
 40
1.0
 40
1.0
 10
108.946074907615
 20
-81.27329950079314
 30
0.0
 10
108.9447048157612
 20
-81.17864570843248
 30
0.0
 10
108.9421778600142
 20
-81.00406913247747
 30
0.0
 10
108.9077702371823
 20
-80.7672524474828
 30
0.0
 10
108.8528760291732
 20
-80.57920013201245
 30
0.0
 10
108.7725786201888
 20
-80.43304597530008
 30
0.0
 10
108.6477785610334
 20
-80.33200690171043
 30
0.0
 10
108.4849500853638
 20
-80.26596334791452
 30
0.0
 10
108.2800176287624
 20
-80.2289657557937
 30
0.0
 10
108.1301854749495
 20
-80.22414844197249
 30
0.0
 10
108.0486582932642
 20
-80.221527228774
 30
0.0
  0
LINE
  5
203
330
1F
100
AcDbEntity
  8
0
  6
Continuous
 62
     7
370
    15
100
AcDbLine
 10
-0.3651302858
 20
-37.5100647718
 30
0.0
 11
-7.0742168947
 21
-30.8736689087
 31
0.0
  0
LINE
  5
204
330
1F
100
AcDbEntity
  8
0
  6
Continuous
 62
     7
370
    15
100
AcDbLine
 10
0.8679201423
 20
-37.5100647718
 30
0.0
 11
-0.3651302858
 21
-37.5100647718
 31
0.0
  0
LINE
  5
205
330
1F
100
AcDbEntity
  8
0
  6
Continuous
 62
     7
370
    15
100
AcDbLine
 10
0.8679201423
 20
-27.6887373444
 30
0.0
 11
0.8679201423
 21
-37.5100647718
 31
0.0
  0
LINE
  5
206
330
1F
100
AcDbEntity
  8
0
  6
Continuous
 62
     7
370
    15
100
AcDbLine
 10
-0.8551197573
 20
-27.6887373444
 30
0.0
 11
0.8679201423
 21
-27.6887373444
 31
0.0
  0
LINE
  5
207
330
1F
100
AcDbEntity
  8
0
  6
Continuous
 62
     7
370
    15
100
AcDbLine
 10
-0.8551197573
 20
-33.0624680311
 30
0.0
 11
-0.8551197573
 21
-27.6887373444
 31
0.0
  0
LINE
  5
208
330
1F
100
AcDbEntity
  8
0
  6
Continuous
 62
     7
370
    15
100
AcDbLine
 10
-7.8576615991
 20
-27.6887373444
 30
0.0
 11
-1.3154944804
 21
-34.0774462219
 31
0.0
  0
LINE
  5
209
330
1F
100
AcDbEntity
  8
0
  6
Continuous
 62
     7
370
    15
100
AcDbLine
 10
-9.1257112751
 20
-27.6887373444
 30
0.0
 11
-7.8576615991
 21
-27.6887373444
 31
0.0
  0
LINE
  5
20A
330
1F
100
AcDbEntity
  8
0
  6
Continuous
 62
     7
370
    15
100
AcDbLine
 10
-9.1257112751
 20
-37.5100647718
 30
0.0
 11
-9.1257112751
 21
-27.6887373444
 31
0.0
  0
LINE
  5
20B
330
1F
100
AcDbEntity
  8
0
  6
Continuous
 62
     7
370
    15
100
AcDbLine
 10
-7.4026713756
 20
-37.5100647718
 30
0.0
 11
-9.1257112751
 21
-37.5100647718
 31
0.0
  0
LINE
  5
20C
330
1F
100
AcDbEntity
  8
0
  6
Continuous
 62
     7
370
    15
100
AcDbLine
 10
-7.4026713756
 20
-31.7513423575
 30
0.0
 11
-7.4026713756
 21
-37.5100647718
 31
0.0
  0
LINE
  5
20D
330
1F
100
AcDbEntity
  8
0
  6
Continuous
 62
     7
370
    15
100
AcDbLine
 10
-11.7447319225
 20
-29.9017667153
 30
0.0
 11
-11.7447319225
 21
-30.2409901956
 31
0.0
  0
LINE
  5
20E
330
1F
100
AcDbEntity
  8
0
  6
Continuous
 62
     7
370
    15
100
AcDbLine
 10
-19.7703287046
 20
-27.6887373444
 30
0.0
 11
-14.0762202865
 21
-27.6887373444
 31
0.0
  0
LINE
  5
20F
330
1F
100
AcDbEntity
  8
0
  6
Continuous
 62
     7
370
    15
100
AcDbLine
 10
-21.9106673298
 20
-35.1597306588
 30
0.0
 11
-21.9106673298
 21
-30.0094567091
 31
0.0
  0
LINE
  5
210
330
1F
100
AcDbEntity
  8
0
  6
Continuous
 62
     7
370
    15
100
AcDbLine
 10
-14.0762202865
 20
-37.5100647718
 30
0.0
 11
-19.7703287046
 21
-37.5100647718
 31
0.0
  0
LINE
  5
211
330
1F
100
AcDbEntity
  8
0
  6
Continuous
 62
     7
370
    15
100
AcDbLine
 10
-11.7447319225
 20
-31.8240331033
 30
0.0
 11
-11.7447319225
 21
-35.1597306588
 31
0.0
  0
LINE
  5
212
330
1F
100
AcDbEntity
  8
0
  6
Continuous
 62
     7
370
    15
100
AcDbLine
 10
-17.258459601
 20
-31.8240331033
 30
0.0
 11
-11.7447319225
 21
-31.8240331033
 31
0.0
  0
LINE
  5
213
330
1F
100
AcDbEntity
  8
0
  6
Continuous
 62
     7
370
    15
100
AcDbLine
 10
-17.258459601
 20
-33.3747690129
 30
0.0
 11
-17.258459601
 21
-31.8240331033
 31
0.0
  0
LINE
  5
214
330
1F
100
AcDbEntity
  8
0
  6
Continuous
 62
     7
370
    15
100
AcDbLine
 10
-13.640075812
 20
-33.3747690129
 30
0.0
 11
-17.258459601
 21
-33.3747690129
 31
0.0
  0
LINE
  5
215
330
1F
100
AcDbEntity
  8
0
  6
Continuous
 62
     7
370
    15
100
AcDbLine
 10
-13.640075812
 20
-35.9593288622
 30
0.0
 11
-13.640075812
 21
-33.3747690129
 31
0.0
  0
LINE
  5
216
330
1F
100
AcDbEntity
  8
0
  6
Continuous
 62
     7
370
    15
100
AcDbLine
 10
-20.0153234403
 20
-35.9593288622
 30
0.0
 11
-13.640075812
 21
-35.9593288622
 31
0.0
  0
LINE
  5
217
330
1F
100
AcDbEntity
  8
0
  6
Continuous
 62
     7
370
    15
100
AcDbLine
 10
-20.0153234403
 20
-29.239473254
 30
0.0
 11
-20.0153234403
 21
-35.9593288622
 31
0.0
  0
LINE
  5
218
330
1F
100
AcDbEntity
  8
0
  6
Continuous
 62
     7
370
    15
100
AcDbLine
 10
-13.640075812
 20
-29.239473254
 30
0.0
 11
-20.0153234403
 21
-29.239473254
 31
0.0
  0
LINE
  5
219
330
1F
100
AcDbEntity
  8
0
  6
Continuous
 62
     7
370
    15
100
AcDbLine
 10
-13.640075812
 20
-30.6179051736
 30
0.0
 11
-13.640075812
 21
-29.239473254
 31
0.0
  0
LINE
  5
21A
330
1F
100
AcDbEntity
  8
0
  6
Continuous
 62
     7
370
    15
100
AcDbLine
 10
-11.7447319225
 20
-30.2409901956
 30
0.0
 11
-13.640075812
 21
-30.6179051736
 31
0.0
  0
LINE
  5
21B
330
1F
100
AcDbEntity
  8
0
  6
Continuous
 62
     7
370
    15
100
AcDbLine
 10
-26.9419438365
 20
-27.6887373444
 30
0.0
 11
-25.046599947
 21
-27.6887373444
 31
0.0
  0
LINE
  5
21C
330
1F
100
AcDbEntity
  8
0
  6
Continuous
 62
     7
370
    15
100
AcDbLine
 10
-26.9419438365
 20
-37.5100647718
 30
0.0
 11
-26.9419438365
 21
-27.6887373444
 31
0.0
  0
LINE
  5
21D
330
1F
100
AcDbEntity
  8
0
  6
Continuous
 62
     7
370
    15
100
AcDbLine
 10
-25.046599947
 20
-37.5100647718
 30
0.0
 11
-26.9419438365
 21
-37.5100647718
 31
0.0
  0
LINE
  5
21E
330
1F
100
AcDbEntity
  8
0
  6
Continuous
 62
     7
370
    15
100
AcDbLine
 10
-25.046599947
 20
-27.6887373444
 30
0.0
 11
-25.046599947
 21
-37.5100647718
 31
0.0
  0
LINE
  5
21F
330
1F
100
AcDbEntity
  8
0
  6
Continuous
 62
     7
370
    15
100
AcDbLine
 10
-29.9055724637
 20
-29.8586907179
 30
0.0
 11
-29.9055724637
 21
-30.1440692012
 31
0.0
  0
LINE
  5
220
330
1F
100
AcDbEntity
  8
0
  6
Continuous
 62
     7
370
    15
100
AcDbLine
 10
-36.9296523043
 20
-27.6887373444
 30
0.0
 11
-32.2612910764
 21
-27.6887373444
 31
0.0
  0
LINE
  5
221
330
1F
100
AcDbEntity
  8
0
  6
Continuous
 62
     7
370
    15
100
AcDbLine
 10
-39.0376839314
 20
-30.9382829049
 30
0.0
 11
-39.0376839314
 21
-30.0229179583
 31
0.0
  0
LINE
  5
222
330
1F
100
AcDbEntity
  8
0
  6
Continuous
 62
     7
370
    15
100
AcDbLine
 10
-31.4563083733
 20
-33.3747690129
 30
0.0
 11
-36.9296523043
 21
-33.3747690129
 31
0.0
  0
LINE
  5
223
330
1F
100
AcDbEntity
  8
0
  6
Continuous
 62
     7
370
    15
100
AcDbLine
 10
-31.4563083733
 20
-35.9593288622
 30
0.0
 11
-31.4563083733
 21
-33.3747690129
 31
0.0
  0
LINE
  5
224
330
1F
100
AcDbEntity
  8
0
  6
Continuous
 62
     7
370
    15
100
AcDbLine
 10
-37.6592520117
 20
-35.9593288622
 30
0.0
 11
-31.4563083733
 21
-35.9593288622
 31
0.0
  0
LINE
  5
225
330
1F
100
AcDbEntity
  8
0
  6
Continuous
 62
     7
370
    15
100
AcDbLine
 10
-37.6592520117
 20
-34.4085929526
 30
0.0
 11
-37.6592520117
 21
-35.9593288622
 31
0.0
  0
LINE
  5
226
330
1F
100
AcDbEntity
  8
0
  6
Continuous
 62
     7
370
    15
100
AcDbLine
 10
-39.3822919113
 20
-34.7989691799
 30
0.0
 11
-37.6592520117
 21
-34.4085929526
 31
0.0
  0
LINE
  5
227
330
1F
100
AcDbEntity
  8
0
  6
Continuous
 62
     7
370
    15
100
AcDbLine
 10
-39.3822919113
 20
-35.1920376569
 30
0.0
 11
-39.3822919113
 21
-34.7989691799
 31
0.0
  0
LINE
  5
228
330
1F
100
AcDbEntity
  8
0
  6
Continuous
 62
     7
370
    15
100
AcDbLine
 10
-32.1374475836
 20
-37.5100647718
 30
0.0
 11
-37.2527222854
 21
-37.5100647718
 31
0.0
  0
LINE
  5
229
330
1F
100
AcDbEntity
  8
0
  6
Continuous
 62
     7
370
    15
100
AcDbLine
 10
-29.7332684738
 20
-34.0962919708
 30
0.0
 11
-29.7332684738
 21
-35.1920376569
 31
0.0
  0
LINE
  5
22A
330
1F
100
AcDbEntity
  8
0
  6
Continuous
 62
     7
370
    15
100
AcDbLine
 10
-37.3146440318
 20
-31.8240331033
 30
0.0
 11
-32.1374475836
 21
-31.8240331033
 31
0.0
  0
LINE
  5
22B
330
1F
100
AcDbEntity
  8
0
  6
Continuous
 62
     7
370
    15
100
AcDbLine
 10
-37.3146440318
 20
-29.239473254
 30
0.0
 11
-37.3146440318
 21
-31.8240331033
 31
0.0
  0
LINE
  5
22C
330
1F
100
AcDbEntity
  8
0
  6
Continuous
 62
     7
370
    15
100
AcDbLine
 10
-31.6286123633
 20
-29.239473254
 30
0.0
 11
-37.3146440318
 21
-29.239473254
 31
0.0
  0
LINE
  5
22D
330
1F
100
AcDbEntity
  8
0
  6
Continuous
 62
     7
370
    15
100
AcDbLine
 10
-31.6286123633
 20
-30.6179051736
 30
0.0
 11
-31.6286123633
 21
-29.239473254
 31
0.0
  0
LINE
  5
22E
330
1F
100
AcDbEntity
  8
0
  6
Continuous
 62
     7
370
    15
100
AcDbLine
 10
-29.9055724637
 20
-30.1440692012
 30
0.0
 11
-31.6286123633
 21
-30.6179051736
 31
0.0
  0
LINE
  5
22F
330
1F
100
AcDbEntity
  8
0
  6
Continuous
 62
     7
370
    15
100
AcDbLine
 10
-48.031952207
 20
-35.9593288622
 30
0.0
 11
-41.1397926088
 21
-35.9593288622
 31
0.0
  0
LINE
  5
230
330
1F
100
AcDbEntity
  8
0
  6
Continuous
 62
     7
370
    15
100
AcDbLine
 10
-48.031952207
 20
-33.2024650229
 30
0.0
 11
-48.031952207
 21
-35.9593288622
 31
0.0
  0
LINE
  5
231
330
1F
100
AcDbEntity
  8
0
  6
Continuous
 62
     7
370
    15
100
AcDbLine
 10
-43.8966564481
 20
-33.2024650229
 30
0.0
 11
-48.031952207
 21
-33.2024650229
 31
0.0
  0
LINE
  5
232
330
1F
100
AcDbEntity
  8
0
  6
Continuous
 62
     7
370
    15
100
AcDbLine
 10
-43.8966564481
 20
-31.6517291133
 30
0.0
 11
-43.8966564481
 21
-33.2024650229
 31
0.0
  0
LINE
  5
233
330
1F
100
AcDbEntity
  8
0
  6
Continuous
 62
     7
370
    15
100
AcDbLine
 10
-48.031952207
 20
-31.6517291133
 30
0.0
 11
-43.8966564481
 21
-31.6517291133
 31
0.0
  0
LINE
  5
234
330
1F
100
AcDbEntity
  8
0
  6
Continuous
 62
     7
370
    15
100
AcDbLine
 10
-48.031952207
 20
-29.239473254
 30
0.0
 11
-48.031952207
 21
-31.6517291133
 31
0.0
  0
LINE
  5
235
330
1F
100
AcDbEntity
  8
0
  6
Continuous
 62
     7
370
    15
100
AcDbLine
 10
-41.1397926088
 20
-29.239473254
 30
0.0
 11
-48.031952207
 21
-29.239473254
 31
0.0
  0
LINE
  5
236
330
1F
100
AcDbEntity
  8
0
  6
Continuous
 62
     7
370
    15
100
AcDbLine
 10
-41.1397926088
 20
-27.6887373444
 30
0.0
 11
-41.1397926088
 21
-29.239473254
 31
0.0
  0
LINE
  5
237
330
1F
100
AcDbEntity
  8
0
  6
Continuous
 62
     7
370
    15
100
AcDbLine
 10
-49.9272960966
 20
-27.6887373444
 30
0.0
 11
-41.1397926088
 21
-27.6887373444
 31
0.0
  0
LINE
  5
238
330
1F
100
AcDbEntity
  8
0
  6
Continuous
 62
     7
370
    15
100
AcDbLine
 10
-49.9272960966
 20
-37.5100647718
 30
0.0
 11
-49.9272960966
 21
-27.6887373444
 31
0.0
  0
LINE
  5
239
330
1F
100
AcDbEntity
  8
0
  6
Continuous
 62
     7
370
    15
100
AcDbLine
 10
-41.1397926088
 20
-37.5100647718
 30
0.0
 11
-49.9272960966
 21
-37.5100647718
 31
0.0
  0
LINE
  5
23A
330
1F
100
AcDbEntity
  8
0
  6
Continuous
 62
     7
370
    15
100
AcDbLine
 10
-41.1397926088
 20
-35.9593288622
 30
0.0
 11
-41.1397926088
 21
-37.5100647718
 31
0.0
  0
LINE
  5
23B
330
1F
100
AcDbEntity
  8
0
  6
Continuous
 62
     7
370
    15
100
AcDbLine
 10
-57.8285109359
 20
-29.239473254
 30
0.0
 11
-58.2839392026
 21
-29.239473254
 31
0.0
  0
LINE
  5
23C
330
1F
100
AcDbEntity
  8
0
  6
Continuous
 62
     7
370
    15
100
AcDbLine
 10
-58.6662600492
 20
-35.9593288622
 30
0.0
 11
-57.8285109359
 21
-35.9593288622
 31
0.0
  0
LINE
  5
23D
330
1F
100
AcDbEntity
  8
0
  6
Continuous
 62
     7
370
    15
100
AcDbLine
 10
-58.6662600492
 20
-37.5100647718
 30
0.0
 11
-58.6662600492
 21
-35.9593288622
 31
0.0
  0
LINE
  5
23E
330
1F
100
AcDbEntity
  8
0
  6
Continuous
 62
     7
370
    15
100
AcDbLine
 10
-57.6185154482
 20
-37.5100647718
 30
0.0
 11
-58.6662600492
 21
-37.5100647718
 31
0.0
  0
LINE
  5
23F
330
1F
100
AcDbEntity
  8
0
  6
Continuous
 62
     7
370
    15
100
AcDbLine
 10
-58.2839392026
 20
-27.6887373444
 30
0.0
 11
-57.6185154482
 21
-27.6887373444
 31
0.0
  0
LINE
  5
240
330
1F
100
AcDbEntity
  8
0
  6
Continuous
 62
     7
370
    15
100
AcDbLine
 10
-58.2839392026
 20
-29.239473254
 30
0.0
 11
-58.2839392026
 21
-27.6887373444
 31
0.0
  0
LINE
  5
241
330
1F
100
AcDbEntity
  8
0
  6
Continuous
 62
     7
370
    15
100
AcDbLine
 10
115.6084958526
 20
-78.1538793493
 30
0.0
 11
117.9058823853
 21
-78.1538793493
 31
0.0
  0
LINE
  5
242
330
1F
100
AcDbEntity
  8
0
  6
Continuous
 62
     7
370
    15
100
AcDbLine
 10
115.6084958526
 20
-91.2489825859
 30
0.0
 11
115.6084958526
 21
-78.1538793493
 31
0.0
  0
LINE
  5
243
330
1F
100
AcDbEntity
  8
0
  6
Continuous
 62
     7
370
    15
100
AcDbLine
 10
117.9058823853
 20
-91.2489825859
 30
0.0
 11
115.6084958526
 21
-91.2489825859
 31
0.0
  0
LINE
  5
244
330
1F
100
AcDbEntity
  8
0
  6
Continuous
 62
     7
370
    15
100
AcDbLine
 10
117.9058823853
 20
-78.1538793493
 30
0.0
 11
117.9058823853
 21
-91.2489825859
 31
0.0
  0
LINE
  5
245
330
1F
100
AcDbEntity
  8
0
  6
Continuous
 62
     7
370
    15
100
AcDbLine
 10
104.9615451399
 20
-86.1947322139
 30
0.0
 11
102.5133926159
 21
-86.1947322139
 31
0.0
  0
LINE
  5
246
330
1F
100
AcDbEntity
  8
0
  6
Continuous
 62
     7
370
    15
100
AcDbLine
 10
109.1363272299
 20
-91.2489825859
 30
0.0
 11
104.9615451399
 21
-86.1947322139
 31
0.0
  0
LINE
  5
247
330
1F
100
AcDbEntity
  8
0
  6
Continuous
 62
     7
370
    15
100
AcDbLine
 10
112.2485680484
 20
-91.2489825859
 30
0.0
 11
109.1363272299
 21
-91.2489825859
 31
0.0
  0
LINE
  5
248
330
1F
100
AcDbEntity
  8
0
  6
Continuous
 62
     7
370
    15
100
AcDbLine
 10
107.6573846494
 20
-86.1947322139
 30
0.0
 11
112.2485680484
 21
-91.2489825859
 31
0.0
  0
LINE
  5
249
330
1F
100
AcDbEntity
  8
0
  6
Continuous
 62
     7
370
    15
100
AcDbLine
 10
108.7306949202
 20
-86.1947322139
 30
0.0
 11
107.6573846494
 21
-86.1947322139
 31
0.0
  0
LINE
  5
24A
330
1F
100
AcDbEntity
  8
0
  6
Continuous
 62
     7
370
    15
100
AcDbLine
 10
111.2434614404
 20
-82.573433882
 30
0.0
 11
111.2434614404
 21
-83.5670963671
 31
0.0
  0
LINE
  5
24B
330
1F
100
AcDbEntity
  8
0
  6
Continuous
 62
     7
370
    15
100
AcDbLine
 10
108.9460749076
 20
-82.573433882
 30
0.0
 11
111.2434614404
 21
-82.573433882
 31
0.0
  0
LINE
  5
24C
330
1F
100
AcDbEntity
  8
0
  6
Continuous
 62
     7
370
    15
100
AcDbLine
 10
108.9460749076
 20
-83.0860810618
 30
0.0
 11
108.9460749076
 21
-82.573433882
 31
0.0
  0
LINE
  5
24D
330
1F
100
AcDbEntity
  8
0
  6
Continuous
 62
     7
370
    15
100
AcDbLine
 10
102.5133926159
 20
-84.1270843344
 30
0.0
 11
108.0486582933
 21
-84.1270843344
 31
0.0
  0
LINE
  5
24E
330
1F
100
AcDbEntity
  8
0
  6
Continuous
 62
     7
370
    15
100
AcDbLine
 10
102.5133926159
 20
-82.2977668443
 30
0.0
 11
102.5133926159
 21
-84.1270843344
 31
0.0
  0
LINE
  5
24F
330
1F
100
AcDbEntity
  8
0
  6
Continuous
 62
     7
370
    15
100
AcDbLine
 10
100.2160060832
 20
-82.2977668443
 30
0.0
 11
102.5133926159
 21
-82.2977668443
 31
0.0
  0
LINE
  5
250
330
1F
100
AcDbEntity
  8
0
  6
Continuous
 62
     7
370
    15
100
AcDbLine
 10
100.2160060832
 20
-91.2489825859
 30
0.0
 11
100.2160060832
 21
-82.2977668443
 31
0.0
  0
LINE
  5
251
330
1F
100
AcDbEntity
  8
0
  6
Continuous
 62
     7
370
    15
100
AcDbLine
 10
102.5133926159
 20
-91.2489825859
 30
0.0
 11
100.2160060832
 21
-91.2489825859
 31
0.0
  0
LINE
  5
252
330
1F
100
AcDbEntity
  8
0
  6
Continuous
 62
     7
370
    15
100
AcDbLine
 10
102.5133926159
 20
-86.1947322139
 30
0.0
 11
102.5133926159
 21
-91.2489825859
 31
0.0
  0
LINE
  5
253
330
1F
100
AcDbEntity
  8
0
  6
Continuous
 62
     7
370
    15
100
AcDbLine
 10
76.0754991572
 20
-91.2489825859
 30
0.0
 11
69.9012728504
 21
-91.2489825859
 31
0.0
  0
LINE
  5
254
330
1F
100
AcDbEntity
  8
0
  6
Continuous
 62
     7
370
    15
100
AcDbLine
 10
78.8503113287
 20
-78.1538793493
 30
0.0
 11
78.8503113287
 21
-88.1618694326
 31
0.0
  0
LINE
  5
255
330
1F
100
AcDbEntity
  8
0
  6
Continuous
 62
     7
370
    15
100
AcDbLine
 10
76.552924796
 20
-78.1538793493
 30
0.0
 11
78.8503113287
 21
-78.1538793493
 31
0.0
  0
LINE
  5
256
330
1F
100
AcDbEntity
  8
0
  6
Continuous
 62
     7
370
    15
100
AcDbLine
 10
76.552924796
 20
-89.1813347065
 30
0.0
 11
76.552924796
 21
-78.1538793493
 31
0.0
  0
LINE
  5
257
330
1F
100
AcDbEntity
  8
0
  6
Continuous
 62
     7
370
    15
100
AcDbLine
 10
69.6607651978
 20
-89.1813347065
 30
0.0
 11
76.552924796
 21
-89.1813347065
 31
0.0
  0
LINE
  5
258
330
1F
100
AcDbEntity
  8
0
  6
Continuous
 62
     7
370
    15
100
AcDbLine
 10
69.6607651978
 20
-78.1538793493
 30
0.0
 11
69.6607651978
 21
-89.1813347065
 31
0.0
  0
LINE
  5
259
330
1F
100
AcDbEntity
  8
0
  6
Continuous
 62
     7
370
    15
100
AcDbLine
 10
67.3633786651
 20
-78.1538793493
 30
0.0
 11
69.6607651978
 21
-78.1538793493
 31
0.0
  0
LINE
  5
25A
330
1F
100
AcDbEntity
  8
0
  6
Continuous
 62
     7
370
    15
100
AcDbLine
 10
67.3633786651
 20
-88.1618694326
 30
0.0
 11
67.3633786651
 21
-78.1538793493
 31
0.0
  0
LINE
  5
25B
330
1F
100
AcDbEntity
  8
0
  6
Continuous
 62
     7
370
    15
100
AcDbLine
 10
62.5388669463
 20
-81.047150514
 30
0.0
 11
62.5388669463
 21
-81.4276551585
 31
0.0
  0
LINE
  5
25C
330
1F
100
AcDbEntity
  8
0
  6
Continuous
 62
     7
370
    15
100
AcDbLine
 10
54.390324088
 20
-78.1538793493
 30
0.0
 11
59.5773921189
 21
-78.1538793493
 31
0.0
  0
LINE
  5
25D
330
1F
100
AcDbEntity
  8
0
  6
Continuous
 62
     7
370
    15
100
AcDbLine
 10
51.7411502424
 20
-82.4866067634
 30
0.0
 11
51.7411502424
 21
-81.2661201679
 31
0.0
  0
LINE
  5
25E
330
1F
100
AcDbEntity
  8
0
  6
Continuous
 62
     7
370
    15
100
AcDbLine
 10
60.4712190668
 20
-85.7352549073
 30
0.0
 11
54.390324088
 21
-85.7352549073
 31
0.0
  0
LINE
  5
25F
330
1F
100
AcDbEntity
  8
0
  6
Continuous
 62
     7
370
    15
100
AcDbLine
 10
60.4712190668
 20
-89.1813347065
 30
0.0
 11
60.4712190668
 21
-85.7352549073
 31
0.0
  0
LINE
  5
260
330
1F
100
AcDbEntity
  8
0
  6
Continuous
 62
     7
370
    15
100
AcDbLine
 10
53.5790594686
 20
-89.1813347065
 30
0.0
 11
60.4712190668
 21
-89.1813347065
 31
0.0
  0
LINE
  5
261
330
1F
100
AcDbEntity
  8
0
  6
Continuous
 62
     7
370
    15
100
AcDbLine
 10
53.5790594686
 20
-87.113686827
 30
0.0
 11
53.5790594686
 21
-89.1813347065
 31
0.0
  0
LINE
  5
262
330
1F
100
AcDbEntity
  8
0
  6
Continuous
 62
     7
370
    15
100
AcDbLine
 10
51.2816729359
 20
-87.6341884633
 30
0.0
 11
53.5790594686
 21
-87.113686827
 31
0.0
  0
LINE
  5
263
330
1F
100
AcDbEntity
  8
0
  6
Continuous
 62
     7
370
    15
100
AcDbLine
 10
51.2816729359
 20
-88.1582797661
 30
0.0
 11
51.2816729359
 21
-87.6341884633
 31
0.0
  0
LINE
  5
264
330
1F
100
AcDbEntity
  8
0
  6
Continuous
 62
     7
370
    15
100
AcDbLine
 10
59.7173891108
 20
-91.2489825859
 30
0.0
 11
54.0313574423
 21
-91.2489825859
 31
0.0
  0
LINE
  5
265
330
1F
100
AcDbEntity
  8
0
  6
Continuous
 62
     7
370
    15
100
AcDbLine
 10
62.7686055996
 20
-86.6972855179
 30
0.0
 11
62.7686055996
 21
-88.1582797661
 31
0.0
  0
LINE
  5
266
330
1F
100
AcDbEntity
  8
0
  6
Continuous
 62
     7
370
    15
100
AcDbLine
 10
54.0385367752
 20
-83.6676070279
 30
0.0
 11
59.7173891108
 21
-83.6676070279
 31
0.0
  0
LINE
  5
267
330
1F
100
AcDbEntity
  8
0
  6
Continuous
 62
     7
370
    15
100
AcDbLine
 10
54.0385367752
 20
-80.2215272288
 30
0.0
 11
54.0385367752
 21
-83.6676070279
 31
0.0
  0
LINE
  5
268
330
1F
100
AcDbEntity
  8
0
  6
Continuous
 62
     7
370
    15
100
AcDbLine
 10
60.2414804136
 20
-80.2215272288
 30
0.0
 11
54.0385367752
 21
-80.2215272288
 31
0.0
  0
LINE
  5
269
330
1F
100
AcDbEntity
  8
0
  6
Continuous
 62
     7
370
    15
100
AcDbLine
 10
60.2414804136
 20
-82.059436455
 30
0.0
 11
60.2414804136
 21
-80.2215272288
 31
0.0
  0
LINE
  5
26A
330
1F
100
AcDbEntity
  8
0
  6
Continuous
 62
     7
370
    15
100
AcDbLine
 10
62.5388669463
 20
-81.4276551585
 30
0.0
 11
60.2414804136
 21
-82.059436455
 31
0.0
  0
LINE
  5
26B
330
1F
100
AcDbEntity
  8
0
  6
Continuous
 62
     7
370
    15
100
AcDbLine
 10
31.5241487543
 20
-89.1813347065
 30
0.0
 11
39.7947402722
 21
-89.1813347065
 31
0.0
  0
LINE
  5
26C
330
1F
100
AcDbEntity
  8
0
  6
Continuous
 62
     7
370
    15
100
AcDbLine
 10
31.5241487543
 20
-85.5055162541
 30
0.0
 11
31.5241487543
 21
-89.1813347065
 31
0.0
  0
LINE
  5
26D
330
1F
100
AcDbEntity
  8
0
  6
Continuous
 62
     7
370
    15
100
AcDbLine
 10
36.5783991264
 20
-85.5055162541
 30
0.0
 11
31.5241487543
 21
-85.5055162541
 31
0.0
  0
LINE
  5
26E
330
1F
100
AcDbEntity
  8
0
  6
Continuous
 62
     7
370
    15
100
AcDbLine
 10
36.5783991264
 20
-83.4378683746
 30
0.0
 11
36.5783991264
 21
-85.5055162541
 31
0.0
  0
LINE
  5
26F
330
1F
100
AcDbEntity
  8
0
  6
Continuous
 62
     7
370
    15
100
AcDbLine
 10
31.5241487543
 20
-83.4378683746
 30
0.0
 11
36.5783991264
 21
-83.4378683746
 31
0.0
  0
LINE
  5
270
330
1F
100
AcDbEntity
  8
0
  6
Continuous
 62
     7
370
    15
100
AcDbLine
 10
31.5241487543
 20
-80.2215272288
 30
0.0
 11
31.5241487543
 21
-83.4378683746
 31
0.0
  0
LINE
  5
271
330
1F
100
AcDbEntity
  8
0
  6
Continuous
 62
     7
370
    15
100
AcDbLine
 10
39.7947402722
 20
-80.2215272288
 30
0.0
 11
31.5241487543
 21
-80.2215272288
 31
0.0
  0
LINE
  5
272
330
1F
100
AcDbEntity
  8
0
  6
Continuous
 62
     7
370
    15
100
AcDbLine
 10
39.7947402722
 20
-78.1538793493
 30
0.0
 11
39.7947402722
 21
-80.2215272288
 31
0.0
  0
LINE
  5
273
330
1F
100
AcDbEntity
  8
0
  6
Continuous
 62
     7
370
    15
100
AcDbLine
 10
29.2267622216
 20
-78.1538793493
 30
0.0
 11
39.7947402722
 21
-78.1538793493
 31
0.0
  0
LINE
  5
274
330
1F
100
AcDbEntity
  8
0
  6
Continuous
 62
     7
370
    15
100
AcDbLine
 10
29.2267622216
 20
-91.2489825859
 30
0.0
 11
29.2267622216
 21
-78.1538793493
 31
0.0
  0
LINE
  5
275
330
1F
100
AcDbEntity
  8
0
  6
Continuous
 62
     7
370
    15
100
AcDbLine
 10
39.7947402722
 20
-91.2489825859
 30
0.0
 11
29.2267622216
 21
-91.2489825859
 31
0.0
  0
LINE
  5
276
330
1F
100
AcDbEntity
  8
0
  6
Continuous
 62
     7
370
    15
100
AcDbLine
 10
39.7947402722
 20
-89.1813347065
 30
0.0
 11
39.7947402722
 21
-91.2489825859
 31
0.0
  0
LINE
  5
277
330
1F
100
AcDbEntity
  8
0
  6
Continuous
 62
     7
370
    15
100
AcDbLine
 10
21.8845589628
 20
-82.1276033999
 30
0.0
 11
18.0628995391
 21
-89.263897035
 31
0.0
  0
LINE
  5
278
330
1F
100
AcDbEntity
  8
0
  6
Continuous
 62
     7
370
    15
100
AcDbLine
 10
21.8751253168
 20
-91.2489825859
 30
0.0
 11
21.8751253168
 21
-82.4973757628
 31
0.0
  0
LINE
  5
279
330
1F
100
AcDbEntity
  8
0
  6
Continuous
 62
     7
370
    15
100
AcDbLine
 10
24.1725118496
 20
-91.2489825859
 30
0.0
 11
21.8751253168
 21
-91.2489825859
 31
0.0
  0
LINE
  5
27A
330
1F
100
AcDbEntity
  8
0
  6
Continuous
 62
     7
370
    15
100
AcDbLine
 10
24.1725118496
 20
-78.1538793493
 30
0.0
 11
24.1725118496
 21
-91.2489825859
 31
0.0
  0
LINE
  5
27B
330
1F
100
AcDbEntity
  8
0
  6
Continuous
 62
     7
370
    15
100
AcDbLine
 10
21.9684566447
 20
-78.1538793493
 30
0.0
 11
24.1725118496
 21
-78.1538793493
 31
0.0
  0
LINE
  5
27C
330
1F
100
AcDbEntity
  8
0
  6
Continuous
 62
     7
370
    15
100
AcDbLine
 10
17.6141912319
 20
-86.3778052032
 30
0.0
 11
21.9684566447
 21
-78.1538793493
 31
0.0
  0
LINE
  5
27D
330
1F
100
AcDbEntity
  8
0
  6
Continuous
 62
     7
370
    15
100
AcDbLine
 10
12.8112175119
 20
-78.1538793493
 30
0.0
 11
17.6141912319
 21
-86.3778052032
 31
0.0
  0
LINE
  5
27E
330
1F
100
AcDbEntity
  8
0
  6
Continuous
 62
     7
370
    15
100
AcDbLine
 10
10.8476699597
 20
-78.1538793493
 30
0.0
 11
12.8112175119
 21
-78.1538793493
 31
0.0
  0
LINE
  5
27F
330
1F
100
AcDbEntity
  8
0
  6
Continuous
 62
     7
370
    15
100
AcDbLine
 10
10.8476699597
 20
-91.2489825859
 30
0.0
 11
10.8476699597
 21
-78.1538793493
 31
0.0
  0
LINE
  5
280
330
1F
100
AcDbEntity
  8
0
  6
Continuous
 62
     7
370
    15
100
AcDbLine
 10
13.1450564924
 20
-91.2489825859
 30
0.0
 11
10.8476699597
 21
-91.2489825859
 31
0.0
  0
LINE
  5
281
330
1F
100
AcDbEntity
  8
0
  6
Continuous
 62
     7
370
    15
100
AcDbLine
 10
13.1450564924
 20
-82.4973757628
 30
0.0
 11
13.1450564924
 21
-91.2489825859
 31
0.0
  0
LINE
  5
282
330
1F
100
AcDbEntity
  8
0
  6
Continuous
 62
     7
370
    15
100
AcDbLine
 10
17.1583035918
 20
-89.263897035
 30
0.0
 11
13.1439018212
 21
-82.4109934814
 31
0.0
  0
LINE
  5
283
330
1F
100
AcDbEntity
  8
0
  6
Continuous
 62
     7
370
    15
100
AcDbLine
 10
18.0628995391
 20
-89.263897035
 30
0.0
 11
17.1583035918
 21
-89.263897035
 31
0.0
  0
LINE
  5
284
330
1F
100
AcDbEntity
  8
0
  6
Continuous
 62
     7
370
    15
100
AcDbLine
 10
6.0231582409
 20
-81.047150514
 30
0.0
 11
6.0231582409
 21
-81.4276551585
 31
0.0
  0
LINE
  5
285
330
1F
100
AcDbEntity
  8
0
  6
Continuous
 62
     7
370
    15
100
AcDbLine
 10
-2.1253846174
 20
-78.1538793493
 30
0.0
 11
3.0616834136
 21
-78.1538793493
 31
0.0
  0
LINE
  5
286
330
1F
100
AcDbEntity
  8
0
  6
Continuous
 62
     7
370
    15
100
AcDbLine
 10
-4.7745584629
 20
-82.4866067634
 30
0.0
 11
-4.7745584629
 21
-81.2661201679
 31
0.0
  0
LINE
  5
287
330
1F
100
AcDbEntity
  8
0
  6
Continuous
 62
     7
370
    15
100
AcDbLine
 10
3.9555103615
 20
-85.7352549073
 30
0.0
 11
-2.1253846174
 21
-85.7352549073
 31
0.0
  0
LINE
  5
288
330
1F
100
AcDbEntity
  8
0
  6
Continuous
 62
     7
370
    15
100
AcDbLine
 10
3.9555103615
 20
-89.1813347065
 30
0.0
 11
3.9555103615
 21
-85.7352549073
 31
0.0
  0
LINE
  5
289
330
1F
100
AcDbEntity
  8
0
  6
Continuous
 62
     7
370
    15
100
AcDbLine
 10
-2.9366492367
 20
-89.1813347065
 30
0.0
 11
3.9555103615
 21
-89.1813347065
 31
0.0
  0
LINE
  5
28A
330
1F
100
AcDbEntity
  8
0
  6
Continuous
 62
     7
370
    15
100
AcDbLine
 10
-2.9366492367
 20
-87.113686827
 30
0.0
 11
-2.9366492367
 21
-89.1813347065
 31
0.0
  0
LINE
  5
28B
330
1F
100
AcDbEntity
  8
0
  6
Continuous
 62
     7
370
    15
100
AcDbLine
 10
-5.2340357695
 20
-87.6341884633
 30
0.0
 11
-2.9366492367
 21
-87.113686827
 31
0.0
  0
LINE
  5
28C
330
1F
100
AcDbEntity
  8
0
  6
Continuous
 62
     7
370
    15
100
AcDbLine
 10
-5.2340357695
 20
-88.1582797661
 30
0.0
 11
-5.2340357695
 21
-87.6341884633
 31
0.0
  0
LINE
  5
28D
330
1F
100
AcDbEntity
  8
0
  6
Continuous
 62
     7
370
    15
100
AcDbLine
 10
3.2016804054
 20
-91.2489825859
 30
0.0
 11
-2.4843512631
 21
-91.2489825859
 31
0.0
  0
LINE
  5
28E
330
1F
100
AcDbEntity
  8
0
  6
Continuous
 62
     7
370
    15
100
AcDbLine
 10
6.2528968942
 20
-86.6972855179
 30
0.0
 11
6.2528968942
 21
-88.1582797661
 31
0.0
  0
LINE
  5
28F
330
1F
100
AcDbEntity
  8
0
  6
Continuous
 62
     7
370
    15
100
AcDbLine
 10
-2.4771719302
 20
-83.6676070279
 30
0.0
 11
3.2016804054
 21
-83.6676070279
 31
0.0
  0
LINE
  5
290
330
1F
100
AcDbEntity
  8
0
  6
Continuous
 62
     7
370
    15
100
AcDbLine
 10
-2.4771719302
 20
-80.2215272288
 30
0.0
 11
-2.4771719302
 21
-83.6676070279
 31
0.0
  0
LINE
  5
291
330
1F
100
AcDbEntity
  8
0
  6
Continuous
 62
     7
370
    15
100
AcDbLine
 10
3.7257717082
 20
-80.2215272288
 30
0.0
 11
-2.4771719302
 21
-80.2215272288
 31
0.0
  0
LINE
  5
292
330
1F
100
AcDbEntity
  8
0
  6
Continuous
 62
     7
370
    15
100
AcDbLine
 10
3.7257717082
 20
-82.059436455
 30
0.0
 11
3.7257717082
 21
-80.2215272288
 31
0.0
  0
LINE
  5
293
330
1F
100
AcDbEntity
  8
0
  6
Continuous
 62
     7
370
    15
100
AcDbLine
 10
6.0231582409
 20
-81.4276551585
 30
0.0
 11
3.7257717082
 21
-82.059436455
 31
0.0
  0
LINE
  5
294
330
1F
100
AcDbEntity
  8
0
  6
Continuous
 62
     7
370
    15
100
AcDbLine
 10
-17.1804457397
 20
-89.1813347065
 30
0.0
 11
-8.9098542218
 21
-89.1813347065
 31
0.0
  0
LINE
  5
295
330
1F
100
AcDbEntity
  8
0
  6
Continuous
 62
     7
370
    15
100
AcDbLine
 10
-17.1804457397
 20
-85.5055162541
 30
0.0
 11
-17.1804457397
 21
-89.1813347065
 31
0.0
  0
LINE
  5
296
330
1F
100
AcDbEntity
  8
0
  6
Continuous
 62
     7
370
    15
100
AcDbLine
 10
-12.1261953677
 20
-85.5055162541
 30
0.0
 11
-17.1804457397
 21
-85.5055162541
 31
0.0
  0
LINE
  5
297
330
1F
100
AcDbEntity
  8
0
  6
Continuous
 62
     7
370
    15
100
AcDbLine
 10
-12.1261953677
 20
-83.4378683746
 30
0.0
 11
-12.1261953677
 21
-85.5055162541
 31
0.0
  0
LINE
  5
298
330
1F
100
AcDbEntity
  8
0
  6
Continuous
 62
     7
370
    15
100
AcDbLine
 10
-17.1804457397
 20
-83.4378683746
 30
0.0
 11
-12.1261953677
 21
-83.4378683746
 31
0.0
  0
LINE
  5
299
330
1F
100
AcDbEntity
  8
0
  6
Continuous
 62
     7
370
    15
100
AcDbLine
 10
-17.1804457397
 20
-80.2215272288
 30
0.0
 11
-17.1804457397
 21
-83.4378683746
 31
0.0
  0
LINE
  5
29A
330
1F
100
AcDbEntity
  8
0
  6
Continuous
 62
     7
370
    15
100
AcDbLine
 10
-8.9098542218
 20
-80.2215272288
 30
0.0
 11
-17.1804457397
 21
-80.2215272288
 31
0.0
  0
LINE
  5
29B
330
1F
100
AcDbEntity
  8
0
  6
Continuous
 62
     7
370
    15
100
AcDbLine
 10
-8.9098542218
 20
-78.1538793493
 30
0.0
 11
-8.9098542218
 21
-80.2215272288
 31
0.0
  0
LINE
  5
29C
330
1F
100
AcDbEntity
  8
0
  6
Continuous
 62
     7
370
    15
100
AcDbLine
 10
-19.4778322724
 20
-78.1538793493
 30
0.0
 11
-8.9098542218
 21
-78.1538793493
 31
0.0
  0
LINE
  5
29D
330
1F
100
AcDbEntity
  8
0
  6
Continuous
 62
     7
370
    15
100
AcDbLine
 10
-19.4778322724
 20
-91.2489825859
 30
0.0
 11
-19.4778322724
 21
-78.1538793493
 31
0.0
  0
LINE
  5
29E
330
1F
100
AcDbEntity
  8
0
  6
Continuous
 62
     7
370
    15
100
AcDbLine
 10
-8.9098542218
 20
-91.2489825859
 30
0.0
 11
-19.4778322724
 21
-91.2489825859
 31
0.0
  0
LINE
  5
29F
330
1F
100
AcDbEntity
  8
0
  6
Continuous
 62
     7
370
    15
100
AcDbLine
 10
-8.9098542218
 20
-89.1813347065
 30
0.0
 11
-8.9098542218
 21
-91.2489825859
 31
0.0
  0
LINE
  5
2A0
330
1F
100
AcDbEntity
  8
0
  6
Continuous
 62
     7
370
    15
100
AcDbLine
 10
20.0
 20
-59.0
 30
0.0
 11
40.0
 21
-59.0
 31
0.0
  0
LINE
  5
2A1
330
1F
100
AcDbEntity
  8
0
  6
Continuous
 62
     7
370
    15
100
AcDbLine
 10
40.0
 20
-59.0
 30
0.0
 11
40.0
 21
-49.0
 31
0.0
  0
LINE
  5
2A2
330
1F
100
AcDbEntity
  8
0
  6
Continuous
 62
     7
370
    15
100
AcDbLine
 10
40.0
 20
-49.0
 30
0.0
 11
20.0
 21
-49.0
 31
0.0
  0
LINE
  5
2A3
330
1F
100
AcDbEntity
  8
0
  6
Continuous
 62
     7
370
    15
100
AcDbLine
 10
20.0
 20
-49.0
 30
0.0
 11
20.0
 21
-59.0
 31
0.0
  0
LINE
  5
2A4
330
1F
100
AcDbEntity
  8
0
  6
Continuous
 62
     7
370
    15
100
AcDbLine
 10
-20.0
 20
-59.0
 30
0.0
 11
-20.0
 21
-49.0
 31
0.0
  0
LINE
  5
2A5
330
1F
100
AcDbEntity
  8
0
  6
Continuous
 62
     7
370
    15
100
AcDbLine
 10
-20.0
 20
-49.0
 30
0.0
 11
-40.0
 21
-49.0
 31
0.0
  0
LINE
  5
2A6
330
1F
100
AcDbEntity
  8
0
  6
Continuous
 62
     7
370
    15
100
AcDbLine
 10
-40.0
 20
-49.0
 30
0.0
 11
-40.0
 21
-59.0
 31
0.0
  0
LINE
  5
2A7
330
1F
100
AcDbEntity
  8
0
  6
Continuous
 62
     7
370
    15
100
AcDbLine
 10
-40.0
 20
-59.0
 30
0.0
 11
-20.0
 21
-59.0
 31
0.0
  0
LINE
  5
2A8
330
1F
100
AcDbEntity
  8
0
  6
Continuous
 62
     7
370
    15
100
AcDbLine
 10
92.5
 20
-16.0
 30
0.0
 11
92.5
 21
-10.0
 31
0.0
  0
LINE
  5
2A9
330
1F
100
AcDbEntity
  8
0
  6
Continuous
 62
     7
370
    15
100
AcDbLine
 10
92.5
 20
-10.0
 30
0.0
 11
77.5
 21
-10.0
 31
0.0
  0
LINE
  5
2AA
330
1F
100
AcDbEntity
  8
0
  6
Continuous
 62
     7
370
    15
100
AcDbLine
 10
77.5
 20
-10.0
 30
0.0
 11
77.5
 21
-16.0
 31
0.0
  0
LINE
  5
2AB
330
1F
100
AcDbEntity
  8
0
  6
Continuous
 62
     7
370
    15
100
AcDbLine
 10
77.5
 20
-16.0
 30
0.0
 11
92.5
 21
-16.0
 31
0.0
  0
LINE
  5
2AC
330
1F
100
AcDbEntity
  8
0
  6
Continuous
 62
     7
370
    15
100
AcDbLine
 10
7.5
 20
-16.0
 30
0.0
 11
7.5
 21
-10.0
 31
0.0
  0
LINE
  5
2AD
330
1F
100
AcDbEntity
  8
0
  6
Continuous
 62
     7
370
    15
100
AcDbLine
 10
7.5
 20
-10.0
 30
0.0
 11
-7.5
 21
-10.0
 31
0.0
  0
LINE
  5
2AE
330
1F
100
AcDbEntity
  8
0
  6
Continuous
 62
     7
370
    15
100
AcDbLine
 10
-7.5
 20
-10.0
 30
0.0
 11
-7.5
 21
-16.0
 31
0.0
  0
LINE
  5
2AF
330
1F
100
AcDbEntity
  8
0
  6
Continuous
 62
     7
370
    15
100
AcDbLine
 10
-7.5
 20
-16.0
 30
0.0
 11
7.5
 21
-16.0
 31
0.0
  0
LINE
  5
2B0
330
1F
100
AcDbEntity
  8
0
  6
Continuous
 62
     7
370
    15
100
AcDbLine
 10
-77.5
 20
-16.0
 30
0.0
 11
-77.5
 21
-10.0
 31
0.0
  0
LINE
  5
2B1
330
1F
100
AcDbEntity
  8
0
  6
Continuous
 62
     7
370
    15
100
AcDbLine
 10
-77.5
 20
-10.0
 30
0.0
 11
-92.5
 21
-10.0
 31
0.0
  0
LINE
  5
2B2
330
1F
100
AcDbEntity
  8
0
  6
Continuous
 62
     7
370
    15
100
AcDbLine
 10
-92.5
 20
-10.0
 30
0.0
 11
-92.5
 21
-16.0
 31
0.0
  0
LINE
  5
2B3
330
1F
100
AcDbEntity
  8
0
  6
Continuous
 62
     7
370
    15
100
AcDbLine
 10
-92.5
 20
-16.0
 30
0.0
 11
-77.5
 21
-16.0
 31
0.0
  0
LINE
  5
2B4
330
1F
100
AcDbEntity
  8
0
  6
Continuous
 62
     7
370
    15
100
AcDbLine
 10
165.0
 20
-9.0
 30
0.0
 11
165.0
 21
0.0
 31
0.0
  0
LINE
  5
2B5
330
1F
100
AcDbEntity
  8
0
  6
Continuous
 62
     7
370
    15
100
AcDbLine
 10
165.0
 20
-9.0
 30
0.0
 11
159.0
 21
-9.0
 31
0.0
  0
LINE
  5
2B6
330
1F
100
AcDbEntity
  8
0
  6
Continuous
 62
     7
370
    15
100
AcDbLine
 10
159.0
 20
-9.0
 30
0.0
 11
159.0
 21
-29.0
 31
0.0
  0
LINE
  5
2B7
330
1F
100
AcDbEntity
  8
0
  6
Continuous
 62
     7
370
    15
100
AcDbLine
 10
159.0
 20
-29.0
 30
0.0
 11
165.0
 21
-29.0
 31
0.0
  0
LINE
  5
2B8
330
1F
100
AcDbEntity
  8
0
  6
Continuous
 62
     7
370
    15
100
AcDbLine
 10
165.0
 20
-69.0
 30
0.0
 11
165.0
 21
-29.0
 31
0.0
  0
LINE
  5
2B9
330
1F
100
AcDbEntity
  8
0
  6
Continuous
 62
     7
370
    15
100
AcDbLine
 10
165.0
 20
-69.0
 30
0.0
 11
159.0
 21
-69.0
 31
0.0
  0
LINE
  5
2BA
330
1F
100
AcDbEntity
  8
0
  6
Continuous
 62
     7
370
    15
100
AcDbLine
 10
159.0
 20
-69.0
 30
0.0
 11
159.0
 21
-89.0
 31
0.0
  0
LINE
  5
2BB
330
1F
100
AcDbEntity
  8
0
  6
Continuous
 62
     7
370
    15
100
AcDbLine
 10
159.0
 20
-89.0
 30
0.0
 11
165.0
 21
-89.0
 31
0.0
  0
LINE
  5
2BC
330
1F
100
AcDbEntity
  8
0
  6
Continuous
 62
     7
370
    15
100
AcDbLine
 10
165.0
 20
-112.0
 30
0.0
 11
165.0
 21
-89.0
 31
0.0
  0
LINE
  5
2BD
330
1F
100
AcDbEntity
  8
0
  6
Continuous
 62
     7
370
    15
100
AcDbLine
 10
165.0
 20
-112.0
 30
0.0
 11
153.0
 21
-112.0
 31
0.0
  0
LINE
  5
2BE
330
1F
100
AcDbEntity
  8
0
  6
Continuous
 62
     7
370
    15
100
AcDbLine
 10
153.0
 20
-112.0
 30
0.0
 11
153.0
 21
-119.0
 31
0.0
  0
LINE
  5
2BF
330
1F
100
AcDbEntity
  8
0
  6
Continuous
 62
     7
370
    15
100
AcDbLine
 10
115.0
 20
-119.0
 30
0.0
 11
115.0
 21
-125.0
 31
0.0
  0
LINE
  5
2C0
330
1F
100
AcDbEntity
  8
0
  6
Continuous
 62
     7
370
    15
100
AcDbLine
 10
115.0
 20
-125.0
 30
0.0
 11
100.0
 21
-125.0
 31
0.0
  0
LINE
  5
2C1
330
1F
100
AcDbEntity
  8
0
  6
Continuous
 62
     7
370
    15
100
AcDbLine
 10
50.0
 20
-119.0
 30
0.0
 11
50.0
 21
-125.0
 31
0.0
  0
LINE
  5
2C2
330
1F
100
AcDbEntity
  8
0
  6
Continuous
 62
     7
370
    15
100
AcDbLine
 10
50.0
 20
-125.0
 30
0.0
 11
35.0
 21
-125.0
 31
0.0
  0
LINE
  5
2C3
330
1F
100
AcDbEntity
  8
0
  6
Continuous
 62
     7
370
    15
100
AcDbLine
 10
35.0
 20
-119.0
 30
0.0
 11
35.0
 21
-125.0
 31
0.0
  0
LINE
  5
2C4
330
1F
100
AcDbEntity
  8
0
  6
Continuous
 62
     7
370
    15
100
AcDbLine
 10
-35.0
 20
-119.0
 30
0.0
 11
35.0
 21
-119.0
 31
0.0
  0
LINE
  5
2C5
330
1F
100
AcDbEntity
  8
0
  6
Continuous
 62
     7
370
    15
100
AcDbLine
 10
-35.0
 20
-119.0
 30
0.0
 11
-35.0
 21
-125.0
 31
0.0
  0
LINE
  5
2C6
330
1F
100
AcDbEntity
  8
0
  6
Continuous
 62
     7
370
    15
100
AcDbLine
 10
-50.0
 20
-125.0
 30
0.0
 11
-35.0
 21
-125.0
 31
0.0
  0
LINE
  5
2C7
330
1F
100
AcDbEntity
  8
0
  6
Continuous
 62
     7
370
    15
100
AcDbLine
 10
-50.0
 20
-119.0
 30
0.0
 11
-50.0
 21
-125.0
 31
0.0
  0
LINE
  5
2C8
330
1F
100
AcDbEntity
  8
0
  6
Continuous
 62
     7
370
    15
100
AcDbLine
 10
-100.0
 20
-119.0
 30
0.0
 11
-50.0
 21
-119.0
 31
0.0
  0
LINE
  5
2C9
330
1F
100
AcDbEntity
  8
0
  6
Continuous
 62
     7
370
    15
100
AcDbLine
 10
-100.0
 20
-119.0
 30
0.0
 11
-100.0
 21
-125.0
 31
0.0
  0
LINE
  5
2CA
330
1F
100
AcDbEntity
  8
0
  6
Continuous
 62
     7
370
    15
100
AcDbLine
 10
-115.0
 20
-125.0
 30
0.0
 11
-100.0
 21
-125.0
 31
0.0
  0
LINE
  5
2CB
330
1F
100
AcDbEntity
  8
0
  6
Continuous
 62
     7
370
    15
100
AcDbLine
 10
-115.0
 20
-119.0
 30
0.0
 11
-115.0
 21
-125.0
 31
0.0
  0
LINE
  5
2CC
330
1F
100
AcDbEntity
  8
0
  6
Continuous
 62
     7
370
    15
100
AcDbLine
 10
-153.0
 20
-119.0
 30
0.0
 11
-115.0
 21
-119.0
 31
0.0
  0
LINE
  5
2CD
330
1F
100
AcDbEntity
  8
0
  6
Continuous
 62
     7
370
    15
100
AcDbLine
 10
-153.0
 20
-119.0
 30
0.0
 11
-153.0
 21
-112.0
 31
0.0
  0
LINE
  5
2CE
330
1F
100
AcDbEntity
  8
0
  6
Continuous
 62
     7
370
    15
100
AcDbLine
 10
-153.0
 20
-112.0
 30
0.0
 11
-165.0
 21
-112.0
 31
0.0
  0
LINE
  5
2CF
330
1F
100
AcDbEntity
  8
0
  6
Continuous
 62
     7
370
    15
100
AcDbLine
 10
-165.0
 20
-89.0
 30
0.0
 11
-165.0
 21
-112.0
 31
0.0
  0
LINE
  5
2D0
330
1F
100
AcDbEntity
  8
0
  6
Continuous
 62
     7
370
    15
100
AcDbLine
 10
-165.0
 20
-89.0
 30
0.0
 11
-159.0
 21
-89.0
 31
0.0
  0
LINE
  5
2D1
330
1F
100
AcDbEntity
  8
0
  6
Continuous
 62
     7
370
    15
100
AcDbLine
 10
-159.0
 20
-89.0
 30
0.0
 11
-159.0
 21
-69.0
 31
0.0
  0
LINE
  5
2D2
330
1F
100
AcDbEntity
  8
0
  6
Continuous
 62
     7
370
    15
100
AcDbLine
 10
-159.0
 20
-69.0
 30
0.0
 11
-165.0
 21
-69.0
 31
0.0
  0
LINE
  5
2D3
330
1F
100
AcDbEntity
  8
0
  6
Continuous
 62
     7
370
    15
100
AcDbLine
 10
-165.0
 20
-29.0
 30
0.0
 11
-165.0
 21
-69.0
 31
0.0
  0
LINE
  5
2D4
330
1F
100
AcDbEntity
  8
0
  6
Continuous
 62
     7
370
    15
100
AcDbLine
 10
-165.0
 20
-29.0
 30
0.0
 11
-159.0
 21
-29.0
 31
0.0
  0
LINE
  5
2D5
330
1F
100
AcDbEntity
  8
0
  6
Continuous
 62
     7
370
    15
100
AcDbLine
 10
-159.0
 20
-29.0
 30
0.0
 11
-159.0
 21
-9.0
 31
0.0
  0
LINE
  5
2D6
330
1F
100
AcDbEntity
  8
0
  6
Continuous
 62
     7
370
    15
100
AcDbLine
 10
-159.0
 20
-9.0
 30
0.0
 11
-165.0
 21
-9.0
 31
0.0
  0
LINE
  5
2D7
330
1F
100
AcDbEntity
  8
0
  6
Continuous
 62
     7
370
    15
100
AcDbLine
 10
-165.0
 20
0.0
 30
0.0
 11
-165.0
 21
-9.0
 31
0.0
  0
LINE
  5
2D8
330
1F
100
AcDbEntity
  8
0
  6
Continuous
 62
     7
370
    15
100
AcDbLine
 10
-165.0
 20
0.0
 30
0.0
 11
165.0
 21
0.0
 31
0.0
  0
LINE
  5
2D9
330
1F
100
AcDbEntity
  8
0
  6
Continuous
 62
     7
370
    15
100
AcDbLine
 10
89.5475173718
 20
-80.2215272288
 30
0.0
 11
88.8747328027
 21
-80.2215272288
 31
0.0
  0
LINE
  5
2DA
330
1F
100
AcDbEntity
  8
0
  6
Continuous
 62
     7
370
    15
100
AcDbLine
 10
88.8747328027
 20
-89.1813347065
 30
0.0
 11
89.5475173718
 21
-89.1813347065
 31
0.0
  0
LINE
  5
2DB
330
1F
100
AcDbEntity
  8
0
  6
Continuous
 62
     7
370
    15
100
AcDbLine
 10
88.8747328027
 20
-91.2489825859
 30
0.0
 11
88.8747328027
 21
-89.1813347065
 31
0.0
  0
LINE
  5
2DC
330
1F
100
AcDbEntity
  8
0
  6
Continuous
 62
     7
370
    15
100
AcDbLine
 10
89.7987940238
 20
-91.2489825859
 30
0.0
 11
88.8747328027
 21
-91.2489825859
 31
0.0
  0
LINE
  5
2DD
330
1F
100
AcDbEntity
  8
0
  6
Continuous
 62
     7
370
    15
100
AcDbLine
 10
88.8747328027
 20
-78.1538793493
 30
0.0
 11
89.7987940238
 21
-78.1538793493
 31
0.0
  0
LINE
  5
2DE
330
1F
100
AcDbEntity
  8
0
  6
Continuous
 62
     7
370
    15
100
AcDbLine
 10
88.8747328027
 20
-80.2215272288
 30
0.0
 11
88.8747328027
 21
-78.1538793493
 31
0.0
  0
LINE
  5
2DF
330
1F
100
AcDbEntity
  8
0
  6
Continuous
 62
     7
370
    15
100
AcDbLine
 10
-121.502373524
 20
-35.9593288622
 30
0.0
 11
-114.6102139258
 21
-35.9593288622
 31
0.0
  0
LINE
  5
2E0
330
1F
100
AcDbEntity
  8
0
  6
Continuous
 62
     7
370
    15
100
AcDbLine
 10
-121.502373524
 20
-33.2024650229
 30
0.0
 11
-121.502373524
 21
-35.9593288622
 31
0.0
  0
LINE
  5
2E1
330
1F
100
AcDbEntity
  8
0
  6
Continuous
 62
     7
370
    15
100
AcDbLine
 10
-117.3670777651
 20
-33.2024650229
 30
0.0
 11
-121.502373524
 21
-33.2024650229
 31
0.0
  0
LINE
  5
2E2
330
1F
100
AcDbEntity
  8
0
  6
Continuous
 62
     7
370
    15
100
AcDbLine
 10
-117.3670777651
 20
-31.6517291133
 30
0.0
 11
-117.3670777651
 21
-33.2024650229
 31
0.0
  0
LINE
  5
2E3
330
1F
100
AcDbEntity
  8
0
  6
Continuous
 62
     7
370
    15
100
AcDbLine
 10
-121.502373524
 20
-31.6517291133
 30
0.0
 11
-117.3670777651
 21
-31.6517291133
 31
0.0
  0
LINE
  5
2E4
330
1F
100
AcDbEntity
  8
0
  6
Continuous
 62
     7
370
    15
100
AcDbLine
 10
-121.502373524
 20
-29.239473254
 30
0.0
 11
-121.502373524
 21
-31.6517291133
 31
0.0
  0
LINE
  5
2E5
330
1F
100
AcDbEntity
  8
0
  6
Continuous
 62
     7
370
    15
100
AcDbLine
 10
-114.6102139258
 20
-29.239473254
 30
0.0
 11
-121.502373524
 21
-29.239473254
 31
0.0
  0
LINE
  5
2E6
330
1F
100
AcDbEntity
  8
0
  6
Continuous
 62
     7
370
    15
100
AcDbLine
 10
-114.6102139258
 20
-27.6887373444
 30
0.0
 11
-114.6102139258
 21
-29.239473254
 31
0.0
  0
LINE
  5
2E7
330
1F
100
AcDbEntity
  8
0
  6
Continuous
 62
     7
370
    15
100
AcDbLine
 10
-123.3977174135
 20
-27.6887373444
 30
0.0
 11
-114.6102139258
 21
-27.6887373444
 31
0.0
  0
LINE
  5
2E8
330
1F
100
AcDbEntity
  8
0
  6
Continuous
 62
     7
370
    15
100
AcDbLine
 10
-123.3977174135
 20
-37.5100647718
 30
0.0
 11
-123.3977174135
 21
-27.6887373444
 31
0.0
  0
LINE
  5
2E9
330
1F
100
AcDbEntity
  8
0
  6
Continuous
 62
     7
370
    15
100
AcDbLine
 10
-114.6102139258
 20
-37.5100647718
 30
0.0
 11
-123.3977174135
 21
-37.5100647718
 31
0.0
  0
LINE
  5
2EA
330
1F
100
AcDbEntity
  8
0
  6
Continuous
 62
     7
370
    15
100
AcDbLine
 10
-114.6102139258
 20
-35.9593288622
 30
0.0
 11
-114.6102139258
 21
-37.5100647718
 31
0.0
  0
LINE
  5
2EB
330
1F
100
AcDbEntity
  8
0
  6
Continuous
 62
     7
370
    15
100
AcDbLine
 10
-110.6127613588
 20
-35.9593288622
 30
0.0
 11
-104.0652097405
 21
-35.9593288622
 31
0.0
  0
LINE
  5
2EC
330
1F
100
AcDbEntity
  8
0
  6
Continuous
 62
     7
370
    15
100
AcDbLine
 10
-110.6127613588
 20
-27.6887373444
 30
0.0
 11
-110.6127613588
 21
-35.9593288622
 31
0.0
  0
LINE
  5
2ED
330
1F
100
AcDbEntity
  8
0
  6
Continuous
 62
     7
370
    15
100
AcDbLine
 10
-112.5081052483
 20
-27.6887373444
 30
0.0
 11
-110.6127613588
 21
-27.6887373444
 31
0.0
  0
LINE
  5
2EE
330
1F
100
AcDbEntity
  8
0
  6
Continuous
 62
     7
370
    15
100
AcDbLine
 10
-112.5081052483
 20
-37.5100647718
 30
0.0
 11
-112.5081052483
 21
-27.6887373444
 31
0.0
  0
LINE
  5
2EF
330
1F
100
AcDbEntity
  8
0
  6
Continuous
 62
     7
370
    15
100
AcDbLine
 10
-104.0652097405
 20
-37.5100647718
 30
0.0
 11
-112.5081052483
 21
-37.5100647718
 31
0.0
  0
LINE
  5
2F0
330
1F
100
AcDbEntity
  8
0
  6
Continuous
 62
     7
370
    15
100
AcDbLine
 10
-104.0652097405
 20
-35.9593288622
 30
0.0
 11
-104.0652097405
 21
-37.5100647718
 31
0.0
  0
LINE
  5
2F1
330
1F
100
AcDbEntity
  8
0
  6
Continuous
 62
     7
370
    15
100
AcDbLine
 10
-93.3479015653
 20
-29.8586907179
 30
0.0
 11
-93.3479015653
 21
-30.1440692012
 31
0.0
  0
LINE
  5
2F2
330
1F
100
AcDbEntity
  8
0
  6
Continuous
 62
     7
370
    15
100
AcDbLine
 10
-100.3719814058
 20
-27.6887373444
 30
0.0
 11
-95.703620178
 21
-27.6887373444
 31
0.0
  0
LINE
  5
2F3
330
1F
100
AcDbEntity
  8
0
  6
Continuous
 62
     7
370
    15
100
AcDbLine
 10
-102.4800130329
 20
-30.9382829049
 30
0.0
 11
-102.4800130329
 21
-30.0229179583
 31
0.0
  0
LINE
  5
2F4
330
1F
100
AcDbEntity
  8
0
  6
Continuous
 62
     7
370
    15
100
AcDbLine
 10
-94.8986374749
 20
-33.3747690129
 30
0.0
 11
-100.3719814058
 21
-33.3747690129
 31
0.0
  0
LINE
  5
2F5
330
1F
100
AcDbEntity
  8
0
  6
Continuous
 62
     7
370
    15
100
AcDbLine
 10
-94.8986374749
 20
-35.9593288622
 30
0.0
 11
-94.8986374749
 21
-33.3747690129
 31
0.0
  0
LINE
  5
2F6
330
1F
100
AcDbEntity
  8
0
  6
Continuous
 62
     7
370
    15
100
AcDbLine
 10
-101.1015811133
 20
-35.9593288622
 30
0.0
 11
-94.8986374749
 21
-35.9593288622
 31
0.0
  0
LINE
  5
2F7
330
1F
100
AcDbEntity
  8
0
  6
Continuous
 62
     7
370
    15
100
AcDbLine
 10
-101.1015811133
 20
-34.4085929526
 30
0.0
 11
-101.1015811133
 21
-35.9593288622
 31
0.0
  0
LINE
  5
2F8
330
1F
100
AcDbEntity
  8
0
  6
Continuous
 62
     7
370
    15
100
AcDbLine
 10
-102.8246210129
 20
-34.7989691799
 30
0.0
 11
-101.1015811133
 21
-34.4085929526
 31
0.0
  0
LINE
  5
2F9
330
1F
100
AcDbEntity
  8
0
  6
Continuous
 62
     7
370
    15
100
AcDbLine
 10
-102.8246210129
 20
-35.1920376569
 30
0.0
 11
-102.8246210129
 21
-34.7989691799
 31
0.0
  0
LINE
  5
2FA
330
1F
100
AcDbEntity
  8
0
  6
Continuous
 62
     7
370
    15
100
AcDbLine
 10
-95.5797766852
 20
-37.5100647718
 30
0.0
 11
-100.695051387
 21
-37.5100647718
 31
0.0
  0
LINE
  5
2FB
330
1F
100
AcDbEntity
  8
0
  6
Continuous
 62
     7
370
    15
100
AcDbLine
 10
-93.1755975754
 20
-34.0962919708
 30
0.0
 11
-93.1755975754
 21
-35.1920376569
 31
0.0
  0
LINE
  5
2FC
330
1F
100
AcDbEntity
  8
0
  6
Continuous
 62
     7
370
    15
100
AcDbLine
 10
-100.7569731334
 20
-31.8240331033
 30
0.0
 11
-95.5797766852
 21
-31.8240331033
 31
0.0
  0
LINE
  5
2FD
330
1F
100
AcDbEntity
  8
0
  6
Continuous
 62
     7
370
    15
100
AcDbLine
 10
-100.7569731334
 20
-29.239473254
 30
0.0
 11
-100.7569731334
 21
-31.8240331033
 31
0.0
  0
LINE
  5
2FE
330
1F
100
AcDbEntity
  8
0
  6
Continuous
 62
     7
370
    15
100
AcDbLine
 10
-95.0709414649
 20
-29.239473254
 30
0.0
 11
-100.7569731334
 21
-29.239473254
 31
0.0
  0
LINE
  5
2FF
330
1F
100
AcDbEntity
  8
0
  6
Continuous
 62
     7
370
    15
100
AcDbLine
 10
-95.0709414649
 20
-30.6179051736
 30
0.0
 11
-95.0709414649
 21
-29.239473254
 31
0.0
  0
LINE
  5
300
330
1F
100
AcDbEntity
  8
0
  6
Continuous
 62
     7
370
    15
100
AcDbLine
 10
-93.3479015653
 20
-30.1440692012
 30
0.0
 11
-95.0709414649
 21
-30.6179051736
 31
0.0
  0
LINE
  5
301
330
1F
100
AcDbEntity
  8
0
  6
Continuous
 62
     7
370
    15
100
AcDbLine
 10
-81.5967694504
 20
-27.6887373444
 30
0.0
 11
-85.9043691992
 21
-33.1782347743
 31
0.0
  0
LINE
  5
302
330
1F
100
AcDbEntity
  8
0
  6
Continuous
 62
     7
370
    15
100
AcDbLine
 10
-83.764030574
 20
-27.6887373444
 30
0.0
 11
-81.5967694504
 21
-27.6887373444
 31
0.0
  0
LINE
  5
303
330
1F
100
AcDbEntity
  8
0
  6
Continuous
 62
     7
370
    15
100
AcDbLine
 10
-86.8143496462
 20
-31.9128773481
 30
0.0
 11
-83.764030574
 21
-27.6887373444
 31
0.0
  0
LINE
  5
304
330
1F
100
AcDbEntity
  8
0
  6
Continuous
 62
     7
370
    15
100
AcDbLine
 10
-89.9669742124
 20
-27.6887373444
 30
0.0
 11
-86.8143496462
 21
-31.9128773481
 31
0.0
  0
LINE
  5
305
330
1F
100
AcDbEntity
  8
0
  6
Continuous
 62
     7
370
    15
100
AcDbLine
 10
-92.1073128376
 20
-27.6887373444
 30
0.0
 11
-89.9669742124
 21
-27.6887373444
 31
0.0
  0
LINE
  5
306
330
1F
100
AcDbEntity
  8
0
  6
Continuous
 62
     7
370
    15
100
AcDbLine
 10
-87.7997130887
 20
-33.269771269
 30
0.0
 11
-92.1073128376
 21
-27.6887373444
 31
0.0
  0
LINE
  5
307
330
1F
100
AcDbEntity
  8
0
  6
Continuous
 62
     7
370
    15
100
AcDbLine
 10
-87.7997130887
 20
-37.5100647718
 30
0.0
 11
-87.7997130887
 21
-33.269771269
 31
0.0
  0
LINE
  5
308
330
1F
100
AcDbEntity
  8
0
  6
Continuous
 62
     7
370
    15
100
AcDbLine
 10
-85.9043691992
 20
-37.5100647718
 30
0.0
 11
-87.7997130887
 21
-37.5100647718
 31
0.0
  0
LINE
  5
309
330
1F
100
AcDbEntity
  8
0
  6
Continuous
 62
     7
370
    15
100
AcDbLine
 10
-85.9043691992
 20
-33.1782347743
 30
0.0
 11
-85.9043691992
 21
-37.5100647718
 31
0.0
  0
LINE
  5
30A
330
1F
100
AcDbEntity
  8
0
  6
Continuous
 62
     7
370
    15
100
AcDbLine
 10
-70.8794612751
 20
-29.8586907179
 30
0.0
 11
-70.8794612751
 21
-30.1440692012
 31
0.0
  0
LINE
  5
30B
330
1F
100
AcDbEntity
  8
0
  6
Continuous
 62
     7
370
    15
100
AcDbLine
 10
-77.9035411157
 20
-27.6887373444
 30
0.0
 11
-73.2351798878
 21
-27.6887373444
 31
0.0
  0
LINE
  5
30C
330
1F
100
AcDbEntity
  8
0
  6
Continuous
 62
     7
370
    15
100
AcDbLine
 10
-80.0115727428
 20
-30.9382829049
 30
0.0
 11
-80.0115727428
 21
-30.0229179583
 31
0.0
  0
LINE
  5
30D
330
1F
100
AcDbEntity
  8
0
  6
Continuous
 62
     7
370
    15
100
AcDbLine
 10
-72.4301971847
 20
-33.3747690129
 30
0.0
 11
-77.9035411157
 21
-33.3747690129
 31
0.0
  0
LINE
  5
30E
330
1F
100
AcDbEntity
  8
0
  6
Continuous
 62
     7
370
    15
100
AcDbLine
 10
-72.4301971847
 20
-35.9593288622
 30
0.0
 11
-72.4301971847
 21
-33.3747690129
 31
0.0
  0
LINE
  5
30F
330
1F
100
AcDbEntity
  8
0
  6
Continuous
 62
     7
370
    15
100
AcDbLine
 10
-78.6331408231
 20
-35.9593288622
 30
0.0
 11
-72.4301971847
 21
-35.9593288622
 31
0.0
  0
LINE
  5
310
330
1F
100
AcDbEntity
  8
0
  6
Continuous
 62
     7
370
    15
100
AcDbLine
 10
-78.6331408231
 20
-34.4085929526
 30
0.0
 11
-78.6331408231
 21
-35.9593288622
 31
0.0
  0
LINE
  5
311
330
1F
100
AcDbEntity
  8
0
  6
Continuous
 62
     7
370
    15
100
AcDbLine
 10
-80.3561807227
 20
-34.7989691799
 30
0.0
 11
-78.6331408231
 21
-34.4085929526
 31
0.0
  0
LINE
  5
312
330
1F
100
AcDbEntity
  8
0
  6
Continuous
 62
     7
370
    15
100
AcDbLine
 10
-80.3561807227
 20
-35.1920376569
 30
0.0
 11
-80.3561807227
 21
-34.7989691799
 31
0.0
  0
LINE
  5
313
330
1F
100
AcDbEntity
  8
0
  6
Continuous
 62
     7
370
    15
100
AcDbLine
 10
-73.111336395
 20
-37.5100647718
 30
0.0
 11
-78.2266110968
 21
-37.5100647718
 31
0.0
  0
LINE
  5
314
330
1F
100
AcDbEntity
  8
0
  6
Continuous
 62
     7
370
    15
100
AcDbLine
 10
-70.7071572852
 20
-34.0962919708
 30
0.0
 11
-70.7071572852
 21
-35.1920376569
 31
0.0
  0
LINE
  5
315
330
1F
100
AcDbEntity
  8
0
  6
Continuous
 62
     7
370
    15
100
AcDbLine
 10
-78.2885328432
 20
-31.8240331033
 30
0.0
 11
-73.111336395
 21
-31.8240331033
 31
0.0
  0
LINE
  5
316
330
1F
100
AcDbEntity
  8
0
  6
Continuous
 62
     7
370
    15
100
AcDbLine
 10
-78.2885328432
 20
-29.239473254
 30
0.0
 11
-78.2885328432
 21
-31.8240331033
 31
0.0
  0
LINE
  5
317
330
1F
100
AcDbEntity
  8
0
  6
Continuous
 62
     7
370
    15
100
AcDbLine
 10
-72.6025011747
 20
-29.239473254
 30
0.0
 11
-78.2885328432
 21
-29.239473254
 31
0.0
  0
LINE
  5
318
330
1F
100
AcDbEntity
  8
0
  6
Continuous
 62
     7
370
    15
100
AcDbLine
 10
-72.6025011747
 20
-30.6179051736
 30
0.0
 11
-72.6025011747
 21
-29.239473254
 31
0.0
  0
LINE
  5
319
330
1F
100
AcDbEntity
  8
0
  6
Continuous
 62
     7
370
    15
100
AcDbLine
 10
-70.8794612751
 20
-30.1440692012
 30
0.0
 11
-72.6025011747
 21
-30.6179051736
 31
0.0
  0
LINE
  5
31A
330
1F
100
AcDbEntity
  8
0
  6
Continuous
 62
     7
370
    15
100
AcDbLine
 10
-62.5399481613
 20
-37.5100647718
 30
0.0
 11
-62.5399481613
 21
-27.6887373444
 31
0.0
  0
LINE
  5
31B
330
1F
100
AcDbEntity
  8
0
  6
Continuous
 62
     7
370
    15
100
AcDbLine
 10
-59.6662600492
 20
-37.5100647718
 30
0.0
 11
-62.5399481613
 21
-37.5100647718
 31
0.0
  0
LINE
  5
31C
330
1F
100
AcDbEntity
  8
0
  6
Continuous
 62
     7
370
    15
100
AcDbLine
 10
-59.6662600492
 20
-35.9593288622
 30
0.0
 11
-59.6662600492
 21
-37.5100647718
 31
0.0
  0
LINE
  5
31D
330
1F
100
AcDbEntity
  8
0
  6
Continuous
 62
     7
370
    15
100
AcDbLine
 10
-60.6446042718
 20
-35.9593288622
 30
0.0
 11
-59.6662600492
 21
-35.9593288622
 31
0.0
  0
LINE
  5
31E
330
1F
100
AcDbEntity
  8
0
  6
Continuous
 62
     7
370
    15
100
AcDbLine
 10
-60.6446042718
 20
-29.239473254
 30
0.0
 11
-60.6446042718
 21
-35.9593288622
 31
0.0
  0
LINE
  5
31F
330
1F
100
AcDbEntity
  8
0
  6
Continuous
 62
     7
370
    15
100
AcDbLine
 10
-59.2839392026
 20
-29.239473254
 30
0.0
 11
-60.6446042718
 21
-29.239473254
 31
0.0
  0
LINE
  5
320
330
1F
100
AcDbEntity
  8
0
  6
Continuous
 62
     7
370
    15
100
AcDbLine
 10
-59.2839392026
 20
-27.6887373444
 30
0.0
 11
-59.2839392026
 21
-29.239473254
 31
0.0
  0
LINE
  5
321
330
1F
100
AcDbEntity
  8
0
  6
Continuous
 62
     7
370
    15
100
AcDbLine
 10
-62.5399481613
 20
-27.6887373444
 30
0.0
 11
-59.2839392026
 21
-27.6887373444
 31
0.0
  0
LINE
  5
322
330
1F
100
AcDbEntity
  8
0
  6
Continuous
 62
     7
370
    15
100
AcDbLine
 10
126.7867172009
 20
-78.1538793493
 30
0.0
 11
129.1200003982
 21
-78.1538793493
 31
0.0
  0
LINE
  5
323
330
1F
100
AcDbEntity
  8
0
  6
Continuous
 62
     7
370
    15
100
AcDbLine
 10
121.1222235311
 20
-91.2489825859
 30
0.0
 11
126.7867172009
 21
-78.1538793493
 31
0.0
  0
LINE
  5
324
330
1F
100
AcDbEntity
  8
0
  6
Continuous
 62
     7
370
    15
100
AcDbLine
 10
123.3908927322
 20
-91.2489825859
 30
0.0
 11
121.1222235311
 21
-91.2489825859
 31
0.0
  0
LINE
  5
325
330
1F
100
AcDbEntity
  8
0
  6
Continuous
 62
     7
370
    15
100
AcDbLine
 10
124.6975313227
 20
-88.2623800934
 30
0.0
 11
123.3908927322
 21
-91.2489825859
 31
0.0
  0
LINE
  5
326
330
1F
100
AcDbEntity
  8
0
  6
Continuous
 62
     7
370
    15
100
AcDbLine
 10
127.1957685829
 20
-88.2623800934
 30
0.0
 11
124.6975313227
 21
-88.2623800934
 31
0.0
  0
LINE
  5
327
330
1F
100
AcDbEntity
  8
0
  6
Continuous
 62
     7
370
    15
100
AcDbLine
 10
127.1957685829
 20
-86.1947322139
 30
0.0
 11
127.1957685829
 21
-88.2623800934
 31
0.0
  0
LINE
  5
328
330
1F
100
AcDbEntity
  8
0
  6
Continuous
 62
     7
370
    15
100
AcDbLine
 10
125.5195649414
 20
-86.1947322139
 30
0.0
 11
130.3368973273
 21
-86.1947322139
 31
0.0
  0
LINE
  5
329
330
1F
100
AcDbEntity
  8
0
  6
Continuous
 62
     7
370
    15
100
AcDbLine
 10
128.1957685829
 20
-88.2623800934
 30
0.0
 11
128.1957685829
 21
-86.1947322139
 31
0.0
  0
LINE
  5
32A
330
1F
100
AcDbEntity
  8
0
  6
Continuous
 62
     7
370
    15
100
AcDbLine
 10
131.1122652821
 20
-88.2623800934
 30
0.0
 11
128.1957685829
 21
-88.2623800934
 31
0.0
  0
LINE
  5
32B
330
1F
100
AcDbEntity
  8
0
  6
Continuous
 62
     7
370
    15
100
AcDbLine
 10
132.4189038726
 20
-91.2489825859
 30
0.0
 11
131.1122652821
 21
-88.2623800934
 31
0.0
  0
LINE
  5
32C
330
1F
100
AcDbEntity
  8
0
  6
Continuous
 62
     7
370
    15
100
AcDbLine
 10
134.9065427276
 20
-91.2489825859
 30
0.0
 11
132.4189038726
 21
-91.2489825859
 31
0.0
  0
LINE
  5
32D
330
1F
100
AcDbEntity
  8
0
  6
Continuous
 62
     7
370
    15
100
AcDbLine
 10
130.9943333969
 20
-82.3955460859
 30
0.0
 11
134.9065427276
 21
-91.2489825859
 31
0.0
  0
LINE
  5
32E
330
1F
100
AcDbEntity
  8
0
  6
Continuous
 62
     7
370
    15
100
AcDbLine
 10
129.1235900647
 20
-83.1381312254
 30
0.0
 11
130.9943333969
 21
-82.3955460859
 31
0.0
  0
LINE
  5
32F
330
1F
100
AcDbEntity
  8
0
  6
Continuous
 62
     7
370
    15
100
AcDbLine
 10
130.3368973273
 20
-86.1947322139
 30
0.0
 11
127.9102828021
 21
-80.0815302369
 31
0.0
  0
LINE
  5
330
330
1F
100
AcDbEntity
  8
0
  6
Continuous
 62
     7
370
    15
100
AcDbLine
 10
130.5898547307
 20
-81.4801998237
 30
0.0
 11
128.7546472481
 21
-82.2086791298
 31
0.0
  0
LINE
  5
331
330
1F
100
AcDbEntity
  8
0
  6
Continuous
 62
     7
370
    15
100
AcDbLine
 10
129.1200003982
 20
-78.1538793493
 30
0.0
 11
130.5898547307
 21
-81.4801998237
 31
0.0
  0
LINE
  5
332
330
1F
100
AcDbEntity
  8
0
  6
Continuous
 62
     7
370
    15
100
AcDbLine
 10
83.9045617008
 20
-91.2489825859
 30
0.0
 11
83.9045617008
 21
-78.1538793493
 31
0.0
  0
LINE
  5
333
330
1F
100
AcDbEntity
  8
0
  6
Continuous
 62
     7
370
    15
100
AcDbLine
 10
87.8747328027
 20
-91.2489825859
 30
0.0
 11
83.9045617008
 21
-91.2489825859
 31
0.0
  0
LINE
  5
334
330
1F
100
AcDbEntity
  8
0
  6
Continuous
 62
     7
370
    15
100
AcDbLine
 10
87.8747328027
 20
-89.1813347065
 30
0.0
 11
87.8747328027
 21
-91.2489825859
 31
0.0
  0
LINE
  5
335
330
1F
100
AcDbEntity
  8
0
  6
Continuous
 62
     7
370
    15
100
AcDbLine
 10
86.2019482335
 20
-89.1813347065
 30
0.0
 11
87.8747328027
 21
-89.1813347065
 31
0.0
  0
LINE
  5
336
330
1F
100
AcDbEntity
  8
0
  6
Continuous
 62
     7
370
    15
100
AcDbLine
 10
86.2019482335
 20
-80.2215272288
 30
0.0
 11
86.2019482335
 21
-89.1813347065
 31
0.0
  0
LINE
  5
337
330
1F
100
AcDbEntity
  8
0
  6
Continuous
 62
     7
370
    15
100
AcDbLine
 10
87.8747328027
 20
-80.2215272288
 30
0.0
 11
86.2019482335
 21
-80.2215272288
 31
0.0
  0
LINE
  5
338
330
1F
100
AcDbEntity
  8
0
  6
Continuous
 62
     7
370
    15
100
AcDbLine
 10
87.8747328027
 20
-78.1538793493
 30
0.0
 11
87.8747328027
 21
-80.2215272288
 31
0.0
  0
LINE
  5
339
330
1F
100
AcDbEntity
  8
0
  6
Continuous
 62
     7
370
    15
100
AcDbLine
 10
83.9045617008
 20
-78.1538793493
 30
0.0
 11
87.8747328027
 21
-78.1538793493
 31
0.0
  0
LINE
  5
33A
330
1F
100
AcDbEntity
  8
0
  6
Continuous
 62
     7
370
    15
100
AcDbLine
 10
100.2160060832
 20
-78.1538793493
 30
0.0
 11
108.7306949202
 21
-78.1538793493
 31
0.0
  0
LINE
  5
33B
330
1F
100
AcDbEntity
  8
0
  6
Continuous
 62
     7
370
    15
100
AcDbLine
 10
100.2160060832
 20
-81.2977668443
 30
0.0
 11
100.2160060832
 21
-78.1538793493
 31
0.0
  0
LINE
  5
33C
330
1F
100
AcDbEntity
  8
0
  6
Continuous
 62
     7
370
    15
100
AcDbLine
 10
102.5133926159
 20
-81.2977668443
 30
0.0
 11
100.2160060832
 21
-81.2977668443
 31
0.0
  0
LINE
  5
33D
330
1F
100
AcDbEntity
  8
0
  6
Continuous
 62
     7
370
    15
100
AcDbLine
 10
102.5133926159
 20
-80.2215272288
 30
0.0
 11
102.5133926159
 21
-81.2977668443
 31
0.0
  0
LINE
  5
33E
330
1F
100
AcDbEntity
  8
0
  6
Continuous
 62
     7
370
    15
100
AcDbLine
 10
108.0486582933
 20
-80.2215272288
 30
0.0
 11
102.5133926159
 21
-80.2215272288
 31
0.0
  0
LINE
  5
33F
330
1F
100
AcDbEntity
  8
0
  6
Continuous
 62
     7
370
    15
100
AcDbLine
 10
108.9460749076
 20
-81.573433882
 30
0.0
 11
108.9460749076
 21
-81.2732995008
 31
0.0
  0
LINE
  5
340
330
1F
100
AcDbEntity
  8
0
  6
Continuous
 62
     7
370
    15
100
AcDbLine
 10
111.2434614404
 20
-81.573433882
 30
0.0
 11
108.9460749076
 21
-81.573433882
 31
0.0
  0
LINE
  5
341
330
1F
100
AcDbEntity
  8
0
  6
Continuous
 62
     7
370
    15
100
AcDbLine
 10
111.2434614404
 20
-80.7922841955
 30
0.0
 11
111.2434614404
 21
-81.573433882
 31
0.0
  0
LINE
  5
342
330
1F
100
AcDbEntity
  8
0
  6
Continuous
 62
     7
370
    15
100
AcDbLine
 10
115.0
 20
-119.0
 30
0.0
 11
153.0
 21
-119.0
 31
0.0
  0
LINE
  5
343
330
1F
100
AcDbEntity
  8
0
  6
Continuous
 62
     7
370
    15
100
AcDbLine
 10
50.0
 20
-119.0
 30
0.0
 11
100.0
 21
-119.0
 31
0.0
  0
LINE
  5
344
330
1F
100
AcDbEntity
  8
0
  6
Continuous
 62
     7
370
    15
100
AcDbLine
 10
100.0
 20
-119.0
 30
0.0
 11
100.0
 21
-125.0
 31
0.0
  0
LINE
  5
345
330
1F
100
AcDbEntity
  8
0
  6
Continuous
 62
     7
370
    15
100
AcDbLine
 10
127.9102828021
 20
-80.0815302369
 30
0.0
 11
125.5195649414
 21
-86.1947322139
 31
0.0
  0
ENDSEC
  0
SECTION
  2
OBJECTS
  0
DICTIONARY
  5
C
330
0
100
AcDbDictionary
281
     1
  3
ACAD_GROUP
350
D
  3
ACAD_LAYOUT
350
1A
  3
ACAD_MLINESTYLE
350
17
  3
ACAD_PLOTSETTINGS
350
19
  3
ACAD_PLOTSTYLENAME
350
E
  3
ACAD_SCALELIST
350
47
  0
DICTIONARY
  5
D
102
{ACAD_REACTORS
330
C
102
}
330
C
100
AcDbDictionary
281
     1
  0
DICTIONARY
  5
1A
102
{ACAD_REACTORS
330
C
102
}
330
C
100
AcDbDictionary
281
     1
  3
Layout1
350
1E
  3
Layout2
350
26
  3
Model
350
22
  0
DICTIONARY
  5
17
102
{ACAD_REACTORS
330
C
102
}
330
C
100
AcDbDictionary
281
     1
  3
Standard
350
18
  0
DICTIONARY
  5
19
102
{ACAD_REACTORS
330
C
102
}
330
C
100
AcDbDictionary
281
     1
  0
ACDBDICTIONARYWDFLT
  5
E
102
{ACAD_REACTORS
330
C
102
}
330
C
100
AcDbDictionary
281
     1
  3
Normal
350
F
100
AcDbDictionaryWithDefault
340
F
  0
DICTIONARY
  5
47
102
{ACAD_REACTORS
330
C
102
}
330
C
100
AcDbDictionary
281
     1
  3
A0
350
48
  3
A1
350
49
  3
A2
350
4A
  3
A3
350
4B
  3
A4
350
4C
  3
A5
350
4D
  3
A6
350
4E
  3
A7
350
4F
  3
A8
350
50
  3
A9
350
51
  3
B0
350
52
  3
B1
350
53
  3
B2
350
54
  3
B3
350
55
  3
B4
350
56
  3
B5
350
57
  3
B6
350
58
  3
B7
350
59
  3
B8
350
5A
  3
B9
350
5B
  3
C0
350
5C
  3
C1
350
5D
  3
C2
350
5E
  3
C3
350
5F
  3
C4
350
60
  3
C5
350
61
  3
C6
350
62
  3
C7
350
63
  3
C8
350
64
  3
C9
350
65
  3
D0
350
66
  3
D1
350
67
  3
D2
350
68
  0
LAYOUT
  5
1E
102
{ACAD_REACTORS
330
1A
102
}
330
1A
100
AcDbPlotSettings
  1

  2
none_device
  4

  6

 40
0.0
 41
0.0
 42
0.0
 43
0.0
 44
0.0
 45
0.0
 46
0.0
 47
0.0
 48
0.0
 49
0.0
140
0.0
141
0.0
142
1.0
143
1.0
 70
   688
 72
     1
 73
     0
 74
     5
  7

 75
    16
147
1.0
148
0.0
149
0.0
100
AcDbLayout
  1
Layout1
 70
     1
 71
     1
 10
0.0
 20
0.0
 11
420.0
 21
297.0
 12
0.0
 22
0.0
 32
0.0
 14
1.0000000000E+20
 24
1.0000000000E+20
 34
1.0000000000E+20
 15
-1.0000000000E+20
 25
-1.0000000000E+20
 35
-1.0000000000E+20
146
0.0
 13
0.0
 23
0.0
 33
0.0
 16
1.0
 26
0.0
 36
0.0
 17
0.0
 27
1.0
 37
0.0
 76
     0
330
1B
  0
LAYOUT
  5
26
102
{ACAD_REACTORS
330
1A
102
}
330
1A
100
AcDbPlotSettings
  1

  2
none_device
  4

  6

 40
0.0
 41
0.0
 42
0.0
 43
0.0
 44
0.0
 45
0.0
 46
0.0
 47
0.0
 48
0.0
 49
0.0
140
0.0
141
0.0
142
1.0
143
1.0
 70
   688
 72
     1
 73
     0
 74
     5
  7

 75
    16
147
1.0
148
0.0
149
0.0
100
AcDbLayout
  1
Layout2
 70
     1
 71
     2
 10
0.0
 20
0.0
 11
0.0
 21
0.0
 12
0.0
 22
0.0
 32
0.0
 14
0.0
 24
0.0
 34
0.0
 15
0.0
 25
0.0
 35
0.0
146
0.0
 13
0.0
 23
0.0
 33
0.0
 16
1.0
 26
0.0
 36
0.0
 17
0.0
 27
1.0
 37
0.0
 76
     0
330
23
  0
LAYOUT
  5
22
102
{ACAD_REACTORS
330
1A
102
}
330
1A
100
AcDbPlotSettings
  1

  2
none_device
  4
ANSI_A_(11.00_x_8.50_Inches)
  6

 40
6.35
 41
19.05
 42
6.35000508
 43
19.05000254
 44
279.4
 45
215.9
 46
133.34999746
 47
141.28749873
 48
0.0
 49
0.0
140
0.0
141
0.0
142
0.033
143
1.0
 70
  1696
 72
     0
 73
     0
 74
     0
  7

 75
     0
147
0.0179189148
148
-1300.4909072572
149
0.0
100
AcDbLayout
  1
Model
 70
     1
 71
     0
 10
0.0
 20
0.0
 11
420.0
 21
297.0
 12
0.0
 22
0.0
 32
0.0
 14
-165.0
 24
-125.0
 34
0.0
 15
165.0
 25
0.0
 35
0.0
146
0.0
 13
0.0
 23
0.0
 33
0.0
 16
1.0
 26
0.0
 36
0.0
 17
0.0
 27
1.0
 37
0.0
 76
     0
330
1F
331
29
  0
MLINESTYLE
  5
18
102
{ACAD_REACTORS
330
17
102
}
330
17
100
AcDbMlineStyle
  2
Standard
 70
     0
  3

 62
   256
 51
90.0
 52
90.0
 71
     2
 49
0.5
 62
   256
  6
BYLAYER
 49
-0.5
 62
   256
  6
BYLAYER
  0
ACDBPLACEHOLDER
  5
F
102
{ACAD_REACTORS
330
E
102
}
330
E
  0
SCALE
  5
48
102
{ACAD_REACTORS
330
47
102
}
330
47
100
AcDbScale
 70
     0
300
1:1
140
1.0
141
1.0
290
     1
  0
SCALE
  5
49
102
{ACAD_REACTORS
330
47
102
}
330
47
100
AcDbScale
 70
     0
300
1:2
140
1.0
141
2.0
290
     0
  0
SCALE
  5
4A
102
{ACAD_REACTORS
330
47
102
}
330
47
100
AcDbScale
 70
     0
300
1:4
140
1.0
141
4.0
290
     0
  0
SCALE
  5
4B
102
{ACAD_REACTORS
330
47
102
}
330
47
100
AcDbScale
 70
     0
300
1:5
140
1.0
141
5.0
290
     0
  0
SCALE
  5
4C
102
{ACAD_REACTORS
330
47
102
}
330
47
100
AcDbScale
 70
     0
300
1:8
140
1.0
141
8.0
290
     0
  0
SCALE
  5
4D
102
{ACAD_REACTORS
330
47
102
}
330
47
100
AcDbScale
 70
     0
300
1:10
140
1.0
141
10.0
290
     0
  0
SCALE
  5
4E
102
{ACAD_REACTORS
330
47
102
}
330
47
100
AcDbScale
 70
     0
300
1:16
140
1.0
141
16.0
290
     0
  0
SCALE
  5
4F
102
{ACAD_REACTORS
330
47
102
}
330
47
100
AcDbScale
 70
     0
300
1:20
140
1.0
141
20.0
290
     0
  0
SCALE
  5
50
102
{ACAD_REACTORS
330
47
102
}
330
47
100
AcDbScale
 70
     0
300
1:30
140
1.0
141
30.0
290
     0
  0
SCALE
  5
51
102
{ACAD_REACTORS
330
47
102
}
330
47
100
AcDbScale
 70
     0
300
1:40
140
1.0
141
40.0
290
     0
  0
SCALE
  5
52
102
{ACAD_REACTORS
330
47
102
}
330
47
100
AcDbScale
 70
     0
300
1:50
140
1.0
141
50.0
290
     0
  0
SCALE
  5
53
102
{ACAD_REACTORS
330
47
102
}
330
47
100
AcDbScale
 70
     0
300
1:100
140
1.0
141
100.0
290
     0
  0
SCALE
  5
54
102
{ACAD_REACTORS
330
47
102
}
330
47
100
AcDbScale
 70
     0
300
2:1
140
2.0
141
1.0
290
     0
  0
SCALE
  5
55
102
{ACAD_REACTORS
330
47
102
}
330
47
100
AcDbScale
 70
     0
300
4:1
140
4.0
141
1.0
290
     0
  0
SCALE
  5
56
102
{ACAD_REACTORS
330
47
102
}
330
47
100
AcDbScale
 70
     0
300
8:1
140
8.0
141
1.0
290
     0
  0
SCALE
  5
57
102
{ACAD_REACTORS
330
47
102
}
330
47
100
AcDbScale
 70
     0
300
10:1
140
10.0
141
1.0
290
     0
  0
SCALE
  5
58
102
{ACAD_REACTORS
330
47
102
}
330
47
100
AcDbScale
 70
     0
300
100:1
140
100.0
141
1.0
290
     0
  0
SCALE
  5
59
102
{ACAD_REACTORS
330
47
102
}
330
47
100
AcDbScale
 70
     0
300
1/128" = 1'-0"
140
0.0078125
141
12.0
290
     0
  0
SCALE
  5
5A
102
{ACAD_REACTORS
330
47
102
}
330
47
100
AcDbScale
 70
     0
300
1/64" = 1'-0"
140
0.015625
141
12.0
290
     0
  0
SCALE
  5
5B
102
{ACAD_REACTORS
330
47
102
}
330
47
100
AcDbScale
 70
     0
300
1/32" = 1'-0"
140
0.03125
141
12.0
290
     0
  0
SCALE
  5
5C
102
{ACAD_REACTORS
330
47
102
}
330
47
100
AcDbScale
 70
     0
300
1/16" = 1'-0"
140
0.0625
141
12.0
290
     0
  0
SCALE
  5
5D
102
{ACAD_REACTORS
330
47
102
}
330
47
100
AcDbScale
 70
     0
300
3/32" = 1'-0"
140
0.09375
141
12.0
290
     0
  0
SCALE
  5
5E
102
{ACAD_REACTORS
330
47
102
}
330
47
100
AcDbScale
 70
     0
300
1/8" = 1'-0"
140
0.125
141
12.0
290
     0
  0
SCALE
  5
5F
102
{ACAD_REACTORS
330
47
102
}
330
47
100
AcDbScale
 70
     0
300
3/16" = 1'-0"
140
0.1875
141
12.0
290
     0
  0
SCALE
  5
60
102
{ACAD_REACTORS
330
47
102
}
330
47
100
AcDbScale
 70
     0
300
1/4" = 1'-0"
140
0.25
141
12.0
290
     0
  0
SCALE
  5
61
102
{ACAD_REACTORS
330
47
102
}
330
47
100
AcDbScale
 70
     0
300
3/8" = 1'-0"
140
0.375
141
12.0
290
     0
  0
SCALE
  5
62
102
{ACAD_REACTORS
330
47
102
}
330
47
100
AcDbScale
 70
     0
300
1/2" = 1'-0"
140
0.5
141
12.0
290
     0
  0
SCALE
  5
63
102
{ACAD_REACTORS
330
47
102
}
330
47
100
AcDbScale
 70
     0
300
3/4" = 1'-0"
140
0.75
141
12.0
290
     0
  0
SCALE
  5
64
102
{ACAD_REACTORS
330
47
102
}
330
47
100
AcDbScale
 70
     0
300
1" = 1'-0"
140
1.0
141
12.0
290
     0
  0
SCALE
  5
65
102
{ACAD_REACTORS
330
47
102
}
330
47
100
AcDbScale
 70
     0
300
1-1/2" = 1'-0"
140
1.5
141
12.0
290
     0
  0
SCALE
  5
66
102
{ACAD_REACTORS
330
47
102
}
330
47
100
AcDbScale
 70
     0
300
3" = 1'-0"
140
3.0
141
12.0
290
     0
  0
SCALE
  5
67
102
{ACAD_REACTORS
330
47
102
}
330
47
100
AcDbScale
 70
     0
300
6" = 1'-0"
140
6.0
141
12.0
290
     0
  0
SCALE
  5
68
102
{ACAD_REACTORS
330
47
102
}
330
47
100
AcDbScale
 70
     0
300
1'-0" = 1'-0"
140
12.0
141
12.0
290
     0
  0
ENDSEC
  0
EOF
