  0
SECTION
  2
HEADER
  9
$ACADVER
  1
AC1015
  9
$ACADMAINTVER
 70
     6
  9
$DWGCODEPAGE
  3
ANSI_1252
  9
$INSBASE
 10
0.0
 20
0.0
 30
0.0
  9
$EXTMIN
 10
0.0
 20
-7.669980408
 30
0.0
  9
$EXTMAX
 10
90.0
 20
87.330019592
 30
0.0
  9
$LIMMIN
 10
0.0
 20
0.0
  9
$LIMMAX
 10
420.0
 20
297.0
  9
$ORTHOMODE
 70
     0
  9
$REGENMODE
 70
     1
  9
$FILLMODE
 70
     1
  9
$QTEXTMODE
 70
     0
  9
$MIRRTEXT
 70
     1
  9
$LTSCALE
 40
1.0
  9
$ATTMODE
 70
     1
  9
$TEXTSIZE
 40
3.5
  9
$TRACEWID
 40
1.0
  9
$TEXTSTYLE
  7
Standard
  9
$CLAYER
  8
0
  9
$CELTYPE
  6
ByLayer
  9
$CECOLOR
 62
   256
  9
$CELTSCALE
 40
1.0
  9
$DISPSILH
 70
     0
  9
$DIMSCALE
 40
1.0
  9
$DIMASZ
 40
3.302
  9
$DIMEXO
 40
1.0
  9
$DIMDLI
 40
3.75
  9
$DIMRND
 40
0.0
  9
$DIMDLE
 40
0.0
  9
$DIMEXE
 40
1.0
  9
$DIMTP
 40
0.0
  9
$DIMTM
 40
0.0
  9
$DIMTXT
 40
3.5
  9
$DIMCEN
 40
2.5
  9
$DIMTSZ
 40
0.0
  9
$DIMTOL
 70
     0
  9
$DIMLIM
 70
     0
  9
$DIMTIH
 70
     1
  9
$DIMTOH
 70
     1
  9
$DIMSE1
 70
     0
  9
$DIMSE2
 70
     0
  9
$DIMTAD
 70
     1
  9
$DIMZIN
 70
     0
  9
$DIMBLK
  1

  9
$DIMASO
 70
     1
  9
$DIMSHO
 70
     1
  9
$DIMPOST
  1

  9
$DIMAPOST
  1

  9
$DIMALT
 70
     0
  9
$DIMALTD
 70
     3
  9
$DIMALTF
 40
0.0393700787
  9
$DIMLFAC
 40
1.0
  9
$DIMTOFL
 70
     1
  9
$DIMTVP
 40
0.0
  9
$DIMTIX
 70
     0
  9
$DIMSOXD
 70
     0
  9
$DIMSAH
 70
     0
  9
$DIMBLK1
  1

  9
$DIMBLK2
  1

  9
$DIMSTYLE
  2
ISO-25
  9
$DIMCLRD
 70
     0
  9
$DIMCLRE
 70
     0
  9
$DIMCLRT
 70
     0
  9
$DIMTFAC
 40
1.0
  9
$DIMGAP
 40
1.524
  9
$DIMJUST
 70
     0
  9
$DIMSD1
 70
     0
  9
$DIMSD2
 70
     0
  9
$DIMTOLJ
 70
     0
  9
$DIMTZIN
 70
     0
  9
$DIMALTZ
 70
     0
  9
$DIMALTTZ
 70
     0
  9
$DIMUPT
 70
     0
  9
$DIMDEC
 70
     2
  9
$DIMTDEC
 70
     2
  9
$DIMALTU
 70
     2
  9
$DIMALTTD
 70
     3
  9
$DIMTXSTY
  7
Standard
  9
$DIMAUNIT
 70
     0
  9
$DIMADEC
 70
     2
  9
$DIMALTRND
 40
0.0
  9
$DIMAZIN
 70
     0
  9
$DIMDSEP
 70
    44
  9
$DIMATFIT
 70
     3
  9
$DIMFRAC
 70
     0
  9
$DIMLDRBLK
  1

  9
$DIMLUNIT
 70
     2
  9
$DIMLWD
 70
    -2
  9
$DIMLWE
 70
    -2
  9
$DIMTMOVE
 70
     0
  9
$LUNITS
 70
     2
  9
$LUPREC
 70
     2
  9
$SKETCHINC
 40
1.0
  9
$FILLETRAD
 40
10.0
  9
$AUNITS
 70
     0
  9
$AUPREC
 70
     2
  9
$MENU
  1
.
  9
$ELEVATION
 40
0.0
  9
$PELEVATION
 40
0.0
  9
$THICKNESS
 40
0.0
  9
$LIMCHECK
 70
     0
  9
$CHAMFERA
 40
0.0
  9
$CHAMFERB
 40
0.0
  9
$CHAMFERC
 40
0.0
  9
$CHAMFERD
 40
0.0
  9
$SKPOLY
 70
     0
  9
$TDCREATE
 40
2457428.69398493
  9
$TDUCREATE
 40
2457428.652318264
  9
$TDUPDATE
 40
2457428.694023391
  9
$TDUUPDATE
 40
2457428.652356725
  9
$TDINDWG
 40
0.0000000116
  9
$TDUSRTIMER
 40
0.0000000116
  9
$USRTIMER
 70
     1
  9
$ANGBASE
 50
0.0
  9
$ANGDIR
 70
     0
  9
$PDMODE
 70
     0
  9
$PDSIZE
 40
-1.0
  9
$PLINEWID
 40
0.0
  9
$SPLFRAME
 70
     0
  9
$SPLINETYPE
 70
     6
  9
$SPLINESEGS
 70
     8
  9
$HANDSEED
  5
275
  9
$SURFTAB1
 70
     6
  9
$SURFTAB2
 70
     6
  9
$SURFTYPE
 70
     6
  9
$SURFU
 70
     6
  9
$SURFV
 70
     6
  9
$UCSBASE
  2

  9
$UCSNAME
  2

  9
$UCSORG
 10
0.0
 20
0.0
 30
0.0
  9
$UCSXDIR
 10
1.0
 20
0.0
 30
0.0
  9
$UCSYDIR
 10
0.0
 20
1.0
 30
0.0
  9
$UCSORTHOREF
  2

  9
$UCSORTHOVIEW
 70
     0
  9
$UCSORGTOP
 10
0.0
 20
0.0
 30
0.0
  9
$UCSORGBOTTOM
 10
0.0
 20
0.0
 30
0.0
  9
$UCSORGLEFT
 10
0.0
 20
0.0
 30
0.0
  9
$UCSORGRIGHT
 10
0.0
 20
0.0
 30
0.0
  9
$UCSORGFRONT
 10
0.0
 20
0.0
 30
0.0
  9
$UCSORGBACK
 10
0.0
 20
0.0
 30
0.0
  9
$PUCSBASE
  2

  9
$PUCSNAME
  2

  9
$PUCSORG
 10
0.0
 20
0.0
 30
0.0
  9
$PUCSXDIR
 10
1.0
 20
0.0
 30
0.0
  9
$PUCSYDIR
 10
0.0
 20
1.0
 30
0.0
  9
$PUCSORTHOREF
  2

  9
$PUCSORTHOVIEW
 70
     0
  9
$PUCSORGTOP
 10
0.0
 20
0.0
 30
0.0
  9
$PUCSORGBOTTOM
 10
0.0
 20
0.0
 30
0.0
  9
$PUCSORGLEFT
 10
0.0
 20
0.0
 30
0.0
  9
$PUCSORGRIGHT
 10
0.0
 20
0.0
 30
0.0
  9
$PUCSORGFRONT
 10
0.0
 20
0.0
 30
0.0
  9
$PUCSORGBACK
 10
0.0
 20
0.0
 30
0.0
  9
$USERI1
 70
     0
  9
$USERI2
 70
     0
  9
$USERI3
 70
     0
  9
$USERI4
 70
     0
  9
$USERI5
 70
     0
  9
$USERR1
 40
0.0
  9
$USERR2
 40
0.0
  9
$USERR3
 40
0.0
  9
$USERR4
 40
0.0
  9
$USERR5
 40
0.0
  9
$WORLDVIEW
 70
     1
  9
$SHADEDGE
 70
     3
  9
$SHADEDIF
 70
    70
  9
$TILEMODE
 70
     1
  9
$MAXACTVP
 70
    64
  9
$PINSBASE
 10
0.0
 20
0.0
 30
0.0
  9
$PLIMCHECK
 70
     0
  9
$PEXTMIN
 10
1.0000000000E+20
 20
1.0000000000E+20
 30
1.0000000000E+20
  9
$PEXTMAX
 10
-1.0000000000E+20
 20
-1.0000000000E+20
 30
-1.0000000000E+20
  9
$PLIMMIN
 10
0.0
 20
0.0
  9
$PLIMMAX
 10
420.0
 20
297.0
  9
$UNITMODE
 70
     0
  9
$VISRETAIN
 70
     1
  9
$PLINEGEN
 70
     0
  9
$PSLTSCALE
 70
     1
  9
$TREEDEPTH
 70
  3020
  9
$CMLSTYLE
  2
Standard
  9
$CMLJUST
 70
     0
  9
$CMLSCALE
 40
20.0
  9
$PROXYGRAPHICS
 70
     1
  9
$MEASUREMENT
 70
     1
  9
$CELWEIGHT
370
    -1
  9
$ENDCAPS
280
     0
  9
$JOINSTYLE
280
     0
  9
$LWDISPLAY
290
     1
  9
$INSUNITS
 70
     4
  9
$HYPERLINKBASE
  1

  9
$STYLESHEET
  1

  9
$XEDIT
290
     1
  9
$CEPSNTYPE
380
     0
  9
$PSTYLEMODE
290
     1
  9
$FINGERPRINTGUID
  2
{FF5E1AF2-E4B5-4466-A0FE-152E6CA16FB5}
  9
$VERSIONGUID
  2
{FAEB1C32-E019-11D5-929B-00C0DF256EC4}
  9
$EXTNAMES
290
     1
  9
$PSVPSCALE
 40
0.0
  9
$OLESTARTUP
290
     0
  0
ENDSEC
  0
SECTION
  2
CLASSES
  0
CLASS
  1
ACDBDICTIONARYWDFLT
  2
AcDbDictionaryWithDefault
  3
ObjectDBX Classes
 90
        0
280
     0
281
     0
  0
CLASS
  1
VISUALSTYLE
  2
AcDbVisualStyle
  3
ObjectDBX Classes
 90
     4095
280
     0
281
     0
  0
CLASS
  1
MATERIAL
  2
AcDbMaterial
  3
ObjectDBX Classes
 90
     1153
280
     0
281
     0
  0
CLASS
  1
SCALE
  2
AcDbScale
  3
ObjectDBX Classes
 90
     1153
280
     0
281
     0
  0
CLASS
  1
TABLESTYLE
  2
AcDbTableStyle
  3
ObjectDBX Classes
 90
     4095
280
     0
281
     0
  0
CLASS
  1
MLEADERSTYLE
  2
AcDbMLeaderStyle
  3
ACDB_MLEADERSTYLE_CLASS
 90
     4095
280
     0
281
     0
  0
CLASS
  1
SUN
  2
AcDbSun
  3
SCENEOE
 90
     1153
280
     0
281
     0
  0
CLASS
  1
ACDBPLACEHOLDER
  2
AcDbPlaceHolder
  3
ObjectDBX Classes
 90
        0
280
     0
281
     0
  0
CLASS
  1
LAYOUT
  2
AcDbLayout
  3
ObjectDBX Classes
 90
        0
280
     0
281
     0
  0
ENDSEC
  0
SECTION
  2
TABLES
  0
TABLE
  2
VPORT
  5
8
330
0
100
AcDbSymbolTable
 70
     1
  0
VPORT
  5
29
330
8
100
AcDbSymbolTableRecord
100
AcDbViewportTableRecord
  2
*Active
 70
     0
 10
0.0
 20
0.0
 11
1.0
 21
1.0
 12
45.0
 22
39.830019592
 13
0.0
 23
0.0
 14
10.0
 24
10.0
 15
10.0
 25
10.0
 16
0.0
 26
0.0
 36
1.0
 17
0.0
 27
0.0
 37
0.0
 40
96.9
 41
0.9473684211
 42
50.0
 43
0.0
 44
0.0
 50
0.0
 51
0.0
 71
     0
 72
   100
 73
     1
 74
     3
 75
     0
 76
     0
 77
     0
 78
     0
281
     0
 65
     1
110
0.0
120
0.0
130
0.0
111
1.0
121
0.0
131
0.0
112
0.0
122
1.0
132
0.0
 79
     0
146
0.0
  0
ENDTAB
  0
TABLE
  2
LTYPE
  5
5
330
0
100
AcDbSymbolTable
 70
     6
  0
LTYPE
  5
14
330
5
100
AcDbSymbolTableRecord
100
AcDbLinetypeTableRecord
  2
ByBlock
 70
     0
  3

 72
    65
 73
     0
 40
0.0
  0
LTYPE
  5
15
330
5
100
AcDbSymbolTableRecord
100
AcDbLinetypeTableRecord
  2
ByLayer
 70
     0
  3

 72
    65
 73
     0
 40
0.0
  0
LTYPE
  5
16
330
5
100
AcDbSymbolTableRecord
100
AcDbLinetypeTableRecord
  2
Continuous
 70
     0
  3
Solid line
 72
    65
 73
     0
 40
0.0
  0
LTYPE
  5
6E
330
5
100
AcDbSymbolTableRecord
100
AcDbLinetypeTableRecord
  2
HIDDEN
 70
     0
  3
Hidden __ __ __ __ __ __ __ __ __ __ __ __ __ __
 72
    65
 73
     2
 40
1.905
 49
1.27
 74
     0
 49
-0.635
 74
     0
  0
LTYPE
  5
6F
330
5
100
AcDbSymbolTableRecord
100
AcDbLinetypeTableRecord
  2
PHANTOM
 70
     0
  3
Phantom ______  __  __  ______  __  __  ______
 72
    65
 73
     6
 40
12.7
 49
6.35
 74
     0
 49
-1.27
 74
     0
 49
1.27
 74
     0
 49
-1.27
 74
     0
 49
1.27
 74
     0
 49
-1.27
 74
     0
  0
LTYPE
  5
70
330
5
100
AcDbSymbolTableRecord
100
AcDbLinetypeTableRecord
  2
CENTER
 70
     0
  3
Center ____ _ ____ _ ____ _ ____ _ ____ _ ____
 72
    65
 73
     4
 40
10.16
 49
6.35
 74
     0
 49
-1.27
 74
     0
 49
1.27
 74
     0
 49
-1.27
 74
     0
  0
LTYPE
  5
71
330
5
100
AcDbSymbolTableRecord
100
AcDbLinetypeTableRecord
  2
CENTERX2
 70
     0
  3
Center (2x) ________  __  ________  __  _____
 72
    65
 73
     4
 40
20.32
 49
12.7
 74
     0
 49
-2.54
 74
     0
 49
2.54
 74
     0
 49
-2.54
 74
     0
  0
LTYPE
  5
72
330
5
100
AcDbSymbolTableRecord
100
AcDbLinetypeTableRecord
  2
DOT2
 70
     0
  3
Dot (.5x) ........................................
 72
    65
 73
     2
 40
0.635
 49
0.0
 74
     0
 49
-0.635
 74
     0
  0
ENDTAB
  0
TABLE
  2
LAYER
  5
2
330
0
100
AcDbSymbolTable
 70
     1
  0
LAYER
  5
10
330
2
100
AcDbSymbolTableRecord
100
AcDbLayerTableRecord
  2
0
 70
     0
 62
     7
  6
Continuous
370
    -3
390
F
  0
ENDTAB
  0
TABLE
  2
STYLE
  5
3
330
0
100
AcDbSymbolTable
 70
     1
  0
STYLE
  5
11
330
3
100
AcDbSymbolTableRecord
100
AcDbTextStyleTableRecord
  2
Standard
 70
     0
 40
0.0
 41
1.0
 50
0.0
 71
     0
 42
3.5
  3
txt
  4

  0
ENDTAB
  0
TABLE
  2
VIEW
  5
6
330
0
100
AcDbSymbolTable
 70
     0
  0
ENDTAB
  0
TABLE
  2
UCS
  5
7
330
0
100
AcDbSymbolTable
 70
     0
  0
ENDTAB
  0
TABLE
  2
APPID
  5
9
330
0
100
AcDbSymbolTable
 70
     1
  0
APPID
  5
12
330
9
100
AcDbSymbolTableRecord
100
AcDbRegAppTableRecord
  2
ACAD
 70
     0
  0
ENDTAB
  0
TABLE
  2
DIMSTYLE
  5
A
330
0
100
AcDbSymbolTable
 70
     1
100
AcDbDimStyleTable
  0
DIMSTYLE
105
27
330
A
100
AcDbSymbolTableRecord
100
AcDbDimStyleTableRecord
  2
ISO-25
 70
     0
 41
2.5
 42
0.625
 43
3.75
 44
1.25
 73
     0
 74
     0
 77
     1
 78
     8
140
2.5
141
2.5
143
0.0393700787
147
0.625
171
     3
172
     1
178
     0
271
     2
272
     2
274
     3
278
    44
283
     0
284
     8
340
11
  0
ENDTAB
  0
TABLE
  2
BLOCK_RECORD
  5
1
330
0
100
AcDbSymbolTable
 70
     1
  0
BLOCK_RECORD
  5
1F
330
1
100
AcDbSymbolTableRecord
100
AcDbBlockTableRecord
  2
*Model_Space
340
22
  0
BLOCK_RECORD
  5
1B
330
1
100
AcDbSymbolTableRecord
100
AcDbBlockTableRecord
  2
*Paper_Space
340
1E
  0
BLOCK_RECORD
  5
23
330
1
100
AcDbSymbolTableRecord
100
AcDbBlockTableRecord
  2
*Paper_Space0
340
26
  0
ENDTAB
  0
ENDSEC
  0
SECTION
  2
BLOCKS
  0
BLOCK
  5
20
330
1F
100
AcDbEntity
  8
0
100
AcDbBlockBegin
  2
*Model_Space
 70
     0
 10
0.0
 20
0.0
 30
0.0
  3
*Model_Space
  1

  0
ENDBLK
  5
21
330
1F
100
AcDbEntity
  8
0
100
AcDbBlockEnd
  0
BLOCK
  5
1C
330
1B
100
AcDbEntity
 67
     1
  8
0
100
AcDbBlockBegin
  2
*Paper_Space
 70
     0
 10
0.0
 20
0.0
 30
0.0
  3
*Paper_Space
  1

  0
ENDBLK
  5
1D
330
1B
100
AcDbEntity
 67
     1
  8
0
100
AcDbBlockEnd
  0
BLOCK
  5
24
330
23
100
AcDbEntity
  8
0
100
AcDbBlockBegin
  2
*Paper_Space0
 70
     0
 10
0.0
 20
0.0
 30
0.0
  3
*Paper_Space0
  1

  0
ENDBLK
  5
25
330
23
100
AcDbEntity
  8
0
100
AcDbBlockEnd
  0
ENDSEC
  0
SECTION
  2
ENTITIES
  0
SPLINE
  5
73
330
1F
100
AcDbEntity
  8
0
  6
Continuous
 62
     7
370
    15
100
AcDbSpline
210
0.0
220
0.0
230
1.0
 70
     8
 71
     3
 72
    23
 73
    19
 74
     0
 42
0.000000001
 43
0.00000001
 40
0.0
 40
0.0
 40
0.0
 40
0.0
 40
0.0645039992970557
 40
0.1268993215900404
 40
0.1877465401000117
 40
0.2481497329298267
 40
0.3085860647627418
 40
0.3695830050869938
 40
0.4318269653810497
 40
0.4961797225241578
 40
0.5606678546118796
 40
0.623504455117664
 40
0.6852604113304277
 40
0.746536821751167
 40
0.808327351736708
 40
0.8704861878877674
 40
0.9343168833592457
 40
1.0
 40
1.0
 40
1.0
 40
1.0
 10
44.25192307692307
 20
8.304358534277245
 30
0.0
 10
44.25539252267897
 20
8.166757061949054
 30
0.0
 10
44.26221799578935
 20
7.89605239745493
 30
0.0
 10
44.32197395446033
 20
7.499354805882347
 30
0.0
 10
44.41401804207838
 20
7.118114540903345
 30
0.0
 10
44.54970130359543
 20
6.754417630611701
 30
0.0
 10
44.71938404777086
 20
6.405137832334345
 30
0.0
 10
44.92900722773266
 20
6.073373633149255
 30
0.0
 10
45.17736231060263
 20
5.759035367916651
 30
0.0
 10
45.45947519371186
 20
5.464317528791882
 30
0.0
 10
45.76787484524356
 20
5.195315732968636
 30
0.0
 10
46.09535177455031
 20
4.959195313727363
 30
0.0
 10
46.43839766349787
 20
4.759414562422001
 30
0.0
 10
46.79790709373685
 20
4.596659329721524
 30
0.0
 10
47.17196075352381
 20
4.46769154328281
 30
0.0
 10
47.56296894598999
 20
4.379303268571437
 30
0.0
 10
47.96832698242827
 20
4.321131493605961
 30
0.0
 10
48.24463540825683
 20
4.315545064992023
 30
0.0
 10
48.38476562499999
 20
4.312711899661855
 30
0.0
  0
SPLINE
  5
74
330
1F
100
AcDbEntity
  8
0
  6
Continuous
 62
     7
370
    15
100
AcDbSpline
210
0.0
220
0.0
230
1.0
 70
     8
 71
     3
 72
    31
 73
    27
 74
     0
 42
0.000000001
 43
0.00000001
 40
0.0
 40
0.0
 40
0.0
 40
0.0
 40
0.0429150821010496
 40
0.0851299705846988
 40
0.1264733185549984
 40
0.1674530378853882
 40
0.2079763328949878
 40
0.2482493780637601
 40
0.2887499869834432
 40
0.3296698569108731
 40
0.3705372867119749
 40
0.4111285639171176
 40
0.4518189126736377
 40
0.4924058769342642
 40
0.5334858617420226
 40
0.5752630624415516
 40
0.6174406128021906
 40
0.6606716882923646
 40
0.7039402042434894
 40
0.7468675221598703
 40
0.7890793003947227
 40
0.8311040424574042
 40
0.8732379898547745
 40
0.9151657696593334
 40
0.9573806581429831
 40
1.0
 40
1.0
 40
1.0
 40
1.0
 10
52.55576923076922
 20
8.348243750623395
 30
0.0
 10
52.55467763045006
 20
8.440542372953969
 30
0.0
 10
52.55251224013713
 20
8.62363369235327
 30
0.0
 10
52.52382164848085
 20
8.894309205179466
 30
0.0
 10
52.48272565397436
 20
9.158976873547514
 30
0.0
 10
52.42349999852394
 20
9.416597651701029
 30
0.0
 10
52.3471635087149
 20
9.667237209204128
 30
0.0
 10
52.25303655958525
 20
9.910660144019493
 30
0.0
 10
52.14204228030287
 20
10.14777330349601
 30
0.0
 10
52.01465704109278
 20
10.37799064033118
 30
0.0
 10
51.87146683577486
 20
10.59890189156856
 30
0.0
 10
51.7150003593359
 20
10.81009131422703
 30
0.0
 10
51.54255609046608
 20
11.00759284593655
 30
0.0
 10
51.35906097991671
 20
11.19628226329751
 30
0.0
 10
51.15993164198535
 20
11.3721352343016
 30
0.0
 10
50.94607009881288
 20
11.53521009409105
 30
0.0
 10
50.7200726614763
 20
11.68944236197735
 30
0.0
 10
50.48078497076224
 20
11.82857692670084
 30
0.0
 10
50.23383178239197
 20
11.9570670885846
 30
0.0
 10
49.98042879676658
 20
12.06715160428526
 30
0.0
 10
49.7234467470966
 20
12.16069287204659
 30
0.0
 10
49.463539127107
 20
12.24047689836281
 30
0.0
 10
49.19851830749428
 20
12.298737323255
 30
0.0
 10
48.93017503041803
 20
12.34017937323116
 30
0.0
 10
48.65888055529446
 20
12.36902212341257
 30
0.0
 10
48.4764272216182
 20
12.37122206785721
 30
0.0
 10
48.38476562499999
 20
12.37232728427724
 30
0.0
  0
SPLINE
  5
75
330
1F
100
AcDbEntity
  8
0
  6
Continuous
 62
     7
370
    15
100
AcDbSpline
210
0.0
220
0.0
230
1.0
 70
     8
 71
     3
 72
    31
 73
    27
 74
     0
 42
0.000000001
 43
0.00000001
 40
0.0
 40
0.0
 40
0.0
 40
0.0
 40
0.0420233285259241
 40
0.0836449111687116
 40
0.1249837954173948
 40
0.166247461172895
 40
0.2077015560969887
 40
0.2496310707996495
 40
0.2917417703321316
 40
0.3347428753531988
 40
0.3774601685508656
 40
0.4195563188419399
 40
0.4610441763330342
 40
0.5020962839443966
 40
0.5428907140756003
 40
0.5838008186265053
 40
0.6248635833101935
 40
0.6662246890691708
 40
0.7073991864779366
 40
0.7485566775366932
 40
0.7896545909521805
 40
0.8307397264898326
 40
0.8720701422586048
 40
0.913993395242133
 40
0.9564981300675883
 40
0.9999999999999999
 40
0.9999999999999999
 40
0.9999999999999999
 40
0.9999999999999999
 10
48.38476562499999
 20
12.37232728427724
 30
0.0
 10
48.29437437227743
 20
12.37122540437377
 30
0.0
 10
48.11445601336535
 20
12.36903217861377
 30
0.0
 10
47.84698166829384
 20
12.34014226694957
 30
0.0
 10
47.58302504836858
 20
12.29896735482037
 30
0.0
 10
47.32253164131579
 20
12.24023478759689
 30
0.0
 10
47.06659138236621
 20
12.16021375826296
 30
0.0
 10
46.81281860031655
 20
12.06811814383321
 30
0.0
 10
46.56352743228807
 20
11.9559378901414
 30
0.0
 10
46.31954086197896
 20
11.82919360182113
 30
0.0
 10
46.08300769318881
 20
11.68890689591951
 30
0.0
 10
45.85981598422977
 20
11.53386230134539
 30
0.0
 10
45.64938793172843
 20
11.36769580728668
 30
0.0
 10
45.45223875605213
 20
11.19001962128126
 30
0.0
 10
45.26894735177719
 20
10.99992891926387
 30
0.0
 10
45.09590612853793
 20
10.80030550382919
 30
0.0
 10
44.94005105277252
 20
10.58544357177468
 30
0.0
 10
44.79721530440787
 20
10.36116953594408
 30
0.0
 10
44.66939568193877
 20
10.12777551851976
 30
0.0
 10
44.55573425230111
 20
9.88771867906206
 30
0.0
 10
44.46275934262328
 20
9.639040831472334
 30
0.0
 10
44.38693387573566
 20
9.384439874068395
 30
0.0
 10
44.32406939050268
 20
9.124319037412791
 30
0.0
 10
44.28424421136024
 20
8.856705048786054
 30
0.0
 10
44.25503686171785
 20
8.58294263676258
 30
0.0
 10
44.2529689965933
 20
8.39793487683349
 30
0.0
 10
44.25192307692307
 20
8.304358534277245
 30
0.0
  0
SPLINE
  5
76
330
1F
100
AcDbEntity
  8
0
  6
Continuous
 62
     7
370
    15
100
AcDbSpline
210
0.0
220
0.0
230
1.0
 70
     8
 71
     3
 72
    31
 73
    27
 74
     0
 42
0.000000001
 43
0.00000001
 40
0.0
 40
0.0
 40
0.0
 40
0.0
 40
0.0436332182657572
 40
0.0865377766972007
 40
0.129177336089892
 40
0.1714363236638282
 40
0.213415894570908
 40
0.2552659545538499
 40
0.2973694811566238
 40
0.3399407478985554
 40
0.3823474587518117
 40
0.4239529468152706
 40
0.4648711632610173
 40
0.5055722941182728
 40
0.5460025771083162
 40
0.5865679748069135
 40
0.6270647991481683
 40
0.6682706840331735
 40
0.7095492248503332
 40
0.750428153513189
 40
0.7910961944485932
 40
0.8320271447794343
 40
0.873135955335967
 40
0.914610764365449
 40
0.9569559864804373
 40
1.0
 40
1.0
 40
1.0
 40
1.0
 10
48.38476562499999
 20
4.312711899661855
 30
0.0
 10
48.47895291153034
 20
4.314005950829807
 30
0.0
 10
48.66575458909249
 20
4.316572442953421
 30
0.0
 10
48.94360026063831
 20
4.342422413487985
 30
0.0
 10
49.21644037970609
 20
4.383874858118836
 30
0.0
 10
49.48389225566603
 20
4.443557570882939
 30
0.0
 10
49.7456523495106
 20
4.518253182662205
 30
0.0
 10
50.00281320655916
 20
4.606992785179418
 30
0.0
 10
50.25263569664303
 20
4.717703775202843
 30
0.0
 10
50.49827139808766
 20
4.840026414857181
 30
0.0
 10
50.73339259869005
 20
4.979472843573002
 30
0.0
 10
50.9578438687101
 20
5.129255236574405
 30
0.0
 10
51.16596778531517
 20
5.295176982934698
 30
0.0
 10
51.36296947253926
 20
5.470213315643756
 30
0.0
 10
51.54701339758339
 20
5.657893501597997
 30
0.0
 10
51.71685499036756
 20
5.857973533909898
 30
0.0
 10
51.87192235000476
 20
6.071716322522993
 30
0.0
 10
52.014703859705
 20
6.295650176716183
 30
0.0
 10
52.14207559620471
 20
6.529682835809493
 30
0.0
 10
52.25305300147404
 20
6.77061003079759
 30
0.0
 10
52.34720385956168
 20
7.017838507002653
 30
0.0
 10
52.42320929056132
 20
7.271724855105521
 30
0.0
 10
52.48276901128479
 20
7.531786879260441
 30
0.0
 10
52.52380793617718
 20
7.798372791970966
 30
0.0
 10
52.55251475849509
 20
8.070949288319044
 30
0.0
 10
52.55467850426741
 20
8.255309353472033
 30
0.0
 10
52.55576923076922
 20
8.348243750623395
 30
0.0
  0
SPLINE
  5
7A
330
1F
100
AcDbEntity
  8
0
  6
Continuous
 62
     7
370
    15
100
AcDbSpline
210
0.0
220
0.0
230
1.0
 70
     8
 71
     3
 72
    15
 73
    11
 74
     0
 42
0.000000001
 43
0.00000001
 40
0.0
 40
0.0
 40
0.0
 40
0.0
 40
0.0843186169585838
 40
0.1792845142139042
 40
0.2865825276465611
 40
0.4051114834342793
 40
0.5355928734189747
 40
0.6781902099934148
 40
0.8329758397604895
 40
1.0
 40
1.0
 40
1.0
 40
1.0
 10
51.14571814903846
 20
45.61096911120031
 30
0.0
 10
51.06584110069841
 20
45.63305738990725
 30
0.0
 10
50.89600058000393
 20
45.68002313081523
 30
0.0
 10
50.61885175290593
 20
45.73125503746339
 30
0.0
 10
50.30693481053023
 20
45.77644299550212
 30
0.0
 10
49.95886490964221
 20
45.81470094543997
 30
0.0
 10
49.57503881738902
 20
45.84215286994923
 30
0.0
 10
49.15516133794299
 20
45.86275766184497
 30
0.0
 10
48.69905098551252
 20
45.87665499738632
 30
0.0
 10
48.38286851838381
 20
45.8776039791321
 30
0.0
 10
48.21876502403845
 20
45.87809651504647
 30
0.0
  0
SPLINE
  5
7B
330
1F
100
AcDbEntity
  8
0
  6
Continuous
 62
     7
370
    15
100
AcDbSpline
210
0.0
220
0.0
230
1.0
 70
     8
 71
     3
 72
    15
 73
    11
 74
     0
 42
0.000000001
 43
0.00000001
 40
0.0
 40
0.0
 40
0.0
 40
0.0
 40
0.1719006646132686
 40
0.3306279320958808
 40
0.4755488358809197
 40
0.6067461903123627
 40
0.7250238034674911
 40
0.8297423869584563
 40
0.9213228203439766
 40
1.0
 40
1.0
 40
1.0
 40
1.0
 10
48.64235276442307
 20
38.30694266889263
 30
0.0
 10
48.79945640193697
 20
38.30761784545349
 30
0.0
 10
49.10162423190329
 20
38.30891645724545
 30
0.0
 10
49.53612206738268
 20
38.32031163148672
 30
0.0
 10
49.93312242492119
 20
38.33893147569214
 30
0.0
 10
50.29268167548407
 20
38.36498936601427
 30
0.0
 10
50.61459680589324
 20
38.39946609734824
 30
0.0
 10
50.8995405823595
 20
38.43790601125396
 30
0.0
 10
51.14657896394358
 20
38.48579621652579
 30
0.0
 10
51.29606550304996
 20
38.52920561321842
 30
0.0
 10
51.36514423076922
 20
38.54926538523878
 30
0.0
  0
SPLINE
  5
7C
330
1F
100
AcDbEntity
  8
0
  6
Continuous
 62
     7
370
    15
100
AcDbSpline
210
0.0
220
0.0
230
1.0
 70
     8
 71
     3
 72
    23
 73
    19
 74
     0
 42
0.000000001
 43
0.00000001
 40
0.0
 40
0.0
 40
0.0
 40
0.0
 40
0.0701511759972778
 40
0.1378126061901922
 40
0.2032262471813946
 40
0.2671740552944744
 40
0.3300240034081784
 40
0.3917942717866856
 40
0.4530843989971417
 40
0.5143339076458783
 40
0.5749999928182695
 40
0.6348654826222137
 40
0.6941163151896413
 40
0.7534416217804388
 40
0.8131258003036133
 40
0.8740796856370754
 40
0.9360070132744083
 40
1.0
 40
1.0
 40
1.0
 40
1.0
 10
53.65480769230768
 20
41.9742203131234
 30
0.0
 10
53.65341081740993
 20
42.08561785593313
 30
0.0
 10
53.65066664430889
 20
42.30445931481886
 30
0.0
 10
53.61617441380208
 20
42.6255625640968
 30
0.0
 10
53.56576932347876
 20
42.93439204874042
 30
0.0
 10
53.49287943504478
 20
43.23096842334732
 30
0.0
 10
53.3999946861869
 20
43.51587029605291
 30
0.0
 10
53.28407641112187
 20
43.78752196308692
 30
0.0
 10
53.15163368297037
 20
44.04879235623373
 30
0.0
 10
52.994053887702
 20
44.29365116583791
 30
0.0
 10
52.82147288005619
 20
44.52522598425428
 30
0.0
 10
52.62994450843944
 20
44.73737471880788
 30
0.0
 10
52.42251167501506
 20
44.9305806359918
 30
0.0
 10
52.20143683471374
 20
45.10785262258995
 30
0.0
 10
51.96048944318962
 20
45.26205876911559
 30
0.0
 10
51.70534547039647
 20
45.39999895120348
 30
0.0
 10
51.43226189381754
 20
45.51706362691829
 30
0.0
 10
51.24227162870969
 20
45.57932681771862
 30
0.0
 10
51.14571814903846
 20
45.61096911120031
 30
0.0
  0
SPLINE
  5
7D
330
1F
100
AcDbEntity
  8
0
  6
Continuous
 62
     7
370
    15
100
AcDbSpline
210
0.0
220
0.0
230
1.0
 70
     8
 71
     3
 72
    23
 73
    19
 74
     0
 42
0.000000001
 43
0.00000001
 40
0.0
 40
0.0
 40
0.0
 40
0.0
 40
0.0624145002632789
 40
0.1233382314733145
 40
0.1831245376921939
 40
0.2417829946389439
 40
0.3005788825509784
 40
0.3596800748966257
 40
0.4188816408500476
 40
0.4795306644577841
 40
0.5408505357600394
 40
0.6023033958983799
 40
0.6644632119464741
 40
0.7278057226670119
 40
0.7928948147812352
 40
0.859672328302832
 40
0.9284644007334892
 40
1.0
 40
1.0
 40
1.0
 40
1.0
 10
51.36514423076922
 20
38.54926538523878
 30
0.0
 10
51.45208941613613
 20
38.57988569731366
 30
0.0
 10
51.62390310290822
 20
38.64039495594017
 30
0.0
 10
51.87122948478564
 20
38.75076973388624
 30
0.0
 10
52.10188961889001
 20
38.88151279513323
 30
0.0
 10
52.31990333056157
 20
39.02684326933009
 30
0.0
 10
52.52217801427042
 20
39.1918870319619
 30
0.0
 10
52.71111078793535
 20
39.37305522292124
 30
0.0
 10
52.88632126163686
 20
39.57126986079523
 30
0.0
 10
53.04599919981207
 20
39.78628492904843
 30
0.0
 10
53.18889679864547
 20
40.01676215861272
 30
0.0
 10
53.31264350153678
 20
40.26043569882034
 30
0.0
 10
53.42109659822484
 20
40.5146356609188
 30
0.0
 10
53.50621905384456
 20
40.78326558554058
 30
0.0
 10
53.57293646505918
 20
41.06392395165835
 30
0.0
 10
53.62019322300691
 20
41.35663050346319
 30
0.0
 10
53.64962472314399
 20
41.66133057765825
 30
0.0
 10
53.6530576636056
 20
41.86857314441392
 30
0.0
 10
53.65480769230768
 20
41.9742203131234
 30
0.0
  0
SPLINE
  5
81
330
1F
100
AcDbEntity
  8
0
  6
Continuous
 62
     7
370
    15
100
AcDbSpline
210
0.0
220
0.0
230
1.0
 70
     8
 71
     3
 72
    23
 73
    19
 74
     0
 42
0.000000001
 43
0.00000001
 40
0.0
 40
0.0
 40
0.0
 40
0.0
 40
0.0688142958243091
 40
0.1363648245522148
 40
0.2040193535112472
 40
0.2730637386246122
 40
0.3429133195614897
 40
0.4109654441389579
 40
0.4791687665134469
 40
0.5493080065097825
 40
0.5876515764176498
 40
0.6306466687627905
 40
0.6788787856966487
 40
0.7319342992295832
 40
0.7911114229480471
 40
0.8552831895130772
 40
0.9250859386773846
 40
1.0
 40
1.0
 40
1.0
 40
1.0
 10
8.349999999999996
 20
44.30967704389263
 30
0.0
 10
8.346728513323457
 20
44.38627593382841
 30
0.0
 10
8.3402456204692
 20
44.53806698337511
 30
0.0
 10
8.287317186121488
 20
44.76028771065783
 30
0.0
 10
8.197811084001422
 20
44.97001991065658
 30
0.0
 10
8.077191279363287
 20
45.16641040195542
 30
0.0
 10
7.930236436215286
 20
45.34467958310201
 30
0.0
 10
7.757921531667766
 20
45.49720790677998
 30
0.0
 10
7.564958107723639
 20
45.62307252136823
 30
0.0
 10
7.384605775066021
 20
45.70350265690409
 30
0.0
 10
7.223404096783146
 20
45.75281454323765
 30
0.0
 10
7.08344195052895
 20
45.787515924752
 30
0.0
 10
6.925295714735484
 20
45.81539551519705
 30
0.0
 10
6.748197502370129
 20
45.83773316657889
 30
0.0
 10
6.552903350019873
 20
45.8569326934274
 30
0.0
 10
6.338425792406545
 20
45.86986431963269
 30
0.0
 10
6.106187840409762
 20
45.87752204980693
 30
0.0
 10
5.945223691953085
 20
45.87790057026044
 30
0.0
 10
5.861899038461536
 20
45.87809651504647
 30
0.0
  0
SPLINE
  5
82
330
1F
100
AcDbEntity
  8
0
  6
Continuous
 62
     7
370
    15
100
AcDbSpline
210
0.0
220
0.0
230
1.0
 70
     8
 71
     3
 72
    23
 73
    19
 74
     0
 42
0.000000001
 43
0.00000001
 40
0.0
 40
0.0
 40
0.0
 40
0.0
 40
0.0716681496796052
 40
0.1389132862742047
 40
0.2011845700265592
 40
0.2591244282905452
 40
0.3122550414262352
 40
0.3606815096231102
 40
0.4050861433286446
 40
0.4451016585907116
 40
0.5187777804882598
 40
0.5894615790331975
 40
0.6584622419857169
 40
0.7272832183683677
 40
0.7963224869047187
 40
0.8631748932078811
 40
0.9309493809878562
 40
0.9999999999999999
 40
0.9999999999999999
 40
0.9999999999999999
 40
0.9999999999999999
 10
5.819921874999995
 20
42.68974014485417
 30
0.0
 10
5.901347123780175
 20
42.68970412224535
 30
0.0
 10
6.059172447083712
 20
42.68963430016967
 30
0.0
 10
6.287502113463267
 20
42.70050307694677
 30
0.0
 10
6.500100417423965
 20
42.7128673930223
 30
0.0
 10
6.696154178665981
 20
42.73177954051872
 30
0.0
 10
6.875750980088788
 20
42.75615285000097
 30
0.0
 10
7.038801054641844
 20
42.78664097139323
 30
0.0
 10
7.185570560160837
 20
42.82216122759654
 30
0.0
 10
7.356744439725469
 20
42.87713850926512
 30
0.0
 10
7.547888142918242
 20
42.96424060182986
 30
0.0
 10
7.755618758726532
 20
43.09096528042
 30
0.0
 10
7.93251797789047
 20
43.2503569547258
 30
0.0
 10
8.081973017448957
 20
43.43262043150516
 30
0.0
 10
8.202068113106801
 20
43.63301622298484
 30
0.0
 10
8.286737346688646
 20
43.84914219920888
 30
0.0
 10
8.340464993212088
 20
44.07554219092958
 30
0.0
 10
8.346801963328023
 20
44.23114832727848
 30
0.0
 10
8.349999999999996
 20
44.30967704389263
 30
0.0
  0
SPLINE
  5
86
330
1F
100
AcDbEntity
  8
0
  6
Continuous
 62
     7
370
    15
100
AcDbSpline
210
0.0
220
0.0
230
1.0
 70
     8
 71
     3
 72
    15
 73
    11
 74
     0
 42
0.000000001
 43
0.00000001
 40
0.0
 40
0.0
 40
0.0
 40
0.0
 40
0.079306485522996
 40
0.171952818927932
 40
0.2770565073915887
 40
0.3947305758644756
 40
0.5261773212767582
 40
0.6713447665976143
 40
0.8292852571892511
 40
1.0
 40
1.0
 40
1.0
 40
1.0
 10
36.58727463942306
 20
24.86071370254647
 30
0.0
 10
36.54093117142506
 20
24.87011646673944
 30
0.0
 10
36.44044897367542
 20
24.89050359899013
 30
0.0
 10
36.27659834407984
 20
24.91202384892841
 30
0.0
 10
36.08953858656722
 20
24.93119647620623
 30
0.0
 10
35.87883775640202
 20
24.94537826956251
 30
0.0
 10
35.64422927451404
 20
24.96003736307539
 30
0.0
 10
35.38521208866246
 20
24.96573826912954
 30
0.0
 10
35.10284396805424
 20
24.97253982695522
 30
0.0
 10
34.9069218688807
 20
24.97303277085611
 30
0.0
 10
34.8051532451923
 20
24.97328882273878
 30
0.0
  0
SPLINE
  5
87
330
1F
100
AcDbEntity
  8
0
  6
Continuous
 62
     7
370
    15
100
AcDbSpline
210
0.0
220
0.0
230
1.0
 70
     8
 71
     3
 72
    23
 73
    19
 74
     0
 42
0.000000001
 43
0.00000001
 40
0.0
 40
0.0
 40
0.0
 40
0.0
 40
0.0725024889330351
 40
0.1397389892678948
 40
0.2017951348259229
 40
0.2598219344148635
 40
0.3122059893845972
 40
0.3607734341243393
 40
0.4045403426007502
 40
0.443698098552763
 40
0.5168407942439708
 40
0.587874335944281
 40
0.6579654175616316
 40
0.7289693886473121
 40
0.7993077199548843
 40
0.8666357778344719
 40
0.9331163290572746
 40
1.0
 40
1.0
 40
1.0
 40
1.0
 10
35.45579927884614
 20
21.43194266889262
 30
0.0
 10
35.54293649865227
 20
21.43298701002235
 30
0.0
 10
35.71088200235175
 20
21.43499983987229
 30
0.0
 10
35.95336463575221
 20
21.44157087764136
 30
0.0
 10
36.17810865395386
 20
21.45651771365098
 30
0.0
 10
36.38408850904608
 20
21.48004677595015
 30
0.0
 10
36.57352838370532
 20
21.50556955548292
 30
0.0
 10
36.7441557040911
 20
21.53989025570545
 30
0.0
 10
36.89735360915405
 20
21.57921206970687
 30
0.0
 10
37.07499297521622
 20
21.6399929241465
 30
0.0
 10
37.27502752275225
 20
21.73441689142852
 30
0.0
 10
37.49059421048736
 20
21.87678632189523
 30
0.0
 10
37.68225413272216
 20
22.04639475233417
 30
0.0
 10
37.84500987384875
 20
22.24269388304957
 30
0.0
 10
37.97839522124884
 20
22.45613913704719
 30
0.0
 10
38.07542899544056
 20
22.68241326798984
 30
0.0
 10
38.1352755412262
 20
22.91777745332142
 30
0.0
 10
38.14252044479365
 20
23.07825114959904
 30
0.0
 10
38.14615384615384
 20
23.15873052946955
 30
0.0
  0
SPLINE
  5
88
330
1F
100
AcDbEntity
  8
0
  6
Continuous
 62
     7
370
    15
100
AcDbSpline
210
0.0
220
0.0
230
1.0
 70
     8
 71
     3
 72
    19
 73
    15
 74
     0
 42
0.000000001
 43
0.00000001
 40
0.0
 40
0.0
 40
0.0
 40
0.0
 40
0.0602873979279712
 40
0.1196023547075215
 40
0.1775033710185416
 40
0.2351426637323306
 40
0.2921325932269337
 40
0.3508712086415652
 40
0.4100978625665939
 40
0.4707315215304489
 40
0.5948287040804136
 40
0.7225788240942906
 40
0.8566913895440156
 40
1.0
 40
1.0
 40
1.0
 40
1.0
 10
38.14615384615384
 20
23.15873052946955
 30
0.0
 10
38.14540244792129
 20
23.20905883472843
 30
0.0
 10
38.14391177157721
 20
23.30890364515782
 30
0.0
 10
38.12143109810645
 20
23.45563169594784
 30
0.0
 10
38.08873620959628
 20
23.59776067973941
 30
0.0
 10
38.04646852167306
 20
23.73567653063011
 30
0.0
 10
37.98491125766098
 20
23.86688579054813
 30
0.0
 10
37.91304773157873
 20
23.99398347043024
 30
0.0
 10
37.82878848853156
 20
24.11713758229071
 30
0.0
 10
37.69749543713459
 20
24.27283664346359
 30
0.0
 10
37.50652739354806
 20
24.45222508572217
 30
0.0
 10
37.23518252609276
 20
24.62785928831926
 30
0.0
 10
36.92664791519065
 20
24.76950367760733
 30
0.0
 10
36.70287166666643
 20
24.82964582392842
 30
0.0
 10
36.58727463942306
 20
24.86071370254647
 30
0.0
  0
SPLINE
  5
13C
330
1F
100
AcDbEntity
  8
0
  6
Continuous
 62
     7
370
    15
100
AcDbSpline
210
0.0
220
0.0
230
1.0
 70
     8
 71
     3
 72
    15
 73
    11
 74
     0
 42
0.000000001
 43
0.00000001
 40
0.0
 40
0.0
 40
0.0
 40
0.0
 40
0.0751731173762218
 40
0.1647462575118011
 40
0.2680168809877798
 40
0.3859118756529555
 40
0.5177894792733974
 40
0.6636909770022812
 40
0.824413220536641
 40
1.0
 40
1.0
 40
1.0
 40
1.0
 10
7.182271634615378
 20
8.132633774661855
 30
0.0
 10
7.122597961395888
 20
8.119943804728448
 30
0.0
 10
6.991819636935944
 20
8.092132997787951
 30
0.0
 10
6.77643837158079
 20
8.061085697374368
 30
0.0
 10
6.525671285586066
 20
8.034585512651828
 30
0.0
 10
6.239860652387276
 20
8.01471598823482
 30
0.0
 10
5.919263018279275
 20
7.997706056920344
 30
0.0
 10
5.56370495368904
 20
7.984185744260714
 30
0.0
 10
5.172488500793923
 20
7.976756642037889
 30
0.0
 10
4.899607472267475
 20
7.976373484493426
 30
0.0
 10
4.757136418269227
 20
7.976173438123395
 30
0.0
  0
SPLINE
  5
13E
330
1F
100
AcDbEntity
  8
0
  6
Continuous
 62
     7
370
    15
100
AcDbSpline
210
0.0
220
0.0
230
1.0
 70
     8
 71
     3
 72
    23
 73
    19
 74
     0
 42
0.000000001
 43
0.00000001
 40
0.0
 40
0.0
 40
0.0
 40
0.0
 40
0.0652265038922759
 40
0.1285689957067286
 40
0.1903203781044672
 40
0.251377988624063
 40
0.3123875283336944
 40
0.3737887042767232
 40
0.4364311597804505
 40
0.5005667553098543
 40
0.564686795384744
 40
0.6271355178835134
 40
0.6884554088949791
 40
0.749245746463747
 40
0.810155177364678
 40
0.8716709256529229
 40
0.9347734961077241
 40
1.0
 40
1.0
 40
1.0
 40
1.0
 10
53.41057692307692
 20
8.34633569773878
 30
0.0
 10
53.40635889242208
 20
8.175001504439845
 30
0.0
 10
53.39804466533965
 20
7.837281960264258
 30
0.0
 10
53.32682820647509
 20
7.341591587199665
 30
0.0
 10
53.21513805654578
 20
6.865094763201615
 30
0.0
 10
53.05567250357741
 20
6.408586951007003
 30
0.0
 10
52.85095173718802
 20
5.971586581046504
 30
0.0
 10
52.59879730718166
 20
5.555243513696608
 30
0.0
 10
52.30177729794771
 20
5.159421257374931
 30
0.0
 10
51.96375722477845
 20
4.788456075587637
 30
0.0
 10
51.59527296044022
 20
4.448284387485749
 30
0.0
 10
51.20003916291014
 20
4.15186944723233
 30
0.0
 10
50.78694448512238
 20
3.896805936716791
 30
0.0
 10
50.35067306506009
 20
3.693287509711381
 30
0.0
 10
49.89701082198241
 20
3.530622497642987
 30
0.0
 10
49.42189749986299
 20
3.419717125914726
 30
0.0
 10
48.92755937779593
 20
3.348178815350184
 30
0.0
 10
48.59045328887603
 20
3.339964139764742
 30
0.0
 10
48.41911057692307
 20
3.335788822738779
 30
0.0
  0
SPLINE
  5
13F
330
1F
100
AcDbEntity
  8
0
  6
Continuous
 62
     7
370
    15
100
AcDbSpline
210
0.0
220
0.0
230
1.0
 70
     8
 71
     3
 72
    23
 73
    19
 74
     0
 42
0.000000001
 43
0.00000001
 40
0.0
 40
0.0
 40
0.0
 40
0.0
 40
0.0625940971873323
 40
0.1213229386347493
 40
0.1766801421977668
 40
0.2283650957096766
 40
0.2768684458368071
 40
0.3218791276660465
 40
0.364098625109892
 40
0.4033556962427017
 40
0.4779679481633712
 40
0.5505354613647767
 40
0.6235844567403245
 40
0.6981748822642043
 40
0.773353670340876
 40
0.8472811254977343
 40
0.9228183395566704
 40
1.0
 40
1.0
 40
1.0
 40
1.0
 10
35.24209735576922
 20
29.98001959196955
 30
0.0
 10
35.33307057140885
 20
29.97954129980475
 30
0.0
 10
35.50939930453874
 20
29.97861425055303
 30
0.0
 10
35.76581078551551
 20
29.96423658650303
 30
0.0
 10
36.00597362018726
 20
29.94463231347617
 30
0.0
 10
36.22995745779836
 20
29.91352613278016
 30
0.0
 10
36.43765879787694
 20
29.87599279640605
 30
0.0
 10
36.62970358207419
 20
29.83053999690308
 30
0.0
 10
36.80548112231863
 20
29.77603899830246
 30
0.0
 10
37.01533792639542
 20
29.68937161866271
 30
0.0
 10
37.25460772492995
 20
29.56058499622528
 30
0.0
 10
37.51368335078593
 20
29.37027940106975
 30
0.0
 10
37.73521917361379
 20
29.13750891214928
 30
0.0
 10
37.92622622267668
 20
28.87493825703026
 30
0.0
 10
38.07808498390436
 20
28.5860973353364
 30
0.0
 10
38.18794714302781
 20
28.27787054302044
 30
0.0
 10
38.25750107525386
 20
27.95423351679655
 30
0.0
 10
38.26465417122712
 20
27.73204743985461
 30
0.0
 10
38.26826923076922
 20
27.61975817370032
 30
0.0
  0
SPLINE
  5
140
330
1F
100
AcDbEntity
  8
0
  6
Continuous
 62
     7
370
    15
100
AcDbSpline
210
0.0
220
0.0
230
1.0
 70
     8
 71
     3
 72
    15
 73
    11
 74
     0
 42
0.000000001
 43
0.00000001
 40
0.0
 40
0.0
 40
0.0
 40
0.0
 40
0.1361444912025631
 40
0.2690425392697013
 40
0.3985166179976852
 40
0.527099538602238
 40
0.6522825446560288
 40
0.7716804045534006
 40
0.8874949318451725
 40
1.0
 40
1.0
 40
1.0
 40
1.0
 10
26.5451923076923
 20
44.53482728427724
 30
0.0
 10
26.41260733359188
 20
44.65955270432323
 30
0.0
 10
26.15059894980854
 20
44.90602939555212
 30
0.0
 10
25.72344286094479
 20
45.22582717517312
 30
0.0
 10
25.27777182843278
 20
45.4997827763288
 30
0.0
 10
24.81591139048333
 20
45.72268474834177
 30
0.0
 10
24.34929918305558
 20
45.90053761800957
 30
0.0
 10
23.88412872763276
 20
46.02716062817157
 30
0.0
 10
23.42517149752452
 20
46.10791231939852
 30
0.0
 10
23.11991642458057
 20
46.11756895314888
 30
0.0
 10
22.96950120192307
 20
46.12232728427725
 30
0.0
  0
SPLINE
  5
141
330
1F
100
AcDbEntity
  8
0
  6
Continuous
 62
     7
370
    15
100
AcDbSpline
210
0.0
220
0.0
230
1.0
 70
     8
 71
     3
 72
    15
 73
    11
 74
     0
 42
0.000000001
 43
0.00000001
 40
0.0
 40
0.0
 40
0.0
 40
0.0
 40
0.1769557521312508
 40
0.339055079642581
 40
0.4863182249420772
 40
0.6187809228353777
 40
0.735618827767381
 40
0.8387424767201107
 40
0.9264570678763172
 40
1.0
 40
1.0
 40
1.0
 40
1.0
 10
5.089137620192301
 20
13.10501959196955
 30
0.0
 10
5.217618729076466
 20
13.10487836005697
 30
0.0
 10
5.463794239511286
 20
13.10460775344039
 30
0.0
 10
5.816804498261899
 20
13.09640333801487
 30
0.0
 10
6.137415267902145
 20
13.08544498310528
 30
0.0
 10
6.424935233138439
 20
13.07025425948687
 30
0.0
 10
6.680249042931206
 20
13.05230211031328
 30
0.0
 10
6.902201408125773
 20
13.02712334600757
 30
0.0
 10
7.092536915005734
 20
13.0008335416803
 30
0.0
 10
7.206582323856605
 20
12.97410528536681
 30
0.0
 10
7.258593749999993
 20
12.96191562562339
 30
0.0
  0
SPLINE
  5
142
330
1F
100
AcDbEntity
  8
0
  6
Continuous
 62
     7
370
    15
100
AcDbSpline
210
0.0
220
0.0
230
1.0
 70
     8
 71
     3
 72
    31
 73
    27
 74
     0
 42
0.000000001
 43
0.00000001
 40
0.0
 40
0.0
 40
0.0
 40
0.0
 40
0.0432089861713369
 40
0.0858728716306188
 40
0.128120006696703
 40
0.1701519644541996
 40
0.211917620987861
 40
0.2537530026191236
 40
0.2960064088559496
 40
0.3384433571447835
 40
0.3810153681620328
 40
0.4228204794407609
 40
0.4640890557943131
 40
0.5051258486836873
 40
0.5459749706852411
 40
0.586985211133859
 40
0.6283385916346633
 40
0.6700838015912056
 40
0.7119916023637218
 40
0.753039154863017
 40
0.7940493953116372
 40
0.8348855427015803
 40
0.8754983129295125
 40
0.9165472998303792
 40
0.9580037786449587
 40
1.0
 40
1.0
 40
1.0
 40
1.0
 10
67.20961538461536
 20
25.17554242850801
 30
0.0
 10
67.21107035695427
 20
25.28884276380133
 30
0.0
 10
67.21396194650441
 20
25.51401409991576
 30
0.0
 10
67.24877362386603
 20
25.84838677604461
 30
0.0
 10
67.29928796786432
 20
26.17738206611051
 30
0.0
 10
67.37168317273093
 20
26.50006443164198
 30
0.0
 10
67.46636620931554
 20
26.8156439685818
 30
0.0
 10
67.57808636957051
 20
27.126297116015
 30
0.0
 10
67.71453837729342
 20
27.4288756784936
 30
0.0
 10
67.86879071231347
 20
27.72481305165032
 30
0.0
 10
68.04095320414697
 20
28.00949599539051
 30
0.0
 10
68.23111506515562
 20
28.27858971810891
 30
0.0
 10
68.43259703220032
 20
28.53435228792348
 30
0.0
 10
68.65347741057381
 20
28.7701559197997
 30
0.0
 10
68.8864764507129
 20
28.99286037040373
 30
0.0
 10
69.13537389406393
 20
29.19904319315166
 30
0.0
 10
69.39865100194444
 20
29.39056359539765
 30
0.0
 10
69.67744062116365
 20
29.5631575236237
 30
0.0
 10
69.96487321208588
 20
29.71925631139965
 30
0.0
 10
70.26117358589975
 20
29.85321006300271
 30
0.0
 10
70.56231754121154
 20
29.9681797018278
 30
0.0
 10
70.86971554735162
 20
30.06136366182832
 30
0.0
 10
71.18255130565598
 20
30.13492941692083
 30
0.0
 10
71.501507590815
 20
30.18502371522849
 30
0.0
 10
71.82633030090408
 20
30.21992418033657
 30
0.0
 10
72.04516396176082
 20
30.22280209646462
 30
0.0
 10
72.15528846153846
 20
30.22425036120032
 30
0.0
  0
SPLINE
  5
143
330
1F
100
AcDbEntity
  8
0
  6
Continuous
 62
     7
370
    15
100
AcDbSpline
210
0.0
220
0.0
230
1.0
 70
     8
 71
     3
 72
    31
 73
    27
 74
     0
 42
0.000000001
 43
0.00000001
 40
0.0
 40
0.0
 40
0.0
 40
0.0
 40
0.0389942033259351
 40
0.0778819264566276
 40
0.1166515665855551
 40
0.1554160645113799
 40
0.1946182927830762
 40
0.2342614639169264
 40
0.274547107750672
 40
0.315667308943286
 40
0.3570195563769782
 40
0.3980825120664324
 40
0.4390978641477905
 40
0.4798332779738371
 40
0.5212741319644052
 40
0.5628408280340161
 40
0.6052920613462593
 40
0.6484086595339283
 40
0.6917272922059637
 40
0.7351488851450335
 40
0.7783689248959228
 40
0.821660858302965
 40
0.8655236990058884
 40
0.9097314975427171
 40
0.9545225648198417
 40
1.0
 40
1.0
 40
1.0
 40
1.0
 10
18.72980769230768
 20
42.13449675543109
 30
0.0
 10
18.73186432559199
 20
42.0466740314172
 30
0.0
 10
18.73597197617936
 20
41.87126839802857
 30
0.0
 10
18.76226184587005
 20
41.60948310047245
 30
0.0
 10
18.81105227161898
 20
41.3515858267564
 30
0.0
 10
18.87627867932736
 20
41.09672912177628
 30
0.0
 10
18.95786932769225
 20
40.84447651134492
 30
0.0
 10
19.05957636895803
 20
40.59592160957133
 30
0.0
 10
19.18004203891284
 20
40.3510736163031
 30
0.0
 10
19.31947865550209
 20
40.11213867309066
 30
0.0
 10
19.47238539499702
 20
39.87939387402886
 30
0.0
 10
19.64368049397149
 20
39.66015688962619
 30
0.0
 10
19.82563679602771
 20
39.45150828870985
 30
0.0
 10
20.02488319486116
 20
39.25808067438065
 30
0.0
 10
20.23503066341217
 20
39.0747002137697
 30
0.0
 10
20.46235778596334
 20
38.90641925763211
 30
0.0
 10
20.70239448195583
 20
38.74999637856565
 30
0.0
 10
20.95550696571762
 20
38.60740299374672
 30
0.0
 10
21.21894882364681
 20
38.48001690729934
 30
0.0
 10
21.48906898741071
 20
38.36674044713107
 30
0.0
 10
21.76673039988943
 20
38.27345167923995
 30
0.0
 10
22.05047386243657
 20
38.19742012474845
 30
0.0
 10
22.33996112320798
 20
38.13509860160017
 30
0.0
 10
22.63666161486244
 20
38.09500520866322
 30
0.0
 10
22.9383937712525
 20
38.0659108759782
 30
0.0
 10
23.14178961998999
 20
38.06378361672832
 30
0.0
 10
23.24426081730769
 20
38.06271189966186
 30
0.0
  0
SPLINE
  5
144
330
1F
100
AcDbEntity
  8
0
  6
Continuous
 62
     7
370
    15
100
AcDbSpline
210
0.0
220
0.0
230
1.0
 70
     8
 71
     3
 72
    15
 73
    11
 74
     0
 42
0.000000001
 43
0.00000001
 40
0.0
 40
0.0
 40
0.0
 40
0.0
 40
0.1762577548177997
 40
0.3384344138804756
 40
0.484822050787836
 40
0.6171575782663322
 40
0.7346983606124753
 40
0.8373851838323595
 40
0.9263724209295843
 40
0.9999999999999999
 40
0.9999999999999999
 40
0.9999999999999999
 40
0.9999999999999999
 10
42.86095252403846
 20
29.98001959196955
 30
0.0
 10
42.98815516663613
 20
29.9795961758164
 30
0.0
 10
43.23239833106366
 20
29.9787831698992
 30
0.0
 10
43.58230130254236
 20
29.97424991512774
 30
0.0
 10
43.90023790223574
 20
29.96125684709319
 30
0.0
 10
44.18604189352025
 20
29.95007563063046
 30
0.0
 10
44.43970803313433
 20
29.92968684745819
 30
0.0
 10
44.66201416009839
 20
29.91019965779642
 30
0.0
 10
44.85193639401243
 20
29.88468990953374
 30
0.0
 10
44.96690546077157
 20
29.86099872274869
 30
0.0
 10
45.01896033653846
 20
29.8502719958157
 30
0.0
  0
SPLINE
  5
145
330
1F
100
AcDbEntity
  8
0
  6
Continuous
 62
     7
370
    15
100
AcDbSpline
210
0.0
220
0.0
230
1.0
 70
     8
 71
     3
 72
    23
 73
    19
 74
     0
 42
0.000000001
 43
0.00000001
 40
0.0
 40
0.0
 40
0.0
 40
0.0
 40
0.0787802355821392
 40
0.1537206442085839
 40
0.2267135303087804
 40
0.2991911660659362
 40
0.3711899968376678
 40
0.4430064143534093
 40
0.5166891732948807
 40
0.5932172166234118
 40
0.6338729178078448
 40
0.6769891422899788
 40
0.7228995063258268
 40
0.7719586105061439
 40
0.8242113233348349
 40
0.8793786506272022
 40
0.9379481193304183
 40
1.0
 40
1.0
 40
1.0
 40
1.0
 10
46.93846153846152
 20
27.43276899100801
 30
0.0
 10
46.93446376503769
 20
27.30585488488822
 30
0.0
 10
46.92666307363875
 20
27.05821259227858
 30
0.0
 10
46.85393261290952
 20
26.69881833644469
 30
0.0
 10
46.734797941362
 20
26.36356741588749
 30
0.0
 10
46.5706324191295
 20
26.05288195127469
 30
0.0
 10
46.36157370308067
 20
25.77281798068747
 30
0.0
 10
46.11031837872082
 20
25.52682681303906
 30
0.0
 10
45.81672627888108
 20
25.32097819377405
 30
0.0
 10
45.54341506907515
 20
25.17823163240782
 30
0.0
 10
45.30198571132932
 20
25.08681093107903
 30
0.0
 10
45.10323076724189
 20
25.02248626875549
 30
0.0
 10
44.88642277848541
 20
24.97278763468001
 30
0.0
 10
44.65363903216512
 20
24.92826470464721
 30
0.0
 10
44.40391079829019
 20
24.89465045057014
 30
0.0
 10
44.13783661966671
 20
24.8700307899071
 30
0.0
 10
43.85522673558769
 20
24.85464370023535
 30
0.0
 10
43.66108255399092
 20
24.85235224407331
 30
0.0
 10
43.5612079326923
 20
24.8511734381234
 30
0.0
  0
SPLINE
  5
146
330
1F
100
AcDbEntity
  8
0
  6
Continuous
 62
     7
370
    15
100
AcDbSpline
210
0.0
220
0.0
230
1.0
 70
     8
 71
     3
 72
    19
 73
    15
 74
     0
 42
0.000000001
 43
0.00000001
 40
0.0
 40
0.0
 40
0.0
 40
0.0
 40
0.1060574933033958
 40
0.2029142570846098
 40
0.2903001653958366
 40
0.3702225656250395
 40
0.446383720770969
 40
0.5213968999648275
 40
0.598291082846456
 40
0.6761424688569273
 40
0.7555286995560212
 40
0.8348871724576566
 40
0.9166460487466405
 40
0.9999999999999999
 40
0.9999999999999999
 40
0.9999999999999999
 40
0.9999999999999999
 10
37.16732271634614
 20
25.59340601023878
 30
0.0
 10
37.27552788001484
 20
25.55186340597894
 30
0.0
 10
37.48255116252579
 20
25.47238211316136
 30
0.0
 10
37.76744666778703
 20
25.33185988614082
 30
0.0
 10
38.01290549595509
 20
25.17901871429
 30
0.0
 10
38.2208148718148
 20
25.01210846497037
 30
0.0
 10
38.39862663269506
 20
24.83219805846296
 30
0.0
 10
38.55389213797557
 20
24.63664949754423
 30
0.0
 10
38.68637502051343
 20
24.42291187789218
 30
0.0
 10
38.79989376250265
 20
24.19321368522737
 30
0.0
 10
38.88847287711685
 20
23.94990036777045
 30
0.0
 10
38.95481015972309
 20
23.69525418424829
 30
0.0
 10
38.99282157487123
 20
23.43018825189796
 30
0.0
 10
38.99823079863548
 20
23.2497973266982
 30
0.0
 10
39.00096153846153
 20
23.15873052946955
 30
0.0
  0
SPLINE
  5
147
330
1F
100
AcDbEntity
  8
0
  6
Continuous
 62
     7
370
    15
100
AcDbSpline
210
0.0
220
0.0
230
1.0
 70
     8
 71
     3
 72
    23
 73
    19
 74
     0
 42
0.000000001
 43
0.00000001
 40
0.0
 40
0.0
 40
0.0
 40
0.0
 40
0.0615449660163238
 40
0.1216942964020309
 40
0.1811548554526337
 40
0.2398753889119562
 40
0.2987019424504289
 40
0.3576474237092018
 40
0.4176048428493669
 40
0.4784940407282911
 40
0.5404070506371331
 40
0.602344993872803
 40
0.6650043279232338
 40
0.7285593088233767
 40
0.7936505420268853
 40
0.8605342675902673
 40
0.9292359605619643
 40
1.0
 40
1.0
 40
1.0
 40
1.0
 10
51.63990384615384
 20
46.51157007273878
 30
0.0
 10
51.75010738669754
 20
46.46957650952223
 30
0.0
 10
51.96801541712724
 20
46.38654165777344
 30
0.0
 10
52.2782776578284
 20
46.22990629485935
 30
0.0
 10
52.57035596704475
 20
46.05243349652714
 30
0.0
 10
52.84581663987778
 20
45.85388932734163
 30
0.0
 10
53.09836746030344
 20
45.62865206468962
 30
0.0
 10
53.33787466499096
 20
45.38628956737891
 30
0.0
 10
53.55454044905503
 20
45.11798844150962
 30
0.0
 10
53.75295516896561
 20
44.82931293849464
 30
0.0
 10
53.93185007076332
 20
44.52366371067242
 30
0.0
 10
54.0873502075096
 20
44.20162316486949
 30
0.0
 10
54.21649286080297
 20
43.86482676293426
 30
0.0
 10
54.3236987131833
 20
43.51421111018726
 30
0.0
 10
54.40818942977476
 20
43.14900525342816
 30
0.0
 10
54.46583454390228
 20
42.76878394650644
 30
0.0
 10
54.503855594906
 20
42.37504986679956
 30
0.0
 10
54.50767662026928
 20
42.1078750762156
 30
0.0
 10
54.50961538461537
 20
41.97231226023878
 30
0.0
  0
SPLINE
  5
148
330
1F
100
AcDbEntity
  8
0
  6
Continuous
 62
     7
370
    15
100
AcDbSpline
210
0.0
220
0.0
230
1.0
 70
     8
 71
     3
 72
    23
 73
    19
 74
     0
 42
0.000000001
 43
0.00000001
 40
0.0
 40
0.0
 40
0.0
 40
0.0
 40
0.0665700352151802
 40
0.1307490414821782
 40
0.1934128000295039
 40
0.2549893988897078
 40
0.3161135558758987
 40
0.3772617579089824
 40
0.4394007841555528
 40
0.5029705893719755
 40
0.5665249763607311
 40
0.6282311025133093
 40
0.6890906105998622
 40
0.7493446689958043
 40
0.8101695933722063
 40
0.8716098243170435
 40
0.934869184072764
 40
1.0
 40
1.0
 40
1.0
 40
1.0
 10
72.15528846153846
 20
30.22425036120032
 30
0.0
 10
72.33165909261676
 20
30.21978319234049
 30
0.0
 10
72.67806556340429
 20
30.21100930413879
 30
0.0
 10
73.18717653506742
 20
30.14384688660596
 30
0.0
 10
73.67321033009185
 20
30.02765443248127
 30
0.0
 10
74.14012620783099
 20
29.87290588730157
 30
0.0
 10
74.58233923692283
 20
29.66647359565817
 30
0.0
 10
75.00317793720082
 20
29.41695901339134
 30
0.0
 10
75.40164100096897
 20
29.12174807919922
 30
0.0
 10
75.77235776069988
 20
28.78312282612448
 30
0.0
 10
76.11160274682771
 20
28.41468642657807
 30
0.0
 10
76.4104860516034
 20
28.02150011416534
 30
0.0
 10
76.66097257954472
 20
27.60594123074504
 30
0.0
 10
76.86667390033013
 20
27.1692585416415
 30
0.0
 10
77.02805083099692
 20
26.71243962879622
 30
0.0
 10
77.13940908561204
 20
26.23304909276433
 30
0.0
 10
77.21054219424254
 20
25.73419302906824
 30
0.0
 10
77.21885827418714
 20
25.39394134721291
 30
0.0
 10
77.22307692307692
 20
25.22133569773878
 30
0.0
  0
SPLINE
  5
149
330
1F
100
AcDbEntity
  8
0
  6
Continuous
 62
     7
370
    15
100
AcDbSpline
210
0.0
220
0.0
230
1.0
 70
     8
 71
     3
 72
    15
 73
    11
 74
     0
 42
0.000000001
 43
0.00000001
 40
0.0
 40
0.0
 40
0.0
 40
0.0
 40
0.1642892164747627
 40
0.3174059112304909
 40
0.4588436116410206
 40
0.5893665423053096
 40
0.707831318778173
 40
0.8157700306990042
 40
0.9128799029021261
 40
1.0
 40
1.0
 40
1.0
 40
1.0
 10
48.61754807692307
 20
46.85501959196954
 30
0.0
 10
48.78483153768461
 20
46.85381516933767
 30
0.0
 10
49.10802231329441
 20
46.85148823108096
 30
0.0
 10
49.57505333099083
 20
46.83673430233268
 30
0.0
 10
50.00717199885564
 20
46.81063453456027
 30
0.0
 10
50.40295713678609
 20
46.77261746700821
 30
0.0
 10
50.76349529226633
 20
46.72593671122447
 30
0.0
 10
51.08777693291975
 20
46.66742489654447
 30
0.0
 10
51.37747883610076
 20
46.59833280428327
 30
0.0
 10
51.55564924227573
 20
46.53942625754443
 30
0.0
 10
51.63990384615384
 20
46.51157007273878
 30
0.0
  0
SPLINE
  5
14A
330
1F
100
AcDbEntity
  8
0
  6
Continuous
 62
     7
370
    15
100
AcDbSpline
210
0.0
220
0.0
230
1.0
 70
     8
 71
     3
 72
    23
 73
    19
 74
     0
 42
0.000000001
 43
0.00000001
 40
0.0
 40
0.0
 40
0.0
 40
0.0
 40
0.0625940971873308
 40
0.1213229386347495
 40
0.1766801421977655
 40
0.2283650957096752
 40
0.2768684458368076
 40
0.3218791276660453
 40
0.3640986251098926
 40
0.4033556962427023
 40
0.4779679481633706
 40
0.5505354613647763
 40
0.623584456740324
 40
0.698174882264204
 40
0.7733536703408758
 40
0.847281125497734
 40
0.9228183395566696
 40
1.0
 40
1.0
 40
1.0
 40
1.0
 10
57.22286658653845
 20
13.10501959196955
 30
0.0
 10
57.31383980217808
 20
13.10454129980475
 30
0.0
 10
57.49016853530797
 20
13.10361425055304
 30
0.0
 10
57.74658001628473
 20
13.08923658650302
 30
0.0
 10
57.9867428509565
 20
13.06963231347618
 30
0.0
 10
58.21072668856759
 20
13.03852613278015
 30
0.0
 10
58.4184280286462
 20
13.00099279640606
 30
0.0
 10
58.61047281284339
 20
12.95553999690308
 30
0.0
 10
58.78625035308789
 20
12.90103899830247
 30
0.0
 10
58.99610715716465
 20
12.81437161866272
 30
0.0
 10
59.23537695569919
 20
12.68558499622528
 30
0.0
 10
59.49445258155514
 20
12.49527940106974
 30
0.0
 10
59.71598840438303
 20
12.26250891214928
 30
0.0
 10
59.9069954534459
 20
11.99993825703024
 30
0.0
 10
60.05885421467359
 20
11.7110973353364
 30
0.0
 10
60.16871637379705
 20
11.40287054302044
 30
0.0
 10
60.23827030602307
 20
11.07923351679654
 30
0.0
 10
60.24542340199635
 20
10.85704743985461
 30
0.0
 10
60.24903846153845
 20
10.74475817370032
 30
0.0
  0
SPLINE
  5
14B
330
1F
100
AcDbEntity
  8
0
  6
Continuous
 62
     7
370
    15
100
AcDbSpline
210
0.0
220
0.0
230
1.0
 70
     8
 71
     3
 72
    23
 73
    19
 74
     0
 42
0.000000001
 43
0.00000001
 40
0.0
 40
0.0
 40
0.0
 40
0.0
 40
0.0701188944197155
 40
0.1371923527859719
 40
0.202016180724751
 40
0.2646314069747439
 40
0.3261165471458178
 40
0.3860103046676415
 40
0.4458118469576798
 40
0.5052976967309604
 40
0.5646332777264886
 40
0.6242826253338404
 40
0.683902031903751
 40
0.7439527709382707
 40
0.8053877310076348
 40
0.8683880308962796
 40
0.9330840282524769
 40
1.0
 40
1.0
 40
1.0
 40
1.0
 10
9.082692307692305
 20
10.55013677946955
 30
0.0
 10
9.081545430394202
 20
10.4718201154979
 30
0.0
 10
9.07930148749999
 20
10.31858827290344
 30
0.0
 10
9.052369453855084
 20
10.0944166136185
 30
0.0
 10
9.0160922895213
 20
9.880190137617504
 30
0.0
 10
8.960311025687991
 20
9.676383847411444
 30
0.0
 10
8.887252443898763
 20
9.484208072058852
 30
0.0
 10
8.801549071511559
 20
9.3007260049167
 30
0.0
 10
8.698179606719536
 20
9.129059183535523
 30
0.0
 10
8.579403320150245
 20
8.968584385082877
 30
0.0
 10
8.447273623981012
 20
8.819150980856456
 30
0.0
 10
8.302349556594542
 20
8.681841861558459
 30
0.0
 10
8.145216196290237
 20
8.557460769137146
 30
0.0
 10
7.976372921882427
 20
8.44572886240695
 30
0.0
 10
7.794173690405838
 20
8.349237130345397
 30
0.0
 10
7.601381829616331
 20
8.26281189336947
 30
0.0
 10
7.39632159778239
 20
8.19022850691757
 30
0.0
 10
7.254419470463707
 20
8.152046696892873
 30
0.0
 10
7.182271634615378
 20
8.132633774661855
 30
0.0
  0
SPLINE
  5
14C
330
1F
100
AcDbEntity
  8
0
  6
Continuous
 62
     7
370
    15
100
AcDbSpline
210
0.0
220
0.0
230
1.0
 70
     8
 71
     3
 72
    23
 73
    19
 74
     0
 42
0.000000001
 43
0.00000001
 40
0.0
 40
0.0
 40
0.0
 40
0.0
 40
0.0787802355821392
 40
0.1537206442085846
 40
0.2267135303087815
 40
0.2991911660659367
 40
0.3711899968376687
 40
0.4430064143534095
 40
0.5166891732948805
 40
0.5932172166234119
 40
0.6338729178078463
 40
0.6769891422899786
 40
0.7228995063258269
 40
0.7719586105061441
 40
0.8242113233348364
 40
0.8793786506272022
 40
0.9379481193304183
 40
1.0
 40
1.0
 40
1.0
 40
1.0
 10
41.80961538461538
 20
10.55776899100801
 30
0.0
 10
41.80561761119154
 20
10.43085488488823
 30
0.0
 10
41.79781691979259
 20
10.18321259227858
 30
0.0
 10
41.72508645906338
 20
9.823818336444694
 30
0.0
 10
41.60595178751583
 20
9.488567415887495
 30
0.0
 10
41.44178626528335
 20
9.177881951274683
 30
0.0
 10
41.23272754923451
 20
8.897817980687478
 30
0.0
 10
40.98147222487467
 20
8.651826813039055
 30
0.0
 10
40.6878801250349
 20
8.445978193774058
 30
0.0
 10
40.41456891522901
 20
8.303231632407822
 30
0.0
 10
40.17313955748315
 20
8.21181093107902
 30
0.0
 10
39.97438461339576
 20
8.1474862687555
 30
0.0
 10
39.75757662463926
 20
8.097787634680012
 30
0.0
 10
39.52479287831897
 20
8.053264704647207
 30
0.0
 10
39.27506464444404
 20
8.01965045057014
 30
0.0
 10
39.00899046582055
 20
7.995030789907105
 30
0.0
 10
38.72638058174154
 20
7.97964370023535
 30
0.0
 10
38.53223640014475
 20
7.977352244073304
 30
0.0
 10
38.43236177884614
 20
7.976173438123395
 30
0.0
  0
SPLINE
  5
14D
330
1F
100
AcDbEntity
  8
0
  6
Continuous
 62
     7
370
    15
100
AcDbSpline
210
0.0
220
0.0
230
1.0
 70
     8
 71
     3
 72
    31
 73
    27
 74
     0
 42
0.000000001
 43
0.00000001
 40
0.0
 40
0.0
 40
0.0
 40
0.0
 40
0.0439549089061943
 40
0.0875018747976045
 40
0.1304626267314904
 40
0.1727520205665175
 40
0.2154030673796033
 40
0.2576498297432397
 40
0.3001527489572938
 40
0.3431214895020869
 40
0.3859251632064337
 40
0.4276857274028019
 40
0.4688179504865899
 40
0.5094918001549955
 40
0.549883031073349
 40
0.589980022966886
 40
0.6304052300068399
 40
0.6708686260826384
 40
0.7113839438381755
 40
0.7516272580635842
 40
0.791775576865192
 40
0.8324589188037422
 40
0.8733190450172881
 40
0.914542955626349
 40
0.956923558209885
 40
1.0
 40
1.0
 40
1.0
 40
1.0
 10
7.804296874999991
 20
29.24732728427724
 30
0.0
 10
7.708820181795022
 20
29.24622792916118
 30
0.0
 10
7.518752909155678
 20
29.24403942198148
 30
0.0
 10
7.236680991986481
 20
29.21516744553091
 30
0.0
 10
6.959876188550409
 20
29.17458765248108
 30
0.0
 10
6.68851855548399
 20
29.11437516570868
 30
0.0
 10
6.422953504030716
 20
29.03824968093349
 30
0.0
 10
6.161444895552114
 20
28.9472848044697
 30
0.0
 10
5.90777890610427
 20
28.83474056170802
 30
0.0
 10
5.658446414964123
 20
28.710348797111
 30
0.0
 10
5.419561562184025
 20
28.56984839391672
 30
0.0
 10
5.193533182161439
 20
28.41659562915341
 30
0.0
 10
4.981185640890236
 20
28.25230544527088
 30
0.0
 10
4.782350960727759
 20
28.07636207719986
 30
0.0
 10
4.596825872757656
 20
27.88955788476287
 30
0.0
 10
4.425954691209183
 20
27.6899020694383
 30
0.0
 10
4.270328681844133
 20
27.47803294008063
 30
0.0
 10
4.126863063635855
 20
27.25674430951112
 30
0.0
 10
3.998376982149034
 20
27.02668074799046
 30
0.0
 10
3.890799238949513
 20
26.78699073486854
 30
0.0
 10
3.79553529923278
 20
26.54177885447685
 30
0.0
 10
3.720153788888923
 20
26.28827462393588
 30
0.0
 10
3.660487782369305
 20
26.02826181117677
 30
0.0
 10
3.619318927317941
 20
25.76104259539861
 30
0.0
 10
3.590775302139145
 20
25.48717522449468
 30
0.0
 10
3.588597677859309
 20
25.30154845230829
 30
0.0
 10
3.587499999999993
 20
25.20797932754647
 30
0.0
  0
SPLINE
  5
14E
330
1F
100
AcDbEntity
  8
0
  6
Continuous
 62
     7
370
    15
100
AcDbSpline
210
0.0
220
0.0
230
1.0
 70
     8
 71
     3
 72
    23
 73
    19
 74
     0
 42
0.000000001
 43
0.00000001
 40
0.0
 40
0.0
 40
0.0
 40
0.0
 40
0.0685475367089032
 40
0.1356829456230484
 40
0.2012149895263288
 40
0.2656822347546966
 40
0.3292668348172593
 40
0.392395427844329
 40
0.4550697616521441
 40
0.5171268500645066
 40
0.5787900352866528
 40
0.6397398633435422
 40
0.7001915036663089
 40
0.7598062425966708
 40
0.8196283192750085
 40
0.8793547910462767
 40
0.9395116077646619
 40
1.0
 40
1.0
 40
1.0
 40
1.0
 10
7.857722355769224
 20
30.22425036120032
 30
0.0
 10
7.967163168709088
 20
30.22293825655231
 30
0.0
 10
8.183790236347154
 20
30.22034107754116
 30
0.0
 10
8.50424566898366
 20
30.19501507650063
 30
0.0
 10
8.816236573022003
 20
30.15279590526824
 30
0.0
 10
9.11997788841549
 20
30.09533002956257
 30
0.0
 10
9.416947293939105
 20
30.02400867613465
 30
0.0
 10
9.704875092330068
 20
29.93109829285878
 30
0.0
 10
9.985450804440147
 20
29.82486316120705
 30
0.0
 10
10.25690489026315
 20
29.70251190747606
 30
0.0
 10
10.5179349302879
 20
29.56517027550457
 30
0.0
 10
10.76845962566497
 20
29.41436061428213
 30
0.0
 10
11.00648899114796
 20
29.25026988644506
 30
0.0
 10
11.23369792867888
 20
29.07429367336597
 30
0.0
 10
11.44628561739301
 20
28.88270902271203
 30
0.0
 10
11.65028792683524
 20
28.68078556509798
 30
0.0
 10
11.83877700383217
 20
28.46270708649837
 30
0.0
 10
11.95512677020901
 20
28.30920508778904
 30
0.0
 10
12.01346153846154
 20
28.23224314966185
 30
0.0
  0
SPLINE
  5
14F
330
1F
100
AcDbEntity
  8
0
  6
Continuous
 62
     7
370
    15
100
AcDbSpline
210
0.0
220
0.0
230
1.0
 70
     8
 71
     3
 72
    23
 73
    19
 74
     0
 42
0.000000001
 43
0.00000001
 40
0.0
 40
0.0
 40
0.0
 40
0.0
 40
0.0665700352151801
 40
0.1307490414821781
 40
0.1934128000295038
 40
0.2549893988897091
 40
0.3161135558759001
 40
0.3772617579089844
 40
0.4394007841555527
 40
0.5029705893719757
 40
0.5665249763607312
 40
0.6282311025133092
 40
0.689090610599863
 40
0.7493446689958042
 40
0.8101695933722067
 40
0.8716098243170436
 40
0.9348691840727635
 40
1.0
 40
1.0
 40
1.0
 40
1.0
 10
48.34278846153845
 20
13.34925036120032
 30
0.0
 10
48.51915909261674
 20
13.34478319234049
 30
0.0
 10
48.8655655634043
 20
13.3360093041388
 30
0.0
 10
49.3746765350674
 20
13.26884688660596
 30
0.0
 10
49.86071033009185
 20
13.15265443248127
 30
0.0
 10
50.32762620783095
 20
12.99790588730158
 30
0.0
 10
50.76983923692286
 20
12.79147359565817
 30
0.0
 10
51.19067793720082
 20
12.54195901339134
 30
0.0
 10
51.58914100096899
 20
12.24674807919922
 30
0.0
 10
51.95985776069985
 20
11.90812282612448
 30
0.0
 10
52.29910274682773
 20
11.53968642657808
 30
0.0
 10
52.59798605160339
 20
11.14650011416533
 30
0.0
 10
52.84847257954473
 20
10.73094123074504
 30
0.0
 10
53.05417390033013
 20
10.2942585416415
 30
0.0
 10
53.21555083099689
 20
9.837439628796217
 30
0.0
 10
53.32690908561206
 20
9.35804909276433
 30
0.0
 10
53.39804219424254
 20
8.859193029068239
 30
0.0
 10
53.4063582741871
 20
8.5189413472129
 30
0.0
 10
53.41057692307692
 20
8.34633569773878
 30
0.0
  0
SPLINE
  5
150
330
1F
100
AcDbEntity
  8
0
  6
Continuous
 62
     7
370
    15
100
AcDbSpline
210
0.0
220
0.0
230
1.0
 70
     8
 71
     3
 72
    31
 73
    27
 74
     0
 42
0.000000001
 43
0.00000001
 40
0.0
 40
0.0
 40
0.0
 40
0.0
 40
0.043208986171337
 40
0.0858728716306187
 40
0.1281200066967029
 40
0.1701519644541995
 40
0.2119176209878609
 40
0.2537530026191235
 40
0.2960064088559506
 40
0.3384433571447834
 40
0.3810153681620335
 40
0.4228204794407607
 40
0.4640890557943129
 40
0.505125848683687
 40
0.5459749706852409
 40
0.5869852111338589
 40
0.6283385916346634
 40
0.6700838015912055
 40
0.7119916023637218
 40
0.75303915486302
 40
0.7940493953116371
 40
0.8348855427015803
 40
0.8754983129295125
 40
0.9165472998303792
 40
0.9580037786449587
 40
1.0
 40
1.0
 40
1.0
 40
1.0
 10
62.44711538461538
 20
8.300542428508008
 30
0.0
 10
62.4485703569543
 20
8.413842763801332
 30
0.0
 10
62.45146194650446
 20
8.639014099915764
 30
0.0
 10
62.486273623866
 20
8.973386776044608
 30
0.0
 10
62.53678796786433
 20
9.302382066110514
 30
0.0
 10
62.60918317273091
 20
9.625064431641968
 30
0.0
 10
62.70386620931555
 20
9.940643968581812
 30
0.0
 10
62.81558636957049
 20
10.25129711601501
 30
0.0
 10
62.95203837729346
 20
10.5538756784936
 30
0.0
 10
63.10629071231344
 20
10.84981305165033
 30
0.0
 10
63.27845320414702
 20
11.1344959953905
 30
0.0
 10
63.46861506515562
 20
11.40358971810891
 30
0.0
 10
63.67009703220031
 20
11.65935228792348
 30
0.0
 10
63.89097741057383
 20
11.89515591979971
 30
0.0
 10
64.12397645071293
 20
12.11786037040375
 30
0.0
 10
64.3728738940639
 20
12.32404319315165
 30
0.0
 10
64.63615100194446
 20
12.51556359539765
 30
0.0
 10
64.91494062116365
 20
12.6881575236237
 30
0.0
 10
65.20237321208587
 20
12.84425631139967
 30
0.0
 10
65.49867358589978
 20
12.97821006300269
 30
0.0
 10
65.79981754121152
 20
13.0931797018278
 30
0.0
 10
66.10721554735163
 20
13.18636366182832
 30
0.0
 10
66.42005130565596
 20
13.25992941692084
 30
0.0
 10
66.73900759081499
 20
13.31002371522849
 30
0.0
 10
67.06383030090407
 20
13.34492418033657
 30
0.0
 10
67.2826639617608
 20
13.34780209646462
 30
0.0
 10
67.39278846153846
 20
13.34925036120032
 30
0.0
  0
SPLINE
  5
151
330
1F
100
AcDbEntity
  8
0
  6
Continuous
 62
     7
370
    15
100
AcDbSpline
210
0.0
220
0.0
230
1.0
 70
     8
 71
     3
 72
    23
 73
    19
 74
     0
 42
0.000000001
 43
0.00000001
 40
0.0
 40
0.0
 40
0.0
 40
0.0
 40
0.0658188768433054
 40
0.1297465269068303
 40
0.1920719544880045
 40
0.2534594242982035
 40
0.3145695877964202
 40
0.3762798811880262
 40
0.4390256536685596
 40
0.5032670288290848
 40
0.5674928228792941
 40
0.6297047956052457
 40
0.6909996492157552
 40
0.7514516509174477
 40
0.8120043642646945
 40
0.8731496810680426
 40
0.9356354837317856
 40
1.0
 40
1.0
 40
1.0
 40
1.0
 10
67.46911057692306
 20
3.335788822738779
 30
0.0
 10
67.29650582312864
 20
3.34000536839224
 30
0.0
 10
66.95625590689639
 20
3.348317302298113
 30
0.0
 10
66.45677297489864
 20
3.419568125366527
 30
0.0
 10
65.97704568628428
 20
3.530986959282695
 30
0.0
 10
65.5184459161993
 20
3.690216210706011
 30
0.0
 10
65.08071792922053
 20
3.896003102892911
 30
0.0
 10
64.66300563274464
 20
4.14693073449128
 30
0.0
 10
64.26698566775129
 20
4.444674454418554
 30
0.0
 10
63.89594134338986
 20
4.782584918099658
 30
0.0
 10
63.55644531119332
 20
5.150444641799784
 30
0.0
 10
63.26046443877193
 20
5.544600721691148
 30
0.0
 10
63.00948038038187
 20
5.957320214413732
 30
0.0
 10
62.80438445409114
 20
6.389748476463258
 30
0.0
 10
62.64201188973166
 20
6.839795045530214
 30
0.0
 10
62.53123663465313
 20
7.310461973555095
 30
0.0
 10
62.4595652222372
 20
7.799065914379629
 30
0.0
 10
62.4513061043119
 20
8.131741230536345
 30
0.0
 10
62.44711538461537
 20
8.300542428508008
 30
0.0
  0
SPLINE
  5
152
330
1F
100
AcDbEntity
  8
0
  6
Continuous
 62
     7
370
    15
100
AcDbSpline
210
0.0
220
0.0
230
1.0
 70
     8
 71
     3
 72
    23
 73
    19
 74
     0
 42
0.000000001
 43
0.00000001
 40
0.0
 40
0.0
 40
0.0
 40
0.0
 40
0.0692365237083661
 40
0.1365567393230026
 40
0.202094157267331
 40
0.2664642603660577
 40
0.3297688228727746
 40
0.391878965921428
 40
0.4532705931030387
 40
0.5141146640704631
 40
0.5743895103654868
 40
0.6341416638513266
 40
0.6939232874993251
 40
0.7541521963073881
 40
0.8144701641300353
 40
0.8756606301311731
 40
0.9373480106280028
 40
1.0
 40
1.0
 40
1.0
 40
1.0
 10
23.16984675480769
 20
37.08578882273878
 30
0.0
 10
23.06232274356728
 20
37.08733764552024
 30
0.0
 10
22.85025073897374
 20
37.09039242322277
 30
0.0
 10
22.53703899900315
 20
37.11210220444033
 30
0.0
 10
22.23246318871672
 20
37.14552291564775
 30
0.0
 10
21.93656767880911
 20
37.19599214453976
 30
0.0
 10
21.64826404759408
 20
37.25780845335395
 30
0.0
 10
21.36899217719661
 20
37.33696588089012
 30
0.0
 10
21.09768822205224
 20
37.42859284125775
 30
0.0
 10
20.83393284684123
 20
37.53281178121026
 30
0.0
 10
20.5801200445256
 20
37.65356607542962
 30
0.0
 10
20.3351193090515
 20
37.78775873717883
 30
0.0
 10
20.09757635258535
 20
37.93469781178497
 30
0.0
 10
19.86910925361618
 20
38.09692447050836
 30
0.0
 10
19.64852761231527
 20
38.27322530854272
 30
0.0
 10
19.43725374078917
 20
38.46395368805187
 30
0.0
 10
19.23410487262002
 20
38.66852652105887
 30
0.0
 10
19.10684961112581
 20
38.81379368289689
 30
0.0
 10
19.04272836538461
 20
38.8869907458157
 30
0.0
  0
SPLINE
  5
153
330
1F
100
AcDbEntity
  8
0
  6
Continuous
 62
     7
370
    15
100
AcDbSpline
210
0.0
220
0.0
230
1.0
 70
     8
 71
     3
 72
    23
 73
    19
 74
     0
 42
0.000000001
 43
0.00000001
 40
0.0
 40
0.0
 40
0.0
 40
0.0
 40
0.0652265038922758
 40
0.1285689957067291
 40
0.1903203781044674
 40
0.251377988624063
 40
0.3123875283336937
 40
0.3737887042767233
 40
0.4364311597804512
 40
0.5005667553098532
 40
0.5646867953847429
 40
0.627135517883513
 40
0.6884554088949809
 40
0.7492457464637479
 40
0.8101551773646798
 40
0.8716709256529238
 40
0.9347734961077241
 40
1.0
 40
1.0
 40
1.0
 40
1.0
 10
72.46057692307691
 20
8.34633569773878
 30
0.0
 10
72.45635889242206
 20
8.175001504439845
 30
0.0
 10
72.44804466533968
 20
7.837281960264251
 30
0.0
 10
72.37682820647508
 20
7.341591587199672
 30
0.0
 10
72.2651380565458
 20
6.865094763201615
 30
0.0
 10
72.1056725035774
 20
6.408586951007003
 30
0.0
 10
71.90095173718804
 20
5.971586581046497
 30
0.0
 10
71.64879730718168
 20
5.555243513696608
 30
0.0
 10
71.35177729794769
 20
5.159421257374938
 30
0.0
 10
71.0137572247785
 20
4.78845607558763
 30
0.0
 10
70.64527296044022
 20
4.448284387485749
 30
0.0
 10
70.25003916291013
 20
4.151869447232323
 30
0.0
 10
69.83694448512234
 20
3.896805936716798
 30
0.0
 10
69.40067306506009
 20
3.693287509711381
 30
0.0
 10
68.94701082198239
 20
3.530622497642994
 30
0.0
 10
68.47189749986298
 20
3.419717125914726
 30
0.0
 10
67.9775593777959
 20
3.348178815350184
 30
0.0
 10
67.64045328887603
 20
3.339964139764742
 30
0.0
 10
67.46911057692306
 20
3.335788822738779
 30
0.0
  0
SPLINE
  5
154
330
1F
100
AcDbEntity
  8
0
  6
Continuous
 62
     7
370
    15
100
AcDbSpline
210
0.0
220
0.0
230
1.0
 70
     8
 71
     3
 72
    23
 73
    19
 74
     0
 42
0.000000001
 43
0.00000001
 40
0.0
 40
0.0
 40
0.0
 40
0.0
 40
0.0642168426314309
 40
0.1270637656931281
 40
0.1887445383478301
 40
0.2491321028350405
 40
0.3094525327106266
 40
0.3698266762476808
 40
0.4306501418384677
 40
0.4923519318794689
 40
0.5540721062625167
 40
0.6156897837449734
 40
0.6767977025065387
 40
0.738439048246941
 40
0.8013169100648925
 40
0.8651845117115415
 40
0.9316413244190757
 40
1.0
 40
1.0
 40
1.0
 40
1.0
 10
45.01896033653846
 20
29.8502719958157
 30
0.0
 10
45.08864693508227
 20
29.83305415578511
 30
0.0
 10
45.22653352785893
 20
29.79898577898957
 30
0.0
 10
45.4250619218675
 20
29.72697786531951
 30
0.0
 10
45.61424018919331
 20
29.64364874401943
 30
0.0
 10
45.79328249681166
 20
29.54577604801093
 30
0.0
 10
45.96129204283704
 20
29.4326332547593
 30
0.0
 10
46.1200011600711
 20
29.30617357870362
 30
0.0
 10
46.27013002826942
 20
29.16708896871398
 30
0.0
 10
46.40560717897456
 20
29.01187272148174
 30
0.0
 10
46.53334845537187
 20
28.84903193442404
 30
0.0
 10
46.64108607463416
 20
28.67294528187768
 30
0.0
 10
46.73395885159322
 20
28.48880926768733
 30
0.0
 10
46.80790147285791
 20
28.29475122365277
 30
0.0
 10
46.86744081495271
 20
28.09265311594093
 30
0.0
 10
46.90942222352651
 20
27.88068431913331
 30
0.0
 10
46.93459866986464
 20
27.65981052265496
 30
0.0
 10
46.93716186247813
 20
27.50915792801492
 30
0.0
 10
46.93846153846152
 20
27.43276899100801
 30
0.0
  0
SPLINE
  5
155
330
1F
100
AcDbEntity
  8
0
  6
Continuous
 62
     7
370
    15
100
AcDbSpline
210
0.0
220
0.0
230
1.0
 70
     8
 71
     3
 72
    15
 73
    11
 74
     0
 42
0.000000001
 43
0.00000001
 40
0.0
 40
0.0
 40
0.0
 40
0.0
 40
0.1305691070873109
 40
0.2565806086940839
 40
0.3805516168036839
 40
0.50362291720071
 40
0.6257393231697884
 40
0.747548581959628
 40
0.871766118564874
 40
1.0
 40
1.0
 40
1.0
 40
1.0
 10
38.26826923076922
 20
27.61975817370032
 30
0.0
 10
38.26529411486483
 20
27.51456800431959
 30
0.0
 10
38.25944773154559
 20
27.30785940156954
 30
0.0
 10
38.20354207936143
 20
27.0055247184476
 30
0.0
 10
38.11601911739385
 20
26.71773033006749
 30
0.0
 10
37.99435697502625
 20
26.44552655261149
 30
0.0
 10
37.83623654251572
 20
26.19506364826513
 30
0.0
 10
37.64884354671995
 20
25.96432115995681
 30
0.0
 10
37.4227559627981
 20
25.76306864056342
 30
0.0
 10
37.25336543111668
 20
25.65055688433609
 30
0.0
 10
37.16732271634614
 20
25.59340601023878
 30
0.0
  0
SPLINE
  5
156
330
1F
100
AcDbEntity
  8
0
  6
Continuous
 62
     7
370
    15
100
AcDbSpline
210
0.0
220
0.0
230
1.0
 70
     8
 71
     3
 72
    23
 73
    19
 74
     0
 42
0.000000001
 43
0.00000001
 40
0.0
 40
0.0
 40
0.0
 40
0.0
 40
0.0616169448204975
 40
0.122179160819156
 40
0.182216270448318
 40
0.2418641286611213
 40
0.3009600556026175
 40
0.3599690678733912
 40
0.419032918137868
 40
0.4780686870130225
 40
0.5379925810732205
 40
0.5989602303291965
 40
0.6613210788822629
 40
0.7252475688866915
 40
0.791220154152248
 40
0.8587459718448148
 40
0.9283175814122138
 40
1.0
 40
1.0
 40
1.0
 40
1.0
 10
22.9981219951923
 20
47.09925036120031
 30
0.0
 10
23.09674178687484
 20
47.09767331581165
 30
0.0
 10
23.29229324472518
 20
47.09454622012841
 30
0.0
 10
23.58328398765439
 20
47.07287099930802
 30
0.0
 10
23.8697769775081
 20
47.03851600856257
 30
0.0
 10
24.15219700996163
 20
46.99163453933298
 30
0.0
 10
24.42958233519129
 20
46.92777978159911
 30
0.0
 10
24.70272315495185
 20
46.85136673551671
 30
0.0
 10
24.97201541431091
 20
46.76239827552017
 30
0.0
 10
25.23661514953811
 20
46.65629291512278
 30
0.0
 10
25.49830150530882
 20
46.53585983586056
 30
0.0
 10
25.75852951402634
 20
46.40029616488682
 30
0.0
 10
26.01641003343628
 20
46.24728383085662
 30
0.0
 10
26.27239027574686
 20
46.07636849488637
 30
0.0
 10
26.52808443193229
 20
45.8904856220157
 30
0.0
 10
26.77944820862396
 20
45.68431883766415
 30
0.0
 10
27.03254907832441
 20
45.46599833781666
 30
0.0
 10
27.19529544415064
 20
45.30902039447687
 30
0.0
 10
27.27788461538461
 20
45.22935853427724
 30
0.0
  0
SPLINE
  5
157
330
1F
100
AcDbEntity
  8
0
  6
Continuous
 62
     7
370
    15
100
AcDbSpline
210
0.0
220
0.0
230
1.0
 70
     8
 71
     3
 72
    23
 73
    19
 74
     0
 42
0.000000001
 43
0.00000001
 40
0.0
 40
0.0
 40
0.0
 40
0.0
 40
0.0658188768433071
 40
0.1297465269068311
 40
0.1920719544880062
 40
0.2534594242982026
 40
0.3145695877964209
 40
0.3762798811880262
 40
0.4390256536685596
 40
0.5032670288290854
 40
0.5674928228792947
 40
0.6297047956052453
 40
0.6909996492157555
 40
0.7514516509174471
 40
0.8120043642646947
 40
0.873149681068043
 40
0.9356354837317857
 40
1.0
 40
1.0
 40
1.0
 40
1.0
 10
48.41911057692307
 20
3.335788822738779
 30
0.0
 10
48.24650582312864
 20
3.34000536839224
 30
0.0
 10
47.9062559068964
 20
3.348317302298113
 30
0.0
 10
47.40677297489862
 20
3.419568125366534
 30
0.0
 10
46.92704568628429
 20
3.530986959282695
 30
0.0
 10
46.46844591619927
 20
3.690216210706025
 30
0.0
 10
46.03071792922053
 20
3.896003102892905
 30
0.0
 10
45.61300563274467
 20
4.146930734491288
 30
0.0
 10
45.2169856677513
 20
4.444674454418554
 30
0.0
 10
44.84594134338985
 20
4.782584918099658
 30
0.0
 10
44.5064453111933
 20
5.150444641799777
 30
0.0
 10
44.21046443877196
 20
5.544600721691162
 30
0.0
 10
43.95948038038186
 20
5.957320214413725
 30
0.0
 10
43.75438445409118
 20
6.389748476463272
 30
0.0
 10
43.59201188973164
 20
6.839795045530208
 30
0.0
 10
43.48123663465312
 20
7.310461973555095
 30
0.0
 10
43.40956522223719
 20
7.799065914379629
 30
0.0
 10
43.40130610431193
 20
8.131741230536345
 30
0.0
 10
43.39711538461538
 20
8.300542428508008
 30
0.0
  0
SPLINE
  5
158
330
1F
100
AcDbEntity
  8
0
  6
Continuous
 62
     7
370
    15
100
AcDbSpline
210
0.0
220
0.0
230
1.0
 70
     8
 71
     3
 72
    31
 73
    27
 74
     0
 42
0.000000001
 43
0.00000001
 40
0.0
 40
0.0
 40
0.0
 40
0.0
 40
0.043208986171337
 40
0.0858728716306187
 40
0.1281200066967028
 40
0.1701519644541993
 40
0.2119176209878615
 40
0.2537530026191241
 40
0.2960064088559509
 40
0.3384433571447841
 40
0.3810153681620339
 40
0.422820479440761
 40
0.4640890557943137
 40
0.5051258486836862
 40
0.5459749706852414
 40
0.58698521113386
 40
0.6283385916346623
 40
0.6700838015912061
 40
0.7119916023637224
 40
0.7530391548630191
 40
0.7940493953116378
 40
0.8348855427015819
 40
0.8754983129295132
 40
0.9165472998303791
 40
0.9580037786449612
 40
1.0
 40
1.0
 40
1.0
 40
1.0
 10
43.39711538461538
 20
8.300542428508008
 30
0.0
 10
43.39857035695429
 20
8.413842763801332
 30
0.0
 10
43.40146194650445
 20
8.63901409991576
 30
0.0
 10
43.43627362386604
 20
8.97338677604461
 30
0.0
 10
43.48678796786434
 20
9.302382066110518
 30
0.0
 10
43.5591831727309
 20
9.625064431641976
 30
0.0
 10
43.65386620931556
 20
9.940643968581805
 30
0.0
 10
43.76558636957052
 20
10.25129711601501
 30
0.0
 10
43.90203837729344
 20
10.5538756784936
 30
0.0
 10
44.05629071231346
 20
10.84981305165032
 30
0.0
 10
44.22845320414702
 20
11.1344959953905
 30
0.0
 10
44.41861506515561
 20
11.4035897181089
 30
0.0
 10
44.62009703220033
 20
11.65935228792348
 30
0.0
 10
44.8409774105738
 20
11.89515591979971
 30
0.0
 10
45.07397645071294
 20
12.11786037040374
 30
0.0
 10
45.3228738940639
 20
12.32404319315164
 30
0.0
 10
45.58615100194447
 20
12.51556359539767
 30
0.0
 10
45.86494062116366
 20
12.6881575236237
 30
0.0
 10
46.15237321208588
 20
12.84425631139966
 30
0.0
 10
46.44867358589976
 20
12.9782100630027
 30
0.0
 10
46.74981754121153
 20
13.0931797018278
 30
0.0
 10
47.05721554735165
 20
13.18636366182832
 30
0.0
 10
47.37005130565598
 20
13.25992941692084
 30
0.0
 10
47.68900759081502
 20
13.31002371522849
 30
0.0
 10
48.01383030090406
 20
13.34492418033656
 30
0.0
 10
48.23266396176079
 20
13.34780209646461
 30
0.0
 10
48.34278846153845
 20
13.34925036120032
 30
0.0
  0
SPLINE
  5
159
330
1F
100
AcDbEntity
  8
0
  6
Continuous
 62
     7
370
    15
100
AcDbSpline
210
0.0
220
0.0
230
1.0
 70
     8
 71
     3
 72
    15
 73
    11
 74
     0
 42
0.000000001
 43
0.00000001
 40
0.0
 40
0.0
 40
0.0
 40
0.0
 40
0.1285151895116615
 40
0.2529486363526578
 40
0.3747547340060046
 40
0.4959397538670496
 40
0.6171806414298926
 40
0.7409094692781378
 40
0.867811148186203
 40
0.9999999999999999
 40
0.9999999999999999
 40
0.9999999999999999
 40
0.9999999999999999
 10
7.86344651442307
 20
21.18771189966186
 30
0.0
 10
8.029733118041332
 20
21.19230779312682
 30
0.0
 10
8.357024933030539
 20
21.20135361089515
 30
0.0
 10
8.83699791900222
 20
21.27798699600811
 30
0.0
 10
9.296472395463399
 20
21.40224175811627
 30
0.0
 10
9.735473077408262
 20
21.57613538957061
 30
0.0
 10
10.15276236458001
 20
21.80219163736306
 30
0.0
 10
10.54899327584953
 20
22.07623371802179
 30
0.0
 10
10.92450026414957
 20
22.40086839503461
 30
0.0
 10
11.15030068223575
 20
22.64874462264882
 30
0.0
 10
11.2655048076923
 20
22.77521189966185
 30
0.0
  0
SPLINE
  5
15A
330
1F
100
AcDbEntity
  8
0
  6
Continuous
 62
     7
370
    15
100
AcDbSpline
210
0.0
220
0.0
230
1.0
 70
     8
 71
     3
 72
    23
 73
    19
 74
     0
 42
0.000000001
 43
0.00000001
 40
0.0
 40
0.0
 40
0.0
 40
0.0
 40
0.0645578459297187
 40
0.1270135315497588
 40
0.1879548102020903
 40
0.2480139127896339
 40
0.3077476818488373
 40
0.3682345146974849
 40
0.4294698439426692
 40
0.492743436746585
 40
0.5562577687060832
 40
0.6182167855431437
 40
0.6796554755875549
 40
0.7412455456206296
 40
0.8034152647056968
 40
0.8668154615439921
 40
0.9323283119492652
 40
1.0
 40
1.0
 40
1.0
 40
1.0
 10
2.732692307692304
 20
25.2728531256234
 30
0.0
 10
2.736924655872615
 20
25.44418189561788
 30
0.0
 10
2.745251536693812
 20
25.78126055460482
 30
0.0
 10
2.815997237227634
 20
26.27594538462735
 30
0.0
 10
2.929804104005888
 20
26.74988597722085
 30
0.0
 10
3.091448493682272
 20
27.20219759642072
 30
0.0
 10
3.296386628306211
 20
27.63525928762369
 30
0.0
 10
3.54955191311232
 20
28.04576285224235
 30
0.0
 10
3.848003207300596
 20
28.43633357130762
 30
0.0
 10
4.189399802211009
 20
28.80104514448164
 30
0.0
 10
4.563779478991052
 20
29.13452723983222
 30
0.0
 10
4.964697108217584
 20
29.42791412289018
 30
0.0
 10
5.391367978193097
 20
29.67207393428767
 30
0.0
 10
5.839091560253078
 20
29.87617063346162
 30
0.0
 10
6.311220450802249
 20
30.03304592242415
 30
0.0
 10
6.806747333922184
 20
30.14286423762494
 30
0.0
 10
7.3247410948626
 20
30.21121867552812
 30
0.0
 10
7.67815241037971
 20
30.21985977703511
 30
0.0
 10
7.857722355769224
 20
30.22425036120032
 30
0.0
  0
SPLINE
  5
15B
330
1F
100
AcDbEntity
  8
0
  6
Continuous
 62
     7
370
    15
100
AcDbSpline
210
0.0
220
0.0
230
1.0
 70
     8
 71
     3
 72
    23
 73
    19
 74
     0
 42
0.000000001
 43
0.00000001
 40
0.0
 40
0.0
 40
0.0
 40
0.0
 40
0.0652265038922758
 40
0.1285689957067296
 40
0.1903203781044675
 40
0.2513779886240631
 40
0.3123875283336953
 40
0.3737887042767235
 40
0.436431159780451
 40
0.5005667553098527
 40
0.5646867953847429
 40
0.6271355178835128
 40
0.688455408894981
 40
0.7492457464637481
 40
0.81015517736468
 40
0.8716709256529239
 40
0.9347734961077242
 40
1.0
 40
1.0
 40
1.0
 40
1.0
 10
77.22307692307692
 20
25.22133569773878
 30
0.0
 10
77.21885889242209
 20
25.05000150443985
 30
0.0
 10
77.21054466533967
 20
24.71228196026425
 30
0.0
 10
77.13932820647506
 20
24.21659158719966
 30
0.0
 10
77.0276380565458
 20
23.74009476320162
 30
0.0
 10
76.8681725035774
 20
23.28358695100699
 30
0.0
 10
76.66345173718801
 20
22.84658658104652
 30
0.0
 10
76.41129730718166
 20
22.43024351369659
 30
0.0
 10
76.11427729794772
 20
22.03442125737495
 30
0.0
 10
75.77625722477846
 20
21.66345607558763
 30
0.0
 10
75.40777296044024
 20
21.32328438748576
 30
0.0
 10
75.01253916291012
 20
21.02686944723232
 30
0.0
 10
74.59944448512235
 20
20.7718059367168
 30
0.0
 10
74.16317306506008
 20
20.56828750971138
 30
0.0
 10
73.7095108219824
 20
20.40562249764299
 30
0.0
 10
73.234397499863
 20
20.29471712591473
 30
0.0
 10
72.7400593777959
 20
20.22317881535018
 30
0.0
 10
72.40295328887602
 20
20.21496413976474
 30
0.0
 10
72.23161057692306
 20
20.21078882273878
 30
0.0
  0
SPLINE
  5
15C
330
1F
100
AcDbEntity
  8
0
  6
Continuous
 62
     7
370
    15
100
AcDbSpline
210
0.0
220
0.0
230
1.0
 70
     8
 71
     3
 72
    23
 73
    19
 74
     0
 42
0.000000001
 43
0.00000001
 40
0.0
 40
0.0
 40
0.0
 40
0.0
 40
0.0787802355821392
 40
0.1537206442085846
 40
0.2267135303087808
 40
0.2991911660659362
 40
0.3711899968376683
 40
0.4430064143534092
 40
0.5166891732948807
 40
0.5932172166234121
 40
0.6338729178078455
 40
0.6769891422899792
 40
0.7228995063258273
 40
0.7719586105061443
 40
0.8242113233348358
 40
0.8793786506272022
 40
0.9379481193304182
 40
1.0
 40
1.0
 40
1.0
 40
1.0
 10
9.204807692307686
 20
44.30776899100801
 30
0.0
 10
9.200809918883841
 20
44.18085488488822
 30
0.0
 10
9.193009227484893
 20
43.93321259227855
 30
0.0
 10
9.120278766755703
 20
43.57381833644469
 30
0.0
 10
9.001144095208149
 20
43.23856741588749
 30
0.0
 10
8.836978572975662
 20
42.92788195127468
 30
0.0
 10
8.627919856926832
 20
42.64781798068749
 30
0.0
 10
8.376664532566975
 20
42.40182681303904
 30
0.0
 10
8.083072432727233
 20
42.19597819377405
 30
0.0
 10
7.809761222921319
 20
42.05323163240784
 30
0.0
 10
7.568331865175463
 20
41.96181093107901
 30
0.0
 10
7.369576921088063
 20
41.89748626875552
 30
0.0
 10
7.152768932331563
 20
41.84778763467999
 30
0.0
 10
6.919985186011286
 20
41.80326470464722
 30
0.0
 10
6.670256952136342
 20
41.76965045057012
 30
0.0
 10
6.404182773512866
 20
41.7450307899071
 30
0.0
 10
6.121572889433838
 20
41.72964370023535
 30
0.0
 10
5.927428707837072
 20
41.72735224407332
 30
0.0
 10
5.827554086538456
 20
41.7261734381234
 30
0.0
  0
SPLINE
  5
15D
330
1F
100
AcDbEntity
  8
0
  6
Continuous
 62
     7
370
    15
100
AcDbSpline
210
0.0
220
0.0
230
1.0
 70
     8
 71
     3
 72
    31
 73
    27
 74
     0
 42
0.000000001
 43
0.00000001
 40
0.0
 40
0.0
 40
0.0
 40
0.0
 40
0.0428411974873112
 40
0.0855712844305989
 40
0.1277186681017326
 40
0.1700683868047386
 40
0.2127872447033998
 40
0.2554815926170277
 40
0.2988770906153877
 40
0.3428605721330523
 40
0.3865275858180489
 40
0.4295323755470743
 40
0.4718862134718289
 40
0.5137293024191333
 40
0.5550817062540608
 40
0.5965352369663128
 40
0.6381200747249026
 40
0.6798222124149974
 40
0.7213314680361207
 40
0.7618883644915522
 40
0.8021993285625478
 40
0.841806293179727
 40
0.8810604121451827
 40
0.9206332256982777
 40
0.9601011987284023
 40
0.9999999999999999
 40
0.9999999999999999
 40
0.9999999999999999
 40
0.9999999999999999
 10
22.96950120192307
 20
46.12232728427724
 30
0.0
 10
22.87720476851492
 20
46.12120168537869
 30
0.0
 10
22.69285127658842
 20
46.1189534068722
 30
0.0
 10
22.41901584313898
 20
46.0902580781842
 30
0.0
 10
22.14805235234733
 20
46.04898798394292
 30
0.0
 10
21.88047231105505
 20
45.98927473098883
 30
0.0
 10
21.61575545317496
 20
45.91359436193313
 30
0.0
 10
21.35482245366959
 20
45.81892820840984
 30
0.0
 10
21.09718656684962
 20
45.70856000796286
 30
0.0
 10
20.84527458911212
 20
45.58102713303802
 30
0.0
 10
20.60105221877437
 20
45.44092840811031
 30
0.0
 10
20.37039254461951
 20
45.28567487980506
 30
0.0
 10
20.15182536628838
 20
45.12024253029807
 30
0.0
 10
19.94945878021936
 20
44.94048950746699
 30
0.0
 10
19.76212873640532
 20
44.74804405260877
 30
0.0
 10
19.58537638146184
 20
44.54648605523948
 30
0.0
 10
19.42541816894464
 20
44.33030878181843
 30
0.0
 10
19.28093435585988
 20
44.10348961388004
 30
0.0
 10
19.15204309434831
 20
43.87001229873187
 30
0.0
 10
19.03826383008093
 20
43.6321240911032
 30
0.0
 10
18.94274961165992
 20
43.3906140301595
 30
0.0
 10
18.8671770225972
 20
43.14517906181125
 30
0.0
 10
18.80482731451383
 20
42.89771795628101
 30
0.0
 10
18.76096439785982
 20
42.64651725279499
 30
0.0
 10
18.7362355324963
 20
42.39130798044258
 30
0.0
 10
18.73195804555973
 20
42.22040972723199
 30
0.0
 10
18.72980769230768
 20
42.13449675543109
 30
0.0
  0
SPLINE
  5
15E
330
1F
100
AcDbEntity
  8
0
  6
Continuous
 62
     7
370
    15
100
AcDbSpline
210
0.0
220
0.0
230
1.0
 70
     8
 71
     3
 72
    19
 73
    15
 74
     0
 42
0.000000001
 43
0.00000001
 40
0.0
 40
0.0
 40
0.0
 40
0.0
 40
0.1060574933033978
 40
0.2029142570846099
 40
0.2903001653958386
 40
0.3702225656250399
 40
0.4463837207709709
 40
0.5213968999648282
 40
0.5982910828464577
 40
0.6761424688569281
 40
0.755528699556022
 40
0.8348871724576575
 40
0.9166460487466416
 40
0.9999999999999999
 40
0.9999999999999999
 40
0.9999999999999999
 40
0.9999999999999999
 10
59.14809194711538
 20
8.71840601023878
 30
0.0
 10
59.25629711078408
 20
8.676863405978938
 30
0.0
 10
59.46332039329501
 20
8.597382113161352
 30
0.0
 10
59.74821589855626
 20
8.45685988614081
 30
0.0
 10
59.99367472672434
 20
8.304018714289999
 30
0.0
 10
60.20158410258401
 20
8.137108464970371
 30
0.0
 10
60.37939586346431
 20
7.95719805846297
 30
0.0
 10
60.5346613687448
 20
7.76164949754423
 30
0.0
 10
60.66714425128266
 20
7.54791187789218
 30
0.0
 10
60.7806629932719
 20
7.318213685227365
 30
0.0
 10
60.86924210788609
 20
7.074900367770448
 30
0.0
 10
60.93557939049231
 20
6.820254184248295
 30
0.0
 10
60.97359080564047
 20
6.555188251897951
 30
0.0
 10
60.97900002940471
 20
6.374797326698197
 30
0.0
 10
60.98173076923076
 20
6.283730529469553
 30
0.0
  0
SPLINE
  5
15F
330
1F
100
AcDbEntity
  8
0
  6
Continuous
 62
     7
370
    15
100
AcDbSpline
210
0.0
220
0.0
230
1.0
 70
     8
 71
     3
 72
    15
 73
    11
 74
     0
 42
0.000000001
 43
0.00000001
 40
0.0
 40
0.0
 40
0.0
 40
0.0
 40
0.1305691070873108
 40
0.2565806086940837
 40
0.3805516168036837
 40
0.5036229172007097
 40
0.6257393231697881
 40
0.7475485819596258
 40
0.8717661185648716
 40
1.0
 40
1.0
 40
1.0
 40
1.0
 10
60.24903846153845
 20
10.74475817370032
 30
0.0
 10
60.24606334563406
 20
10.6395680043196
 30
0.0
 10
60.24021696231482
 20
10.43285940156954
 30
0.0
 10
60.18431131013067
 20
10.1305247184476
 30
0.0
 10
60.09678834816306
 20
9.84273033006748
 30
0.0
 10
59.97512620579548
 20
9.57052655261149
 30
0.0
 10
59.81700577328494
 20
9.320063648265126
 30
0.0
 10
59.62961277748921
 20
9.089321159956823
 30
0.0
 10
59.4035251935673
 20
8.88806864056341
 30
0.0
 10
59.23413466188592
 20
8.775556884336087
 30
0.0
 10
59.14809194711538
 20
8.71840601023878
 30
0.0
  0
SPLINE
  5
160
330
1F
100
AcDbEntity
  8
0
  6
Continuous
 62
     7
370
    15
100
AcDbSpline
210
0.0
220
0.0
230
1.0
 70
     8
 71
     3
 72
    23
 73
    19
 74
     0
 42
0.000000001
 43
0.00000001
 40
0.0
 40
0.0
 40
0.0
 40
0.0
 40
0.0642168426314301
 40
0.1270637656931286
 40
0.1887445383478303
 40
0.2491321028350411
 40
0.3094525327106271
 40
0.3698266762476813
 40
0.4306501418384682
 40
0.4923519318794694
 40
0.5540721062625165
 40
0.6156897837449739
 40
0.6767977025065385
 40
0.7384390482469408
 40
0.8013169100648926
 40
0.8651845117115413
 40
0.9316413244190755
 40
0.9999999999999999
 40
0.9999999999999999
 40
0.9999999999999999
 40
0.9999999999999999
 10
7.285306490384606
 20
46.7252719958157
 30
0.0
 10
7.354993088928431
 20
46.70805415578511
 30
0.0
 10
7.492879681705089
 20
46.67398577898957
 30
0.0
 10
7.691408075713654
 20
46.60197786531951
 30
0.0
 10
7.88058634303946
 20
46.51864874401942
 30
0.0
 10
8.059628650657839
 20
46.42077604801094
 30
0.0
 10
8.227638196683186
 20
46.30763325475927
 30
0.0
 10
8.386347313917248
 20
46.18117357870361
 30
0.0
 10
8.536476182115601
 20
46.04208896871397
 30
0.0
 10
8.671953332820719
 20
45.88687272148175
 30
0.0
 10
8.799694609218028
 20
45.72403193442404
 30
0.0
 10
8.907432228480324
 20
45.54794528187771
 30
0.0
 10
9.000305005439378
 20
45.36380926768733
 30
0.0
 10
9.074247626704071
 20
45.16975122365278
 30
0.0
 10
9.133786968798866
 20
44.96765311594093
 30
0.0
 10
9.175768377372663
 20
44.75568431913331
 30
0.0
 10
9.200944823710797
 20
44.53481052265497
 30
0.0
 10
9.203508016324296
 20
44.38415792801492
 30
0.0
 10
9.204807692307686
 20
44.30776899100801
 30
0.0
  0
SPLINE
  5
161
330
1F
100
AcDbEntity
  8
0
  6
Continuous
 62
     7
370
    15
100
AcDbSpline
210
0.0
220
0.0
230
1.0
 70
     8
 71
     3
 72
    23
 73
    19
 74
     0
 42
0.000000001
 43
0.00000001
 40
0.0
 40
0.0
 40
0.0
 40
0.0
 40
0.0665700352151801
 40
0.1307490414821782
 40
0.1934128000295039
 40
0.2549893988897077
 40
0.3161135558758988
 40
0.3772617579089854
 40
0.439400784155553
 40
0.5029705893719754
 40
0.566524976360731
 40
0.6282311025133094
 40
0.6890906105998623
 40
0.7493446689958044
 40
0.8101695933722064
 40
0.8716098243170433
 40
0.9348691840727636
 40
1.0
 40
1.0
 40
1.0
 40
1.0
 10
67.39278846153846
 20
13.34925036120032
 30
0.0
 10
67.56915909261674
 20
13.34478319234049
 30
0.0
 10
67.91556556340429
 20
13.33600930413879
 30
0.0
 10
68.4246765350674
 20
13.26884688660596
 30
0.0
 10
68.91071033009186
 20
13.15265443248127
 30
0.0
 10
69.37762620783094
 20
12.99790588730157
 30
0.0
 10
69.81983923692285
 20
12.79147359565816
 30
0.0
 10
70.24067793720081
 20
12.54195901339135
 30
0.0
 10
70.63914100096898
 20
12.24674807919921
 30
0.0
 10
71.00985776069989
 20
11.90812282612449
 30
0.0
 10
71.34910274682773
 20
11.53968642657808
 30
0.0
 10
71.64798605160344
 20
11.14650011416535
 30
0.0
 10
71.8984725795447
 20
10.73094123074504
 30
0.0
 10
72.10417390033012
 20
10.2942585416415
 30
0.0
 10
72.26555083099693
 20
9.83743962879622
 30
0.0
 10
72.37690908561198
 20
9.35804909276432
 30
0.0
 10
72.44804219424255
 20
8.859193029068242
 30
0.0
 10
72.45635827418712
 20
8.5189413472129
 30
0.0
 10
72.46057692307691
 20
8.34633569773878
 30
0.0
  0
SPLINE
  5
162
330
1F
100
AcDbEntity
  8
0
  6
Continuous
 62
     7
370
    15
100
AcDbSpline
210
0.0
220
0.0
230
1.0
 70
     8
 71
     3
 72
    31
 73
    27
 74
     0
 42
0.000000001
 43
0.00000001
 40
0.0
 40
0.0
 40
0.0
 40
0.0
 40
0.0460806833872483
 40
0.090806799607616
 40
0.1342952705290701
 40
0.1770243856662445
 40
0.2188227336826558
 40
0.2602441163273734
 40
0.3010798671134454
 40
0.3416138942851576
 40
0.3815834185517463
 40
0.4201195913296165
 40
0.4580746185423132
 40
0.4947384876076566
 40
0.5311946228937143
 40
0.5669336984503781
 40
0.6027126507379954
 40
0.638326606128435
 40
0.6748532488548247
 40
0.7134673707840604
 40
0.7544418038483813
 40
0.7978153607124994
 40
0.8439894562081109
 40
0.8930715698796484
 40
0.9449633461781445
 40
1.0
 40
1.0
 40
1.0
 40
1.0
 10
54.50961538461537
 20
41.97231226023878
 30
0.0
 10
54.5079036945472
 20
41.85457988978567
 30
0.0
 10
54.50453063048683
 20
41.62257595700495
 30
0.0
 10
54.4742429922997
 20
41.28065323395762
 30
0.0
 10
54.43022029274459
 20
40.94887415765585
 30
0.0
 10
54.36206429720231
 20
40.62881864539671
 30
0.0
 10
54.27932602849106
 20
40.31768256672244
 30
0.0
 10
54.1732878739002
 20
40.01878195889768
 30
0.0
 10
54.05181555930699
 20
39.72937487778539
 30
0.0
 10
53.91016553266128
 20
39.45337446120588
 30
0.0
 10
53.7546593348926
 20
39.19189042649054
 30
0.0
 10
53.58777659090013
 20
38.94539559639505
 30
0.0
 10
53.40969529843014
 20
38.71740731418007
 30
0.0
 10
53.21871732601311
 20
38.50723516285039
 30
0.0
 10
53.01731061196179
 20
38.31519598164979
 30
0.0
 10
52.80415654091766
 20
38.13968556845509
 30
0.0
 10
52.57870509559733
 20
37.9841380870472
 30
0.0
 10
52.34196605722859
 20
37.8424411711114
 30
0.0
 10
52.08703316276648
 20
37.71883291787956
 30
0.0
 10
51.80907769834393
 20
37.61424839119968
 30
0.0
 10
51.50691427826397
 20
37.5275801022256
 30
0.0
 10
51.18128458121513
 20
37.45526930723786
 30
0.0
 10
50.83162597393611
 20
37.39790893361129
 30
0.0
 10
50.45759564551436
 20
37.35946496562008
 30
0.0
 10
50.05976826428827
 20
37.33346734164756
 30
0.0
 10
49.78659326388289
 20
37.33119115685795
 30
0.0
 10
49.64598858173076
 20
37.33001959196955
 30
0.0
  0
SPLINE
  5
163
330
1F
100
AcDbEntity
  8
0
  6
Continuous
 62
     7
370
    15
100
AcDbSpline
210
0.0
220
0.0
230
1.0
 70
     8
 71
     3
 72
    23
 73
    19
 74
     0
 42
0.000000001
 43
0.00000001
 40
0.0
 40
0.0
 40
0.0
 40
0.0
 40
0.0616742388774257
 40
0.1230530616348057
 40
0.1834750007317017
 40
0.2437265005106112
 40
0.3042789165122534
 40
0.3648629209606828
 40
0.4259462039686194
 40
0.4873912299654075
 40
0.5492203840754766
 40
0.611143588692603
 40
0.6735285303101516
 40
0.7369614566573038
 40
0.8007852828728401
 40
0.8660125956416145
 40
0.9321007477905788
 40
1.0
 40
1.0
 40
1.0
 40
1.0
 10
12.01346153846154
 20
22.20852019293109
 30
0.0
 10
11.95326868228506
 20
22.13085483448265
 30
0.0
 10
11.83317129031271
 20
21.97589613026516
 30
0.0
 10
11.63870340122836
 20
21.75744240594468
 30
0.0
 10
11.43384161331577
 20
21.55196356647919
 30
0.0
 10
11.2170642882256
 20
21.3611162544244
 30
0.0
 10
10.99086515539938
 20
21.18108160159979
 30
0.0
 10
10.75118264823285
 20
21.01697447505664
 30
0.0
 10
10.50116763834354
 20
20.86650428283104
 30
0.0
 10
10.24166723503607
 20
20.72872672398028
 30
0.0
 10
9.972957153059944
 20
20.60648764457794
 30
0.0
 10
9.695359369396375
 20
20.50183846222968
 30
0.0
 10
9.410070446060494
 20
20.41169144143043
 30
0.0
 10
9.117077341024773
 20
20.33752724220329
 30
0.0
 10
8.815772317088667
 20
20.27963950680481
 30
0.0
 10
8.50724266973503
 20
20.24094167740587
 30
0.0
 10
8.190822509317519
 20
20.21442975312248
 30
0.0
 10
7.977349784682487
 20
20.2120133536444
 30
0.0
 10
7.869170673076916
 20
20.21078882273878
 30
0.0
  0
SPLINE
  5
164
330
1F
100
AcDbEntity
  8
0
  6
Continuous
 62
     7
370
    15
100
AcDbSpline
210
0.0
220
0.0
230
1.0
 70
     8
 71
     3
 72
    23
 73
    19
 74
     0
 42
0.000000001
 43
0.00000001
 40
0.0
 40
0.0
 40
0.0
 40
0.0
 40
0.0706300675154715
 40
0.1386936125963033
 40
0.2049177148347009
 40
0.2694408834246984
 40
0.3326363346470518
 40
0.3953016944998471
 40
0.4577639314714212
 40
0.5206570204257414
 40
0.5828516518872642
 40
0.6433151976010489
 40
0.7025802319030138
 40
0.760907538627683
 40
0.8194896127674753
 40
0.878269075923359
 40
0.938491310536131
 40
1.0
 40
1.0
 40
1.0
 40
1.0
 10
23.24426081730769
 20
38.06271189966186
 30
0.0
 10
23.36775474799503
 20
38.06529338234233
 30
0.0
 10
23.61025514454346
 20
38.07036254299025
 30
0.0
 10
23.96672539219272
 20
38.10982404482572
 30
0.0
 10
24.30908946323931
 20
38.17145567614809
 30
0.0
 10
24.6363853449586
 20
38.26171429498581
 30
0.0
 10
24.94899317987312
 20
38.37684072479941
 30
0.0
 10
25.24805897020502
 20
38.51562102654214
 30
0.0
 10
25.53122812695961
 20
38.68337820874639
 30
0.0
 10
25.79935190641339
 20
38.87271851845788
 30
0.0
 10
26.04634110405325
 20
39.08366959829588
 30
0.0
 10
26.26910125604021
 20
39.31130200839676
 30
0.0
 10
26.46407933741701
 20
39.55451081836473
 30
0.0
 10
26.63418141182618
 20
39.81186356928851
 30
0.0
 10
26.77490282120011
 20
40.08549043506635
 30
0.0
 10
26.89040785636582
 20
40.37405048003732
 30
0.0
 10
26.97894488571268
 20
40.67767349466401
 30
0.0
 10
27.01528949581688
 20
40.88747286385929
 30
0.0
 10
27.03365384615384
 20
40.99348113043109
 30
0.0
  0
SPLINE
  5
165
330
1F
100
AcDbEntity
  8
0
  6
Continuous
 62
     7
370
    15
100
AcDbSpline
210
0.0
220
0.0
230
1.0
 70
     8
 71
     3
 72
    15
 73
    11
 74
     0
 42
0.000000001
 43
0.00000001
 40
0.0
 40
0.0
 40
0.0
 40
0.0
 40
0.1762577548177998
 40
0.338434413880475
 40
0.4848220507878362
 40
0.6171575782663317
 40
0.7346983606124761
 40
0.8373851838323602
 40
0.9263724209295836
 40
1.0
 40
1.0
 40
1.0
 40
1.0
 10
5.127298677884612
 20
46.85501959196955
 30
0.0
 10
5.254501320482281
 20
46.85459617581641
 30
0.0
 10
5.498744484909807
 20
46.85378316989922
 30
0.0
 10
5.848647456388523
 20
46.84924991512773
 30
0.0
 10
6.166584056081913
 20
46.83625684709321
 30
0.0
 10
6.452388047366406
 20
46.82507563063046
 30
0.0
 10
6.70605418698049
 20
46.80468684745819
 30
0.0
 10
6.928360313944553
 20
46.78519965779643
 30
0.0
 10
7.118282547858568
 20
46.75968990953374
 30
0.0
 10
7.233251614617721
 20
46.73599872274868
 30
0.0
 10
7.285306490384606
 20
46.7252719958157
 30
0.0
  0
SPLINE
  5
166
330
1F
100
AcDbEntity
  8
0
  6
Continuous
 62
     7
370
    15
100
AcDbSpline
210
0.0
220
0.0
230
1.0
 70
     8
 71
     3
 72
    23
 73
    19
 74
     0
 42
0.000000001
 43
0.00000001
 40
0.0
 40
0.0
 40
0.0
 40
0.0
 40
0.064323216579842
 40
0.1262901037035559
 40
0.1867264692161327
 40
0.2461464323353446
 40
0.3055756426461385
 40
0.3654293856180518
 40
0.42632630894826
 40
0.4888399064006415
 40
0.5517249718140472
 40
0.6139185964661592
 40
0.6754837657683963
 40
0.7373338970992855
 40
0.8002290443945264
 40
0.8645022981233227
 40
0.9310407391556971
 40
1.0
 40
1.0
 40
1.0
 40
1.0
 10
3.587499999999993
 20
25.20797932754647
 30
0.0
 10
3.590933950343621
 20
25.06719623547108
 30
0.0
 10
3.597676056352438
 20
24.79078730813083
 30
0.0
 10
3.657679022671382
 20
24.38591871801502
 30
0.0
 10
3.748860735392622
 20
23.99805888437014
 30
0.0
 10
3.885518841196208
 20
23.6296323135097
 30
0.0
 10
4.054027114507246
 20
23.27609599622328
 30
0.0
 10
4.26695335010386
 20
22.94343168802437
 30
0.0
 10
4.513559783930719
 20
22.62661232317509
 30
0.0
 10
4.797335168321329
 20
22.33312544394541
 30
0.0
 10
5.108682424692049
 20
22.06502737724131
 30
0.0
 10
5.442732098386922
 20
21.82894186612835
 30
0.0
 10
5.798652195856506
 20
21.63214207884485
 30
0.0
 10
6.172512882292897
 20
21.46837753868261
 30
0.0
 10
6.567191092314253
 20
21.34249315841999
 30
0.0
 10
6.981977090311994
 20
21.25387222231469
 30
0.0
 10
7.415968734528308
 20
21.19606314526929
 30
0.0
 10
7.712521172800427
 20
21.19052860845257
 30
0.0
 10
7.86344651442307
 20
21.18771189966186
 30
0.0
  0
SPLINE
  5
167
330
1F
100
AcDbEntity
  8
0
  6
Continuous
 62
     7
370
    15
100
AcDbSpline
210
0.0
220
0.0
230
1.0
 70
     8
 71
     3
 72
    31
 73
    27
 74
     0
 42
0.000000001
 43
0.00000001
 40
0.0
 40
0.0
 40
0.0
 40
0.0
 40
0.0420393797012156
 40
0.0835444645653608
 40
0.1246430566734482
 40
0.1653030634519553
 40
0.2061707471365312
 40
0.2469707199288924
 40
0.2883292660238629
 40
0.3299865328252052
 40
0.3717974728955509
 40
0.4127376294246813
 40
0.4534592805187264
 40
0.4940013424196674
 40
0.5343806676011648
 40
0.5749515452974723
 40
0.6158917018266031
 40
0.657249558721595
 40
0.6990066068243709
 40
0.7404862737502688
 40
0.7823251557075463
 40
0.8245674554627296
 40
0.8670412437308948
 40
0.9104995314822233
 40
0.954619176173828
 40
1.0
 40
1.0
 40
1.0
 40
1.0
 10
17.875
 20
42.09633569773879
 30
0.0
 10
17.87644844807217
 20
42.20836671398365
 30
0.0
 10
17.87932693532628
 20
42.43100490068885
 30
0.0
 10
17.91423066147803
 20
42.76154228741174
 30
0.0
 10
17.96430880616202
 20
43.08621059965589
 30
0.0
 10
18.03791543329163
 20
43.40474444208668
 30
0.0
 10
18.13070598226737
 20
43.71735655252389
 30
0.0
 10
18.24651225492895
 20
44.02419208276358
 30
0.0
 10
18.38134515035274
 20
44.32543210479287
 30
0.0
 10
18.53805996491253
 20
44.61900313126259
 30
0.0
 10
18.71246124390277
 20
44.90100956891008
 30
0.0
 10
18.90173720065004
 20
45.17031616236142
 30
0.0
 10
19.10857556986275
 20
45.42201854634814
 30
0.0
 10
19.32959856715446
 20
45.65930438910957
 30
0.0
 10
19.56744323338534
 20
45.87919267983569
 30
0.0
 10
19.81988137922338
 20
46.08371922390366
 30
0.0
 10
20.08710754805583
 20
46.27315837241077
 30
0.0
 10
20.36996243788924
 20
46.44452627982036
 30
0.0
 10
20.664224207677
 20
46.59846013266353
 30
0.0
 10
20.96918749732848
 20
46.73341363027463
 30
0.0
 10
21.28475921343917
 20
46.84494679593566
 30
0.0
 10
21.6085751347037
 20
46.93958115335328
 30
0.0
 10
21.94308633288505
 20
47.00956307167692
 30
0.0
 10
22.28586532967643
 20
47.06031430018915
 30
0.0
 10
22.63869884880943
 20
47.09504136069319
 30
0.0
 10
22.87719404290477
 20
47.0978342425735
 30
0.0
 10
22.9981219951923
 20
47.09925036120031
 30
0.0
  0
SPLINE
  5
168
330
1F
100
AcDbEntity
  8
0
  6
Continuous
 62
     7
370
    15
100
AcDbSpline
210
0.0
220
0.0
230
1.0
 70
     8
 71
     3
 72
    23
 73
    19
 74
     0
 42
0.000000001
 43
0.00000001
 40
0.0
 40
0.0
 40
0.0
 40
0.0
 40
0.0712722778918408
 40
0.1394927224241747
 40
0.204635418715339
 40
0.2674057403862641
 40
0.3284455975269843
 40
0.3883971631415413
 40
0.4477339312582659
 40
0.507391621231218
 40
0.5667675553634348
 40
0.6254783375164178
 40
0.6840665059187973
 40
0.7432484458153418
 40
0.804033357398258
 40
0.8664987506996734
 40
0.931723237984159
 40
1.0
 40
1.0
 40
1.0
 40
1.0
 10
27.88846153846153
 20
41.97040420735416
 30
0.0
 10
27.88381919394454
 20
41.78832025563456
 30
0.0
 10
27.8747332871339
 20
41.4319490705622
 30
0.0
 10
27.81100038096122
 20
40.91223711921932
 30
0.0
 10
27.70808544400786
 20
40.4213684395632
 30
0.0
 10
27.56749559529709
 20
39.95882608024569
 30
0.0
 10
27.3854992967615
 20
39.52526551710231
 30
0.0
 10
27.16404977290945
 20
39.12024655281774
 30
0.0
 10
26.89960278629306
 20
38.74638572845858
 30
0.0
 10
26.60157794189908
 20
38.40063094005625
 30
0.0
 10
26.26711448535285
 20
38.09221358407115
 30
0.0
 10
25.90524988384243
 20
37.82114313866266
 30
0.0
 10
25.51538627711168
 20
37.59280816404765
 30
0.0
 10
25.09789244387225
 20
37.40704164707693
 30
0.0
 10
24.6541351214417
 20
37.26206027520152
 30
0.0
 10
24.18308745932745
 20
37.15926762722706
 30
0.0
 10
23.68538824603695
 20
37.09768179840311
 30
0.0
 10
23.3442934325024
 20
37.08981311589043
 30
0.0
 10
23.16984675480769
 20
37.08578882273878
 30
0.0
  0
SPLINE
  5
169
330
1F
100
AcDbEntity
  8
0
  6
Continuous
 62
     7
370
    15
100
AcDbSpline
210
0.0
220
0.0
230
1.0
 70
     8
 71
     3
 72
    23
 73
    19
 74
     0
 42
0.000000001
 43
0.00000001
 40
0.0
 40
0.0
 40
0.0
 40
0.0
 40
0.0611602766365171
 40
0.1203345577262025
 40
0.1781802550631245
 40
0.2352351259863645
 40
0.292682961444181
 40
0.3511862482150794
 40
0.4104566095096944
 40
0.4717198544629949
 40
0.5337612027725886
 40
0.5957390238870941
 40
0.6578875151248853
 40
0.7212951802914609
 40
0.7868225145418892
 40
0.8546861538286837
 40
0.9254779862699956
 40
1.0
 40
1.0
 40
1.0
 40
1.0
 10
60.98173076923076
 20
6.283730529469553
 30
0.0
 10
60.97907235255298
 20
6.190747827480712
 30
0.0
 10
60.9738418432622
 20
6.007801756348428
 30
0.0
 10
60.93525206287254
 20
5.73904671160743
 30
0.0
 10
60.86991299313296
 20
5.482212035468302
 30
0.0
 10
60.77991223052621
 20
5.235636502537472
 30
0.0
 10
60.66244907436936
 20
4.99979713658514
 30
0.0
 10
60.51949797143883
 20
4.774426753878972
 30
0.0
 10
60.34905064472237
 20
4.561789754139137
 30
0.0
 10
60.15837955136036
 20
4.359523322694514
 30
0.0
 10
59.94267328399469
 20
4.177656272862762
 30
0.0
 10
59.70994826524125
 20
4.015688528251439
 30
0.0
 10
59.45727363753063
 20
3.882485316351471
 30
0.0
 10
59.1887992823859
 20
3.77059100069016
 30
0.0
 10
58.9015135363893
 20
3.685118553438866
 30
0.0
 10
58.59670644064579
 20
3.625321763041436
 30
0.0
 10
58.27464087636633
 20
3.585030912352398
 30
0.0
 10
58.05363433941285
 20
3.581718376174013
 30
0.0
 10
57.94029447115383
 20
3.580019591969546
 30
0.0
  0
SPLINE
  5
16A
330
1F
100
AcDbEntity
  8
0
  6
Continuous
 62
     7
370
    15
100
AcDbSpline
210
0.0
220
0.0
230
1.0
 70
     8
 71
     3
 72
    23
 73
    19
 74
     0
 42
0.000000001
 43
0.00000001
 40
0.0
 40
0.0
 40
0.0
 40
0.0
 40
0.0624813386352054
 40
0.1234903826872911
 40
0.183411094206311
 40
0.24315322099978
 40
0.3021267353720882
 40
0.3617096708329069
 40
0.4218422916948802
 40
0.482931901446669
 40
0.5445522544313247
 40
0.6056807199653582
 40
0.667679738343688
 40
0.7299843875380635
 40
0.79455092128613
 40
0.8603456197120828
 40
0.928907356265709
 40
1.0
 40
1.0
 40
1.0
 40
1.0
 10
7.258593749999993
 20
12.96191562562339
 30
0.0
 10
7.324434724087108
 20
12.94389446215284
 30
0.0
 10
7.454565212071572
 20
12.9082767813851
 30
0.0
 10
7.642074479369578
 20
12.83693800535497
 30
0.0
 10
7.820474587426879
 20
12.75235011298451
 30
0.0
 10
7.990377614338414
 20
12.65594639096173
 30
0.0
 10
8.149695711838433
 20
12.54359067699529
 30
0.0
 10
8.300805866181642
 20
12.41983747443336
 30
0.0
 10
8.442374526843494
 20
12.28182956281839
 30
0.0
 10
8.57360560047115
 20
12.13111483509073
 30
0.0
 10
8.694123513896034
 20
11.97022340677038
 30
0.0
 10
8.79789072188928
 20
11.79675348109357
 30
0.0
 10
8.884778389744087
 20
11.61362500535816
 30
0.0
 10
8.959300007140257
 20
11.42096535813711
 30
0.0
 10
9.012935158231429
 20
11.21715669206425
 30
0.0
 10
9.053339935286987
 20
11.00361513910307
 30
0.0
 10
9.078985664726709
 20
10.78036358934043
 30
0.0
 10
9.081441922074642
 20
10.62780066415866
 30
0.0
 10
9.082692307692298
 20
10.55013677946955
 30
0.0
  0
SPLINE
  5
16B
330
1F
100
AcDbEntity
  8
0
  6
Continuous
 62
     7
370
    15
100
AcDbSpline
210
0.0
220
0.0
230
1.0
 70
     8
 71
     3
 72
    19
 73
    15
 74
     0
 42
0.000000001
 43
0.00000001
 40
0.0
 40
0.0
 40
0.0
 40
0.0
 40
0.0631632593634708
 40
0.1254749410306407
 40
0.1871212198160328
 40
0.2482943461142993
 40
0.3092948562551208
 40
0.3698500660670933
 40
0.4309733755473819
 40
0.4924559896728166
 40
0.6161479662918553
 40
0.7408436984673628
 40
0.8681826486700427
 40
1.0
 40
1.0
 40
1.0
 40
1.0
 10
11.2655048076923
 20
27.65982728427724
 30
0.0
 10
11.21214878295149
 20
27.72341610217482
 30
0.0
 10
11.10615608837793
 20
27.84973642282187
 30
0.0
 10
10.93563354436646
 20
28.02711789742851
 30
0.0
 10
10.75791978762765
 20
28.19330264458607
 30
0.0
 10
10.57308275060412
 20
28.34908233129045
 30
0.0
 10
10.37779543257177
 20
28.48900938661145
 30
0.0
 10
10.17678854477382
 20
28.62037574533472
 30
0.0
 10
9.966699578890188
 20
28.73812580359257
 30
0.0
 10
9.676182358176549
 20
28.88090007295098
 30
0.0
 10
9.296140713927835
 20
29.02988782337706
 30
0.0
 10
8.817727616164547
 20
29.15481018855834
 30
0.0
 10
8.318315269574029
 20
29.23433353095635
 30
0.0
 10
7.977598944874861
 20
29.24294642092736
 30
0.0
 10
7.804296874999991
 20
29.24732728427724
 30
0.0
  0
SPLINE
  5
16C
330
1F
100
AcDbEntity
  8
0
  6
Continuous
 62
     7
370
    15
100
AcDbSpline
210
0.0
220
0.0
230
1.0
 70
     8
 71
     3
 72
    15
 73
    11
 74
     0
 42
0.000000001
 43
0.00000001
 40
0.0
 40
0.0
 40
0.0
 40
0.0
 40
0.1762577548178002
 40
0.3384344138804734
 40
0.4848220507878375
 40
0.6171575782663309
 40
0.7346983606124776
 40
0.8373851838323619
 40
0.9263724209295842
 40
1.0
 40
1.0
 40
1.0
 40
1.0
 10
37.73210637019231
 20
13.10501959196955
 30
0.0
 10
37.85930901278998
 20
13.1045961758164
 30
0.0
 10
38.10355217721749
 20
13.1037831698992
 30
0.0
 10
38.45345514869621
 20
13.09924991512774
 30
0.0
 10
38.77139174838962
 20
13.0862568470932
 30
0.0
 10
39.05719573967408
 20
13.07507563063046
 30
0.0
 10
39.31086187928819
 20
13.05468684745819
 30
0.0
 10
39.53316800625225
 20
13.03519965779644
 30
0.0
 10
39.72309024016624
 20
13.00968990953372
 30
0.0
 10
39.83805930692541
 20
12.98599872274869
 30
0.0
 10
39.89011418269229
 20
12.9752719958157
 30
0.0
  0
SPLINE
  5
16D
330
1F
100
AcDbEntity
  8
0
  6
Continuous
 62
     7
370
    15
100
AcDbSpline
210
0.0
220
0.0
230
1.0
 70
     8
 71
     3
 72
    23
 73
    19
 74
     0
 42
0.000000001
 43
0.00000001
 40
0.0
 40
0.0
 40
0.0
 40
0.0
 40
0.0611602766365172
 40
0.1203345577262017
 40
0.1781802550631245
 40
0.2352351259863639
 40
0.2926829614441805
 40
0.3511862482150797
 40
0.4104566095096931
 40
0.4717198544629949
 40
0.5337612027725882
 40
0.5957390238870937
 40
0.657887515124885
 40
0.7212951802914606
 40
0.7868225145418892
 40
0.8546861538286835
 40
0.9254779862699953
 40
1.0
 40
1.0
 40
1.0
 40
1.0
 10
39.00096153846153
 20
23.15873052946955
 30
0.0
 10
38.99830312178374
 20
23.06574782748071
 30
0.0
 10
38.99307261249297
 20
22.88280175634843
 30
0.0
 10
38.95448283210327
 20
22.61404671160743
 30
0.0
 10
38.88914376236375
 20
22.3572120354683
 30
0.0
 10
38.79914299975698
 20
22.11063650253747
 30
0.0
 10
38.68167984360014
 20
21.87479713658514
 30
0.0
 10
38.53872874066958
 20
21.64942675387898
 30
0.0
 10
38.36828141395315
 20
21.43678975413914
 30
0.0
 10
38.17761032059114
 20
21.23452332269451
 30
0.0
 10
37.96190405322547
 20
21.05265627286276
 30
0.0
 10
37.72917903447202
 20
20.89068852825145
 30
0.0
 10
37.47650440676141
 20
20.75748531635147
 30
0.0
 10
37.20803005161665
 20
20.64559100069016
 30
0.0
 10
36.92074430562007
 20
20.56011855343886
 30
0.0
 10
36.61593720987656
 20
20.50032176304144
 30
0.0
 10
36.2938716455971
 20
20.4600309123524
 30
0.0
 10
36.07286510864362
 20
20.45671837617402
 30
0.0
 10
35.95952524038461
 20
20.45501959196955
 30
0.0
  0
SPLINE
  5
16E
330
1F
100
AcDbEntity
  8
0
  6
Continuous
 62
     7
370
    15
100
AcDbSpline
210
0.0
220
0.0
230
1.0
 70
     8
 71
     3
 72
    15
 73
    11
 74
     0
 42
0.000000001
 43
0.00000001
 40
0.0
 40
0.0
 40
0.0
 40
0.0
 40
0.127895677373536
 40
0.2536684183228687
 40
0.376738432207009
 40
0.4993444727460726
 40
0.6219993068560791
 40
0.745698547513127
 40
0.8713451527522131
 40
1.0
 40
1.0
 40
1.0
 40
1.0
 10
19.04272836538461
 20
38.8869907458157
 30
0.0
 10
18.94969379347397
 20
39.0031158800797
 30
0.0
 10
18.76516892765704
 20
39.23343859106738
 30
0.0
 10
18.5276476585717
 20
39.60246415411913
 30
0.0
 10
18.32516955515369
 20
39.98455778786611
 30
0.0
 10
18.16088283919982
 20
40.38078316932411
 30
0.0
 10
18.03259990422578
 20
40.79076968428402
 30
0.0
 10
17.94059860210598
 20
41.21399344112474
 30
0.0
 10
17.88669447938516
 20
41.65099943565944
 30
0.0
 10
17.87892878106453
 20
41.94672419164418
 30
0.0
 10
17.875
 20
42.09633569773878
 30
0.0
  0
SPLINE
  5
16F
330
1F
100
AcDbEntity
  8
0
  6
Continuous
 62
     7
370
    15
100
AcDbSpline
210
0.0
220
0.0
230
1.0
 70
     8
 71
     3
 72
    23
 73
    19
 74
     0
 42
0.000000001
 43
0.00000001
 40
0.0
 40
0.0
 40
0.0
 40
0.0
 40
0.0658188768433089
 40
0.1297465269068303
 40
0.1920719544880078
 40
0.2534594242982034
 40
0.3145695877964201
 40
0.3762798811880263
 40
0.4390256536685594
 40
0.5032670288290851
 40
0.5674928228792941
 40
0.6297047956052455
 40
0.6909996492157552
 40
0.7514516509174476
 40
0.8120043642646945
 40
0.8731496810680426
 40
0.9356354837317853
 40
1.0
 40
1.0
 40
1.0
 40
1.0
 10
72.23161057692306
 20
20.21078882273878
 30
0.0
 10
72.05900582312863
 20
20.21500536839224
 30
0.0
 10
71.71875590689642
 20
20.22331730229812
 30
0.0
 10
71.21927297489859
 20
20.29456812536653
 30
0.0
 10
70.7395456862843
 20
20.40598695928268
 30
0.0
 10
70.28094591619927
 20
20.56521621070602
 30
0.0
 10
69.84321792922057
 20
20.77100310289292
 30
0.0
 10
69.42550563274465
 20
21.02193073449128
 30
0.0
 10
69.02948566775129
 20
21.31967445441855
 30
0.0
 10
68.65844134338984
 20
21.65758491809967
 30
0.0
 10
68.31894531119333
 20
22.02544464179979
 30
0.0
 10
68.02296443877192
 20
22.41960072169114
 30
0.0
 10
67.77198038038188
 20
22.83232021441373
 30
0.0
 10
67.56688445409118
 20
23.26474847646327
 30
0.0
 10
67.40451188973164
 20
23.71479504553021
 30
0.0
 10
67.29373663465314
 20
24.1854619735551
 30
0.0
 10
67.22206522223716
 20
24.67406591437962
 30
0.0
 10
67.21380610431191
 20
25.00674123053634
 30
0.0
 10
67.20961538461536
 20
25.17554242850801
 30
0.0
  0
SPLINE
  5
170
330
1F
100
AcDbEntity
  8
0
  6
Continuous
 62
     7
370
    15
100
AcDbSpline
210
0.0
220
0.0
230
1.0
 70
     8
 71
     3
 72
    15
 73
    11
 74
     0
 42
0.000000001
 43
0.00000001
 40
0.0
 40
0.0
 40
0.0
 40
0.0
 40
0.1243285095938502
 40
0.2471560163611868
 40
0.368779749291339
 40
0.4907338624016483
 40
0.6136137718478435
 40
0.738957575722216
 40
0.8673105751912625
 40
1.0
 40
1.0
 40
1.0
 40
1.0
 10
3.940489783653842
 20
21.87651899100801
 30
0.0
 10
3.844054210986526
 20
21.99501322656105
 30
0.0
 10
3.652347320476666
 20
22.23057113131454
 30
0.0
 10
3.407076710241049
 20
22.61234940888216
 30
0.0
 10
3.197125149278647
 20
23.0109521773228
 30
0.0
 10
3.027373536303793
 20
23.42847355492668
 30
0.0
 10
2.894669241075829
 20
23.86397665877393
 30
0.0
 10
2.802736131608807
 20
24.31768102299162
 30
0.0
 10
2.742996407994212
 20
24.78916292284186
 30
0.0
 10
2.736164836382588
 20
25.10984732626628
 30
0.0
 10
2.732692307692304
 20
25.2728531256234
 30
0.0
  0
SPLINE
  5
171
330
1F
100
AcDbEntity
  8
0
  6
Continuous
 62
     7
370
    15
100
AcDbSpline
210
0.0
220
0.0
230
1.0
 70
     8
 71
     3
 72
    23
 73
    19
 74
     0
 42
0.000000001
 43
0.00000001
 40
0.0
 40
0.0
 40
0.0
 40
0.0
 40
0.0696628008990772
 40
0.1377495622582727
 40
0.2039167435177825
 40
0.2687798623293368
 40
0.3324137064772238
 40
0.3947535404471393
 40
0.4561800316591684
 40
0.5169956491967198
 40
0.5773959379659518
 40
0.6371983435092752
 40
0.6969991842614547
 40
0.7567561942255595
 40
0.8165539052726076
 40
0.8769479965978703
 40
0.9381317879205952
 40
1.0
 40
1.0
 40
1.0
 40
1.0
 10
7.869170673076916
 20
20.21078882273878
 30
0.0
 10
7.766726122012741
 20
20.2115018167656
 30
0.0
 10
7.564154708249463
 20
20.21291167416181
 30
0.0
 10
7.26507310564789
 20
20.23575035833021
 30
0.0
 10
6.973908603609122
 20
20.26690999949239
 30
0.0
 10
6.691493371786171
 20
20.31382778474507
 30
0.0
 10
6.416286253981163
 20
20.36919345303457
 30
0.0
 10
6.150782091902548
 20
20.4434102299932
 30
0.0
 10
5.892368269427011
 20
20.52654760480128
 30
0.0
 10
5.64208299938971
 20
20.62426046158516
 30
0.0
 10
5.399713387800411
 20
20.73452235834759
 30
0.0
 10
5.166041158292001
 20
20.85914081507133
 30
0.0
 10
4.941173781549048
 20
20.99706788961383
 30
0.0
 10
4.7229004576501
 20
21.14526331083817
 30
0.0
 10
4.514445604934505
 20
21.30848725378561
 30
0.0
 10
4.314002796667625
 20
21.48447288054194
 30
0.0
 10
4.120448057777462
 20
21.67262703837241
 30
0.0
 10
4.000697893621334
 20
21.8083034606827
 30
0.0
 10
3.940489783653842
 20
21.87651899100801
 30
0.0
  0
SPLINE
  5
172
330
1F
100
AcDbEntity
  8
0
  6
Continuous
 62
     7
370
    15
100
AcDbSpline
210
0.0
220
0.0
230
1.0
 70
     8
 71
     3
 72
    23
 73
    19
 74
     0
 42
0.000000001
 43
0.00000001
 40
0.0
 40
0.0
 40
0.0
 40
0.0
 40
0.0642168426314308
 40
0.12706376569313
 40
0.1887445383478296
 40
0.2491321028350423
 40
0.3094525327106283
 40
0.3698266762476818
 40
0.4306501418384687
 40
0.4923519318794698
 40
0.5540721062625183
 40
0.6156897837449751
 40
0.6767977025065384
 40
0.7384390482469416
 40
0.8013169100648937
 40
0.8651845117115416
 40
0.9316413244190758
 40
1.0
 40
1.0
 40
1.0
 40
1.0
 10
39.89011418269229
 20
12.9752719958157
 30
0.0
 10
39.95980078123612
 20
12.95805415578512
 30
0.0
 10
40.09768737401278
 20
12.92398577898957
 30
0.0
 10
40.29621576802133
 20
12.85197786531951
 30
0.0
 10
40.48539403534716
 20
12.76864874401943
 30
0.0
 10
40.66443634296552
 20
12.67077604801094
 30
0.0
 10
40.83244588899088
 20
12.55763325475928
 30
0.0
 10
40.99115500622492
 20
12.43117357870362
 30
0.0
 10
41.14128387442332
 20
12.29208896871399
 30
0.0
 10
41.2767610251284
 20
12.13687272148174
 30
0.0
 10
41.40450230152573
 20
11.97403193442404
 30
0.0
 10
41.51223992078799
 20
11.79794528187768
 30
0.0
 10
41.60511269774707
 20
11.61380926768733
 30
0.0
 10
41.67905531901177
 20
11.41975122365277
 30
0.0
 10
41.73859466110654
 20
11.21765311594092
 30
0.0
 10
41.78057606968036
 20
11.00568431913332
 30
0.0
 10
41.80575251601848
 20
10.78481052265495
 30
0.0
 10
41.80831570863197
 20
10.63415792801492
 30
0.0
 10
41.80961538461538
 20
10.55776899100801
 30
0.0
  0
SPLINE
  5
176
330
1F
100
AcDbEntity
  8
0
  6
Continuous
 62
     7
370
    15
100
AcDbSpline
210
0.0
220
0.0
230
1.0
 70
     8
 71
     3
 72
    23
 73
    19
 74
     0
 42
0.000000001
 43
0.00000001
 40
0.0
 40
0.0
 40
0.0
 40
0.0
 40
0.0688142958243091
 40
0.136364824552215
 40
0.2040193535112472
 40
0.2730637386246119
 40
0.3429133195614903
 40
0.4109654441389581
 40
0.4791687665134463
 40
0.5493080065097822
 40
0.5876515764176505
 40
0.6306466687627913
 40
0.6788787856966493
 40
0.7319342992295829
 40
0.7911114229480476
 40
0.8552831895130782
 40
0.9250859386773854
 40
1.0
 40
1.0
 40
1.0
 40
1.0
 10
46.08365384615384
 20
27.43467704389262
 30
0.0
 10
46.0803823594773
 20
27.51127593382841
 30
0.0
 10
46.07389946662305
 20
27.66306698337512
 30
0.0
 10
46.02097103227534
 20
27.88528771065783
 30
0.0
 10
45.93146493015526
 20
28.09501991065658
 30
0.0
 10
45.81084512551713
 20
28.29141040195543
 30
0.0
 10
45.66389028236913
 20
28.46967958310201
 30
0.0
 10
45.49157537782162
 20
28.62220790677998
 30
0.0
 10
45.29861195387748
 20
28.74807252136823
 30
0.0
 10
45.11825962121986
 20
28.82850265690409
 30
0.0
 10
44.95705794293699
 20
28.87781454323766
 30
0.0
 10
44.81709579668279
 20
28.91251592475199
 30
0.0
 10
44.65894956088933
 20
28.94039551519705
 30
0.0
 10
44.48185134852397
 20
28.96273316657887
 30
0.0
 10
44.28655719617372
 20
28.98193269342739
 30
0.0
 10
44.07207963856038
 20
28.9948643196327
 30
0.0
 10
43.83984168656361
 20
29.00252204980692
 30
0.0
 10
43.67887753810693
 20
29.00290057026043
 30
0.0
 10
43.59555288461538
 20
29.00309651504647
 30
0.0
  0
SPLINE
  5
177
330
1F
100
AcDbEntity
  8
0
  6
Continuous
 62
     7
370
    15
100
AcDbSpline
210
0.0
220
0.0
230
1.0
 70
     8
 71
     3
 72
    23
 73
    19
 74
     0
 42
0.000000001
 43
0.00000001
 40
0.0
 40
0.0
 40
0.0
 40
0.0
 40
0.0716681496796066
 40
0.138913286274206
 40
0.2011845700265587
 40
0.2591244282905454
 40
0.3122550414262348
 40
0.3606815096231114
 40
0.405086143328646
 40
0.4451016585907112
 40
0.5187777804882595
 40
0.5894615790331975
 40
0.6584622419857166
 40
0.7272832183683666
 40
0.796322486904719
 40
0.8631748932078811
 40
0.9309493809878562
 40
0.9999999999999999
 40
0.9999999999999999
 40
0.9999999999999999
 40
0.9999999999999999
 10
43.55357572115383
 20
25.81474014485417
 30
0.0
 10
43.63500096993403
 20
25.81470412224535
 30
0.0
 10
43.79282629323757
 20
25.81463430016966
 30
0.0
 10
44.02115595961711
 20
25.82550307694677
 30
0.0
 10
44.23375426357781
 20
25.8378673930223
 30
0.0
 10
44.42980802481982
 20
25.85677954051871
 30
0.0
 10
44.60940482624263
 20
25.88115285000096
 30
0.0
 10
44.77245490079569
 20
25.91164097139322
 30
0.0
 10
44.91922440631468
 20
25.94716122759655
 30
0.0
 10
45.0903982858793
 20
26.00213850926512
 30
0.0
 10
45.28154198907208
 20
26.08924060182986
 30
0.0
 10
45.48927260488039
 20
26.21596528042
 30
0.0
 10
45.66617182404432
 20
26.37535695472581
 30
0.0
 10
45.8156268636028
 20
26.55762043150516
 30
0.0
 10
45.93572195926065
 20
26.75801622298482
 30
0.0
 10
46.0203911928425
 20
26.97414219920889
 30
0.0
 10
46.07411883936594
 20
27.20054219092957
 30
0.0
 10
46.08045580948188
 20
27.35614832727848
 30
0.0
 10
46.08365384615384
 20
27.43467704389262
 30
0.0
  0
SPLINE
  5
17E
330
1F
100
AcDbEntity
  8
0
  6
Continuous
 62
     7
370
    15
100
AcDbSpline
210
0.0
220
0.0
230
1.0
 70
     8
 71
     3
 72
    23
 73
    19
 74
     0
 42
0.000000001
 43
0.00000001
 40
0.0
 40
0.0
 40
0.0
 40
0.0
 40
0.0716681496796046
 40
0.138913286274204
 40
0.2011845700265587
 40
0.2591244282905455
 40
0.3122550414262348
 40
0.3606815096231093
 40
0.4050861433286438
 40
0.445101658590711
 40
0.5187777804882597
 40
0.5894615790331972
 40
0.6584622419857168
 40
0.727283218368366
 40
0.7963224869047192
 40
0.8631748932078804
 40
0.9309493809878561
 40
0.9999999999999999
 40
0.9999999999999999
 40
0.9999999999999999
 40
0.9999999999999999
 10
38.42472956730769
 20
8.939740144854165
 30
0.0
 10
38.50615481608786
 20
8.939704122245345
 30
0.0
 10
38.66398013939141
 20
8.939634300169661
 30
0.0
 10
38.89230980577096
 20
8.950503076946774
 30
0.0
 10
39.10490810973164
 20
8.962867393022295
 30
0.0
 10
39.30096187097367
 20
8.981779540518719
 30
0.0
 10
39.48055867239648
 20
9.006152850000962
 30
0.0
 10
39.64360874694954
 20
9.036640971393222
 30
0.0
 10
39.79037825246853
 20
9.07216122759654
 30
0.0
 10
39.96155213203316
 20
9.12713850926512
 30
0.0
 10
40.15269583522595
 20
9.21424060182987
 30
0.0
 10
40.36042645103423
 20
9.340965280419995
 30
0.0
 10
40.53732567019816
 20
9.50035695472581
 30
0.0
 10
40.68678070975664
 20
9.68262043150516
 30
0.0
 10
40.80687580541449
 20
9.88301622298482
 30
0.0
 10
40.89154503899633
 20
10.09914219920888
 30
0.0
 10
40.94527268551977
 20
10.32554219092958
 30
0.0
 10
40.95160965563571
 20
10.48114832727848
 30
0.0
 10
40.95480769230769
 20
10.55967704389263
 30
0.0
  0
SPLINE
  5
17F
330
1F
100
AcDbEntity
  8
0
  6
Continuous
 62
     7
370
    15
100
AcDbSpline
210
0.0
220
0.0
230
1.0
 70
     8
 71
     3
 72
    23
 73
    19
 74
     0
 42
0.000000001
 43
0.00000001
 40
0.0
 40
0.0
 40
0.0
 40
0.0
 40
0.0688142958243093
 40
0.1363648245522146
 40
0.2040193535112458
 40
0.2730637386246113
 40
0.3429133195614888
 40
0.4109654441389567
 40
0.4791687665134465
 40
0.5493080065097824
 40
0.5876515764176486
 40
0.6306466687627893
 40
0.6788787856966474
 40
0.7319342992295828
 40
0.7911114229480455
 40
0.855283189513076
 40
0.9250859386773833
 40
1.0
 40
1.0
 40
1.0
 40
1.0
 10
40.95480769230769
 20
10.55967704389263
 30
0.0
 10
40.95153620563115
 20
10.63627593382842
 30
0.0
 10
40.94505331277689
 20
10.78806698337512
 30
0.0
 10
40.89212487842917
 20
11.01028771065783
 30
0.0
 10
40.80261877630911
 20
11.22001991065658
 30
0.0
 10
40.68199897167099
 20
11.41641040195543
 30
0.0
 10
40.53504412852298
 20
11.59467958310201
 30
0.0
 10
40.36272922397547
 20
11.74720790677998
 30
0.0
 10
40.16976580003132
 20
11.87307252136823
 30
0.0
 10
39.9894134673737
 20
11.95350265690409
 30
0.0
 10
39.82821178909085
 20
12.00281454323766
 30
0.0
 10
39.68824964283665
 20
12.03751592475199
 30
0.0
 10
39.53010340704316
 20
12.06539551519704
 30
0.0
 10
39.35300519467783
 20
12.08773316657888
 30
0.0
 10
39.15771104232756
 20
12.10693269342738
 30
0.0
 10
38.94323348471424
 20
12.1198643196327
 30
0.0
 10
38.71099553271745
 20
12.12752204980692
 30
0.0
 10
38.55003138426078
 20
12.12790057026044
 30
0.0
 10
38.46670673076922
 20
12.12809651504647
 30
0.0
  0
SPLINE
  5
180
330
1F
100
AcDbEntity
  8
0
  6
Continuous
 62
     7
370
    15
100
AcDbSpline
210
0.0
220
0.0
230
1.0
 70
     8
 71
     3
 72
    31
 73
    27
 74
     0
 42
0.000000001
 43
0.00000001
 40
0.0
 40
0.0
 40
0.0
 40
0.0
 40
0.042023328525922
 40
0.0836449111687106
 40
0.1249837954173918
 40
0.1662474611728931
 40
0.2077015560969888
 40
0.2496310707996499
 40
0.2917417703321298
 40
0.3347428753531974
 40
0.3774601685508651
 40
0.4195563188419396
 40
0.4610441763330327
 40
0.5020962839443947
 40
0.5428907140755989
 40
0.583800818626504
 40
0.6248635833101922
 40
0.666224689069169
 40
0.7073991864779364
 40
0.7485566775366935
 40
0.7896545909521793
 40
0.8307397264898312
 40
0.8720701422586046
 40
0.9139933952421322
 40
0.9564981300675878
 40
1.0
 40
1.0
 40
1.0
 40
1.0
 10
72.19726562499999
 20
29.24732728427724
 30
0.0
 10
72.10687437227743
 20
29.24622540437378
 30
0.0
 10
71.92695601336536
 20
29.24403217861377
 30
0.0
 10
71.65948166829382
 20
29.21514226694957
 30
0.0
 10
71.39552504836858
 20
29.17396735482037
 30
0.0
 10
71.13503164131579
 20
29.11523478759688
 30
0.0
 10
70.87909138236618
 20
29.03521375826296
 30
0.0
 10
70.62531860031656
 20
28.94311814383321
 30
0.0
 10
70.37602743228805
 20
28.8309378901414
 30
0.0
 10
70.13204086197896
 20
28.70419360182112
 30
0.0
 10
69.89550769318879
 20
28.5639068959195
 30
0.0
 10
69.67231598422975
 20
28.40886230134537
 30
0.0
 10
69.46188793172844
 20
28.24269580728669
 30
0.0
 10
69.26473875605211
 20
28.06501962128124
 30
0.0
 10
69.08144735177724
 20
27.87492891926389
 30
0.0
 10
68.90840612853789
 20
27.67530550382917
 30
0.0
 10
68.75255105277253
 20
27.46044357177469
 30
0.0
 10
68.60971530440789
 20
27.23616953594408
 30
0.0
 10
68.48189568193874
 20
27.00277551851977
 30
0.0
 10
68.3682342523011
 20
26.76271867906206
 30
0.0
 10
68.2752593426233
 20
26.51404083147234
 30
0.0
 10
68.19943387573565
 20
26.25943987406838
 30
0.0
 10
68.13656939050269
 20
25.99931903741281
 30
0.0
 10
68.09674421136025
 20
25.73170504878605
 30
0.0
 10
68.06753686171785
 20
25.45794263676259
 30
0.0
 10
68.06546899659328
 20
25.27293487683349
 30
0.0
 10
68.06442307692306
 20
25.17935853427724
 30
0.0
  0
SPLINE
  5
181
330
1F
100
AcDbEntity
  8
0
  6
Continuous
 62
     7
370
    15
100
AcDbSpline
210
0.0
220
0.0
230
1.0
 70
     8
 71
     3
 72
    31
 73
    27
 74
     0
 42
0.000000001
 43
0.00000001
 40
0.0
 40
0.0
 40
0.0
 40
0.0
 40
0.0436332182657582
 40
0.0865377766972006
 40
0.1291773360898928
 40
0.1714363236638298
 40
0.2134158945709084
 40
0.2552659545538494
 40
0.2973694811566244
 40
0.3399407478985558
 40
0.3823474587518129
 40
0.4239529468152717
 40
0.4648711632610183
 40
0.5055722941182725
 40
0.546002577108317
 40
0.5865679748069145
 40
0.6270647991481673
 40
0.6682706840331747
 40
0.7095492248503339
 40
0.7504281535131901
 40
0.7910961944485931
 40
0.832027144779435
 40
0.873135955335967
 40
0.914610764365449
 40
0.9569559864804373
 40
1.0
 40
1.0
 40
1.0
 40
1.0
 10
72.19726562499999
 20
21.18771189966186
 30
0.0
 10
72.29145291153033
 20
21.18900595082981
 30
0.0
 10
72.47825458909247
 20
21.19157244295342
 30
0.0
 10
72.75610026063829
 20
21.21742241348799
 30
0.0
 10
73.02894037970611
 20
21.25887485811884
 30
0.0
 10
73.29639225566602
 20
21.31855757088294
 30
0.0
 10
73.55815234951059
 20
21.3932531826622
 30
0.0
 10
73.81531320655917
 20
21.48199278517943
 30
0.0
 10
74.06513569664301
 20
21.59270377520284
 30
0.0
 10
74.31077139808765
 20
21.71502641485718
 30
0.0
 10
74.54589259869003
 20
21.854472843573
 30
0.0
 10
74.7703438687101
 20
22.0042552365744
 30
0.0
 10
74.97846778531516
 20
22.1701769829347
 30
0.0
 10
75.17546947253926
 20
22.34521331564376
 30
0.0
 10
75.35951339758337
 20
22.532893501598
 30
0.0
 10
75.52935499036758
 20
22.73297353390988
 30
0.0
 10
75.68442235000472
 20
22.946716322523
 30
0.0
 10
75.82720385970502
 20
23.17065017671618
 30
0.0
 10
75.95457559620468
 20
23.4046828358095
 30
0.0
 10
76.06555300147406
 20
23.64561003079758
 30
0.0
 10
76.15970385956167
 20
23.89283850700266
 30
0.0
 10
76.23570929056133
 20
24.14672485510551
 30
0.0
 10
76.29526901128476
 20
24.40678687926045
 30
0.0
 10
76.33630793617716
 20
24.67337279197097
 30
0.0
 10
76.36501475849511
 20
24.94594928831905
 30
0.0
 10
76.36717850426743
 20
25.13030935347204
 30
0.0
 10
76.36826923076924
 20
25.2232437506234
 30
0.0
  0
SPLINE
  5
182
330
1F
100
AcDbEntity
  8
0
  6
Continuous
 62
     7
370
    15
100
AcDbSpline
210
0.0
220
0.0
230
1.0
 70
     8
 71
     3
 72
    31
 73
    27
 74
     0
 42
0.000000001
 43
0.00000001
 40
0.0
 40
0.0
 40
0.0
 40
0.0
 40
0.0429150821010495
 40
0.0851299705846989
 40
0.1264733185549985
 40
0.1674530378853876
 40
0.2079763328949875
 40
0.2482493780637592
 40
0.2887499869834427
 40
0.329669856910872
 40
0.3705372867119754
 40
0.4111285639171181
 40
0.4518189126736377
 40
0.4924058769342624
 40
0.5334858617420223
 40
0.5752630624415518
 40
0.6174406128021899
 40
0.6606716882923628
 40
0.7039402042434857
 40
0.7468675221598704
 40
0.789079300394722
 40
0.8311040424574032
 40
0.8732379898547715
 40
0.9151657696593303
 40
0.9573806581429821
 40
1.0
 40
1.0
 40
1.0
 40
1.0
 10
76.36826923076923
 20
25.2232437506234
 30
0.0
 10
76.36717763045006
 20
25.31554237295397
 30
0.0
 10
76.36501224013716
 20
25.49863369235328
 30
0.0
 10
76.33632164848082
 20
25.76930920517946
 30
0.0
 10
76.29522565397434
 20
26.03397687354752
 30
0.0
 10
76.23599999852397
 20
26.29159765170103
 30
0.0
 10
76.15966350871487
 20
26.54223720920412
 30
0.0
 10
76.06553655958525
 20
26.7856601440195
 30
0.0
 10
75.95454228030289
 20
27.02277330349601
 30
0.0
 10
75.82715704109279
 20
27.25299064033119
 30
0.0
 10
75.68396683577487
 20
27.47390189156856
 30
0.0
 10
75.52750035933586
 20
27.68509131422703
 30
0.0
 10
75.35505609046606
 20
27.88259284593654
 30
0.0
 10
75.17156097991672
 20
28.07128226329753
 30
0.0
 10
74.97243164198535
 20
28.24713523430159
 30
0.0
 10
74.75857009881287
 20
28.41021009409105
 30
0.0
 10
74.5325726614763
 20
28.56444236197735
 30
0.0
 10
74.29328497076222
 20
28.70357692670083
 30
0.0
 10
74.04633178239197
 20
28.83206708858461
 30
0.0
 10
73.79292879676656
 20
28.94215160428525
 30
0.0
 10
73.53594674709657
 20
29.03569287204659
 30
0.0
 10
73.27603912710703
 20
29.1154768983628
 30
0.0
 10
73.01101830749428
 20
29.173737323255
 30
0.0
 10
72.74267503041807
 20
29.21517937323118
 30
0.0
 10
72.47138055529446
 20
29.24402212341257
 30
0.0
 10
72.28892722161817
 20
29.24622206785721
 30
0.0
 10
72.19726562499999
 20
29.24732728427724
 30
0.0
  0
SPLINE
  5
183
330
1F
100
AcDbEntity
  8
0
  6
Continuous
 62
     7
370
    15
100
AcDbSpline
210
0.0
220
0.0
230
1.0
 70
     8
 71
     3
 72
    23
 73
    19
 74
     0
 42
0.000000001
 43
0.00000001
 40
0.0
 40
0.0
 40
0.0
 40
0.0
 40
0.0645039992970554
 40
0.1268993215900398
 40
0.1877465401000123
 40
0.2481497329298269
 40
0.3085860647627427
 40
0.3695830050869953
 40
0.4318269653810509
 40
0.4961797225241585
 40
0.5606678546118812
 40
0.6235044551176634
 40
0.685260411330427
 40
0.7465368217511664
 40
0.8083273517367107
 40
0.8704861878877703
 40
0.9343168833592477
 40
1.0
 40
1.0
 40
1.0
 40
1.0
 10
68.06442307692306
 20
25.17935853427724
 30
0.0
 10
68.06789252267895
 20
25.04175706194905
 30
0.0
 10
68.07471799578937
 20
24.77105239745493
 30
0.0
 10
68.13447395446032
 20
24.37435480588234
 30
0.0
 10
68.22651804207835
 20
23.99311454090334
 30
0.0
 10
68.36220130359544
 20
23.62941763061169
 30
0.0
 10
68.53188404777089
 20
23.28013783233435
 30
0.0
 10
68.74150722773265
 20
22.94837363314925
 30
0.0
 10
68.98986231060266
 20
22.63403536791665
 30
0.0
 10
69.27197519371184
 20
22.33931752879187
 30
0.0
 10
69.5803748452436
 20
22.07031573296865
 30
0.0
 10
69.9078517745503
 20
21.83419531372735
 30
0.0
 10
70.2508976634979
 20
21.63441456242201
 30
0.0
 10
70.61040709373685
 20
21.47165932972152
 30
0.0
 10
70.9844607535238
 20
21.34269154328281
 30
0.0
 10
71.37546894599004
 20
21.25430326857146
 30
0.0
 10
71.78082698242824
 20
21.19613149360596
 30
0.0
 10
72.0571354082568
 20
21.19054506499202
 30
0.0
 10
72.19726562499999
 20
21.18771189966186
 30
0.0
  0
SPLINE
  5
187
330
1F
100
AcDbEntity
  8
0
  6
Continuous
 62
     7
370
    15
100
AcDbSpline
210
0.0
220
0.0
230
1.0
 70
     8
 71
     3
 72
    23
 73
    19
 74
     0
 42
0.000000001
 43
0.00000001
 40
0.0
 40
0.0
 40
0.0
 40
0.0
 40
0.0723010339955045
 40
0.1397003317393851
 40
0.2022885114847723
 40
0.2605995332222009
 40
0.3131903291553318
 40
0.361738932985427
 40
0.4057064756322218
 40
0.4455399848948711
 40
0.5188319558616062
 40
0.5897782395835762
 40
0.6588674786561446
 40
0.7284304780610648
 40
0.7972827036080992
 40
0.8648153774014441
 40
0.9313637528792679
 40
1.0
 40
1.0
 40
1.0
 40
1.0
 10
34.81278545673077
 20
25.95021189966186
 30
0.0
 10
34.89673824983517
 20
25.95130026155811
 30
0.0
 10
35.05895215465792
 20
25.95340319853641
 30
0.0
 10
35.29386558743575
 20
25.95942712711215
 30
0.0
 10
35.51192010124097
 20
25.97629465955414
 30
0.0
 10
35.71273930410661
 20
25.99315734414564
 30
0.0
 10
35.89600695518721
 20
26.02057461485929
 30
0.0
 10
36.06131703541801
 20
26.05321032078505
 30
0.0
 10
36.21126393137209
 20
26.08772594108323
 30
0.0
 10
36.38418226601054
 20
26.14642575900498
 30
0.0
 10
36.58032364717153
 20
26.23317857504115
 30
0.0
 10
36.78941945204891
 20
26.36781264333912
 30
0.0
 10
36.97375397285858
 20
26.52817106168811
 30
0.0
 10
37.12941203372318
 20
26.71320360760713
 30
0.0
 10
37.25680610709031
 20
26.91694658483526
 30
0.0
 10
37.34528986047441
 20
27.13614916658983
 30
0.0
 10
37.40528996957127
 20
27.36534824020089
 30
0.0
 10
37.41070977990761
 20
27.52269648529311
 30
0.0
 10
37.41346153846153
 20
27.60258569773878
 30
0.0
  0
SPLINE
  5
188
330
1F
100
AcDbEntity
  8
0
  6
Continuous
 62
     7
370
    15
100
AcDbSpline
210
0.0
220
0.0
230
1.0
 70
     8
 71
     3
 72
    23
 73
    19
 74
     0
 42
0.000000001
 43
0.00000001
 40
0.0
 40
0.0
 40
0.0
 40
0.0
 40
0.057003132512924
 40
0.1118178691207239
 40
0.1644023722182117
 40
0.2158698048987946
 40
0.2668411100818678
 40
0.317478963205358
 40
0.3699021362727613
 40
0.4234004494436356
 40
0.4797183982994513
 40
0.5392414966442974
 40
0.6024306889434229
 40
0.6710295461473349
 40
0.7444847975608483
 40
0.8234539713786853
 40
0.9087403127306667
 40
1.0
 40
1.0
 40
1.0
 40
1.0
 10
37.41346153846153
 20
27.60258569773878
 30
0.0
 10
37.41202957667564
 20
27.6554515473578
 30
0.0
 10
37.40922062726351
 20
27.75915368429411
 30
0.0
 10
37.38621556803147
 20
27.9103272838198
 30
0.0
 10
37.34711524046035
 20
28.05250492458512
 30
0.0
 10
37.29689319957115
 20
28.1876350391104
 30
0.0
 10
37.22671112527878
 20
28.31149228863852
 30
0.0
 10
37.14407912872118
 20
28.42835912835079
 30
0.0
 10
37.04424164300417
 20
28.53425567940311
 30
0.0
 10
36.93060209927612
 20
28.63323267124691
 30
0.0
 10
36.79995006135445
 20
28.72098385046874
 30
0.0
 10
36.65236347433183
 20
28.79783907024828
 30
0.0
 10
36.48584558174299
 20
28.85972646964132
 30
0.0
 10
36.30320274068643
 20
28.91392685602682
 30
0.0
 10
36.10162356685085
 20
28.9519949984893
 30
0.0
 10
35.88343424650316
 20
28.98370886061321
 30
0.0
 10
35.64684761829406
 20
28.99985439421142
 30
0.0
 10
35.48316701784911
 20
29.00199170317749
 30
0.0
 10
35.39855769230769
 20
29.00309651504647
 30
0.0
  0
SPLINE
  5
18C
330
1F
100
AcDbEntity
  8
0
  6
Continuous
 62
     7
370
    15
100
AcDbSpline
210
0.0
220
0.0
230
1.0
 70
     8
 71
     3
 72
    23
 73
    19
 74
     0
 42
0.000000001
 43
0.00000001
 40
0.0
 40
0.0
 40
0.0
 40
0.0
 40
0.0700437554181566
 40
0.1392383167626459
 40
0.2081974550441385
 40
0.2791733744245673
 40
0.3499868116864776
 40
0.4183538456626559
 40
0.4876095837571512
 40
0.5574110731083883
 40
0.5953301567632412
 40
0.63796405156522
 40
0.6859127777112934
 40
0.7381851646524793
 40
0.7961026471849431
 40
0.8585165439469276
 40
0.9266577264685195
 40
1.0
 40
1.0
 40
1.0
 40
1.0
 10
8.227884615384609
 20
10.54632067370031
 30
0.0
 10
8.224448413136049
 20
10.62289762815757
 30
0.0
 10
8.217617668349602
 20
10.77512313602454
 30
0.0
 10
8.166847069319472
 20
10.99822247739812
 30
0.0
 10
8.081532150876564
 20
11.21113535862217
 30
0.0
 10
7.963268132946864
 20
11.40972639804826
 30
0.0
 10
7.81973691498257
 20
11.58985450026798
 30
0.0
 10
7.652915131238704
 20
11.74632882463191
 30
0.0
 10
7.463195470037785
 20
11.87211788706444
 30
0.0
 10
7.286715641298694
 20
11.95330703212264
 30
0.0
 10
7.129958127895415
 20
12.00287860312284
 30
0.0
 10
6.993799722783113
 20
12.03756277608145
 30
0.0
 10
6.840064387216703
 20
12.06525496164801
 30
0.0
 10
6.668702072977789
 20
12.08767817997193
 30
0.0
 10
6.481040975060387
 20
12.10687367087266
 30
0.0
 10
6.275468846668616
 20
12.11989836605944
 30
0.0
 10
6.052764431784714
 20
12.12752232910316
 30
0.0
 10
5.898158521073671
 20
12.12790048590884
 30
0.0
 10
5.81801382211538
 20
12.12809651504647
 30
0.0
  0
SPLINE
  5
18D
330
1F
100
AcDbEntity
  8
0
  6
Continuous
 62
     7
370
    15
100
AcDbSpline
210
0.0
220
0.0
230
1.0
 70
     8
 71
     3
 72
    23
 73
    19
 74
     0
 42
0.000000001
 43
0.00000001
 40
0.0
 40
0.0
 40
0.0
 40
0.0
 40
0.0725383714064936
 40
0.1400338305012515
 40
0.2024956806336234
 40
0.2605750556694159
 40
0.313228337846466
 40
0.3615831937532649
 40
0.404878361295127
 40
0.4441274373055396
 40
0.5163996933371986
 40
0.5865066709977664
 40
0.6550853737960485
 40
0.7243837831470368
 40
0.7939735287256625
 40
0.8616376821817772
 40
0.9301109423064042
 40
0.9999999999999999
 40
0.9999999999999999
 40
0.9999999999999999
 40
0.9999999999999999
 10
5.743599759615379
 20
8.9321079333157
 30
0.0
 10
5.825024700577518
 20
8.93206585025695
 30
0.0
 10
5.982213870394541
 20
8.931984609779644
 30
0.0
 10
6.20927959219357
 20
8.942830110819543
 30
0.0
 10
6.41994343835401
 20
8.955350131856207
 30
0.0
 10
6.613558318477125
 20
8.97368146642066
 30
0.0
 10
6.79021151160672
 20
8.999592888574048
 30
0.0
 10
6.950197572329335
 20
9.025750546765583
 30
0.0
 10
7.09227596363618
 20
9.063592997837294
 30
0.0
 10
7.258553077013237
 20
9.114546493137338
 30
0.0
 10
7.443837044075072
 20
9.201448825757595
 30
0.0
 10
7.645406586841756
 20
9.327586740831958
 30
0.0
 10
7.816232253983417
 20
9.488370668147942
 30
0.0
 10
7.964055618741687
 20
9.66914926625792
 30
0.0
 10
8.081365186559754
 20
9.870260468481693
 30
0.0
 10
8.167242565649595
 20
10.08544093200037
 30
0.0
 10
8.217701001046116
 20
10.31248386534159
 30
0.0
 10
8.224466999494757
 20
10.46784515751175
 30
0.0
 10
8.227884615384609
 20
10.54632067370031
 30
0.0
  0
SPLINE
  5
194
330
1F
100
AcDbEntity
  8
0
  6
Continuous
 62
     7
370
    15
100
AcDbSpline
210
0.0
220
0.0
230
1.0
 70
     8
 71
     3
 72
    15
 73
    11
 74
     0
 42
0.000000001
 43
0.00000001
 40
0.0
 40
0.0
 40
0.0
 40
0.0
 40
0.0793064855229998
 40
0.1719528189279314
 40
0.2770565073915915
 40
0.3947305758644779
 40
0.52617732127676
 40
0.6713447665976118
 40
0.8292852571892517
 40
0.9999999999999999
 40
0.9999999999999999
 40
0.9999999999999999
 40
0.9999999999999999
 10
58.5680438701923
 20
7.985713702546471
 30
0.0
 10
58.5217004021943
 20
7.995116466739435
 30
0.0
 10
58.42121820444465
 20
8.015503598990135
 30
0.0
 10
58.25736757484907
 20
8.037023848928404
 30
0.0
 10
58.07030781733644
 20
8.056196476206235
 30
0.0
 10
57.85960698717123
 20
8.070378269562493
 30
0.0
 10
57.62499850528329
 20
8.085037363075399
 30
0.0
 10
57.3659813194317
 20
8.090738269129545
 30
0.0
 10
57.08361319882346
 20
8.097539826955227
 30
0.0
 10
56.88769109964993
 20
8.098032770856113
 30
0.0
 10
56.78592247596153
 20
8.098288822738775
 30
0.0
  0
SPLINE
  5
195
330
1F
100
AcDbEntity
  8
0
  6
Continuous
 62
     7
370
    15
100
AcDbSpline
210
0.0
220
0.0
230
1.0
 70
     8
 71
     3
 72
    19
 73
    15
 74
     0
 42
0.000000001
 43
0.00000001
 40
0.0
 40
0.0
 40
0.0
 40
0.0
 40
0.0602873979279714
 40
0.119602354707522
 40
0.1775033710185402
 40
0.2351426637323303
 40
0.2921325932269349
 40
0.3508712086415667
 40
0.4100978625665944
 40
0.4707315215304497
 40
0.5948287040804157
 40
0.7225788240942924
 40
0.8566913895440178
 40
1.0
 40
1.0
 40
1.0
 40
1.0
 10
60.12692307692306
 20
6.283730529469553
 30
0.0
 10
60.12617167869051
 20
6.334058834728422
 30
0.0
 10
60.12468100234642
 20
6.433903645157828
 30
0.0
 10
60.10220032887567
 20
6.580631695947823
 30
0.0
 10
60.06950544036551
 20
6.722760679739426
 30
0.0
 10
60.02723775244229
 20
6.860676530630112
 30
0.0
 10
59.96568048843022
 20
6.99188579054813
 30
0.0
 10
59.89381696234796
 20
7.118983470430246
 30
0.0
 10
59.80955771930078
 20
7.242137582290704
 30
0.0
 10
59.67826466790382
 20
7.397836643463592
 30
0.0
 10
59.4872966243173
 20
7.577225085722173
 30
0.0
 10
59.215951756862
 20
7.752859288319265
 30
0.0
 10
58.90741714595988
 20
7.894503677607322
 30
0.0
 10
58.68364089743567
 20
7.954645823928415
 30
0.0
 10
58.5680438701923
 20
7.985713702546471
 30
0.0
  0
SPLINE
  5
196
330
1F
100
AcDbEntity
  8
0
  6
Continuous
 62
     7
370
    15
100
AcDbSpline
210
0.0
220
0.0
230
1.0
 70
     8
 71
     3
 72
    23
 73
    19
 74
     0
 42
0.000000001
 43
0.00000001
 40
0.0
 40
0.0
 40
0.0
 40
0.0
 40
0.072502488933035
 40
0.1397389892678946
 40
0.2017951348259228
 40
0.2598219344148631
 40
0.3122059893845968
 40
0.360773434124339
 40
0.4045403426007497
 40
0.4436980985527642
 40
0.5168407942439701
 40
0.5878743359442818
 40
0.6579654175616316
 40
0.7289693886473113
 40
0.7993077199548836
 40
0.8666357778344711
 40
0.9331163290572737
 40
1.0
 40
1.0
 40
1.0
 40
1.0
 10
57.43656850961537
 20
4.556942668892623
 30
0.0
 10
57.52370572942149
 20
4.557987010022351
 30
0.0
 10
57.69165123312096
 20
4.559999839872285
 30
0.0
 10
57.93413386652144
 20
4.566570877641368
 30
0.0
 10
58.15887788472308
 20
4.581517713650979
 30
0.0
 10
58.36485773981532
 20
4.605046775950153
 30
0.0
 10
58.55429761447454
 20
4.630569555482911
 30
0.0
 10
58.7249249348603
 20
4.664890255705448
 30
0.0
 10
58.87812283992327
 20
4.704212069706864
 30
0.0
 10
59.05576220598545
 20
4.764992924146498
 30
0.0
 10
59.25579675352146
 20
4.85941689142852
 30
0.0
 10
59.4713634412566
 20
5.001786321895234
 30
0.0
 10
59.66302336349141
 20
5.171394752334163
 30
0.0
 10
59.82577910461796
 20
5.367693883049564
 30
0.0
 10
59.95916445201806
 20
5.581139137047192
 30
0.0
 10
60.05619822620979
 20
5.807413267989836
 30
0.0
 10
60.1160447719954
 20
6.042777453321414
 30
0.0
 10
60.12328967556287
 20
6.203251149599034
 30
0.0
 10
60.12692307692306
 20
6.283730529469553
 30
0.0
  0
SPLINE
  5
197
330
1F
100
AcDbEntity
  8
0
  6
Continuous
 62
     7
370
    15
100
AcDbSpline
210
0.0
220
0.0
230
1.0
 70
     8
 71
     3
 72
    31
 73
    27
 74
     0
 42
0.000000001
 43
0.00000001
 40
0.0
 40
0.0
 40
0.0
 40
0.0
 40
0.0429150821010495
 40
0.0851299705846988
 40
0.1264733185549977
 40
0.1674530378853878
 40
0.2079763328949882
 40
0.2482493780637593
 40
0.2887499869834427
 40
0.329669856910872
 40
0.3705372867119731
 40
0.4111285639171157
 40
0.4518189126736385
 40
0.4924058769342627
 40
0.5334858617420226
 40
0.5752630624415523
 40
0.6174406128021904
 40
0.6606716882923632
 40
0.7039402042434859
 40
0.7468675221598668
 40
0.7890793003947221
 40
0.8311040424574034
 40
0.8732379898547715
 40
0.9151657696593302
 40
0.957380658142982
 40
0.9999999999999999
 40
0.9999999999999999
 40
0.9999999999999999
 40
0.9999999999999999
 10
71.60576923076923
 20
8.348243750623395
 30
0.0
 10
71.60467763045006
 20
8.440542372953976
 30
0.0
 10
71.60251224013714
 20
8.62363369235327
 30
0.0
 10
71.57382164848084
 20
8.894309205179466
 30
0.0
 10
71.53272565397435
 20
9.15897687354751
 30
0.0
 10
71.47349999852398
 20
9.41659765170104
 30
0.0
 10
71.39716350871485
 20
9.66723720920412
 30
0.0
 10
71.30303655958524
 20
9.910660144019499
 30
0.0
 10
71.19204228030287
 20
10.147773303496
 30
0.0
 10
71.0646570410928
 20
10.37799064033119
 30
0.0
 10
70.92146683577486
 20
10.59890189156856
 30
0.0
 10
70.76500035933591
 20
10.81009131422705
 30
0.0
 10
70.59255609046605
 20
11.00759284593653
 30
0.0
 10
70.40906097991672
 20
11.19628226329752
 30
0.0
 10
70.20993164198538
 20
11.3721352343016
 30
0.0
 10
69.99607009881285
 20
11.53521009409105
 30
0.0
 10
69.7700726614763
 20
11.68944236197736
 30
0.0
 10
69.53078497076223
 20
11.82857692670083
 30
0.0
 10
69.28383178239196
 20
11.95706708858461
 30
0.0
 10
69.03042879676657
 20
12.06715160428526
 30
0.0
 10
68.7734467470966
 20
12.16069287204658
 30
0.0
 10
68.513539127107
 20
12.24047689836281
 30
0.0
 10
68.2485183074943
 20
12.298737323255
 30
0.0
 10
67.98017503041802
 20
12.34017937323116
 30
0.0
 10
67.70888055529447
 20
12.36902212341257
 30
0.0
 10
67.52642722161818
 20
12.37122206785721
 30
0.0
 10
67.43476562499998
 20
12.37232728427724
 30
0.0
  0
SPLINE
  5
198
330
1F
100
AcDbEntity
  8
0
  6
Continuous
 62
     7
370
    15
100
AcDbSpline
210
0.0
220
0.0
230
1.0
 70
     8
 71
     3
 72
    31
 73
    27
 74
     0
 42
0.000000001
 43
0.00000001
 40
0.0
 40
0.0
 40
0.0
 40
0.0
 40
0.042023328525922
 40
0.0836449111687107
 40
0.124983795417392
 40
0.1662474611728933
 40
0.207701556096985
 40
0.24963107079965
 40
0.2917417703321302
 40
0.3347428753531975
 40
0.3774601685508653
 40
0.4195563188419398
 40
0.4610441763330334
 40
0.502096283944395
 40
0.5428907140755996
 40
0.5838008186265048
 40
0.6248635833101931
 40
0.6662246890691698
 40
0.7073991864779362
 40
0.7485566775366929
 40
0.7896545909521798
 40
0.8307397264898319
 40
0.8720701422586047
 40
0.9139933952421326
 40
0.9564981300675883
 40
1.0
 40
1.0
 40
1.0
 40
1.0
 10
67.43476562499998
 20
12.37232728427724
 30
0.0
 10
67.34437437227741
 20
12.37122540437377
 30
0.0
 10
67.16445601336534
 20
12.36903217861376
 30
0.0
 10
66.89698166829382
 20
12.34014226694957
 30
0.0
 10
66.63302504836857
 20
12.29896735482036
 30
0.0
 10
66.37253164131582
 20
12.24023478759689
 30
0.0
 10
66.11659138236621
 20
12.16021375826294
 30
0.0
 10
65.86281860031657
 20
12.06811814383323
 30
0.0
 10
65.61352743228805
 20
11.9559378901414
 30
0.0
 10
65.36954086197898
 20
11.82919360182113
 30
0.0
 10
65.13300769318882
 20
11.68890689591951
 30
0.0
 10
64.90981598422977
 20
11.53386230134539
 30
0.0
 10
64.69938793172842
 20
11.36769580728668
 30
0.0
 10
64.5022387560521
 20
11.19001962128126
 30
0.0
 10
64.31894735177724
 20
10.99992891926388
 30
0.0
 10
64.1459061285379
 20
10.80030550382918
 30
0.0
 10
63.99005105277253
 20
10.58544357177469
 30
0.0
 10
63.84721530440788
 20
10.36116953594408
 30
0.0
 10
63.71939568193877
 20
10.12777551851976
 30
0.0
 10
63.6057342523011
 20
9.887718679062067
 30
0.0
 10
63.51275934262328
 20
9.63904083147233
 30
0.0
 10
63.43693387573568
 20
9.384439874068395
 30
0.0
 10
63.37406939050269
 20
9.124319037412798
 30
0.0
 10
63.33424421136026
 20
8.85670504878605
 30
0.0
 10
63.30503686171784
 20
8.582942636762583
 30
0.0
 10
63.30296899659329
 20
8.39793487683349
 30
0.0
 10
63.30192307692306
 20
8.304358534277245
 30
0.0
  0
SPLINE
  5
199
330
1F
100
AcDbEntity
  8
0
  6
Continuous
 62
     7
370
    15
100
AcDbSpline
210
0.0
220
0.0
230
1.0
 70
     8
 71
     3
 72
    31
 73
    27
 74
     0
 42
0.000000001
 43
0.00000001
 40
0.0
 40
0.0
 40
0.0
 40
0.0
 40
0.0436332182657582
 40
0.0865377766972047
 40
0.1291773360898928
 40
0.1714363236638299
 40
0.2134158945709085
 40
0.2552659545538533
 40
0.2973694811566242
 40
0.3399407478985557
 40
0.3823474587518128
 40
0.4239529468152715
 40
0.4648711632610181
 40
0.5055722941182728
 40
0.5460025771083168
 40
0.5865679748069146
 40
0.6270647991481699
 40
0.6682706840331746
 40
0.7095492248503337
 40
0.7504281535131899
 40
0.791096194448593
 40
0.8320271447794348
 40
0.8731359553359678
 40
0.9146107643654491
 40
0.9569559864804374
 40
1.0
 40
1.0
 40
1.0
 40
1.0
 10
67.43476562499998
 20
4.312711899661855
 30
0.0
 10
67.52895291153034
 20
4.314005950829807
 30
0.0
 10
67.7157545890925
 20
4.316572442953421
 30
0.0
 10
67.99360026063829
 20
4.342422413487979
 30
0.0
 10
68.2664403797061
 20
4.383874858118843
 30
0.0
 10
68.53389225566602
 20
4.443557570882939
 30
0.0
 10
68.7956523495106
 20
4.518253182662211
 30
0.0
 10
69.05281320655914
 20
4.606992785179412
 30
0.0
 10
69.30263569664302
 20
4.71770377520285
 30
0.0
 10
69.54827139808765
 20
4.840026414857181
 30
0.0
 10
69.78339259869004
 20
4.979472843572995
 30
0.0
 10
70.00784386871008
 20
5.129255236574398
 30
0.0
 10
70.21596778531514
 20
5.295176982934698
 30
0.0
 10
70.41296947253927
 20
5.470213315643763
 30
0.0
 10
70.59701339758337
 20
5.657893501597997
 30
0.0
 10
70.76685499036756
 20
5.857973533909898
 30
0.0
 10
70.92192235000476
 20
6.071716322522993
 30
0.0
 10
71.06470385970498
 20
6.295650176716183
 30
0.0
 10
71.1920755962047
 20
6.5296828358095
 30
0.0
 10
71.30305300147407
 20
6.770610030797583
 30
0.0
 10
71.39720385956163
 20
7.017838507002661
 30
0.0
 10
71.47320929056134
 20
7.271724855105521
 30
0.0
 10
71.53276901128477
 20
7.531786879260441
 30
0.0
 10
71.57380793617716
 20
7.798372791970973
 30
0.0
 10
71.60251475849509
 20
8.070949288319044
 30
0.0
 10
71.60467850426741
 20
8.255309353472033
 30
0.0
 10
71.60576923076923
 20
8.348243750623395
 30
0.0
  0
SPLINE
  5
19A
330
1F
100
AcDbEntity
  8
0
  6
Continuous
 62
     7
370
    15
100
AcDbSpline
210
0.0
220
0.0
230
1.0
 70
     8
 71
     3
 72
    23
 73
    19
 74
     0
 42
0.000000001
 43
0.00000001
 40
0.0
 40
0.0
 40
0.0
 40
0.0
 40
0.0645039992970559
 40
0.1268993215900406
 40
0.1877465401000121
 40
0.2481497329298272
 40
0.308586064762743
 40
0.3695830050869952
 40
0.4318269653810512
 40
0.4961797225241587
 40
0.5606678546118814
 40
0.6235044551176668
 40
0.685260411330427
 40
0.7465368217511664
 40
0.8083273517367107
 40
0.8704861878877702
 40
0.9343168833592476
 40
1.0
 40
1.0
 40
1.0
 40
1.0
 10
63.30192307692306
 20
8.304358534277245
 30
0.0
 10
63.30539252267896
 20
8.166757061949054
 30
0.0
 10
63.31221799578937
 20
7.89605239745493
 30
0.0
 10
63.3719739544603
 20
7.49935480588234
 30
0.0
 10
63.46401804207838
 20
7.118114540903345
 30
0.0
 10
63.59970130359544
 20
6.754417630611701
 30
0.0
 10
63.76938404777086
 20
6.405137832334352
 30
0.0
 10
63.97900722773266
 20
6.073373633149255
 30
0.0
 10
64.22736231060267
 20
5.759035367916651
 30
0.0
 10
64.50947519371184
 20
5.464317528791882
 30
0.0
 10
64.81787484524358
 20
5.195315732968636
 30
0.0
 10
65.14535177455032
 20
4.95919531372737
 30
0.0
 10
65.48839766349786
 20
4.759414562421988
 30
0.0
 10
65.84790709373685
 20
4.596659329721524
 30
0.0
 10
66.22196075352379
 20
4.46769154328281
 30
0.0
 10
66.61296894599003
 20
4.379303268571444
 30
0.0
 10
67.01832698242822
 20
4.321131493605961
 30
0.0
 10
67.29463540825681
 20
4.315545064992023
 30
0.0
 10
67.43476562499998
 20
4.312711899661855
 30
0.0
  0
SPLINE
  5
19E
330
1F
100
AcDbEntity
  8
0
  6
Continuous
 62
     7
370
    15
100
AcDbSpline
210
0.0
220
0.0
230
1.0
 70
     8
 71
     3
 72
    23
 73
    19
 74
     0
 42
0.000000001
 43
0.00000001
 40
0.0
 40
0.0
 40
0.0
 40
0.0
 40
0.0723010339955045
 40
0.139700331739385
 40
0.2022885114847723
 40
0.2605995332222008
 40
0.3131903291553317
 40
0.3617389329854289
 40
0.4057064756322238
 40
0.4455399848948709
 40
0.5188319558616066
 40
0.589778239583576
 40
0.6588674786561465
 40
0.7284304780610644
 40
0.7972827036080989
 40
0.8648153774014454
 40
0.9313637528792686
 40
1.0
 40
1.0
 40
1.0
 40
1.0
 10
56.79355468749999
 20
9.075211899661856
 30
0.0
 10
56.8775074806044
 20
9.076300261558105
 30
0.0
 10
57.03972138542713
 20
9.078403198536394
 30
0.0
 10
57.27463481820499
 20
9.084427127112153
 30
0.0
 10
57.49268933201021
 20
9.101294659554137
 30
0.0
 10
57.69350853487584
 20
9.118157344145644
 30
0.0
 10
57.87677618595645
 20
9.145574614859292
 30
0.0
 10
58.04208626618723
 20
9.178210320785043
 30
0.0
 10
58.19203316214131
 20
9.212725941083237
 30
0.0
 10
58.36495149677977
 20
9.271425759004977
 30
0.0
 10
58.56109287794075
 20
9.358178575041155
 30
0.0
 10
58.77018868281814
 20
9.492812643339128
 30
0.0
 10
58.95452320362782
 20
9.653171061688107
 30
0.0
 10
59.11018126449242
 20
9.838203607607134
 30
0.0
 10
59.23757533785955
 20
10.04194658483526
 30
0.0
 10
59.32605909124364
 20
10.26114916658982
 30
0.0
 10
59.38605920034048
 20
10.49034824020089
 30
0.0
 10
59.39147901067685
 20
10.64769648529312
 30
0.0
 10
59.39423076923077
 20
10.72758569773878
 30
0.0
  0
SPLINE
  5
19F
330
1F
100
AcDbEntity
  8
0
  6
Continuous
 62
     7
370
    15
100
AcDbSpline
210
0.0
220
0.0
230
1.0
 70
     8
 71
     3
 72
    23
 73
    19
 74
     0
 42
0.000000001
 43
0.00000001
 40
0.0
 40
0.0
 40
0.0
 40
0.0
 40
0.057003132512924
 40
0.1118178691207239
 40
0.1644023722182109
 40
0.2158698048987959
 40
0.2668411100818679
 40
0.3174789632053581
 40
0.3699021362727595
 40
0.4234004494436366
 40
0.4797183982994522
 40
0.5392414966442982
 40
0.6024306889434236
 40
0.6710295461473352
 40
0.7444847975608486
 40
0.8234539713786855
 40
0.9087403127306668
 40
1.0
 40
1.0
 40
1.0
 40
1.0
 10
59.39423076923076
 20
10.72758569773878
 30
0.0
 10
59.39279880744486
 20
10.78045154735779
 30
0.0
 10
59.38998985803274
 20
10.88415368429411
 30
0.0
 10
59.36698479880069
 20
11.0353272838198
 30
0.0
 10
59.32788447122959
 20
11.17750492458512
 30
0.0
 10
59.27766243034038
 20
11.31263503911039
 30
0.0
 10
59.20748035604799
 20
11.4364922886385
 30
0.0
 10
59.12484835949042
 20
11.5533591283508
 30
0.0
 10
59.02501087377339
 20
11.6592556794031
 30
0.0
 10
58.91137133004536
 20
11.75823267124691
 30
0.0
 10
58.78071929212368
 20
11.84598385046875
 30
0.0
 10
58.63313270510108
 20
11.92283907024829
 30
0.0
 10
58.46661481251219
 20
11.98472646964132
 30
0.0
 10
58.28397197145566
 20
12.03892685602682
 30
0.0
 10
58.0823927976201
 20
12.0769949984893
 30
0.0
 10
57.8642034772724
 20
12.10870886061321
 30
0.0
 10
57.62761684906329
 20
12.12485439421143
 30
0.0
 10
57.46393624861832
 20
12.12699170317749
 30
0.0
 10
57.37932692307692
 20
12.12809651504647
 30
0.0
  0
LINE
  5
1A0
330
1F
100
AcDbEntity
  8
0
  6
Continuous
 62
     7
370
    15
100
AcDbLine
 10
47.5490384615
 20
38.3069426689
 30
0.0
 11
48.6423527644
 21
38.3069426689
 31
0.0
  0
LINE
  5
1A1
330
1F
100
AcDbEntity
  8
0
  6
Continuous
 62
     7
370
    15
100
AcDbLine
 10
48.218765024
 20
45.878096515
 30
0.0
 11
47.5490384615
 21
45.878096515
 31
0.0
  0
LINE
  5
1A2
330
1F
100
AcDbEntity
  8
0
  6
Continuous
 62
     7
370
    15
100
AcDbLine
 10
47.5490384615
 20
45.878096515
 30
0.0
 11
47.5490384615
 21
38.3069426689
 31
0.0
  0
LINE
  5
1A3
330
1F
100
AcDbEntity
  8
0
  6
Continuous
 62
     7
370
    15
100
AcDbLine
 10
4.0759615385
 20
42.703096515
 30
0.0
 11
5.819921875
 21
42.6897401449
 31
0.0
  0
LINE
  5
1A4
330
1F
100
AcDbEntity
  8
0
  6
Continuous
 62
     7
370
    15
100
AcDbLine
 10
4.0759615385
 20
45.878096515
 30
0.0
 11
4.0759615385
 21
42.703096515
 31
0.0
  0
LINE
  5
1A5
330
1F
100
AcDbEntity
  8
0
  6
Continuous
 62
     7
370
    15
100
AcDbLine
 10
5.8618990385
 20
45.878096515
 30
0.0
 11
4.0759615385
 21
45.878096515
 31
0.0
  0
LINE
  5
1A6
330
1F
100
AcDbEntity
  8
0
  6
Continuous
 62
     7
370
    15
100
AcDbLine
 10
34.2384615385
 20
21.4319426689
 30
0.0
 11
35.4557992788
 21
21.4319426689
 31
0.0
  0
LINE
  5
1A7
330
1F
100
AcDbEntity
  8
0
  6
Continuous
 62
     7
370
    15
100
AcDbLine
 10
34.2384615385
 20
24.9732888227
 30
0.0
 11
34.2384615385
 21
21.4319426689
 31
0.0
  0
LINE
  5
1A8
330
1F
100
AcDbEntity
  8
0
  6
Continuous
 62
     7
370
    15
100
AcDbLine
 10
34.8051532452
 20
24.9732888227
 30
0.0
 11
34.2384615385
 21
24.9732888227
 31
0.0
  0
LINE
  5
1A9
330
1F
100
AcDbEntity
  8
0
  6
Continuous
 62
     7
370
    15
100
AcDbLine
 10
76.2461538462
 20
12.128096515
 30
0.0
 11
76.2461538462
 21
3.580019592
 31
0.0
  0
LINE
  5
1AA
330
1F
100
AcDbEntity
  8
0
  6
Continuous
 62
     7
370
    15
100
AcDbLine
 10
78.3221153846
 20
12.128096515
 30
0.0
 11
76.2461538462
 21
12.128096515
 31
0.0
  0
LINE
  5
1AB
330
1F
100
AcDbEntity
  8
0
  6
Continuous
 62
     7
370
    15
100
AcDbLine
 10
78.3221153846
 20
13.105019592
 30
0.0
 11
78.3221153846
 21
12.128096515
 31
0.0
  0
LINE
  5
1AC
330
1F
100
AcDbEntity
  8
0
  6
Continuous
 62
     7
370
    15
100
AcDbLine
 10
73.3153846154
 20
13.105019592
 30
0.0
 11
78.3221153846
 21
13.105019592
 31
0.0
  0
LINE
  5
1AD
330
1F
100
AcDbEntity
  8
0
  6
Continuous
 62
     7
370
    15
100
AcDbLine
 10
73.3153846154
 20
12.128096515
 30
0.0
 11
73.3153846154
 21
13.105019592
 31
0.0
  0
LINE
  5
1AE
330
1F
100
AcDbEntity
  8
0
  6
Continuous
 62
     7
370
    15
100
AcDbLine
 10
75.3913461538
 20
12.128096515
 30
0.0
 11
73.3153846154
 21
12.128096515
 31
0.0
  0
LINE
  5
1AF
330
1F
100
AcDbEntity
  8
0
  6
Continuous
 62
     7
370
    15
100
AcDbLine
 10
75.3913461538
 20
3.580019592
 30
0.0
 11
75.3913461538
 21
12.128096515
 31
0.0
  0
LINE
  5
1B0
330
1F
100
AcDbEntity
  8
0
  6
Continuous
 62
     7
370
    15
100
AcDbLine
 10
28.6211538462
 20
3.580019592
 30
0.0
 11
27.7663461538
 21
3.580019592
 31
0.0
  0
LINE
  5
1B1
330
1F
100
AcDbEntity
  8
0
  6
Continuous
 62
     7
370
    15
100
AcDbLine
 10
28.6211538462
 20
12.128096515
 30
0.0
 11
28.6211538462
 21
3.580019592
 31
0.0
  0
LINE
  5
1B2
330
1F
100
AcDbEntity
  8
0
  6
Continuous
 62
     7
370
    15
100
AcDbLine
 10
30.6971153846
 20
12.128096515
 30
0.0
 11
28.6211538462
 21
12.128096515
 31
0.0
  0
LINE
  5
1B3
330
1F
100
AcDbEntity
  8
0
  6
Continuous
 62
     7
370
    15
100
AcDbLine
 10
30.6971153846
 20
13.105019592
 30
0.0
 11
30.6971153846
 21
12.128096515
 31
0.0
  0
LINE
  5
1B4
330
1F
100
AcDbEntity
  8
0
  6
Continuous
 62
     7
370
    15
100
AcDbLine
 10
25.6903846154
 20
13.105019592
 30
0.0
 11
30.6971153846
 21
13.105019592
 31
0.0
  0
LINE
  5
1B5
330
1F
100
AcDbEntity
  8
0
  6
Continuous
 62
     7
370
    15
100
AcDbLine
 10
25.6903846154
 20
12.128096515
 30
0.0
 11
25.6903846154
 21
13.105019592
 31
0.0
  0
LINE
  5
1B6
330
1F
100
AcDbEntity
  8
0
  6
Continuous
 62
     7
370
    15
100
AcDbLine
 10
27.7663461538
 20
12.128096515
 30
0.0
 11
25.6903846154
 21
12.128096515
 31
0.0
  0
LINE
  5
1B7
330
1F
100
AcDbEntity
  8
0
  6
Continuous
 62
     7
370
    15
100
AcDbLine
 10
27.7663461538
 20
3.580019592
 30
0.0
 11
27.7663461538
 21
12.128096515
 31
0.0
  0
LINE
  5
1B8
330
1F
100
AcDbEntity
  8
0
  6
Continuous
 62
     7
370
    15
100
AcDbLine
 10
24.3471153846
 20
13.105019592
 30
0.0
 11
24.3471153846
 21
3.580019592
 31
0.0
  0
LINE
  5
1B9
330
1F
100
AcDbEntity
  8
0
  6
Continuous
 62
     7
370
    15
100
AcDbLine
 10
23.4923076923
 20
13.105019592
 30
0.0
 11
24.3471153846
 21
13.105019592
 31
0.0
  0
LINE
  5
1BA
330
1F
100
AcDbEntity
  8
0
  6
Continuous
 62
     7
370
    15
100
AcDbLine
 10
23.4923076923
 20
3.580019592
 30
0.0
 11
23.4923076923
 21
13.105019592
 31
0.0
  0
LINE
  5
1BB
330
1F
100
AcDbEntity
  8
0
  6
Continuous
 62
     7
370
    15
100
AcDbLine
 10
24.3471153846
 20
3.580019592
 30
0.0
 11
23.4923076923
 21
3.580019592
 31
0.0
  0
LINE
  5
1BC
330
1F
100
AcDbEntity
  8
0
  6
Continuous
 62
     7
370
    15
100
AcDbLine
 10
19.9509615385
 20
3.580019592
 30
0.0
 11
19.0961538462
 21
3.580019592
 31
0.0
  0
LINE
  5
1BD
330
1F
100
AcDbEntity
  8
0
  6
Continuous
 62
     7
370
    15
100
AcDbLine
 10
19.9509615385
 20
12.128096515
 30
0.0
 11
19.9509615385
 21
3.580019592
 31
0.0
  0
LINE
  5
1BE
330
1F
100
AcDbEntity
  8
0
  6
Continuous
 62
     7
370
    15
100
AcDbLine
 10
22.0269230769
 20
12.128096515
 30
0.0
 11
19.9509615385
 21
12.128096515
 31
0.0
  0
LINE
  5
1BF
330
1F
100
AcDbEntity
  8
0
  6
Continuous
 62
     7
370
    15
100
AcDbLine
 10
22.0269230769
 20
13.105019592
 30
0.0
 11
22.0269230769
 21
12.128096515
 31
0.0
  0
LINE
  5
1C0
330
1F
100
AcDbEntity
  8
0
  6
Continuous
 62
     7
370
    15
100
AcDbLine
 10
17.0201923077
 20
13.105019592
 30
0.0
 11
22.0269230769
 21
13.105019592
 31
0.0
  0
LINE
  5
1C1
330
1F
100
AcDbEntity
  8
0
  6
Continuous
 62
     7
370
    15
100
AcDbLine
 10
17.0201923077
 20
12.128096515
 30
0.0
 11
17.0201923077
 21
13.105019592
 31
0.0
  0
LINE
  5
1C2
330
1F
100
AcDbEntity
  8
0
  6
Continuous
 62
     7
370
    15
100
AcDbLine
 10
19.0961538462
 20
12.128096515
 30
0.0
 11
17.0201923077
 21
12.128096515
 31
0.0
  0
LINE
  5
1C3
330
1F
100
AcDbEntity
  8
0
  6
Continuous
 62
     7
370
    15
100
AcDbLine
 10
19.0961538462
 20
3.580019592
 30
0.0
 11
19.0961538462
 21
12.128096515
 31
0.0
  0
LINE
  5
1C4
330
1F
100
AcDbEntity
  8
0
  6
Continuous
 62
     7
370
    15
100
AcDbLine
 10
11.8913461538
 20
4.5569426689
 30
0.0
 11
16.4096153846
 21
4.5569426689
 31
0.0
  0
LINE
  5
1C5
330
1F
100
AcDbEntity
  8
0
  6
Continuous
 62
     7
370
    15
100
AcDbLine
 10
11.8913461538
 20
8.2204042074
 30
0.0
 11
11.8913461538
 21
4.5569426689
 31
0.0
  0
LINE
  5
1C6
330
1F
100
AcDbEntity
  8
0
  6
Continuous
 62
     7
370
    15
100
AcDbLine
 10
16.4096153846
 20
8.2204042074
 30
0.0
 11
11.8913461538
 21
8.2204042074
 31
0.0
  0
LINE
  5
1C7
330
1F
100
AcDbEntity
  8
0
  6
Continuous
 62
     7
370
    15
100
AcDbLine
 10
16.4096153846
 20
9.1973272843
 30
0.0
 11
16.4096153846
 21
8.2204042074
 31
0.0
  0
LINE
  5
1C8
330
1F
100
AcDbEntity
  8
0
  6
Continuous
 62
     7
370
    15
100
AcDbLine
 10
11.8913461538
 20
9.1973272843
 30
0.0
 11
16.4096153846
 21
9.1973272843
 31
0.0
  0
LINE
  5
1C9
330
1F
100
AcDbEntity
  8
0
  6
Continuous
 62
     7
370
    15
100
AcDbLine
 10
11.8913461538
 20
12.128096515
 30
0.0
 11
11.8913461538
 21
9.1973272843
 31
0.0
  0
LINE
  5
1CA
330
1F
100
AcDbEntity
  8
0
  6
Continuous
 62
     7
370
    15
100
AcDbLine
 10
16.4096153846
 20
13.105019592
 30
0.0
 11
16.4096153846
 21
12.128096515
 31
0.0
  0
LINE
  5
1CB
330
1F
100
AcDbEntity
  8
0
  6
Continuous
 62
     7
370
    15
100
AcDbLine
 10
11.0365384615
 20
13.105019592
 30
0.0
 11
16.4096153846
 21
13.105019592
 31
0.0
  0
LINE
  5
1CC
330
1F
100
AcDbEntity
  8
0
  6
Continuous
 62
     7
370
    15
100
AcDbLine
 10
11.0365384615
 20
3.580019592
 30
0.0
 11
11.0365384615
 21
13.105019592
 31
0.0
  0
LINE
  5
1CD
330
1F
100
AcDbEntity
  8
0
  6
Continuous
 62
     7
370
    15
100
AcDbLine
 10
16.4096153846
 20
3.580019592
 30
0.0
 11
11.0365384615
 21
3.580019592
 31
0.0
  0
LINE
  5
1CE
330
1F
100
AcDbEntity
  8
0
  6
Continuous
 62
     7
370
    15
100
AcDbLine
 10
4.0759615385
 20
7.9761734381
 30
0.0
 11
4.0759615385
 21
3.580019592
 31
0.0
  0
LINE
  5
1CF
330
1F
100
AcDbEntity
  8
0
  6
Continuous
 62
     7
370
    15
100
AcDbLine
 10
3.2211538462
 20
13.105019592
 30
0.0
 11
5.0891376202
 21
13.105019592
 31
0.0
  0
LINE
  5
1D0
330
1F
100
AcDbEntity
  8
0
  6
Continuous
 62
     7
370
    15
100
AcDbLine
 10
3.2211538462
 20
3.580019592
 30
0.0
 11
3.2211538462
 21
13.105019592
 31
0.0
  0
LINE
  5
1D1
330
1F
100
AcDbEntity
  8
0
  6
Continuous
 62
     7
370
    15
100
AcDbLine
 10
4.0759615385
 20
3.580019592
 30
0.0
 11
3.2211538462
 21
3.580019592
 31
0.0
  0
LINE
  5
1D2
330
1F
100
AcDbEntity
  8
0
  6
Continuous
 62
     7
370
    15
100
AcDbLine
 10
65.2557692308
 20
29.980019592
 30
0.0
 11
65.2557692308
 21
20.455019592
 31
0.0
  0
LINE
  5
1D3
330
1F
100
AcDbEntity
  8
0
  6
Continuous
 62
     7
370
    15
100
AcDbLine
 10
64.4009615385
 20
29.980019592
 30
0.0
 11
65.2557692308
 21
29.980019592
 31
0.0
  0
LINE
  5
1D4
330
1F
100
AcDbEntity
  8
0
  6
Continuous
 62
     7
370
    15
100
AcDbLine
 10
64.4009615385
 20
20.455019592
 30
0.0
 11
64.4009615385
 21
29.980019592
 31
0.0
  0
LINE
  5
1D5
330
1F
100
AcDbEntity
  8
0
  6
Continuous
 62
     7
370
    15
100
AcDbLine
 10
65.2557692308
 20
20.455019592
 30
0.0
 11
64.4009615385
 21
20.455019592
 31
0.0
  0
LINE
  5
1D6
330
1F
100
AcDbEntity
  8
0
  6
Continuous
 62
     7
370
    15
100
AcDbLine
 10
60.8596153846
 20
20.455019592
 30
0.0
 11
60.0048076923
 21
20.455019592
 31
0.0
  0
LINE
  5
1D7
330
1F
100
AcDbEntity
  8
0
  6
Continuous
 62
     7
370
    15
100
AcDbLine
 10
60.8596153846
 20
29.003096515
 30
0.0
 11
60.8596153846
 21
20.455019592
 31
0.0
  0
LINE
  5
1D8
330
1F
100
AcDbEntity
  8
0
  6
Continuous
 62
     7
370
    15
100
AcDbLine
 10
62.9355769231
 20
29.003096515
 30
0.0
 11
60.8596153846
 21
29.003096515
 31
0.0
  0
LINE
  5
1D9
330
1F
100
AcDbEntity
  8
0
  6
Continuous
 62
     7
370
    15
100
AcDbLine
 10
62.9355769231
 20
29.980019592
 30
0.0
 11
62.9355769231
 21
29.003096515
 31
0.0
  0
LINE
  5
1DA
330
1F
100
AcDbEntity
  8
0
  6
Continuous
 62
     7
370
    15
100
AcDbLine
 10
57.9288461538
 20
29.980019592
 30
0.0
 11
62.9355769231
 21
29.980019592
 31
0.0
  0
LINE
  5
1DB
330
1F
100
AcDbEntity
  8
0
  6
Continuous
 62
     7
370
    15
100
AcDbLine
 10
60.0048076923
 20
29.003096515
 30
0.0
 11
57.9288461538
 21
29.003096515
 31
0.0
  0
LINE
  5
1DC
330
1F
100
AcDbEntity
  8
0
  6
Continuous
 62
     7
370
    15
100
AcDbLine
 10
60.0048076923
 20
20.455019592
 30
0.0
 11
60.0048076923
 21
29.003096515
 31
0.0
  0
LINE
  5
1DD
330
1F
100
AcDbEntity
  8
0
  6
Continuous
 62
     7
370
    15
100
AcDbLine
 10
49.2147686298
 20
20.455019592
 30
0.0
 11
48.2817307692
 21
20.455019592
 31
0.0
  0
LINE
  5
1DE
330
1F
100
AcDbEntity
  8
0
  6
Continuous
 62
     7
370
    15
100
AcDbLine
 10
50.6629807692
 20
23.5079042074
 30
0.0
 11
49.2147686298
 21
20.455019592
 31
0.0
  0
LINE
  5
1DF
330
1F
100
AcDbEntity
  8
0
  6
Continuous
 62
     7
370
    15
100
AcDbLine
 10
54.9809044471
 20
23.5079042074
 30
0.0
 11
50.6629807692
 21
23.5079042074
 31
0.0
  0
LINE
  5
1E0
330
1F
100
AcDbEntity
  8
0
  6
Continuous
 62
     7
370
    15
100
AcDbLine
 10
56.389047476
 20
20.455019592
 30
0.0
 11
54.9809044471
 21
23.5079042074
 31
0.0
  0
LINE
  5
1E1
330
1F
100
AcDbEntity
  8
0
  6
Continuous
 62
     7
370
    15
100
AcDbLine
 10
52.9221153846
 20
29.980019592
 30
0.0
 11
57.3182692308
 21
20.455019592
 31
0.0
  0
LINE
  5
1E2
330
1F
100
AcDbEntity
  8
0
  6
Continuous
 62
     7
370
    15
100
AcDbLine
 10
52.8
 20
29.980019592
 30
0.0
 11
52.9221153846
 21
29.980019592
 31
0.0
  0
LINE
  5
1E3
330
1F
100
AcDbEntity
  8
0
  6
Continuous
 62
     7
370
    15
100
AcDbLine
 10
48.2817307692
 20
20.455019592
 30
0.0
 11
52.8
 21
29.980019592
 31
0.0
  0
LINE
  5
1E4
330
1F
100
AcDbEntity
  8
0
  6
Continuous
 62
     7
370
    15
100
AcDbLine
 10
11.2655048077
 20
22.7752118997
 30
0.0
 11
12.0134615385
 21
22.2085201929
 31
0.0
  0
LINE
  5
1E5
330
1F
100
AcDbEntity
  8
0
  6
Continuous
 62
     7
370
    15
100
AcDbLine
 10
61.8365384615
 20
37.330019592
 30
0.0
 11
56.4634615385
 21
37.330019592
 31
0.0
  0
LINE
  5
1E6
330
1F
100
AcDbEntity
  8
0
  6
Continuous
 62
     7
370
    15
100
AcDbLine
 10
46.6942307692
 20
46.855019592
 30
0.0
 11
48.6175480769
 21
46.855019592
 31
0.0
  0
LINE
  5
1E7
330
1F
100
AcDbEntity
  8
0
  6
Continuous
 62
     7
370
    15
100
AcDbLine
 10
0.0
 20
52.330019592
 30
0.0
 11
0.0
 21
-7.669980408
 31
0.0
  0
LINE
  5
1E8
330
1F
100
AcDbEntity
  8
0
  6
Continuous
 62
     7
370
    15
100
AcDbLine
 10
12.1355769231
 20
38.3069426689
 30
0.0
 11
16.6538461538
 21
38.3069426689
 31
0.0
  0
LINE
  5
1E9
330
1F
100
AcDbEntity
  8
0
  6
Continuous
 62
     7
370
    15
100
AcDbLine
 10
12.1355769231
 20
41.9704042074
 30
0.0
 11
12.1355769231
 21
38.3069426689
 31
0.0
  0
LINE
  5
1EA
330
1F
100
AcDbEntity
  8
0
  6
Continuous
 62
     7
370
    15
100
AcDbLine
 10
16.6538461538
 20
41.9704042074
 30
0.0
 11
12.1355769231
 21
41.9704042074
 31
0.0
  0
LINE
  5
1EB
330
1F
100
AcDbEntity
  8
0
  6
Continuous
 62
     7
370
    15
100
AcDbLine
 10
16.6538461538
 20
42.9473272843
 30
0.0
 11
16.6538461538
 21
41.9704042074
 31
0.0
  0
LINE
  5
1EC
330
1F
100
AcDbEntity
  8
0
  6
Continuous
 62
     7
370
    15
100
AcDbLine
 10
16.6538461538
 20
37.330019592
 30
0.0
 11
11.2807692308
 21
37.330019592
 31
0.0
  0
LINE
  5
1ED
330
1F
100
AcDbEntity
  8
0
  6
Continuous
 62
     7
370
    15
100
AcDbLine
 10
27.2778846154
 20
45.2293585343
 30
0.0
 11
26.5451923077
 21
44.5348272843
 31
0.0
  0
LINE
  5
1EE
330
1F
100
AcDbEntity
  8
0
  6
Continuous
 62
     7
370
    15
100
AcDbLine
 10
34.3605769231
 20
38.3069426689
 30
0.0
 11
34.3605769231
 21
37.330019592
 31
0.0
  0
LINE
  5
1EF
330
1F
100
AcDbEntity
  8
0
  6
Continuous
 62
     7
370
    15
100
AcDbLine
 10
30.6971153846
 20
38.3069426689
 30
0.0
 11
34.3605769231
 21
38.3069426689
 31
0.0
  0
LINE
  5
1F0
330
1F
100
AcDbEntity
  8
0
  6
Continuous
 62
     7
370
    15
100
AcDbLine
 10
30.6971153846
 20
46.855019592
 30
0.0
 11
30.6971153846
 21
38.3069426689
 31
0.0
  0
LINE
  5
1F1
330
1F
100
AcDbEntity
  8
0
  6
Continuous
 62
     7
370
    15
100
AcDbLine
 10
34.3605769231
 20
37.330019592
 30
0.0
 11
29.8423076923
 21
37.330019592
 31
0.0
  0
LINE
  5
1F2
330
1F
100
AcDbEntity
  8
0
  6
Continuous
 62
     7
370
    15
100
AcDbLine
 10
36.8028846154
 20
41.9704042074
 30
0.0
 11
36.8028846154
 21
38.3069426689
 31
0.0
  0
LINE
  5
1F3
330
1F
100
AcDbEntity
  8
0
  6
Continuous
 62
     7
370
    15
100
AcDbLine
 10
36.8028846154
 20
42.9473272843
 30
0.0
 11
41.3211538462
 21
42.9473272843
 31
0.0
  0
LINE
  5
1F4
330
1F
100
AcDbEntity
  8
0
  6
Continuous
 62
     7
370
    15
100
AcDbLine
 10
36.8028846154
 20
45.878096515
 30
0.0
 11
36.8028846154
 21
42.9473272843
 31
0.0
  0
LINE
  5
1F5
330
1F
100
AcDbEntity
  8
0
  6
Continuous
 62
     7
370
    15
100
AcDbLine
 10
41.3211538462
 20
46.855019592
 30
0.0
 11
41.3211538462
 21
45.878096515
 31
0.0
  0
LINE
  5
1F6
330
1F
100
AcDbEntity
  8
0
  6
Continuous
 62
     7
370
    15
100
AcDbLine
 10
35.9480769231
 20
46.855019592
 30
0.0
 11
41.3211538462
 21
46.855019592
 31
0.0
  0
LINE
  5
1F7
330
1F
100
AcDbEntity
  8
0
  6
Continuous
 62
     7
370
    15
100
AcDbLine
 10
14.1676532452
 20
20.455019592
 30
0.0
 11
13.2346153846
 21
20.455019592
 31
0.0
  0
LINE
  5
1F8
330
1F
100
AcDbEntity
  8
0
  6
Continuous
 62
     7
370
    15
100
AcDbLine
 10
15.6158653846
 20
23.5079042074
 30
0.0
 11
14.1676532452
 21
20.455019592
 31
0.0
  0
LINE
  5
1F9
330
1F
100
AcDbEntity
  8
0
  6
Continuous
 62
     7
370
    15
100
AcDbLine
 10
13.2346153846
 20
20.455019592
 30
0.0
 11
17.7528846154
 21
29.980019592
 31
0.0
  0
LINE
  5
1FA
330
1F
100
AcDbEntity
  8
0
  6
Continuous
 62
     7
370
    15
100
AcDbLine
 10
28.4990384615
 20
21.4319426689
 30
0.0
 11
28.4990384615
 21
20.455019592
 31
0.0
  0
LINE
  5
1FB
330
1F
100
AcDbEntity
  8
0
  6
Continuous
 62
     7
370
    15
100
AcDbLine
 10
24.8355769231
 20
21.4319426689
 30
0.0
 11
28.4990384615
 21
21.4319426689
 31
0.0
  0
LINE
  5
1FC
330
1F
100
AcDbEntity
  8
0
  6
Continuous
 62
     7
370
    15
100
AcDbLine
 10
24.8355769231
 20
29.980019592
 30
0.0
 11
24.8355769231
 21
21.4319426689
 31
0.0
  0
LINE
  5
1FD
330
1F
100
AcDbEntity
  8
0
  6
Continuous
 62
     7
370
    15
100
AcDbLine
 10
23.9807692308
 20
20.455019592
 30
0.0
 11
23.9807692308
 21
29.980019592
 31
0.0
  0
LINE
  5
1FE
330
1F
100
AcDbEntity
  8
0
  6
Continuous
 62
     7
370
    15
100
AcDbLine
 10
28.4990384615
 20
20.455019592
 30
0.0
 11
23.9807692308
 21
20.455019592
 31
0.0
  0
LINE
  5
1FF
330
1F
100
AcDbEntity
  8
0
  6
Continuous
 62
     7
370
    15
100
AcDbLine
 10
30.9413461538
 20
29.980019592
 30
0.0
 11
30.9413461538
 21
20.455019592
 31
0.0
  0
LINE
  5
200
330
1F
100
AcDbEntity
  8
0
  6
Continuous
 62
     7
370
    15
100
AcDbLine
 10
30.9413461538
 20
20.455019592
 30
0.0
 11
30.0865384615
 21
20.455019592
 31
0.0
  0
LINE
  5
201
330
1F
100
AcDbEntity
  8
0
  6
Continuous
 62
     7
370
    15
100
AcDbLine
 10
41.8096153846
 20
24.8511734381
 30
0.0
 11
41.8096153846
 21
20.455019592
 31
0.0
  0
LINE
  5
202
330
1F
100
AcDbEntity
  8
0
  6
Continuous
 62
     7
370
    15
100
AcDbLine
 10
40.9548076923
 20
29.980019592
 30
0.0
 11
42.860952524
 21
29.980019592
 31
0.0
  0
LINE
  5
203
330
1F
100
AcDbEntity
  8
0
  6
Continuous
 62
     7
370
    15
100
AcDbLine
 10
40.9548076923
 20
20.455019592
 30
0.0
 11
40.9548076923
 21
29.980019592
 31
0.0
  0
LINE
  5
204
330
1F
100
AcDbEntity
  8
0
  6
Continuous
 62
     7
370
    15
100
AcDbLine
 10
86.3092247596
 20
20.455019592
 30
0.0
 11
80.0317307692
 21
27.9345868997
 31
0.0
  0
LINE
  5
205
330
1F
100
AcDbEntity
  8
0
  6
Continuous
 62
     7
370
    15
100
AcDbLine
 10
86.5038461538
 20
20.455019592
 30
0.0
 11
86.3092247596
 21
20.455019592
 31
0.0
  0
LINE
  5
206
330
1F
100
AcDbEntity
  8
0
  6
Continuous
 62
     7
370
    15
100
AcDbLine
 10
86.5038461538
 20
29.980019592
 30
0.0
 11
86.5038461538
 21
20.455019592
 31
0.0
  0
LINE
  5
207
330
1F
100
AcDbEntity
  8
0
  6
Continuous
 62
     7
370
    15
100
AcDbLine
 10
85.6490384615
 20
29.980019592
 30
0.0
 11
86.5038461538
 21
29.980019592
 31
0.0
  0
LINE
  5
208
330
1F
100
AcDbEntity
  8
0
  6
Continuous
 62
     7
370
    15
100
AcDbLine
 10
85.6490384615
 20
22.4832798083
 30
0.0
 11
85.6490384615
 21
29.980019592
 31
0.0
  0
LINE
  5
209
330
1F
100
AcDbEntity
  8
0
  6
Continuous
 62
     7
370
    15
100
AcDbLine
 10
79.3562800481
 20
29.980019592
 30
0.0
 11
85.6490384615
 21
22.4832798083
 31
0.0
  0
LINE
  5
20A
330
1F
100
AcDbEntity
  8
0
  6
Continuous
 62
     7
370
    15
100
AcDbLine
 10
79.1769230769
 20
29.980019592
 30
0.0
 11
79.3562800481
 21
29.980019592
 31
0.0
  0
LINE
  5
20B
330
1F
100
AcDbEntity
  8
0
  6
Continuous
 62
     7
370
    15
100
AcDbLine
 10
79.1769230769
 20
20.455019592
 30
0.0
 11
79.1769230769
 21
29.980019592
 31
0.0
  0
LINE
  5
20C
330
1F
100
AcDbEntity
  8
0
  6
Continuous
 62
     7
370
    15
100
AcDbLine
 10
80.0317307692
 20
20.455019592
 30
0.0
 11
79.1769230769
 21
20.455019592
 31
0.0
  0
LINE
  5
20D
330
1F
100
AcDbEntity
  8
0
  6
Continuous
 62
     7
370
    15
100
AcDbLine
 10
80.0317307692
 20
27.9345868997
 30
0.0
 11
80.0317307692
 21
20.455019592
 31
0.0
  0
LINE
  5
20E
330
1F
100
AcDbEntity
  8
0
  6
Continuous
 62
     7
370
    15
100
AcDbLine
 10
36.6807692308
 20
7.9761734381
 30
0.0
 11
36.6807692308
 21
3.580019592
 31
0.0
  0
LINE
  5
20F
330
1F
100
AcDbEntity
  8
0
  6
Continuous
 62
     7
370
    15
100
AcDbLine
 10
37.3753004808
 20
7.9761734381
 30
0.0
 11
36.6807692308
 21
7.9761734381
 31
0.0
  0
LINE
  5
210
330
1F
100
AcDbEntity
  8
0
  6
Continuous
 62
     7
370
    15
100
AcDbLine
 10
41.9317307692
 20
3.580019592
 30
0.0
 11
40.8746694712
 21
3.580019592
 31
0.0
  0
LINE
  5
211
330
1F
100
AcDbEntity
  8
0
  6
Continuous
 62
     7
370
    15
100
AcDbLine
 10
38.4323617788
 20
7.9761734381
 30
0.0
 11
41.9317307692
 21
3.580019592
 31
0.0
  0
LINE
  5
212
330
1F
100
AcDbEntity
  8
0
  6
Continuous
 62
     7
370
    15
100
AcDbLine
 10
35.8259615385
 20
13.105019592
 30
0.0
 11
37.7321063702
 21
13.105019592
 31
0.0
  0
LINE
  5
213
330
1F
100
AcDbEntity
  8
0
  6
Continuous
 62
     7
370
    15
100
AcDbLine
 10
35.8259615385
 20
3.580019592
 30
0.0
 11
35.8259615385
 21
13.105019592
 31
0.0
  0
LINE
  5
214
330
1F
100
AcDbEntity
  8
0
  6
Continuous
 62
     7
370
    15
100
AcDbLine
 10
36.6807692308
 20
3.580019592
 30
0.0
 11
35.8259615385
 21
3.580019592
 31
0.0
  0
LINE
  5
215
330
1F
100
AcDbEntity
  8
0
  6
Continuous
 62
     7
370
    15
100
AcDbLine
 10
55.3644230769
 20
13.105019592
 30
0.0
 11
57.2228665865
 21
13.105019592
 31
0.0
  0
LINE
  5
216
330
1F
100
AcDbEntity
  8
0
  6
Continuous
 62
     7
370
    15
100
AcDbLine
 10
55.3644230769
 20
3.580019592
 30
0.0
 11
55.3644230769
 21
13.105019592
 31
0.0
  0
LINE
  5
217
330
1F
100
AcDbEntity
  8
0
  6
Continuous
 62
     7
370
    15
100
AcDbLine
 10
57.9402944712
 20
3.580019592
 30
0.0
 11
55.3644230769
 21
3.580019592
 31
0.0
  0
LINE
  5
218
330
1F
100
AcDbEntity
  8
0
  6
Continuous
 62
     7
370
    15
100
AcDbLine
 10
76.2461538462
 20
3.580019592
 30
0.0
 11
75.3913461538
 21
3.580019592
 31
0.0
  0
LINE
  5
219
330
1F
100
AcDbEntity
  8
0
  6
Continuous
 62
     7
370
    15
100
AcDbLine
 10
41.8096153846
 20
20.455019592
 30
0.0
 11
40.9548076923
 21
20.455019592
 31
0.0
  0
LINE
  5
21A
330
1F
100
AcDbEntity
  8
0
  6
Continuous
 62
     7
370
    15
100
AcDbLine
 10
4.0759615385
 20
37.330019592
 30
0.0
 11
3.2211538462
 21
37.330019592
 31
0.0
  0
LINE
  5
21B
330
1F
100
AcDbEntity
  8
0
  6
Continuous
 62
     7
370
    15
100
AcDbLine
 10
42.5041466346
 20
24.8511734381
 30
0.0
 11
41.8096153846
 21
24.8511734381
 31
0.0
  0
LINE
  5
21C
330
1F
100
AcDbEntity
  8
0
  6
Continuous
 62
     7
370
    15
100
AcDbLine
 10
46.003515625
 20
20.455019592
 30
0.0
 11
42.5041466346
 21
24.8511734381
 31
0.0
  0
LINE
  5
21D
330
1F
100
AcDbEntity
  8
0
  6
Continuous
 62
     7
370
    15
100
AcDbLine
 10
47.0605769231
 20
20.455019592
 30
0.0
 11
46.003515625
 21
20.455019592
 31
0.0
  0
LINE
  5
21E
330
1F
100
AcDbEntity
  8
0
  6
Continuous
 62
     7
370
    15
100
AcDbLine
 10
43.5612079327
 20
24.8511734381
 30
0.0
 11
47.0605769231
 21
20.455019592
 31
0.0
  0
LINE
  5
21F
330
1F
100
AcDbEntity
  8
0
  6
Continuous
 62
     7
370
    15
100
AcDbLine
 10
61.8365384615
 20
38.3069426689
 30
0.0
 11
61.8365384615
 21
37.330019592
 31
0.0
  0
LINE
  5
220
330
1F
100
AcDbEntity
  8
0
  6
Continuous
 62
     7
370
    15
100
AcDbLine
 10
29.8423076923
 20
46.855019592
 30
0.0
 11
30.6971153846
 21
46.855019592
 31
0.0
  0
LINE
  5
221
330
1F
100
AcDbEntity
  8
0
  6
Continuous
 62
     7
370
    15
100
AcDbLine
 10
46.6942307692
 20
37.330019592
 30
0.0
 11
46.6942307692
 21
46.855019592
 31
0.0
  0
LINE
  5
222
330
1F
100
AcDbEntity
  8
0
  6
Continuous
 62
     7
370
    15
100
AcDbLine
 10
49.6459885817
 20
37.330019592
 30
0.0
 11
46.6942307692
 21
37.330019592
 31
0.0
  0
LINE
  5
223
330
1F
100
AcDbEntity
  8
0
  6
Continuous
 62
     7
370
    15
100
AcDbLine
 10
41.3211538462
 20
37.330019592
 30
0.0
 11
35.9480769231
 21
37.330019592
 31
0.0
  0
LINE
  5
224
330
1F
100
AcDbEntity
  8
0
  6
Continuous
 62
     7
370
    15
100
AcDbLine
 10
41.3211538462
 20
38.3069426689
 30
0.0
 11
41.3211538462
 21
37.330019592
 31
0.0
  0
LINE
  5
225
330
1F
100
AcDbEntity
  8
0
  6
Continuous
 62
     7
370
    15
100
AcDbLine
 10
36.8028846154
 20
38.3069426689
 30
0.0
 11
41.3211538462
 21
38.3069426689
 31
0.0
  0
LINE
  5
226
330
1F
100
AcDbEntity
  8
0
  6
Continuous
 62
     7
370
    15
100
AcDbLine
 10
41.3211538462
 20
41.9704042074
 30
0.0
 11
36.8028846154
 21
41.9704042074
 31
0.0
  0
LINE
  5
227
330
1F
100
AcDbEntity
  8
0
  6
Continuous
 62
     7
370
    15
100
AcDbLine
 10
41.3211538462
 20
42.9473272843
 30
0.0
 11
41.3211538462
 21
41.9704042074
 31
0.0
  0
LINE
  5
228
330
1F
100
AcDbEntity
  8
0
  6
Continuous
 62
     7
370
    15
100
AcDbLine
 10
41.3211538462
 20
45.878096515
 30
0.0
 11
36.8028846154
 21
45.878096515
 31
0.0
  0
LINE
  5
229
330
1F
100
AcDbEntity
  8
0
  6
Continuous
 62
     7
370
    15
100
AcDbLine
 10
57.9288461538
 20
29.003096515
 30
0.0
 11
57.9288461538
 21
29.980019592
 31
0.0
  0
LINE
  5
22A
330
1F
100
AcDbEntity
  8
0
  6
Continuous
 62
     7
370
    15
100
AcDbLine
 10
61.8365384615
 20
42.9473272843
 30
0.0
 11
61.8365384615
 21
41.9704042074
 31
0.0
  0
LINE
  5
22B
330
1F
100
AcDbEntity
  8
0
  6
Continuous
 62
     7
370
    15
100
AcDbLine
 10
35.9595252404
 20
20.455019592
 30
0.0
 11
33.3836538462
 21
20.455019592
 31
0.0
  0
LINE
  5
22C
330
1F
100
AcDbEntity
  8
0
  6
Continuous
 62
     7
370
    15
100
AcDbLine
 10
9.3269230769
 20
37.330019592
 30
0.0
 11
8.2698617788
 21
37.330019592
 31
0.0
  0
LINE
  5
22D
330
1F
100
AcDbEntity
  8
0
  6
Continuous
 62
     7
370
    15
100
AcDbLine
 10
16.4096153846
 20
4.5569426689
 30
0.0
 11
16.4096153846
 21
3.580019592
 31
0.0
  0
LINE
  5
22E
330
1F
100
AcDbEntity
  8
0
  6
Continuous
 62
     7
370
    15
100
AcDbLine
 10
16.6538461538
 20
38.3069426689
 30
0.0
 11
16.6538461538
 21
37.330019592
 31
0.0
  0
LINE
  5
22F
330
1F
100
AcDbEntity
  8
0
  6
Continuous
 62
     7
370
    15
100
AcDbLine
 10
56.4634615385
 20
37.330019592
 30
0.0
 11
56.4634615385
 21
46.855019592
 31
0.0
  0
LINE
  5
230
330
1F
100
AcDbEntity
  8
0
  6
Continuous
 62
     7
370
    15
100
AcDbLine
 10
33.3836538462
 20
29.980019592
 30
0.0
 11
35.2420973558
 21
29.980019592
 31
0.0
  0
LINE
  5
231
330
1F
100
AcDbEntity
  8
0
  6
Continuous
 62
     7
370
    15
100
AcDbLine
 10
33.3836538462
 20
20.455019592
 30
0.0
 11
33.3836538462
 21
29.980019592
 31
0.0
  0
LINE
  5
232
330
1F
100
AcDbEntity
  8
0
  6
Continuous
 62
     7
370
    15
100
AcDbLine
 10
23.9807692308
 20
29.980019592
 30
0.0
 11
24.8355769231
 21
29.980019592
 31
0.0
  0
LINE
  5
233
330
1F
100
AcDbEntity
  8
0
  6
Continuous
 62
     7
370
    15
100
AcDbLine
 10
57.3182692308
 20
42.9473272843
 30
0.0
 11
61.8365384615
 21
42.9473272843
 31
0.0
  0
LINE
  5
234
330
1F
100
AcDbEntity
  8
0
  6
Continuous
 62
     7
370
    15
100
AcDbLine
 10
57.3182692308
 20
45.878096515
 30
0.0
 11
57.3182692308
 21
42.9473272843
 31
0.0
  0
LINE
  5
235
330
1F
100
AcDbEntity
  8
0
  6
Continuous
 62
     7
370
    15
100
AcDbLine
 10
30.0865384615
 20
29.980019592
 30
0.0
 11
30.9413461538
 21
29.980019592
 31
0.0
  0
LINE
  5
236
330
1F
100
AcDbEntity
  8
0
  6
Continuous
 62
     7
370
    15
100
AcDbLine
 10
30.0865384615
 20
20.455019592
 30
0.0
 11
30.0865384615
 21
29.980019592
 31
0.0
  0
LINE
  5
237
330
1F
100
AcDbEntity
  8
0
  6
Continuous
 62
     7
370
    15
100
AcDbLine
 10
27.0336538462
 20
40.9934811304
 30
0.0
 11
23.8586538462
 21
40.9934811304
 31
0.0
  0
LINE
  5
238
330
1F
100
AcDbEntity
  8
0
  6
Continuous
 62
     7
370
    15
100
AcDbLine
 10
57.3182692308
 20
38.3069426689
 30
0.0
 11
61.8365384615
 21
38.3069426689
 31
0.0
  0
LINE
  5
239
330
1F
100
AcDbEntity
  8
0
  6
Continuous
 62
     7
370
    15
100
AcDbLine
 10
19.9337890625
 20
23.5079042074
 30
0.0
 11
15.6158653846
 21
23.5079042074
 31
0.0
  0
LINE
  5
23A
330
1F
100
AcDbEntity
  8
0
  6
Continuous
 62
     7
370
    15
100
AcDbLine
 10
21.3419320913
 20
20.455019592
 30
0.0
 11
19.9337890625
 21
23.5079042074
 31
0.0
  0
LINE
  5
23B
330
1F
100
AcDbEntity
  8
0
  6
Continuous
 62
     7
370
    15
100
AcDbLine
 10
22.2711538462
 20
20.455019592
 30
0.0
 11
21.3419320913
 21
20.455019592
 31
0.0
  0
LINE
  5
23C
330
1F
100
AcDbEntity
  8
0
  6
Continuous
 62
     7
370
    15
100
AcDbLine
 10
4.7704927885
 20
41.7261734381
 30
0.0
 11
4.0759615385
 21
41.7261734381
 31
0.0
  0
LINE
  5
23D
330
1F
100
AcDbEntity
  8
0
  6
Continuous
 62
     7
370
    15
100
AcDbLine
 10
11.2807692308
 20
37.330019592
 30
0.0
 11
11.2807692308
 21
46.855019592
 31
0.0
  0
LINE
  5
23E
330
1F
100
AcDbEntity
  8
0
  6
Continuous
 62
     7
370
    15
100
AcDbLine
 10
23.8586538462
 20
40.9934811304
 30
0.0
 11
23.8586538462
 21
41.9704042074
 31
0.0
  0
LINE
  5
23F
330
1F
100
AcDbEntity
  8
0
  6
Continuous
 62
     7
370
    15
100
AcDbLine
 10
0.0
 20
-7.669980408
 30
0.0
 11
90.0
 21
-7.669980408
 31
0.0
  0
LINE
  5
240
330
1F
100
AcDbEntity
  8
0
  6
Continuous
 62
     7
370
    15
100
AcDbLine
 10
90.0
 20
-7.669980408
 30
0.0
 11
90.0
 21
87.330019592
 31
0.0
  0
LINE
  5
241
330
1F
100
AcDbEntity
  8
0
  6
Continuous
 62
     7
370
    15
100
AcDbLine
 10
61.8365384615
 20
41.9704042074
 30
0.0
 11
57.3182692308
 21
41.9704042074
 31
0.0
  0
LINE
  5
242
330
1F
100
AcDbEntity
  8
0
  6
Continuous
 62
     7
370
    15
100
AcDbLine
 10
17.875
 20
29.980019592
 30
0.0
 11
22.2711538462
 21
20.455019592
 31
0.0
  0
LINE
  5
243
330
1F
100
AcDbEntity
  8
0
  6
Continuous
 62
     7
370
    15
100
AcDbLine
 10
17.7528846154
 20
29.980019592
 30
0.0
 11
17.875
 21
29.980019592
 31
0.0
  0
LINE
  5
244
330
1F
100
AcDbEntity
  8
0
  6
Continuous
 62
     7
370
    15
100
AcDbLine
 10
40.8746694712
 20
3.580019592
 30
0.0
 11
37.3753004808
 21
7.9761734381
 31
0.0
  0
LINE
  5
245
330
1F
100
AcDbEntity
  8
0
  6
Continuous
 62
     7
370
    15
100
AcDbLine
 10
61.8365384615
 20
46.855019592
 30
0.0
 11
61.8365384615
 21
45.878096515
 31
0.0
  0
LINE
  5
246
330
1F
100
AcDbEntity
  8
0
  6
Continuous
 62
     7
370
    15
100
AcDbLine
 10
4.7571364183
 20
7.9761734381
 30
0.0
 11
4.0759615385
 21
7.9761734381
 31
0.0
  0
LINE
  5
247
330
1F
100
AcDbEntity
  8
0
  6
Continuous
 62
     7
370
    15
100
AcDbLine
 10
56.4634615385
 20
46.855019592
 30
0.0
 11
61.8365384615
 21
46.855019592
 31
0.0
  0
LINE
  5
248
330
1F
100
AcDbEntity
  8
0
  6
Continuous
 62
     7
370
    15
100
AcDbLine
 10
90.0
 20
87.330019592
 30
0.0
 11
60.0
 21
87.330019592
 31
0.0
  0
LINE
  5
249
330
1F
100
AcDbEntity
  8
0
  6
Continuous
 62
     7
370
    15
100
AcDbLine
 10
12.0134615385
 20
28.2322431497
 30
0.0
 11
11.2655048077
 21
27.6598272843
 31
0.0
  0
LINE
  5
24A
330
1F
100
AcDbEntity
  8
0
  6
Continuous
 62
     7
370
    15
100
AcDbLine
 10
57.3182692308
 20
41.9704042074
 30
0.0
 11
57.3182692308
 21
38.3069426689
 31
0.0
  0
LINE
  5
24B
330
1F
100
AcDbEntity
  8
0
  6
Continuous
 62
     7
370
    15
100
AcDbLine
 10
11.2807692308
 20
46.855019592
 30
0.0
 11
16.6538461538
 21
46.855019592
 31
0.0
  0
LINE
  5
24C
330
1F
100
AcDbEntity
  8
0
  6
Continuous
 62
     7
370
    15
100
AcDbLine
 10
3.2211538462
 20
37.330019592
 30
0.0
 11
3.2211538462
 21
46.855019592
 31
0.0
  0
LINE
  5
24D
330
1F
100
AcDbEntity
  8
0
  6
Continuous
 62
     7
370
    15
100
AcDbLine
 10
4.0759615385
 20
41.7261734381
 30
0.0
 11
4.0759615385
 21
37.330019592
 31
0.0
  0
LINE
  5
24E
330
1F
100
AcDbEntity
  8
0
  6
Continuous
 62
     7
370
    15
100
AcDbLine
 10
60.0
 20
52.330019592
 30
0.0
 11
0.0
 21
52.330019592
 31
0.0
  0
LINE
  5
24F
330
1F
100
AcDbEntity
  8
0
  6
Continuous
 62
     7
370
    15
100
AcDbLine
 10
8.2698617788
 20
37.330019592
 30
0.0
 11
4.7704927885
 21
41.7261734381
 31
0.0
  0
LINE
  5
250
330
1F
100
AcDbEntity
  8
0
  6
Continuous
 62
     7
370
    15
100
AcDbLine
 10
16.6538461538
 20
45.878096515
 30
0.0
 11
12.1355769231
 21
45.878096515
 31
0.0
  0
LINE
  5
251
330
1F
100
AcDbEntity
  8
0
  6
Continuous
 62
     7
370
    15
100
AcDbLine
 10
60.0
 20
87.330019592
 30
0.0
 11
60.0
 21
52.330019592
 31
0.0
  0
LINE
  5
252
330
1F
100
AcDbEntity
  8
0
  6
Continuous
 62
     7
370
    15
100
AcDbLine
 10
23.8586538462
 20
41.9704042074
 30
0.0
 11
27.8884615385
 21
41.9704042074
 31
0.0
  0
LINE
  5
253
330
1F
100
AcDbEntity
  8
0
  6
Continuous
 62
     7
370
    15
100
AcDbLine
 10
16.4096153846
 20
12.128096515
 30
0.0
 11
11.8913461538
 21
12.128096515
 31
0.0
  0
LINE
  5
254
330
1F
100
AcDbEntity
  8
0
  6
Continuous
 62
     7
370
    15
100
AcDbLine
 10
61.8365384615
 20
45.878096515
 30
0.0
 11
57.3182692308
 21
45.878096515
 31
0.0
  0
LINE
  5
255
330
1F
100
AcDbEntity
  8
0
  6
Continuous
 62
     7
370
    15
100
AcDbLine
 10
57.3182692308
 20
20.455019592
 30
0.0
 11
56.389047476
 21
20.455019592
 31
0.0
  0
LINE
  5
256
330
1F
100
AcDbEntity
  8
0
  6
Continuous
 62
     7
370
    15
100
AcDbLine
 10
12.1355769231
 20
42.9473272843
 30
0.0
 11
16.6538461538
 21
42.9473272843
 31
0.0
  0
LINE
  5
257
330
1F
100
AcDbEntity
  8
0
  6
Continuous
 62
     7
370
    15
100
AcDbLine
 10
35.9480769231
 20
37.330019592
 30
0.0
 11
35.9480769231
 21
46.855019592
 31
0.0
  0
LINE
  5
258
330
1F
100
AcDbEntity
  8
0
  6
Continuous
 62
     7
370
    15
100
AcDbLine
 10
3.2211538462
 20
46.855019592
 30
0.0
 11
5.1272986779
 21
46.855019592
 31
0.0
  0
LINE
  5
259
330
1F
100
AcDbEntity
  8
0
  6
Continuous
 62
     7
370
    15
100
AcDbLine
 10
29.8423076923
 20
37.330019592
 30
0.0
 11
29.8423076923
 21
46.855019592
 31
0.0
  0
LINE
  5
25A
330
1F
100
AcDbEntity
  8
0
  6
Continuous
 62
     7
370
    15
100
AcDbLine
 10
12.1355769231
 20
45.878096515
 30
0.0
 11
12.1355769231
 21
42.9473272843
 31
0.0
  0
LINE
  5
25B
330
1F
100
AcDbEntity
  8
0
  6
Continuous
 62
     7
370
    15
100
AcDbLine
 10
16.6538461538
 20
46.855019592
 30
0.0
 11
16.6538461538
 21
45.878096515
 31
0.0
  0
LINE
  5
25C
330
1F
100
AcDbEntity
  8
0
  6
Continuous
 62
     7
370
    15
100
AcDbLine
 10
5.8275540865
 20
41.7261734381
 30
0.0
 11
9.3269230769
 21
37.330019592
 31
0.0
  0
LINE
  5
25D
330
1F
100
AcDbEntity
  8
0
  6
Continuous
 62
     7
370
    15
100
AcDbLine
 10
41.8096153846
 20
29.003096515
 30
0.0
 11
41.8096153846
 21
25.828096515
 31
0.0
  0
LINE
  5
25E
330
1F
100
AcDbEntity
  8
0
  6
Continuous
 62
     7
370
    15
100
AcDbLine
 10
41.8096153846
 20
25.828096515
 30
0.0
 11
43.5535757212
 21
25.8147401449
 31
0.0
  0
LINE
  5
25F
330
1F
100
AcDbEntity
  8
0
  6
Continuous
 62
     7
370
    15
100
AcDbLine
 10
43.5955528846
 20
29.003096515
 30
0.0
 11
41.8096153846
 21
29.003096515
 31
0.0
  0
LINE
  5
260
330
1F
100
AcDbEntity
  8
0
  6
Continuous
 62
     7
370
    15
100
AcDbLine
 10
54.5306039663
 20
24.4848272843
 30
0.0
 11
52.8515174279
 21
28.1234841352
 31
0.0
  0
LINE
  5
261
330
1F
100
AcDbEntity
  8
0
  6
Continuous
 62
     7
370
    15
100
AcDbLine
 10
52.8515174279
 20
28.1234841352
 30
0.0
 11
51.1266376202
 21
24.4848272843
 31
0.0
  0
LINE
  5
262
330
1F
100
AcDbEntity
  8
0
  6
Continuous
 62
     7
370
    15
100
AcDbLine
 10
51.1266376202
 20
24.4848272843
 30
0.0
 11
54.5306039663
 21
24.4848272843
 31
0.0
  0
LINE
  5
263
330
1F
100
AcDbEntity
  8
0
  6
Continuous
 62
     7
370
    15
100
AcDbLine
 10
36.6807692308
 20
8.953096515
 30
0.0
 11
38.4247295673
 21
8.9397401449
 31
0.0
  0
LINE
  5
264
330
1F
100
AcDbEntity
  8
0
  6
Continuous
 62
     7
370
    15
100
AcDbLine
 10
38.4667067308
 20
12.128096515
 30
0.0
 11
36.6807692308
 21
12.128096515
 31
0.0
  0
LINE
  5
265
330
1F
100
AcDbEntity
  8
0
  6
Continuous
 62
     7
370
    15
100
AcDbLine
 10
36.6807692308
 20
12.128096515
 30
0.0
 11
36.6807692308
 21
8.953096515
 31
0.0
  0
LINE
  5
266
330
1F
100
AcDbEntity
  8
0
  6
Continuous
 62
     7
370
    15
100
AcDbLine
 10
34.2384615385
 20
25.9502118997
 30
0.0
 11
34.8127854567
 21
25.9502118997
 31
0.0
  0
LINE
  5
267
330
1F
100
AcDbEntity
  8
0
  6
Continuous
 62
     7
370
    15
100
AcDbLine
 10
34.2384615385
 20
29.003096515
 30
0.0
 11
34.2384615385
 21
25.9502118997
 31
0.0
  0
LINE
  5
268
330
1F
100
AcDbEntity
  8
0
  6
Continuous
 62
     7
370
    15
100
AcDbLine
 10
35.3985576923
 20
29.003096515
 30
0.0
 11
34.2384615385
 21
29.003096515
 31
0.0
  0
LINE
  5
269
330
1F
100
AcDbEntity
  8
0
  6
Continuous
 62
     7
370
    15
100
AcDbLine
 10
4.0759615385
 20
12.128096515
 30
0.0
 11
4.0759615385
 21
8.953096515
 31
0.0
  0
LINE
  5
26A
330
1F
100
AcDbEntity
  8
0
  6
Continuous
 62
     7
370
    15
100
AcDbLine
 10
4.0759615385
 20
8.953096515
 30
0.0
 11
5.7435997596
 21
8.9321079333
 31
0.0
  0
LINE
  5
26B
330
1F
100
AcDbEntity
  8
0
  6
Continuous
 62
     7
370
    15
100
AcDbLine
 10
5.8180138221
 20
12.128096515
 30
0.0
 11
4.0759615385
 21
12.128096515
 31
0.0
  0
LINE
  5
26C
330
1F
100
AcDbEntity
  8
0
  6
Continuous
 62
     7
370
    15
100
AcDbLine
 10
16.0795222356
 20
24.4848272843
 30
0.0
 11
19.4834885817
 21
24.4848272843
 31
0.0
  0
LINE
  5
26D
330
1F
100
AcDbEntity
  8
0
  6
Continuous
 62
     7
370
    15
100
AcDbLine
 10
17.8044020433
 20
28.1234841352
 30
0.0
 11
16.0795222356
 21
24.4848272843
 31
0.0
  0
LINE
  5
26E
330
1F
100
AcDbEntity
  8
0
  6
Continuous
 62
     7
370
    15
100
AcDbLine
 10
19.4834885817
 20
24.4848272843
 30
0.0
 11
17.8044020433
 21
28.1234841352
 31
0.0
  0
LINE
  5
26F
330
1F
100
AcDbEntity
  8
0
  6
Continuous
 62
     7
370
    15
100
AcDbLine
 10
56.2192307692
 20
4.5569426689
 30
0.0
 11
57.4365685096
 21
4.5569426689
 31
0.0
  0
LINE
  5
270
330
1F
100
AcDbEntity
  8
0
  6
Continuous
 62
     7
370
    15
100
AcDbLine
 10
56.2192307692
 20
8.0982888227
 30
0.0
 11
56.2192307692
 21
4.5569426689
 31
0.0
  0
LINE
  5
271
330
1F
100
AcDbEntity
  8
0
  6
Continuous
 62
     7
370
    15
100
AcDbLine
 10
56.785922476
 20
8.0982888227
 30
0.0
 11
56.2192307692
 21
8.0982888227
 31
0.0
  0
LINE
  5
272
330
1F
100
AcDbEntity
  8
0
  6
Continuous
 62
     7
370
    15
100
AcDbLine
 10
57.3793269231
 20
12.128096515
 30
0.0
 11
56.2192307692
 21
12.128096515
 31
0.0
  0
LINE
  5
273
330
1F
100
AcDbEntity
  8
0
  6
Continuous
 62
     7
370
    15
100
AcDbLine
 10
56.2192307692
 20
9.0752118997
 30
0.0
 11
56.7935546875
 21
9.0752118997
 31
0.0
  0
LINE
  5
274
330
1F
100
AcDbEntity
  8
0
  6
Continuous
 62
     7
370
    15
100
AcDbLine
 10
56.2192307692
 20
12.128096515
 30
0.0
 11
56.2192307692
 21
9.0752118997
 31
0.0
  0
ENDSEC
  0
SECTION
  2
OBJECTS
  0
DICTIONARY
  5
C
330
0
100
AcDbDictionary
281
     1
  3
ACAD_GROUP
350
D
  3
ACAD_LAYOUT
350
1A
  3
ACAD_MLINESTYLE
350
17
  3
ACAD_PLOTSETTINGS
350
19
  3
ACAD_PLOTSTYLENAME
350
E
  3
ACAD_SCALELIST
350
47
  0
DICTIONARY
  5
D
102
{ACAD_REACTORS
330
C
102
}
330
C
100
AcDbDictionary
281
     1
  0
DICTIONARY
  5
1A
102
{ACAD_REACTORS
330
C
102
}
330
C
100
AcDbDictionary
281
     1
  3
Layout1
350
1E
  3
Layout2
350
26
  3
Model
350
22
  0
DICTIONARY
  5
17
102
{ACAD_REACTORS
330
C
102
}
330
C
100
AcDbDictionary
281
     1
  3
Standard
350
18
  0
DICTIONARY
  5
19
102
{ACAD_REACTORS
330
C
102
}
330
C
100
AcDbDictionary
281
     1
  0
ACDBDICTIONARYWDFLT
  5
E
102
{ACAD_REACTORS
330
C
102
}
330
C
100
AcDbDictionary
281
     1
  3
Normal
350
F
100
AcDbDictionaryWithDefault
340
F
  0
DICTIONARY
  5
47
102
{ACAD_REACTORS
330
C
102
}
330
C
100
AcDbDictionary
281
     1
  3
A0
350
48
  3
A1
350
49
  3
A2
350
4A
  3
A3
350
4B
  3
A4
350
4C
  3
A5
350
4D
  3
A6
350
4E
  3
A7
350
4F
  3
A8
350
50
  3
A9
350
51
  3
B0
350
52
  3
B1
350
53
  3
B2
350
54
  3
B3
350
55
  3
B4
350
56
  3
B5
350
57
  3
B6
350
58
  3
B7
350
59
  3
B8
350
5A
  3
B9
350
5B
  3
C0
350
5C
  3
C1
350
5D
  3
C2
350
5E
  3
C3
350
5F
  3
C4
350
60
  3
C5
350
61
  3
C6
350
62
  3
C7
350
63
  3
C8
350
64
  3
C9
350
65
  3
D0
350
66
  3
D1
350
67
  3
D2
350
68
  0
LAYOUT
  5
1E
102
{ACAD_REACTORS
330
1A
102
}
330
1A
100
AcDbPlotSettings
  1

  2
none_device
  4

  6

 40
0.0
 41
0.0
 42
0.0
 43
0.0
 44
0.0
 45
0.0
 46
0.0
 47
0.0
 48
0.0
 49
0.0
140
0.0
141
0.0
142
1.0
143
1.0
 70
   688
 72
     1
 73
     0
 74
     5
  7

 75
    16
147
1.0
148
0.0
149
0.0
100
AcDbLayout
  1
Layout1
 70
     1
 71
     1
 10
0.0
 20
0.0
 11
420.0
 21
297.0
 12
0.0
 22
0.0
 32
0.0
 14
1.0000000000E+20
 24
1.0000000000E+20
 34
1.0000000000E+20
 15
-1.0000000000E+20
 25
-1.0000000000E+20
 35
-1.0000000000E+20
146
0.0
 13
0.0
 23
0.0
 33
0.0
 16
1.0
 26
0.0
 36
0.0
 17
0.0
 27
1.0
 37
0.0
 76
     0
330
1B
  0
LAYOUT
  5
26
102
{ACAD_REACTORS
330
1A
102
}
330
1A
100
AcDbPlotSettings
  1

  2
none_device
  4

  6

 40
0.0
 41
0.0
 42
0.0
 43
0.0
 44
0.0
 45
0.0
 46
0.0
 47
0.0
 48
0.0
 49
0.0
140
0.0
141
0.0
142
1.0
143
1.0
 70
   688
 72
     1
 73
     0
 74
     5
  7

 75
    16
147
1.0
148
0.0
149
0.0
100
AcDbLayout
  1
Layout2
 70
     1
 71
     2
 10
0.0
 20
0.0
 11
0.0
 21
0.0
 12
0.0
 22
0.0
 32
0.0
 14
0.0
 24
0.0
 34
0.0
 15
0.0
 25
0.0
 35
0.0
146
0.0
 13
0.0
 23
0.0
 33
0.0
 16
1.0
 26
0.0
 36
0.0
 17
0.0
 27
1.0
 37
0.0
 76
     0
330
23
  0
LAYOUT
  5
22
102
{ACAD_REACTORS
330
1A
102
}
330
1A
100
AcDbPlotSettings
  1

  2
none_device
  4
ANSI_A_(11.00_x_8.50_Inches)
  6

 40
6.35
 41
19.05
 42
6.35000508
 43
19.05000254
 44
279.4
 45
215.9
 46
32.1042606179
 47
-0.7137719817
 48
0.0
 49
0.0
140
0.0
141
0.0
142
0.0885789474
143
1.0
 70
  1696
 72
     0
 73
     0
 74
     0
  7

 75
     0
147
0.0179189148
148
-1300.4909072572
149
0.0
100
AcDbLayout
  1
Model
 70
     1
 71
     0
 10
0.0
 20
0.0
 11
420.0
 21
297.0
 12
0.0
 22
0.0
 32
0.0
 14
0.0
 24
-7.669980408
 34
0.0
 15
90.0
 25
87.330019592
 35
0.0
146
0.0
 13
0.0
 23
0.0
 33
0.0
 16
1.0
 26
0.0
 36
0.0
 17
0.0
 27
1.0
 37
0.0
 76
     0
330
1F
331
29
  0
MLINESTYLE
  5
18
102
{ACAD_REACTORS
330
17
102
}
330
17
100
AcDbMlineStyle
  2
Standard
 70
     0
  3

 62
   256
 51
90.0
 52
90.0
 71
     2
 49
0.5
 62
   256
  6
BYLAYER
 49
-0.5
 62
   256
  6
BYLAYER
  0
ACDBPLACEHOLDER
  5
F
102
{ACAD_REACTORS
330
E
102
}
330
E
  0
SCALE
  5
48
102
{ACAD_REACTORS
330
47
102
}
330
47
100
AcDbScale
 70
     0
300
1:1
140
1.0
141
1.0
290
     1
  0
SCALE
  5
49
102
{ACAD_REACTORS
330
47
102
}
330
47
100
AcDbScale
 70
     0
300
1:2
140
1.0
141
2.0
290
     0
  0
SCALE
  5
4A
102
{ACAD_REACTORS
330
47
102
}
330
47
100
AcDbScale
 70
     0
300
1:4
140
1.0
141
4.0
290
     0
  0
SCALE
  5
4B
102
{ACAD_REACTORS
330
47
102
}
330
47
100
AcDbScale
 70
     0
300
1:5
140
1.0
141
5.0
290
     0
  0
SCALE
  5
4C
102
{ACAD_REACTORS
330
47
102
}
330
47
100
AcDbScale
 70
     0
300
1:8
140
1.0
141
8.0
290
     0
  0
SCALE
  5
4D
102
{ACAD_REACTORS
330
47
102
}
330
47
100
AcDbScale
 70
     0
300
1:10
140
1.0
141
10.0
290
     0
  0
SCALE
  5
4E
102
{ACAD_REACTORS
330
47
102
}
330
47
100
AcDbScale
 70
     0
300
1:16
140
1.0
141
16.0
290
     0
  0
SCALE
  5
4F
102
{ACAD_REACTORS
330
47
102
}
330
47
100
AcDbScale
 70
     0
300
1:20
140
1.0
141
20.0
290
     0
  0
SCALE
  5
50
102
{ACAD_REACTORS
330
47
102
}
330
47
100
AcDbScale
 70
     0
300
1:30
140
1.0
141
30.0
290
     0
  0
SCALE
  5
51
102
{ACAD_REACTORS
330
47
102
}
330
47
100
AcDbScale
 70
     0
300
1:40
140
1.0
141
40.0
290
     0
  0
SCALE
  5
52
102
{ACAD_REACTORS
330
47
102
}
330
47
100
AcDbScale
 70
     0
300
1:50
140
1.0
141
50.0
290
     0
  0
SCALE
  5
53
102
{ACAD_REACTORS
330
47
102
}
330
47
100
AcDbScale
 70
     0
300
1:100
140
1.0
141
100.0
290
     0
  0
SCALE
  5
54
102
{ACAD_REACTORS
330
47
102
}
330
47
100
AcDbScale
 70
     0
300
2:1
140
2.0
141
1.0
290
     0
  0
SCALE
  5
55
102
{ACAD_REACTORS
330
47
102
}
330
47
100
AcDbScale
 70
     0
300
4:1
140
4.0
141
1.0
290
     0
  0
SCALE
  5
56
102
{ACAD_REACTORS
330
47
102
}
330
47
100
AcDbScale
 70
     0
300
8:1
140
8.0
141
1.0
290
     0
  0
SCALE
  5
57
102
{ACAD_REACTORS
330
47
102
}
330
47
100
AcDbScale
 70
     0
300
10:1
140
10.0
141
1.0
290
     0
  0
SCALE
  5
58
102
{ACAD_REACTORS
330
47
102
}
330
47
100
AcDbScale
 70
     0
300
100:1
140
100.0
141
1.0
290
     0
  0
SCALE
  5
59
102
{ACAD_REACTORS
330
47
102
}
330
47
100
AcDbScale
 70
     0
300
1/128" = 1'-0"
140
0.0078125
141
12.0
290
     0
  0
SCALE
  5
5A
102
{ACAD_REACTORS
330
47
102
}
330
47
100
AcDbScale
 70
     0
300
1/64" = 1'-0"
140
0.015625
141
12.0
290
     0
  0
SCALE
  5
5B
102
{ACAD_REACTORS
330
47
102
}
330
47
100
AcDbScale
 70
     0
300
1/32" = 1'-0"
140
0.03125
141
12.0
290
     0
  0
SCALE
  5
5C
102
{ACAD_REACTORS
330
47
102
}
330
47
100
AcDbScale
 70
     0
300
1/16" = 1'-0"
140
0.0625
141
12.0
290
     0
  0
SCALE
  5
5D
102
{ACAD_REACTORS
330
47
102
}
330
47
100
AcDbScale
 70
     0
300
3/32" = 1'-0"
140
0.09375
141
12.0
290
     0
  0
SCALE
  5
5E
102
{ACAD_REACTORS
330
47
102
}
330
47
100
AcDbScale
 70
     0
300
1/8" = 1'-0"
140
0.125
141
12.0
290
     0
  0
SCALE
  5
5F
102
{ACAD_REACTORS
330
47
102
}
330
47
100
AcDbScale
 70
     0
300
3/16" = 1'-0"
140
0.1875
141
12.0
290
     0
  0
SCALE
  5
60
102
{ACAD_REACTORS
330
47
102
}
330
47
100
AcDbScale
 70
     0
300
1/4" = 1'-0"
140
0.25
141
12.0
290
     0
  0
SCALE
  5
61
102
{ACAD_REACTORS
330
47
102
}
330
47
100
AcDbScale
 70
     0
300
3/8" = 1'-0"
140
0.375
141
12.0
290
     0
  0
SCALE
  5
62
102
{ACAD_REACTORS
330
47
102
}
330
47
100
AcDbScale
 70
     0
300
1/2" = 1'-0"
140
0.5
141
12.0
290
     0
  0
SCALE
  5
63
102
{ACAD_REACTORS
330
47
102
}
330
47
100
AcDbScale
 70
     0
300
3/4" = 1'-0"
140
0.75
141
12.0
290
     0
  0
SCALE
  5
64
102
{ACAD_REACTORS
330
47
102
}
330
47
100
AcDbScale
 70
     0
300
1" = 1'-0"
140
1.0
141
12.0
290
     0
  0
SCALE
  5
65
102
{ACAD_REACTORS
330
47
102
}
330
47
100
AcDbScale
 70
     0
300
1-1/2" = 1'-0"
140
1.5
141
12.0
290
     0
  0
SCALE
  5
66
102
{ACAD_REACTORS
330
47
102
}
330
47
100
AcDbScale
 70
     0
300
3" = 1'-0"
140
3.0
141
12.0
290
     0
  0
SCALE
  5
67
102
{ACAD_REACTORS
330
47
102
}
330
47
100
AcDbScale
 70
     0
300
6" = 1'-0"
140
6.0
141
12.0
290
     0
  0
SCALE
  5
68
102
{ACAD_REACTORS
330
47
102
}
330
47
100
AcDbScale
 70
     0
300
1'-0" = 1'-0"
140
12.0
141
12.0
290
     0
  0
ENDSEC
  0
EOF
